<?xml version="1.0" standalone="no"?>
<!DOCTYPE svg PUBLIC "-//W3C//DTD SVG 20010904//EN"
 "http://www.w3.org/TR/2001/REC-SVG-20010904/DTD/svg10.dtd">
<svg version="1.0" xmlns="http://www.w3.org/2000/svg"
 width="840.000000pt" height="550.000000pt" viewBox="0 0 840.000000 550.000000"
 preserveAspectRatio="xMidYMid meet">
<metadata>
Created by potrace 1.16, written by Peter Selinger 2001-2019
</metadata>
<g transform="translate(0.000000,550.000000) scale(0.100000,-0.100000)"
fill="#000000" stroke="none">
<path d="M3579 5153 c-15 -2 -35 -13 -45 -24 -9 -10 -21 -19 -26 -19 -25 0
-111 -77 -132 -119 -35 -69 -51 -236 -25 -268 12 -14 9 -20 -26 -47 -81 -63
-140 -130 -154 -176 -7 -25 -20 -66 -28 -92 -16 -51 -20 -277 -8 -363 7 -43
56 -150 76 -165 3 -3 14 -20 23 -37 27 -53 38 -41 35 35 -3 54 -1 67 11 67 12
0 15 -15 16 -73 1 -63 4 -75 22 -88 12 -8 22 -21 22 -27 1 -18 86 -79 123 -86
l32 -7 -40 -27 c-22 -15 -52 -27 -67 -27 -30 0 -68 -27 -68 -47 0 -7 9 -30 20
-50 29 -54 24 -83 -8 -51 -21 21 -14 -29 12 -80 31 -62 127 -187 180 -235 61
-56 196 -142 293 -187 47 -22 89 -40 94 -40 5 0 9 -3 9 -8 0 -4 18 -15 40 -25
32 -14 58 -16 136 -11 135 8 191 30 242 97 66 88 72 100 72 146 0 48 -44 206
-60 216 -14 9 -13 -28 1 -42 15 -15 20 -127 7 -166 -6 -18 -17 -39 -24 -47
-12 -12 -14 -11 -14 7 0 12 4 24 8 27 12 7 2 86 -11 83 -16 -3 -37 45 -47 110
-8 49 -7 60 6 70 19 14 16 79 -3 75 -8 -1 -13 9 -13 25 0 23 2 25 11 13 9 -12
9 -11 4 5 -14 38 -22 95 -15 100 4 3 10 18 13 35 4 18 13 30 22 30 18 0 20
-26 3 -33 -7 -2 -11 -7 -8 -10 3 -3 18 5 33 17 26 21 27 24 13 51 -8 16 -12
33 -8 39 3 6 5 19 3 29 -2 14 2 18 16 14 10 -3 28 -8 41 -12 17 -5 22 -2 22
13 0 10 7 33 16 51 18 36 48 170 40 178 -3 3 1 22 10 41 12 31 13 37 1 44 -18
10 -10 58 10 58 11 0 12 8 7 38 -7 39 -32 110 -45 127 -4 6 -15 39 -24 75 -18
71 -49 130 -108 204 -28 37 -37 55 -31 70 4 12 9 44 11 71 4 40 -1 60 -23 100
-14 28 -32 66 -39 86 -31 86 -113 161 -220 201 -74 28 -95 32 -95 18 0 -9 -17
-11 -67 -6 -38 3 -86 8 -108 10 -22 2 -45 0 -50 -5 -12 -9 -38 4 -33 17 3 10
-42 14 -83 7z m-43 -859 c28 -29 28 -27 12 -73 -18 -49 -33 -63 -71 -63 -97 1
-114 47 -42 118 25 24 53 44 62 44 9 0 26 -11 39 -26z"/>
<path d="M2672 5036 c-15 -11 -29 -24 -30 -28 -2 -5 -39 -5 -83 -2 -47 4 -79
3 -79 -3 0 -5 -17 -15 -37 -22 -21 -8 -41 -18 -44 -23 -3 -5 -22 -11 -42 -15
-30 -4 -37 -3 -37 11 0 9 7 16 15 16 8 0 15 5 15 11 0 14 -74 4 -139 -17 -24
-8 -64 -17 -88 -21 -23 -3 -43 -9 -43 -13 0 -14 -75 -20 -310 -23 -246 -4
-330 -12 -330 -32 0 -8 -21 -12 -62 -13 -78 -2 -103 13 -93 56 5 24 1 35 -16
51 -13 12 -28 22 -33 22 -6 1 -22 3 -36 4 -23 2 -69 8 -265 35 -188 25 -186
25 -270 -14 -42 -20 -79 -36 -82 -36 -3 0 -18 -10 -35 -21 -41 -29 -25 -41 82
-63 47 -10 87 -21 90 -25 7 -9 176 -53 232 -60 27 -4 57 -15 72 -28 14 -12 41
-25 60 -29 48 -8 46 -22 -4 -30 -22 -4 -40 -11 -40 -16 0 -5 -21 -9 -47 -7
-60 3 -193 -11 -193 -21 0 -4 -55 -10 -122 -13 -378 -19 -513 -29 -516 -38 -2
-5 -39 -9 -83 -9 l-79 0 0 -210 c0 -115 3 -210 8 -210 4 1 25 19 47 41 36 36
83 63 210 119 22 10 88 41 147 69 87 41 124 53 196 62 110 14 231 0 321 -36
33 -14 65 -25 71 -25 5 0 33 -11 62 -25 48 -23 95 -35 302 -80 44 -10 104 -35
164 -68 52 -28 115 -63 141 -77 25 -14 64 -43 85 -64 22 -22 49 -41 61 -42 12
-1 51 -20 86 -41 51 -32 67 -47 78 -79 23 -64 55 -82 174 -98 57 -8 113 -18
123 -24 35 -19 44 -53 46 -182 l3 -125 80 0 c48 -1 93 -7 113 -15 33 -15 34
-14 59 14 24 28 25 34 19 115 -9 129 -9 194 3 456 14 313 47 555 65 475 8 -34
26 -594 26 -799 0 -175 4 -191 45 -191 12 0 26 5 33 12 9 9 12 184 12 728 0
393 -4 720 -8 727 -12 18 -70 12 -100 -11z"/>
<path d="M5557 4993 c-50 -3 -66 -7 -60 -16 18 -29 12 -42 -19 -44 -17 -1 -35
-7 -38 -13 -4 -7 -41 -11 -89 -11 -88 0 -125 -13 -136 -50 -4 -10 -12 -19 -19
-19 -7 0 -31 -9 -54 -20 -33 -16 -42 -26 -42 -46 0 -19 4 -25 15 -20 9 3 15 0
15 -9 0 -11 -6 -12 -22 -7 -27 10 -58 5 -58 -9 0 -15 -22 -35 -45 -43 -11 -3
-26 -18 -32 -33 -7 -16 -28 -38 -47 -51 -21 -15 -36 -34 -40 -53 -3 -17 -10
-28 -16 -24 -5 3 -22 -18 -37 -48 -16 -30 -41 -76 -57 -101 -52 -85 -55 -138
-10 -227 32 -65 51 -81 84 -74 25 5 28 2 54 -58 15 -36 38 -74 52 -86 14 -12
22 -27 18 -33 -5 -8 -1 -9 10 -5 13 5 17 3 13 -7 -4 -9 5 -21 19 -31 14 -9 23
-23 20 -30 -2 -7 2 -16 10 -19 23 -9 23 -9 22 24 -1 34 6 45 22 35 18 -11 1
-68 -26 -91 l-25 -21 19 -34 c14 -26 27 -35 55 -40 20 -3 46 -14 56 -23 11
-10 24 -15 30 -12 5 4 14 -2 20 -11 7 -12 10 -13 11 -4 0 10 3 11 13 2 8 -6
17 -8 20 -4 4 3 7 1 7 -5 0 -7 6 -12 13 -12 23 0 40 -17 31 -31 -5 -8 -9 -24
-9 -36 -1 -20 4 -23 41 -23 68 0 67 -26 -1 -60 -16 -8 -38 -22 -48 -32 -10
-10 -24 -16 -30 -12 -7 3 1 -6 17 -21 25 -23 35 -26 68 -21 34 6 39 4 47 -17
10 -25 51 -57 73 -57 7 0 21 -14 31 -31 16 -29 20 -31 58 -25 47 8 69 -5 69
-39 0 -37 44 -81 96 -95 28 -8 48 -10 52 -4 11 16 82 54 100 54 24 1 93 34
121 58 29 26 38 22 47 -23 3 -19 9 -35 13 -35 15 0 31 25 31 50 0 61 133 186
330 310 86 54 150 109 150 129 0 6 4 11 9 11 13 0 41 64 32 73 -5 5 -6 26 -4
48 5 35 0 46 -43 106 -44 61 -158 279 -258 495 -20 42 -49 92 -64 110 -16 18
-42 58 -58 88 -16 30 -54 79 -84 108 -63 61 -187 164 -218 181 -11 6 -26 17
-34 24 -14 14 -76 47 -88 47 -4 0 -13 -12 -20 -27 -7 -16 -15 -23 -17 -15 -3
6 -9 10 -14 6 -5 -3 -9 1 -9 9 0 10 7 13 20 10 12 -3 20 0 20 7 0 19 -32 39
-63 40 -15 0 -30 7 -33 15 -4 8 -9 14 -13 13 -3 -1 -37 -3 -74 -5z"/>
<path d="M629 4023 c-13 -3 -18 -24 -23 -99 -8 -110 -3 -121 54 -121 38 0 40
1 51 41 6 22 22 54 36 70 l24 29 -25 26 c-15 15 -26 32 -26 39 0 7 -11 12 -24
12 -13 0 -30 2 -38 4 -7 2 -20 2 -29 -1z"/>
<path d="M4920 2753 c0 -4 10 -13 22 -18 33 -15 34 -33 1 -29 l-28 4 29 -9
c29 -10 66 -39 66 -52 0 -4 -15 0 -32 9 -24 12 -56 17 -114 16 -77 -1 -81 0
-65 16 9 9 25 21 36 25 18 8 18 9 -7 13 -32 4 -88 -23 -88 -43 0 -8 -5 -15
-11 -15 -5 0 -7 -4 -4 -10 3 -5 0 -7 -8 -4 -22 8 -28 -9 -31 -96 -2 -43 -7
-85 -13 -92 -17 -22 -58 -146 -50 -154 3 -4 16 4 27 17 20 22 20 23 11 2 -6
-12 -16 -25 -21 -28 -6 -3 -10 -15 -10 -26 0 -11 -4 -18 -9 -14 -12 7 -2 -63
13 -90 24 -45 129 -186 134 -181 3 3 10 16 16 28 13 26 46 34 75 18 25 -13 29
-71 6 -94 -8 -8 -15 -19 -15 -25 0 -14 17 -14 25 -1 3 6 12 10 18 10 7 -1 3
-9 -9 -18 -11 -10 -24 -29 -27 -43 -15 -60 59 -87 134 -49 79 40 142 95 180
157 21 34 37 123 22 123 -5 0 -10 33 -11 73 -4 105 -17 147 -47 147 -14 0 -25
-7 -28 -17 -3 -13 -5 -12 -6 5 -1 14 -6 22 -13 19 -14 -4 -48 44 -48 68 0 8 8
19 18 24 25 13 22 63 -13 176 -30 100 -51 141 -74 148 -9 3 -24 8 -33 12 -10
4 -18 3 -18 -2z"/>
<path d="M599 1797 c-32 -38 -37 -50 -45 -127 -4 -47 -9 -146 -9 -220 -1 -74
-6 -144 -12 -155 -14 -28 -36 -268 -31 -342 l4 -63 -35 -5 c-20 -3 -63 -10
-96 -15 -33 -6 -87 -13 -120 -17 l-60 -8 3 -53 c4 -47 2 -52 -17 -52 -16 0
-21 6 -21 25 0 24 -2 25 -66 25 -59 0 -66 -2 -72 -22 -5 -21 -6 -21 -13 -2 -6
14 -8 9 -8 -19 -1 -36 0 -37 27 -31 48 10 51 12 45 35 -4 15 -3 20 5 15 7 -4
12 -16 12 -27 0 -14 7 -19 25 -19 25 0 25 -1 25 -79 0 -51 4 -82 12 -88 7 -6
63 -13 125 -15 82 -4 116 -10 127 -21 10 -10 45 -17 103 -22 49 -3 117 -10
153 -15 64 -9 63 -9 -16 -3 -54 3 -84 1 -88 -6 -4 -6 0 -11 8 -11 18 0 21 -16
6 -25 -5 -3 -10 -24 -10 -46 0 -22 -6 -47 -12 -54 -32 -36 -36 -44 -31 -63 6
-25 28 -29 113 -20 36 4 96 7 134 7 l69 1 -7 61 c-3 34 -6 84 -6 110 l0 49
-47 0 c-43 1 -46 2 -29 15 10 7 15 18 11 24 -4 7 8 11 35 11 l42 0 -2 42 c-5
79 -2 86 33 97 17 5 111 15 207 21 96 6 200 16 230 22 30 6 65 11 78 10 13 -1
20 2 17 8 -3 5 -16 9 -28 8 -12 0 -30 3 -39 7 -11 4 -18 3 -18 -4 0 -6 -7 -11
-15 -11 -8 0 -15 4 -15 8 0 16 23 30 38 24 12 -4 14 -1 8 14 -4 10 -12 47 -17
81 -13 90 -50 175 -84 193 -21 11 -85 133 -85 162 0 17 27 42 79 70 34 18 55
60 46 88 -10 32 -57 70 -86 70 -36 0 -96 -69 -104 -119 -12 -75 -15 -81 -42
-87 -15 -4 -39 -2 -54 3 -20 8 -39 6 -75 -6 -53 -18 -78 -50 -87 -117 -4 -21
-9 -56 -13 -76 -6 -36 -5 -38 19 -38 14 0 29 4 32 10 3 6 24 10 46 10 43 0 76
26 105 83 19 35 61 37 92 4 30 -32 28 -39 -18 -80 -36 -31 -39 -38 -33 -67 5
-26 2 -36 -13 -48 -16 -13 -17 -14 -1 -9 11 4 22 -1 29 -13 17 -26 38 -25 38
1 0 16 4 19 18 14 9 -4 30 -9 47 -11 38 -5 105 -50 105 -70 0 -13 -17 -15
-127 -11 -124 5 -128 6 -133 28 -6 24 -6 24 -237 34 -127 6 -235 13 -239 18
-4 4 28 7 70 7 l78 0 -6 128 c-3 70 -7 260 -9 422 -5 399 -5 390 -19 390 -7
-1 -29 -20 -49 -43z"/>
<path d="M8355 1740 c-67 -16 -74 -21 -77 -59 -4 -46 10 -91 28 -91 8 0 14 -4
14 -9 0 -8 52 -31 71 -31 5 0 9 45 9 100 0 55 -3 99 -7 99 -5 -1 -21 -5 -38
-9z"/>
<path d="M7919 1725 c-3 -2 -55 -5 -117 -6 -130 -2 -134 -5 -145 -100 -9 -71
12 -103 72 -113 47 -7 183 11 206 28 25 18 32 124 11 164 -17 33 -19 35 -27
27z"/>
<path d="M7085 1648 c-38 -5 -76 -16 -84 -23 -10 -10 -14 -41 -15 -109 -1 -52
-4 -97 -7 -100 -8 -8 -329 -35 -345 -29 -7 3 -10 13 -7 26 15 63 15 87 -1 87
-17 0 -19 -4 -20 -69 -1 -54 -3 -55 -189 -71 -73 -6 -190 -17 -262 -25 -71 -8
-157 -15 -190 -15 -33 0 -66 -4 -74 -9 -11 -7 -16 -46 -22 -158 -4 -81 -13
-179 -19 -217 -8 -42 -10 -102 -6 -152 5 -63 3 -84 -8 -93 -16 -13 -28 -51
-16 -51 4 0 11 -16 14 -35 5 -25 15 -39 38 -51 29 -15 31 -15 57 10 23 22 36
26 84 26 32 0 73 -6 92 -14 38 -16 77 -15 99 3 18 15 245 16 296 1 19 -5 79
-10 133 -10 56 0 108 -5 120 -12 21 -11 21 -12 -18 -29 -26 -12 -33 -19 -20
-19 30 0 85 -37 85 -57 0 -37 -33 -43 -243 -48 -111 -3 -260 0 -330 5 l-128
10 -42 -40 c-22 -22 -45 -40 -49 -40 -4 0 -8 -9 -8 -20 0 -32 -35 -42 -136
-38 -73 2 -96 7 -106 20 -23 31 -62 43 -124 40 -53 -3 -62 -7 -79 -33 -11 -16
-25 -29 -32 -29 -6 0 -25 -12 -43 -26 -24 -21 -28 -29 -19 -40 23 -27 -13 -63
-89 -89 -20 -7 -37 -19 -37 -27 0 -7 -11 -15 -25 -16 -14 -2 -30 -8 -35 -12
-6 -5 -172 -11 -370 -15 -317 -5 -436 -14 -469 -33 -5 -3 -1 -9 10 -13 10 -4
905 -8 1987 -8 l1968 -1 -5 258 c-2 141 -9 336 -14 432 -6 96 -16 308 -22 470
-6 162 -13 305 -16 318 -5 23 -8 23 -77 18 -40 -3 -162 -10 -272 -15 -110 -6
-247 -15 -305 -20 -101 -10 -348 -25 -400 -25 -25 0 -25 1 -25 85 0 64 -4 91
-18 112 -20 30 -37 32 -162 15z m439 -427 c44 -37 2 -69 -96 -72 -69 -3 -80
-1 -98 18 -25 27 -25 28 1 52 18 16 33 19 99 17 47 -1 85 -8 94 -15z m-286
-24 c9 -8 23 -16 31 -19 12 -3 10 -9 -6 -25 -17 -17 -39 -22 -124 -29 -126 -9
-150 -7 -166 14 -17 22 -16 35 5 58 16 17 31 19 131 18 83 -1 116 -6 129 -17z
m-932 -102 c9 -14 14 -34 11 -47 -4 -14 0 -29 10 -40 15 -17 15 -20 -7 -43
l-23 -24 26 -6 c14 -4 34 -2 45 4 12 6 42 11 69 10 28 0 41 -3 31 -7 -13 -5
-15 -11 -8 -22 14 -22 12 -121 -3 -150 -20 -41 -53 -49 -217 -55 -85 -2 -183
-7 -216 -9 -58 -5 -62 -3 -73 20 -29 64 -4 192 35 177 21 -8 61 32 91 90 29
58 27 62 -27 66 -24 1 -38 30 -21 41 7 4 56 8 109 9 52 1 98 4 101 6 13 14 52
2 67 -20z m1800 -26 c15 -16 19 -40 22 -119 4 -88 2 -103 -17 -134 -12 -19
-30 -37 -39 -40 -36 -10 -111 -16 -195 -17 -119 -2 -122 1 -130 135 -9 166 10
186 168 179 58 -3 111 0 125 5 36 15 45 14 66 -9z m-921 -59 c3 -5 24 -10 45
-10 21 0 42 5 45 10 11 18 53 11 69 -12 21 -29 20 -47 -4 -78 -16 -22 -28 -25
-92 -29 -151 -7 -158 -5 -158 41 0 53 73 113 95 78z m-302 -20 c66 0 80 -3 99
-22 l21 -21 -24 -10 c-13 -5 -71 -6 -129 -3 -312 18 -364 23 -368 34 -2 7 -25
13 -50 14 l-47 1 50 6 c28 3 122 5 210 4 88 -2 195 -3 238 -3z"/>
<path d="M4158 1343 c-13 -3 -18 -15 -18 -43 0 -42 10 -54 55 -64 43 -11 58
-25 44 -42 -6 -8 -8 -25 -4 -41 5 -22 4 -25 -8 -15 -34 29 -38 -46 -3 -82 16
-18 38 -28 69 -32 44 -6 74 -27 110 -76 10 -14 44 -19 221 -28 229 -12 257
-19 276 -73 13 -38 13 -37 -7 -35 -57 4 -305 -5 -289 -11 11 -4 -22 -7 -75 -7
-107 0 -149 -8 -149 -29 0 -8 4 -15 9 -15 5 0 12 -11 15 -25 6 -22 12 -25 59
-27 74 -2 111 2 115 13 5 12 39 12 47 0 3 -5 31 -7 63 -4 41 4 62 11 73 26 11
13 18 16 23 8 4 -6 26 -11 49 -11 33 -1 50 -8 80 -34 33 -30 38 -40 43 -95 4
-33 10 -61 15 -61 12 0 33 72 23 79 -8 5 -10 30 -5 68 2 19 42 36 88 39 34 2
45 -1 53 -17 14 -24 36 -25 43 0 7 28 117 40 153 16 17 -11 29 -13 33 -7 4 6
29 15 56 19 l50 8 3 43 3 42 -83 1 c-110 2 -156 0 -198 -12 -27 -7 -38 -5 -49
6 -14 13 -12 15 10 15 41 0 49 17 49 109 -1 104 -11 121 -77 132 -85 14 -139
11 -164 -10 -22 -18 -24 -26 -24 -123 l0 -103 50 -5 c44 -5 47 -6 23 -13 -16
-4 -28 -14 -28 -22 0 -18 -16 -20 -23 -2 -3 6 -6 3 -6 -8 -1 -19 -1 -19 -15 1
-18 25 -20 41 -18 172 l2 102 33 20 c25 16 50 20 115 20 45 0 82 3 82 8 0 4
-7 18 -16 31 -14 19 -24 22 -60 19 -32 -2 -43 0 -40 9 8 20 -21 41 -48 36 -14
-3 -26 -10 -26 -17 0 -6 -6 -3 -13 6 -7 9 -31 20 -52 23 -22 4 -47 14 -57 22
-9 8 -22 16 -30 17 -7 2 -22 7 -32 11 -11 5 -34 8 -50 7 -17 -1 -79 -4 -138
-8 -81 -4 -108 -3 -108 6 0 8 -9 10 -25 6 -19 -5 -23 -3 -19 9 8 20 -5 19 -28
-2 -10 -9 -18 -11 -18 -5 0 6 5 14 10 17 6 4 4 12 -6 22 -11 12 -40 16 -117
18 -56 2 -110 1 -119 -2z"/>
<path d="M1910 1032 c-54 -20 -120 -60 -137 -82 -7 -8 -13 -25 -13 -37 0 -22
1 -22 46 10 42 29 52 32 127 33 101 2 154 -5 135 -17 -7 -5 -8 -9 -2 -9 35 0
96 -103 78 -131 -3 -6 0 -15 7 -20 12 -7 10 -15 -8 -46 -12 -21 -27 -37 -33
-35 -15 3 -103 -27 -110 -38 -3 -5 -39 -11 -80 -14 -41 -2 -84 -7 -95 -11 -51
-19 -102 -47 -127 -70 -32 -30 -63 -32 -80 -6 -8 13 -16 17 -23 11 -6 -5 -33
-10 -60 -12 l-50 -3 -18 -70 c-9 -38 -16 -81 -15 -95 3 -22 7 -25 41 -24 20 1
37 -2 37 -7 0 -5 -16 -9 -36 -9 -29 0 -35 -3 -30 -16 3 -9 6 -18 6 -20 0 -6
96 -5 103 2 3 3 61 7 129 8 68 2 131 6 141 10 28 13 19 26 -19 26 -21 0 -33 4
-29 10 3 5 20 10 38 10 18 0 78 3 135 6 71 4 102 3 102 -5 0 -7 -21 -11 -54
-11 -55 0 -119 -17 -111 -29 4 -8 201 -4 273 5 46 6 58 29 20 37 -17 3 -14 5
9 6 25 1 36 8 46 29 25 49 37 119 38 223 0 58 6 118 15 140 31 89 -28 190
-140 240 -68 30 -194 35 -256 11z"/>
<path d="M3837 403 c-15 -14 -5 -23 26 -23 40 0 57 -15 57 -52 0 -66 -71 -87
-234 -70 -187 21 -214 21 -256 5 -40 -16 -55 -38 -45 -65 15 -39 109 -49 230
-23 45 9 128 15 230 15 206 1 445 16 459 30 6 6 11 28 11 49 0 37 -1 39 -35
45 -19 3 -77 6 -128 6 -101 0 -146 15 -196 65 -19 19 -35 25 -69 25 -24 0 -47
-3 -50 -7z"/>
<path d="M4353 328 c1 -35 -2 -73 -6 -85 -8 -22 -6 -23 45 -23 29 0 121 -9
204 -20 160 -21 329 -24 507 -10 118 10 225 29 245 43 20 15 14 52 -14 78 -14
13 -32 36 -40 52 l-15 27 -112 -4 c-97 -3 -119 -7 -165 -30 -72 -37 -108 -41
-194 -22 -41 9 -107 15 -149 14 -66 -2 -75 -4 -72 -19 4 -14 -3 -19 -30 -24
-51 -10 -103 23 -62 39 23 8 18 33 -7 40 -13 3 -49 6 -80 6 l-57 0 2 -62z"/>
<path d="M2073 313 c-19 -4 -22 -13 -28 -81 -3 -42 -10 -90 -15 -105 -6 -17
-5 -38 0 -53 6 -14 10 -36 10 -50 0 -23 2 -24 70 -24 40 0 70 4 70 10 0 6 7
10 15 10 8 0 15 -4 15 -10 0 -6 230 -9 618 -8 339 1 599 3 577 5 -22 3 -45 9
-51 14 -18 15 -1111 37 -1147 23 -9 -3 -28 -3 -42 0 -36 9 -35 67 1 101 17 16
31 45 40 82 22 95 23 93 -48 92 -35 -1 -73 -4 -85 -6z"/>
<path d="M1898 301 c-15 -3 -37 -14 -48 -23 -27 -24 -44 -23 -37 2 4 17 0 20
-28 20 -28 0 -33 -4 -39 -31 -3 -17 -6 -63 -6 -101 l0 -69 108 3 107 3 3 39
c2 22 12 51 22 65 10 15 27 43 39 64 l21 37 -58 -1 c-31 -1 -69 -4 -84 -8z"/>
<path d="M1508 292 c-21 -2 -38 -6 -38 -10 0 -4 21 -29 46 -55 35 -37 46 -56
47 -82 1 -29 5 -34 30 -39 47 -9 105 -7 112 5 4 6 11 43 16 82 5 39 12 79 15
89 4 15 -1 18 -35 18 -22 0 -51 -4 -64 -9 -13 -5 -40 -6 -58 -3 -19 4 -51 6
-71 4z"/>
<path d="M833 163 c-3 -7 5 -22 16 -34 38 -41 22 -54 -50 -44 -35 5 -61 16
-84 36 -33 29 -33 30 -132 23 -54 -3 -130 -14 -169 -25 -90 -24 -162 -26 -160
-3 1 18 -44 26 -66 13 -17 -11 1 -29 28 -29 16 0 24 -6 24 -16 0 -9 8 -24 18
-33 10 -9 21 -24 25 -33 6 -17 38 -18 483 -18 l477 0 -7 72 c-4 40 -10 76 -14
80 -4 4 -93 11 -196 15 -143 6 -190 5 -193 -4z"/>
</g>
</svg>
