<?xml version="1.0" standalone="no"?>
<!DOCTYPE svg PUBLIC "-//W3C//DTD SVG 20010904//EN"
 "http://www.w3.org/TR/2001/REC-SVG-20010904/DTD/svg10.dtd">
<svg version="1.0" xmlns="http://www.w3.org/2000/svg"
 width="800.000000pt" height="569.000000pt" viewBox="0 0 800.000000 569.000000"
 preserveAspectRatio="xMidYMid meet">
<metadata>
Created by potrace 1.16, written by Peter Selinger 2001-2019
</metadata>
<g transform="translate(0.000000,569.000000) scale(0.100000,-0.100000)"
fill="#000000" stroke="none">
<path d="M2339 5156 c-2 -2 -54 -6 -116 -9 -99 -5 -116 -8 -150 -31 -21 -14
-44 -26 -52 -26 -23 0 -171 -134 -171 -156 0 -6 -8 -18 -18 -28 -32 -28 -47
-119 -47 -286 l0 -155 36 -57 c20 -32 41 -82 47 -113 7 -31 21 -69 32 -85 17
-24 19 -36 12 -63 -7 -26 -5 -46 8 -83 43 -124 126 -238 305 -423 125 -128
149 -148 186 -156 38 -9 46 -16 67 -56 16 -32 22 -59 20 -85 l-4 -39 -8 50
c-5 28 -12 52 -15 55 -4 3 -14 17 -24 33 -10 15 -23 27 -30 27 -9 0 -9 -2 0
-8 7 -4 9 -13 4 -21 -10 -16 -45 -1 -55 24 -3 8 -17 20 -32 25 -24 9 -33 5
-83 -36 -31 -25 -73 -62 -94 -80 l-37 -34 48 -64 c27 -35 73 -102 101 -150 29
-47 54 -86 57 -86 7 0 -62 131 -95 180 -27 39 -41 90 -26 90 4 0 20 -7 37 -16
31 -16 33 -16 50 6 15 19 20 20 34 9 21 -17 81 -39 117 -43 30 -2 36 14 12 34
-8 7 -15 27 -14 44 l1 31 18 -40 c16 -34 20 -73 10 -125 0 -3 -7 4 -15 14 -15
19 -15 19 -16 -5 -1 -13 -1 -77 1 -141 2 -113 -3 -131 -27 -107 -12 12 18
-149 39 -206 l15 -40 8 95 c4 52 8 165 9 250 1 144 3 158 24 195 13 22 33 46
43 53 13 9 18 20 14 33 -5 14 0 21 19 29 14 5 26 15 26 21 0 6 -14 3 -33 -9
l-34 -19 13 71 c7 39 15 79 19 88 9 23 26 13 19 -10 -4 -10 -3 -13 3 -6 19 25
50 22 67 -6 21 -36 20 -42 -4 -68 -20 -22 -20 -22 -1 -22 11 0 21 -5 23 -10 5
-16 63 12 63 30 0 8 -4 20 -8 27 -4 6 -1 14 5 16 10 4 10 6 1 6 -7 1 -18 11
-24 23 l-12 21 36 -21 c21 -12 39 -17 42 -11 4 5 1 9 -5 9 -6 0 -9 4 -6 9 3 5
-4 30 -15 56 -15 33 -18 50 -10 54 8 6 7 18 -3 48 l-14 40 50 22 c42 18 48 24
38 36 -8 10 -9 15 -2 15 17 0 24 37 12 60 -9 16 -8 20 6 20 16 0 16 2 -1 20
-9 10 -17 31 -17 46 0 18 -3 22 -9 13 -5 -8 -9 -29 -9 -46 0 -18 -4 -33 -9
-33 -12 0 -21 64 -10 68 14 6 10 42 -4 42 -7 0 -23 7 -36 16 -18 13 -20 18
-10 25 8 5 22 6 32 3 9 -3 17 0 17 6 0 6 4 9 9 6 13 -8 20 68 7 77 -8 5 -6 10
4 17 32 21 40 12 35 -37 l-5 -48 15 34 c23 48 16 85 -15 89 -42 6 -52 20 -35
51 8 16 11 38 8 51 -5 18 -3 21 7 15 8 -5 4 7 -7 26 -98 157 -113 204 -78 238
16 15 16 12 10 -38 -4 -29 -3 -56 2 -60 4 -3 16 -17 25 -31 8 -14 24 -26 34
-27 11 -1 25 -3 33 -5 7 -2 16 3 18 10 3 7 -1 10 -10 6 -21 -8 -29 33 -9 47
12 7 14 12 5 15 -18 8 -16 24 2 24 20 0 19 16 -3 32 -22 16 -22 36 1 52 9 7
17 20 17 29 0 18 -17 32 -22 17 -1 -5 -12 -7 -24 -4 -15 4 -20 12 -17 28 3 16
-5 35 -27 59 -24 27 -29 40 -22 54 12 25 8 91 -8 106 -10 10 -10 7 -1 -13 12
-24 11 -24 -4 -5 -8 11 -14 24 -11 30 2 6 -6 17 -17 25 -21 12 -21 12 -7 -6 8
-10 -1 -5 -20 11 -19 17 -37 32 -40 34 -3 2 1 6 8 8 22 8 13 30 -31 70 -24 22
-41 45 -39 51 5 16 -43 37 -127 56 -41 9 -79 21 -86 26 -7 5 -14 8 -16 6z"/>
<path d="M6064 4576 c-8 -36 -7 -46 3 -50 7 -3 13 0 13 5 0 7 11 9 26 6 18 -3
33 2 45 14 18 18 19 18 19 1 0 -22 -19 -42 -39 -42 -9 0 -35 -10 -58 -22 -48
-25 -57 -51 -42 -117 7 -31 6 -47 -2 -57 -6 -8 -9 -23 -6 -34 3 -12 1 -35 -4
-52 -5 -20 -5 -36 1 -43 5 -7 7 -15 3 -18 -3 -4 1 -7 10 -7 20 0 21 -4 5 -29
-9 -15 -9 -26 0 -46 9 -18 9 -31 3 -39 -7 -8 -4 -22 9 -43 10 -17 20 -41 22
-54 2 -17 25 -37 85 -74 93 -57 104 -66 71 -58 -30 8 -131 68 -162 96 -25 22
-61 77 -72 110 -13 36 -24 15 -24 -44 0 -41 -3 -58 -11 -53 -8 4 -8 0 0 -14 7
-12 29 -26 53 -33 23 -6 55 -21 72 -34 17 -12 63 -40 101 -63 39 -22 98 -67
132 -100 33 -33 73 -68 88 -78 14 -9 32 -32 40 -51 8 -19 19 -32 25 -28 5 3 8
0 5 -7 -3 -7 -1 -19 4 -27 8 -12 11 -12 24 0 11 11 13 35 9 125 -3 77 -1 113
7 118 6 4 11 0 11 -11 2 -65 11 -125 23 -155 l15 -35 -110 -114 c-151 -158
-200 -215 -197 -231 2 -7 -2 -23 -9 -36 -23 -41 9 -96 56 -97 23 0 28 -7 42
-51 8 -28 19 -52 24 -53 11 -3 76 114 76 138 0 9 20 37 45 61 28 28 51 62 61
92 18 57 54 102 96 124 41 21 46 11 9 -17 -52 -38 -39 -53 20 -23 28 14 54 23
57 19 4 -3 2 -9 -3 -13 -22 -15 -134 -150 -172 -207 -23 -33 -58 -76 -79 -96
-53 -48 -104 -108 -104 -123 0 -6 -9 -30 -20 -51 -26 -50 -68 -175 -113 -330
-39 -134 -149 -480 -238 -745 -32 -96 -61 -195 -64 -220 -8 -54 -110 -400
-132 -450 -9 -19 -18 -50 -20 -68 -2 -19 -21 -84 -43 -145 -54 -155 -192 -490
-184 -447 3 19 22 74 42 122 19 49 33 90 30 93 -3 3 -49 -13 -102 -36 -53 -24
-94 -45 -91 -48 3 -2 -9 -19 -26 -37 -17 -17 -50 -69 -74 -115 -53 -101 -58
-97 -10 7 66 144 181 285 312 386 23 17 41 33 39 35 -2 2 -34 -3 -72 -11 -38
-8 -123 -22 -189 -31 -211 -28 -259 -36 -330 -55 -38 -10 -106 -24 -150 -30
-84 -13 -191 -42 -238 -67 -27 -14 -29 -12 -89 41 -34 30 -107 80 -162 112
-93 52 -204 124 -469 303 -191 129 -418 271 -433 271 -4 0 -30 14 -57 32 -50
32 -52 32 -212 38 -143 6 -165 9 -202 29 -22 13 -46 34 -52 47 -5 13 -11 84
-12 159 -1 75 -5 131 -9 125 -5 -7 -9 -1 -13 16 -3 16 -17 74 -31 129 -14 55
-26 105 -26 112 0 6 21 15 48 19 26 4 70 15 99 25 l52 18 -5 -32 c-3 -18 -7
-41 -9 -52 -2 -11 0 -26 4 -34 6 -9 19 9 42 58 32 65 36 70 67 71 24 0 32 4
32 19 0 22 -23 44 -35 33 -5 -4 -5 -2 -2 4 13 23 -6 30 -186 69 -38 8 -82 15
-99 15 -45 0 -28 11 60 40 41 14 77 30 79 36 2 6 -5 22 -16 35 -18 22 -25 24
-93 20 -180 -9 -328 -3 -328 12 0 5 -4 5 -10 2 -5 -3 -10 -1 -10 4 0 6 -8 12
-17 12 -10 1 -4 5 12 8 17 4 36 3 43 -2 21 -16 13 5 -11 27 -13 12 -22 27 -19
34 2 7 -1 12 -7 12 -18 0 -12 61 9 106 39 79 21 204 -31 217 -16 4 -19 0 -19
-28 0 -19 -5 -37 -10 -40 -6 -4 -25 -30 -44 -58 -18 -29 -47 -66 -64 -84 -19
-20 -33 -46 -36 -70 -16 -104 -30 -163 -52 -215 -42 -100 -28 -224 41 -363 19
-38 55 -91 80 -117 40 -41 48 -46 68 -37 40 19 87 92 94 147 l6 50 66 5 c36 3
90 10 120 16 29 7 55 10 58 7 3 -3 8 -38 11 -78 3 -48 11 -82 23 -100 12 -16
19 -43 19 -72 0 -26 7 -63 15 -83 18 -43 20 -116 3 -143 -10 -16 -10 -24 0
-40 11 -18 8 -24 -20 -54 -35 -37 -148 -103 -148 -87 0 5 6 12 13 15 6 3 1 3
-13 0 -14 -4 -27 -8 -29 -10 -3 -2 3 -91 12 -197 23 -253 22 -318 -7 -451 -13
-61 -27 -128 -29 -149 -6 -36 -5 -37 22 -32 16 3 36 -2 47 -10 10 -8 26 -15
35 -15 9 0 33 -11 53 -25 20 -14 47 -25 59 -26 16 -1 12 -4 -13 -11 -31 -9
-33 -11 -17 -23 9 -6 17 -15 17 -19 0 -13 -33 -5 -45 10 -10 15 -18 15 -89 0
-88 -18 -96 -21 -96 -42 0 -12 3 -12 23 1 30 19 127 28 121 11 -3 -8 10 -12
42 -11 35 2 52 8 65 24 9 11 21 21 27 21 5 0 17 9 27 20 10 11 22 20 26 20 4
0 44 -22 88 -50 44 -27 84 -50 89 -50 4 0 41 -14 82 -31 41 -18 167 -66 280
-107 113 -41 222 -81 243 -88 95 -35 167 -83 167 -111 0 -8 -7 -27 -15 -43
l-16 -30 642 0 641 0 15 40 c14 36 21 41 72 55 91 24 201 85 268 147 64 59
106 79 126 59 21 -21 -63 -161 -98 -161 -8 0 -15 -5 -15 -11 0 -6 -6 -9 -14
-6 -9 4 -27 -14 -50 -49 -20 -30 -41 -54 -47 -54 -6 0 -3 7 5 16 9 8 16 20 16
25 0 6 -11 -3 -25 -19 -14 -17 -25 -33 -25 -36 0 -3 563 -6 1250 -6 l1250 0 0
1424 c0 1338 -1 1426 -17 1455 -10 17 -21 31 -25 31 -4 0 -15 16 -24 36 -9 20
-27 39 -39 44 -12 5 -32 21 -44 36 -11 15 -21 22 -21 15 0 -20 -18 -12 -24 12
-6 24 -56 57 -87 57 -21 0 -26 16 -7 22 9 3 8 9 -4 22 -10 9 -21 22 -25 29 -9
14 -41 35 -65 43 -10 4 -18 12 -18 20 0 7 -9 18 -20 24 -11 6 -18 15 -15 20 7
11 -34 40 -58 40 -9 0 -20 7 -24 15 -3 9 -18 22 -33 30 -15 8 -33 28 -40 45
-7 16 -18 30 -26 30 -7 0 -16 5 -20 11 -7 12 23 9 59 -6 11 -5 17 -3 17 6 0
22 -114 69 -202 84 -39 6 -68 38 -47 51 8 4 7 9 -2 15 -11 7 -11 9 1 9 12 0
12 2 2 9 -8 5 31 11 95 15 59 4 112 12 118 18 7 7 0 9 -23 6 -41 -6 -51 8 -22
29 16 11 19 18 11 26 -6 6 -11 24 -11 40 0 22 4 28 15 23 17 -6 19 3 6 38 -6
13 -6 26 -2 28 5 2 11 20 15 41 6 31 4 37 -11 37 -29 0 5 18 49 25 29 5 38 12
38 26 0 16 -5 18 -27 13 -16 -4 -30 -8 -32 -10 -2 -2 -10 1 -18 7 -8 7 -18 8
-25 2 -7 -5 -25 -10 -40 -11 -19 -1 -27 3 -27 16 0 9 -4 33 -9 52 l-9 35 -8
-37 c-8 -43 -17 -46 -45 -18 -12 12 -25 18 -30 15 -5 -3 -11 -1 -15 5 -4 7
-12 7 -25 0 -13 -7 -21 -7 -26 1 -4 7 -19 -1 -40 -22 l-33 -32 10 39 c6 21 19
58 30 81 10 24 19 47 19 53 0 20 -21 9 -30 -16 -6 -14 -24 -42 -40 -62 -17
-20 -30 -42 -30 -48 0 -6 -7 -17 -15 -24 -22 -19 -45 5 -45 46 0 28 -3 33 -20
31 -16 -1 -28 11 -48 47 -40 71 -71 87 -75 37 -1 -11 -5 -21 -9 -21 -4 0 -8
-15 -9 -32 -1 -18 -4 -44 -9 -58 -6 -22 -8 -23 -15 -7 -4 9 -13 17 -21 17 -7
0 -11 6 -8 13 2 7 -2 21 -10 32 -15 19 -15 19 -16 -7 0 -16 -4 -28 -9 -28 -11
0 -21 25 -21 54 0 12 -7 31 -15 42 -8 10 -15 27 -15 37 0 10 -7 32 -17 50
l-16 32 -10 -23 c-10 -23 -4 -34 26 -45 5 -1 11 -30 14 -63 5 -55 3 -63 -18
-82 -38 -36 -53 -23 -25 21 7 12 16 37 19 54 8 39 -15 56 -76 59 -36 2 -38 1
-33 -22 5 -19 2 -24 -12 -24 -24 0 -71 52 -98 110 -11 22 -66 90 -73 90 -4 0
-13 -12 -22 -26 -16 -26 -16 -25 -29 62 -7 49 -15 114 -19 144 l-6 55 -95 3
-95 3 -11 -45z m1696 -1828 c35 -33 41 -87 35 -301 -6 -213 -13 -312 -22 -303
-3 2 -11 62 -19 133 -8 70 -22 171 -33 223 -37 179 -32 388 7 297 7 -17 21
-39 32 -49z m-1801 -2304 c-18 -22 -5 -27 38 -15 48 13 119 58 178 112 25 23
45 36 45 30 0 -29 -95 -135 -131 -146 -10 -4 -19 -10 -19 -16 0 -9 -55 -35
-95 -45 -12 -3 -28 1 -36 8 -55 53 -106 56 -167 11 -37 -28 -52 -23 -52 15 0
30 13 52 73 125 l40 49 53 -7 c39 -5 55 -3 66 8 11 13 13 5 16 -50 2 -40 -2
-70 -9 -79z"/>
<path d="M393 4308 c0 -18 -3 -49 -5 -68 -3 -26 2 -45 19 -71 13 -20 28 -63
33 -95 5 -33 14 -75 19 -94 6 -19 11 -47 11 -62 0 -33 10 -36 28 -7 11 17 11
24 -2 44 -19 29 -15 103 7 135 21 30 22 60 2 86 -8 10 -15 26 -15 35 0 8 -14
25 -30 38 -17 12 -28 26 -25 31 6 10 -24 59 -36 60 -3 0 -6 -15 -6 -32z"/>
<path d="M0 4088 c0 -24 14 -45 70 -101 52 -53 70 -77 70 -98 0 -15 -7 -29
-16 -33 -14 -5 -13 -9 6 -24 28 -23 22 -61 -15 -98 -31 -31 -31 -34 -2 -34 13
0 38 -13 56 -29 l33 -29 36 24 c20 14 39 29 42 33 3 5 24 18 48 30 43 22 62
51 62 96 0 21 -4 24 -37 21 -21 -2 -46 -6 -55 -11 -12 -4 -18 -3 -18 5 0 7
-11 21 -24 31 -22 17 -24 25 -22 109 1 96 -11 114 -29 42 -5 -23 -15 -46 -21
-53 -19 -18 -48 -1 -67 41 -10 21 -27 42 -37 45 -10 3 -20 16 -22 27 -2 14
-13 24 -30 29 -26 7 -28 5 -28 -23z"/>
<path d="M1780 4053 c0 -32 -2 -90 -6 -128 -5 -56 -2 -90 16 -160 12 -49 28
-103 35 -120 8 -16 45 -109 83 -205 38 -96 73 -184 78 -195 4 -11 8 -25 9 -31
0 -6 6 -18 13 -26 15 -18 20 -104 8 -138 -8 -22 -7 -23 8 -11 9 7 16 21 16 30
0 13 2 14 9 2 7 -10 -1 -23 -24 -46 -61 -57 -55 -125 16 -189 31 -28 47 -36
78 -36 53 0 87 14 102 41 l12 22 -28 -21 c-16 -13 -41 -22 -59 -21 -28 0 -29
1 -9 9 15 6 21 15 17 25 -5 11 1 15 23 15 44 0 73 33 73 81 0 77 -86 133 -151
99 -13 -7 -19 -7 -19 0 0 5 7 10 16 10 25 0 15 34 -100 323 -112 282 -136 348
-136 375 0 10 -4 22 -10 28 -14 14 -25 134 -13 134 6 0 8 11 6 25 -3 13 2 45
11 71 18 54 16 61 -13 42 -18 -11 -23 -11 -31 2 -5 8 -10 23 -10 33 0 9 -5 17
-11 17 -6 0 -10 -23 -9 -57z"/>
<path d="M4794 3971 c-2 -2 -4 -14 -3 -25 0 -12 3 -15 6 -8 4 9 91 12 388 12
l384 0 15 -22 16 -22 0 27 c0 15 -1 28 -2 29 -5 4 -800 13 -804 9z"/>
<path d="M5580 3695 c-2 -44 -5 -113 -5 -154 -2 -50 -7 -76 -16 -82 -8 -5
-143 -7 -319 -4 -394 8 -448 11 -467 26 -13 11 -15 11 -12 -5 3 -12 13 -20 27
-21 12 -1 28 -9 35 -17 18 -24 597 -35 650 -13 20 8 52 15 71 15 33 0 35 2 41
43 3 23 5 98 3 167 -3 110 -4 116 -8 45z"/>
<path d="M3990 3630 c-72 -7 -190 -49 -190 -68 0 -4 30 -16 68 -25 37 -10 85
-26 107 -37 29 -13 44 -16 58 -8 11 5 34 7 53 3 41 -7 45 8 10 40 -21 19 -24
29 -19 64 3 22 2 40 -3 39 -5 0 -43 -4 -84 -8z"/>
<path d="M2807 3479 c-9 -19 -28 -52 -42 -74 -33 -54 -33 -124 1 -223 31 -92
36 -97 63 -83 16 9 19 16 13 29 -20 37 -53 186 -48 208 6 21 11 23 49 20 24
-2 58 -11 76 -20 18 -10 39 -16 48 -14 23 4 -26 61 -77 89 -21 12 -42 31 -46
43 -4 12 -10 29 -13 40 -5 15 -9 13 -24 -15z"/>
<path d="M3642 3224 c-1 -28 2 -50 9 -55 7 -4 112 -8 235 -8 176 -1 230 -4
256 -16 25 -11 94 -17 273 -23 132 -4 242 -4 245 -1 3 4 4 34 2 67 l-4 59
-311 7 c-172 3 -400 9 -507 12 l-195 7 -3 -49z"/>
<path d="M2705 3200 c4 -36 13 -87 20 -115 15 -54 30 -186 26 -222 -1 -13 2
-23 8 -23 6 0 11 -10 11 -22 0 -13 7 -77 17 -142 13 -94 14 -128 5 -161 -14
-54 -6 -85 22 -85 13 0 25 2 28 5 3 3 -3 54 -13 113 -10 59 -35 211 -55 337
-49 316 -58 362 -68 372 -4 4 -5 -21 -1 -57z"/>
<path d="M1618 3093 c6 -2 12 -17 12 -33 0 -55 50 -237 108 -395 33 -88 81
-226 108 -307 45 -139 49 -146 69 -136 11 6 21 12 22 13 2 1 -9 30 -23 66 -39
99 -177 489 -224 634 -47 146 -56 165 -73 164 -9 0 -9 -2 1 -6z"/>
<path d="M4324 2894 c-27 -20 -71 -57 -99 -83 -27 -26 -69 -60 -93 -76 -45
-30 -66 -53 -40 -43 11 5 15 0 13 -15 -3 -30 -3 -30 -21 -13 -8 9 -19 16 -23
16 -20 0 -140 -91 -166 -127 -34 -46 -72 -76 -62 -49 9 22 -9 20 -44 -5 -36
-25 -63 -111 -57 -179 9 -95 92 -204 162 -214 110 -17 111 -17 139 27 14 22
29 59 33 83 l6 43 64 -6 c53 -5 64 -3 64 9 0 8 12 20 26 27 22 10 24 14 14 26
-8 10 -21 13 -34 9 -26 -9 -96 -13 -96 -6 0 3 8 11 18 18 15 11 13 13 -18 11
-19 -1 -41 -6 -47 -10 -16 -10 -16 -2 -2 25 10 18 9 20 -7 14 -37 -15 -65 -16
-69 -4 -4 9 -32 13 -100 13 -52 0 -95 2 -95 4 0 3 9 24 20 47 19 38 24 42 70
48 62 8 222 -1 271 -16 36 -10 38 -9 78 33 46 49 50 64 20 72 -17 5 -18 3 -8
-9 14 -17 6 -29 -15 -21 -8 3 -17 27 -21 56 -4 28 -11 51 -16 51 -22 0 9 33
69 74 72 50 102 83 105 119 2 12 8 31 14 43 6 11 8 26 4 33 -6 9 -21 2 -57
-25z"/>
<path d="M3300 2866 c0 -31 -25 -53 -44 -37 -11 9 -15 7 -20 -11 -9 -36 -7
-98 4 -98 13 0 28 32 23 50 -2 8 2 5 8 -8 10 -19 9 -26 -8 -45 -37 -40 -54
-86 -40 -108 14 -23 21 -24 37 -4 7 8 18 15 25 15 16 0 22 14 30 76 8 60 24
114 34 114 10 0 31 61 25 71 -3 5 -21 9 -40 9 -29 0 -34 -3 -34 -24z"/>
<path d="M4377 2488 c-2 -18 -3 -35 -1 -37 5 -5 120 -24 154 -24 14 -1 67 0
118 1 84 2 92 4 92 22 0 28 -53 47 -162 58 -67 6 -101 5 -123 -3 -34 -14 -67
-9 -44 6 10 6 9 9 -7 9 -17 0 -23 -7 -27 -32z"/>
<path d="M4325 2420 c-10 -11 -25 -20 -34 -21 -24 -1 88 -37 139 -45 25 -4 56
-11 70 -16 48 -19 172 -49 178 -43 25 24 -91 105 -151 105 -20 0 -39 5 -42 10
-3 6 -31 10 -61 10 -30 0 -54 5 -54 10 0 17 -26 11 -45 -10z"/>
<path d="M3591 2392 c-16 -30 -40 -145 -36 -172 43 -286 47 -300 78 -300 34 0
123 35 174 69 25 17 64 39 87 49 97 45 95 42 36 36 -29 -4 -74 -15 -98 -25
-24 -11 -51 -19 -61 -19 -9 0 -26 -7 -37 -15 -10 -8 -27 -15 -36 -15 -9 0 -22
-8 -27 -17 -9 -16 -10 -16 -11 5 0 12 5 22 10 22 6 0 10 7 10 15 0 8 -7 15
-15 15 -8 0 -15 6 -15 14 0 8 16 16 43 19 23 3 51 8 62 11 11 2 40 5 65 5 l46
1 -59 60 c-32 33 -64 75 -72 93 -13 30 -14 31 -15 7 0 -14 9 -32 20 -40 24
-17 26 -35 3 -26 -9 4 -20 1 -25 -6 -6 -10 -12 -8 -23 7 -15 19 -16 19 -40 -9
-14 -16 -25 -34 -25 -40 0 -19 -27 18 -39 53 -14 44 -14 81 3 159 13 65 13 73
-3 44z"/>
<path d="M4236 2368 c3 -4 -4 -8 -15 -8 -11 0 -23 -5 -27 -11 -4 -7 0 -9 13
-5 35 11 56 -3 49 -35 -7 -35 -4 -36 146 -44 105 -6 119 -5 124 10 10 26 -20
48 -65 48 -22 0 -38 4 -35 8 3 5 -8 9 -25 9 -16 0 -33 5 -37 11 -3 6 -21 9
-39 7 -26 -3 -32 -1 -27 12 4 12 2 13 -9 3 -15 -15 -33 -17 -24 -4 3 6 -3 9
-14 8 -11 0 -17 -5 -15 -9z"/>
<path d="M2073 1810 l2 -265 43 -68 c28 -43 48 -64 55 -60 7 5 28 13 47 19 31
10 32 12 10 13 l-25 1 25 21 c24 20 24 21 3 16 -13 -3 -23 -1 -23 4 0 5 6 9
13 9 18 1 79 59 72 70 -3 5 6 25 20 46 23 33 30 54 26 77 -1 4 16 15 36 23 21
9 45 22 53 29 8 7 36 20 63 30 29 11 47 24 47 34 0 8 -21 37 -47 63 -44 45
-48 47 -65 31 -10 -9 -18 -12 -18 -7 0 6 -35 7 -87 3 -80 -6 -88 -9 -114 -38
-29 -34 -44 -38 -62 -18 -17 17 -47 101 -63 172 -12 54 -13 35 -11 -205z"/>
<path d="M1820 1310 c-8 -5 -42 -10 -75 -11 -33 0 -69 -4 -80 -9 -12 -5 27 -7
95 -6 95 3 128 -1 190 -19 41 -13 91 -27 110 -32 24 -6 36 -16 40 -33 6 -24
30 -41 30 -21 0 7 8 7 25 -1 21 -9 25 -18 25 -55 0 -24 7 -51 15 -60 9 -10 27
-33 42 -51 35 -45 40 -33 8 22 -16 28 -31 74 -38 123 -11 66 -15 78 -31 76
-11 -1 -26 7 -35 17 -10 13 -44 24 -96 34 -44 8 -81 19 -83 25 -5 14 -121 14
-142 1z"/>
<path d="M2470 1238 c0 -27 -8 -44 -32 -69 -22 -22 -33 -27 -36 -18 -7 29 -25
58 -32 54 -14 -9 -21 28 -8 37 15 10 -45 0 -77 -13 -19 -8 -19 -8 3 -15 12 -3
22 -12 22 -19 0 -7 7 -18 16 -26 18 -15 58 -93 68 -131 6 -28 35 -39 37 -15 2
37 12 69 33 112 21 45 24 47 34 28 10 -18 20 -52 37 -128 3 -11 14 -49 25 -85
14 -44 18 -52 14 -25 -4 22 -8 56 -10 75 -2 19 -24 89 -48 155 -37 99 -45 114
-46 83z"/>
<path d="M685 1060 c-22 -4 -43 -6 -48 -3 -4 2 -19 -5 -33 -16 -15 -12 -33
-21 -41 -21 -7 0 -16 -7 -19 -15 -3 -8 -15 -17 -26 -21 -36 -11 -111 -67 -116
-86 -2 -11 -17 -21 -32 -25 -20 -4 -29 -12 -33 -32 -3 -14 0 -29 6 -34 9 -5 7
-11 -5 -21 -29 -22 -23 -41 7 -22 13 9 31 16 39 16 9 0 22 13 30 29 9 16 28
33 44 39 15 5 35 16 43 24 32 32 64 47 85 42 15 -4 23 -1 26 10 2 13 7 14 28
3 21 -11 31 -10 62 5 51 25 104 24 111 -2 4 -16 11 -19 36 -14 19 4 31 2 31
-4 0 -6 17 -14 38 -18 20 -4 40 -12 44 -18 5 -6 8 -2 8 10 0 12 3 42 6 68 6
39 4 46 -9 41 -26 -11 -99 14 -104 36 -3 10 -10 20 -17 20 -6 1 -18 2 -26 3
-8 0 -34 -2 -58 -5 -34 -5 -42 -3 -38 8 3 7 4 12 3 12 -1 -1 -20 -5 -42 -9z"/>
<path d="M213 754 c-15 -13 -32 -24 -36 -24 -9 0 -31 -17 -55 -42 -9 -10 -22
-18 -28 -18 -7 0 -14 -5 -16 -12 -2 -6 -21 -11 -41 -10 l-37 1 0 -74 c0 -41 2
-75 4 -75 3 0 25 14 50 31 33 22 46 37 46 54 0 13 -4 27 -10 30 -20 12 -10 35
15 35 14 0 25 5 25 10 0 6 9 10 19 10 11 0 32 13 48 28 15 16 36 31 46 35 10
4 16 11 13 16 -4 5 -1 11 6 13 8 3 6 7 -4 11 -10 3 -28 -4 -45 -19z"/>
<path d="M2960 254 c-6 -16 -13 -35 -15 -41 -6 -17 38 -38 110 -53 33 -7 95
-25 137 -41 43 -16 89 -29 104 -29 22 0 25 3 21 22 -12 51 -40 118 -49 118 -5
0 -4 -8 2 -19 14 -27 13 -44 -4 -38 -7 3 -18 1 -24 -5 -8 -8 -14 -3 -23 18
-18 46 -25 58 -36 61 -7 3 -9 -4 -6 -16 7 -28 -27 -29 -45 -1 -7 11 -23 20
-37 20 -14 0 -25 4 -25 9 0 6 -8 10 -17 10 -10 0 -33 3 -50 7 -29 6 -34 3 -43
-22z"/>
</g>
</svg>
