<?xml version="1.0" standalone="no"?>
<!DOCTYPE svg PUBLIC "-//W3C//DTD SVG 20010904//EN"
 "http://www.w3.org/TR/2001/REC-SVG-20010904/DTD/svg10.dtd">
<svg version="1.0" xmlns="http://www.w3.org/2000/svg"
 width="300.000000pt" height="200.000000pt" viewBox="0 0 300.000000 200.000000"
 preserveAspectRatio="xMidYMid meet">
<metadata>
Created by potrace 1.16, written by Peter Selinger 2001-2019
</metadata>
<g transform="translate(0.000000,200.000000) scale(0.100000,-0.100000)"
fill="#000000" stroke="none">
<path d="M1081 230 c-149 -144 -202 -202 -198 -214 9 -22 29 -20 50 4 18 21
37 26 37 10 0 -5 -4 -10 -10 -10 -5 0 -10 -4 -10 -10 0 -7 212 -10 616 -10
583 0 616 1 609 17 -9 25 -22 105 -30 184 l-6 65 -74 0 c-67 -1 -76 -4 -91
-25 -9 -13 -17 -40 -18 -60 -1 -33 -3 -36 -31 -36 -35 0 -45 26 -21 51 9 8 16
22 16 30 0 8 5 14 10 14 6 0 10 7 10 15 0 9 -9 15 -25 15 -22 0 -25 -4 -25
-35 0 -36 -25 -75 -47 -75 -7 0 -13 6 -13 14 0 23 30 86 40 86 6 0 10 5 10 10
0 6 -11 10 -25 10 -18 0 -23 -4 -19 -15 4 -9 0 -15 -10 -15 -9 0 -16 7 -16 17
0 15 -2 15 -19 -1 -11 -10 -25 -31 -31 -47 -11 -27 -38 -38 -53 -23 -3 4 3 24
13 44 l19 38 -27 -4 c-16 -3 -42 2 -58 11 -35 18 -85 20 -103 3 -11 -11 -13
-7 -7 20 5 31 -9 72 -26 72 -5 0 -8 -14 -8 -30 0 -17 -6 -33 -14 -36 -23 -9
-75 24 -82 51 -4 17 -15 27 -33 31 -14 3 -42 11 -61 18 l-35 13 -204 -197z"/>
</g>
</svg>
