<?xml version="1.0" standalone="no"?>
<!DOCTYPE svg PUBLIC "-//W3C//DTD SVG 20010904//EN"
 "http://www.w3.org/TR/2001/REC-SVG-20010904/DTD/svg10.dtd">
<svg version="1.0" xmlns="http://www.w3.org/2000/svg"
 width="533.000000pt" height="400.000000pt" viewBox="0 0 533.000000 400.000000"
 preserveAspectRatio="xMidYMid meet">
<metadata>
Created by potrace 1.16, written by Peter Selinger 2001-2019
</metadata>
<g transform="translate(0.000000,400.000000) scale(0.100000,-0.100000)"
fill="#000000" stroke="none">
<path d="M4170 3848 c-63 -84 -126 -167 -140 -184 -14 -17 -32 -40 -41 -51
-15 -18 -18 -118 -29 -974 -7 -525 -10 -1024 -7 -1109 l6 -155 78 -59 c43 -32
148 -108 233 -168 85 -61 161 -115 168 -121 8 -6 12 -6 12 1 0 6 -54 48 -121
94 -67 45 -175 122 -240 170 l-119 88 2 262 c3 257 3 259 5 61 3 -185 10 -232
27 -187 3 9 6 24 6 35 0 21 5 22 95 19 149 -6 137 -8 130 20 -9 34 -13 36 -30
14 -14 -18 -14 -18 -15 4 0 13 -6 22 -15 22 -8 0 -15 -6 -15 -14 0 -8 -8 -17
-17 -21 -14 -5 -15 -3 -6 6 15 15 -7 39 -36 39 -12 0 -21 6 -21 15 0 10 10 15
30 15 17 0 30 -5 30 -10 0 -6 10 -8 24 -4 13 3 27 1 30 -5 24 -39 58 36 49
107 -6 47 -15 53 -31 20 l-11 -23 0 23 c-1 12 4 22 9 22 6 0 10 9 10 20 0 13
-7 20 -20 20 -14 0 -20 7 -20 21 0 15 -4 19 -16 15 -9 -3 -17 -6 -18 -6 -2 0
-2 -16 0 -35 1 -19 -2 -35 -7 -35 -5 0 -9 14 -9 30 0 25 -4 30 -24 30 -13 0
-26 -3 -29 -7 -2 -5 -2 -2 -1 5 2 6 -3 12 -10 12 -9 0 -17 -18 -22 -52 -4 -29
-9 -45 -12 -35 -2 9 -7 17 -11 17 -17 0 2 105 23 128 l21 24 -26 -7 c-27 -7
-27 -7 -29 100 -2 74 17 372 24 383 4 6 3 12 -3 12 -5 0 -13 9 -16 20 -7 21
-31 27 -37 10 -4 -13 0 253 8 597 3 145 10 260 15 258 12 -8 29 29 29 62 0 21
3 24 10 13 6 -10 10 0 12 35 2 34 7 49 16 47 11 -2 16 10 13 30 0 4 5 5 12 3
12 -5 74 73 69 88 -3 11 70 72 85 71 7 -1 13 4 13 11 0 7 12 21 28 30 15 10
31 24 35 32 4 7 14 13 21 13 7 0 19 11 26 24 7 14 22 26 34 28 14 2 20 9 18
22 -2 10 1 15 6 12 20 -12 46 35 50 94 l4 60 -99 0 -99 0 -114 -152z"/>
<path d="M4556 3848 c-8 -205 -26 -1971 -26 -2479 l0 -406 266 -182 c146 -101
268 -180 271 -177 3 2 1 11 -3 18 -5 7 -7 24 -6 38 2 17 -5 33 -19 45 -12 11
-19 14 -15 8 11 -20 0 -16 -77 31 -140 84 -157 86 -41 4 82 -57 128 -94 104
-82 -19 9 -409 269 -431 286 -13 11 -16 36 -17 135 l-1 122 30 -6 29 -5 1 63
c1 35 4 54 6 41 6 -30 23 -28 23 3 0 16 6 25 15 25 10 0 15 -10 15 -31 0 -24
3 -30 16 -25 9 3 29 6 45 6 21 0 29 5 29 18 1 15 2 15 12 -2 9 -16 6 -24 -23
-47 -33 -28 -34 -28 -9 -28 14 0 34 6 44 14 11 8 25 15 32 15 16 0 26 -32 18
-54 -5 -14 -9 -15 -16 -4 -7 10 -11 10 -15 1 -3 -9 -10 -10 -22 -3 -10 5 -21
7 -25 3 -7 -7 3 -53 15 -69 14 -17 -1 -24 -50 -24 -33 0 -42 -3 -31 -10 8 -5
32 -10 52 -10 29 0 36 -3 32 -15 -4 -8 -1 -15 6 -15 6 0 9 -4 5 -9 -3 -5 0
-13 6 -17 6 -3 15 -1 19 6 6 9 9 7 14 -7 5 -16 21 -20 119 -30 61 -5 113 -10
113 -9 1 1 3 109 5 240 l4 239 -25 2 c-14 2 -29 0 -34 -3 -5 -3 -43 -4 -84 -3
-80 3 -91 -3 -93 -49 -1 -22 -2 -21 -10 8 -11 36 -29 34 -29 -3 0 -30 -27 -41
-35 -14 -5 15 -10 17 -20 9 -7 -6 -19 -8 -28 -4 -20 7 -35 -35 -16 -47 7 -4
17 -5 22 -2 5 3 13 -1 18 -8 14 -22 10 -49 -6 -49 -8 0 -15 5 -15 10 0 6 -5 9
-12 8 -7 -2 -16 17 -22 43 -7 29 -16 44 -23 42 -8 -3 -13 4 -13 15 0 11 6 23
13 25 9 4 9 8 -2 15 -21 15 3 24 44 16 21 -4 35 -12 35 -21 0 -8 5 -11 11 -8
12 8 -17 45 -36 45 -7 0 -18 7 -25 15 -7 8 -23 15 -36 15 -27 0 -30 15 -12 55
10 22 9 28 -3 36 -8 5 -9 9 -2 9 20 0 45 31 35 44 -5 6 -12 24 -16 40 -4 17
-15 35 -24 42 -12 9 -16 25 -14 68 1 31 -2 65 -7 74 -6 11 -4 36 5 72 8 30 12
69 9 87 -3 18 -2 40 3 50 44 86 49 102 39 112 -6 6 -17 11 -25 11 -11 0 -12
29 -8 168 4 92 7 174 7 182 1 8 -4 69 -10 134 -6 67 -9 199 -6 305 2 102 7
357 10 566 3 209 9 390 12 403 5 20 2 22 -40 22 l-45 0 -6 -152z"/>
<path d="M5100 3991 c0 -6 5 -13 10 -16 6 -3 10 0 10 7 1 16 39 -32 40 -49 0
-7 8 -13 19 -13 14 0 21 -10 26 -37 9 -50 31 -90 55 -103 28 -15 25 -28 -5
-23 -26 5 -55 -16 -55 -39 1 -8 6 -6 15 6 11 15 18 17 27 8 8 -8 8 -15 0 -25
-9 -10 -8 -28 4 -73 16 -63 34 -92 35 -58 0 17 1 17 11 -3 6 -13 17 -23 25
-23 10 0 13 43 13 225 l0 225 -115 0 c-65 0 -115 -4 -115 -9z"/>
<path d="M3898 3488 c-58 -72 -98 -135 -90 -143 4 -5 2 -5 -5 -1 -7 4 -19 -5
-30 -21 -9 -15 -33 -47 -51 -71 l-35 -42 -2 -618 c-2 -568 -1 -581 4 -167 l6
450 3 -424 c1 -233 4 -422 7 -420 2 3 5 113 6 244 2 305 13 584 24 609 6 14 5
17 -3 12 -7 -4 -12 -2 -12 3 0 6 5 11 11 11 8 0 8 4 2 13 -6 7 -7 41 -4 80 5
52 12 73 27 85 11 9 33 37 48 61 15 24 41 56 56 71 43 42 75 119 61 143 -8 12
-9 23 -3 30 9 11 24 137 17 137 -1 0 -18 -19 -37 -42z"/>
<path d="M3588 3077 l-68 -85 0 -159 c0 -88 3 -290 7 -449 l7 -289 12 125 c7
69 13 150 13 180 1 34 4 50 10 42 10 -17 17 7 27 91 4 31 10 54 14 52 7 -4 20
79 40 250 6 46 5 74 -2 83 -8 9 -7 23 1 50 7 20 11 72 9 116 l-3 78 -67 -85z"/>
<path d="M3450 3111 c0 -6 -10 -11 -22 -11 -13 0 -36 -7 -52 -15 -15 -8 -34
-15 -41 -15 -7 0 -18 -7 -25 -15 -7 -9 -19 -14 -27 -11 -10 4 -13 -15 -13 -93
0 -118 17 -165 56 -155 19 5 24 2 24 -12 0 -15 2 -16 9 -5 6 10 12 -2 20 -40
6 -30 24 -92 40 -137 22 -62 31 -78 34 -60 2 13 5 5 6 -19 2 -63 17 -52 24 17
11 104 29 482 23 488 -3 3 -1 11 5 18 13 16 1 64 -16 64 -7 0 -20 3 -29 6 -9
3 -16 1 -16 -5z"/>
<path d="M3190 2730 c0 -5 -13 -8 -30 -6 -16 2 -28 1 -28 -3 1 -3 -10 -29 -25
-58 -15 -29 -27 -57 -27 -63 0 -6 -6 -18 -12 -25 -7 -7 -23 -31 -36 -52 -25
-42 -37 -46 -132 -47 l-55 -1 -6 90 -5 90 -2 -87 c-1 -48 -6 -89 -11 -92 -11
-7 -328 -18 -493 -17 -77 1 -135 -3 -145 -10 -16 -10 -18 -27 -15 -178 3 -143
1 -170 -12 -184 -9 -9 -12 -18 -7 -21 5 -3 12 2 16 12 6 14 9 12 20 -12 13
-31 9 -66 -7 -66 -6 0 -7 -8 -4 -17 4 -9 1 -20 -6 -24 -9 -6 -8 -12 5 -27 16
-17 16 -20 2 -32 -16 -13 -28 -4 -55 42 -11 18 14 53 31 43 10 -7 12 6 3 29
-7 17 -57 20 -104 7 -22 -6 -25 -12 -25 -57 -1 -27 -2 -70 -3 -96 l-2 -47 -32
6 c-18 3 -40 14 -48 24 -10 13 -20 16 -29 10 -12 -8 -13 -16 -3 -49 7 -22 12
-53 12 -69 0 -29 17 -87 42 -145 7 -14 25 -34 40 -43 38 -22 35 -35 -9 -35
-21 0 -56 -3 -78 -6 -33 -6 -38 -4 -27 7 6 7 27 13 46 13 24 0 32 4 29 13 -3
7 -11 13 -19 13 -15 0 -44 86 -45 134 0 17 -6 49 -14 71 -11 34 -13 36 -14 14
-1 -21 -7 -28 -32 -33 -45 -9 -49 -8 -49 9 0 25 -28 72 -46 79 -15 6 -16 1
-11 -41 8 -66 44 -171 68 -196 39 -42 10 -121 -51 -136 -63 -17 -100 -17 -100
0 0 6 -6 17 -12 24 -37 41 -39 47 -35 102 4 64 -15 147 -39 174 -24 26 -34 15
-34 -37 0 -24 -2 -44 -3 -44 -2 0 -93 -32 -203 -70 -109 -39 -296 -105 -414
-146 -118 -41 -231 -81 -250 -88 -19 -8 -43 -17 -53 -20 -10 -3 -16 -10 -12
-15 5 -8 55 8 235 73 19 7 94 34 165 60 72 26 146 53 165 61 163 65 402 146
409 139 3 -3 -2 -10 -12 -16 -16 -8 -18 -23 -16 -131 l2 -122 -54 -32 c-89
-53 -88 -54 4 -11 48 22 90 38 93 36 6 -7 -138 -96 -256 -159 -25 -13 -47 -27
-50 -30 -6 -7 -72 -43 -80 -44 -3 0 -47 -25 -98 -55 -52 -30 -115 -66 -141
-80 -26 -14 -63 -38 -82 -53 -20 -15 -46 -27 -58 -27 -12 0 -32 -9 -44 -20
-12 -12 -32 -23 -44 -26 -12 -3 -40 -23 -63 -45 -22 -21 -55 -46 -72 -55 -17
-9 -41 -25 -52 -36 -12 -11 -33 -26 -48 -34 -16 -8 -28 -18 -28 -23 0 -5 -15
-14 -32 -22 -18 -7 -35 -16 -38 -19 -3 -4 -32 -21 -65 -39 -33 -18 -78 -43
-100 -56 -22 -13 -83 -46 -135 -73 l-95 -49 -3 -143 -3 -144 21 25 c47 54 82
89 91 89 5 0 14 12 19 26 7 17 15 24 26 20 8 -3 17 1 20 9 3 8 26 24 50 35 24
12 44 28 44 35 0 7 20 23 45 35 25 12 45 25 45 29 0 16 50 61 87 77 21 10 43
20 48 23 6 2 4 -3 -4 -13 -8 -9 -11 -19 -7 -23 3 -3 6 -1 6 5 0 7 4 12 9 12 5
0 26 16 47 35 32 29 36 38 24 45 -12 8 -11 10 7 10 12 0 24 8 27 18 4 10 22
26 41 35 19 9 34 22 33 28 -2 7 24 24 57 38 33 14 69 34 80 44 32 28 123 85
142 89 10 2 19 13 21 25 2 15 13 24 33 28 16 4 27 10 24 14 -2 5 30 25 71 46
42 21 94 57 117 80 23 23 65 55 92 71 28 15 72 45 98 66 27 21 54 38 60 38 7
0 23 9 37 20 29 23 50 26 50 6 0 -8 7 -16 15 -20 8 -3 15 -1 15 4 0 6 5 10 11
10 6 0 17 7 25 15 9 8 24 15 35 15 10 0 28 9 39 20 11 11 26 20 33 20 18 0
-71 -76 -131 -111 -65 -39 -77 -58 -62 -104 6 -19 15 -35 19 -35 15 0 38 38
47 79 12 58 68 100 137 103 27 1 51 6 53 13 3 6 19 9 38 7 28 -3 37 1 52 23
10 15 23 48 29 73 7 25 18 48 25 50 8 3 10 -2 5 -17 -17 -54 56 -64 120 -17
56 42 94 56 139 50 22 -3 60 -1 84 5 29 8 48 9 61 2 14 -8 20 -7 25 4 4 11 22
15 73 15 58 0 65 2 48 13 -15 12 10 15 180 19 148 4 199 9 206 19 13 22 0 29
-56 29 -38 0 -54 4 -59 15 -4 12 -30 15 -146 15 -92 0 -139 4 -135 10 3 6 58
11 123 12 l117 2 -115 5 c-128 7 -135 20 -15 32 l70 6 -68 2 c-48 1 -66 4 -61
12 4 8 33 10 85 7 43 -3 84 -1 91 4 8 4 -9 8 -40 8 -33 0 -51 4 -47 10 4 6
-10 10 -34 10 -23 0 -41 5 -41 10 0 6 60 10 159 10 186 0 221 5 221 31 0 10
-9 23 -19 29 -24 12 -36 47 -23 63 15 19 59 138 67 180 7 44 83 136 95 117 4
-7 11 -11 16 -10 5 1 16 -21 24 -49 9 -33 19 -50 27 -46 7 2 15 -6 19 -20 3
-14 14 -29 23 -34 28 -16 40 73 42 309 l2 215 11 -275 10 -275 8 129 c4 71 10
131 14 135 4 3 4 -25 0 -63 -6 -57 -5 -66 7 -55 9 10 13 57 15 179 1 91 -2
159 -6 152 -15 -22 -32 34 -32 104 0 45 -3 63 -11 58 -8 -4 -7 1 1 15 7 14 8
34 4 54 -4 18 -7 38 -5 45 1 6 -5 12 -14 12 -8 0 -15 -4 -15 -10z"/>
<path d="M3726 2444 c-3 -9 -6 -183 -6 -388 -1 -319 2 -372 15 -382 8 -6 12
-14 8 -17 -3 -4 7 -7 24 -7 38 0 47 -10 25 -26 -15 -11 -10 -13 33 -10 69 4
90 -5 41 -19 l-39 -11 34 -21 c18 -12 37 -20 41 -17 4 3 7 187 8 409 0 222 3
418 6 434 3 15 1 38 -5 50 -11 19 -20 21 -95 21 -68 0 -85 -3 -90 -16z"/>
<path d="M1826 2404 c-4 -20 -6 -72 -5 -117 l2 -82 -31 3 c-22 3 -32 -1 -32
-10 0 -8 -9 -34 -21 -57 -22 -47 -23 -43 29 -99 8 -9 10 -27 6 -53 -7 -44 0
-49 25 -17 l18 22 14 -29 c20 -41 38 -43 46 -5 3 19 13 35 24 37 10 3 20 12
23 20 5 11 2 13 -11 8 -41 -16 -48 -12 -46 30 1 22 -1 118 -4 213 -4 129 -9
172 -18 172 -7 0 -16 -16 -19 -36z"/>
<path d="M4973 2363 c-12 -2 -24 -14 -26 -26 l-4 -22 -2 23 c-1 14 -7 22 -19
22 -15 0 -18 -6 -14 -31 4 -24 1 -30 -8 -24 -9 6 -11 -2 -8 -33 2 -24 -1 -40
-7 -39 -6 1 -10 -31 -10 -83 l0 -85 33 -3 c33 -3 40 6 20 26 -9 9 -9 17 1 36
7 13 11 32 8 42 -3 11 -2 48 2 84 l8 65 2 -52 1 -51 31 11 31 12 -26 5 c-20 4
-23 8 -16 20 7 12 12 12 22 2 9 -9 17 -7 35 10 13 12 23 26 23 31 0 6 7 19 17
29 9 10 14 20 12 23 -8 7 -83 13 -106 8z"/>
<path d="M1620 2210 c12 -7 12 -12 -3 -28 -14 -15 -19 -40 -20 -109 -2 -75 -5
-93 -24 -117 -28 -35 -29 -52 -4 -59 13 -3 21 1 24 12 3 9 5 -6 6 -33 1 -42 3
-47 19 -40 9 4 29 7 44 7 15 0 25 4 22 8 -5 9 8 13 39 10 10 -2 17 5 17 14 0
16 -7 16 -55 -1 -11 -4 -52 78 -55 111 -5 45 0 64 15 59 11 -5 15 1 15 24 0
21 6 32 18 35 13 4 11 5 -5 6 -15 1 -23 -5 -23 -16 0 -31 -13 -3 -16 36 -3 32
0 43 17 55 26 18 17 36 -19 36 -20 0 -23 -3 -12 -10z"/>
<path d="M1964 2187 c-44 -46 -58 -97 -27 -97 9 0 29 -11 43 -25 l26 -25 22
20 22 21 0 -21 c0 -11 5 -20 11 -20 7 0 8 11 4 30 -5 25 -3 30 12 30 23 1 61
30 63 50 9 66 -11 76 -62 30 -18 -16 -27 -30 -20 -30 6 0 12 -7 12 -15 0 -13
-3 -13 -20 -3 -12 8 -20 24 -20 39 0 23 -16 39 -38 39 -4 0 -16 -10 -28 -23z"/>
<path d="M4292 1883 c-3 -10 -7 -46 -7 -80 0 -54 3 -65 23 -78 12 -9 22 -21
22 -27 0 -6 7 -20 17 -30 15 -17 15 -18 -11 -18 -18 0 -26 -5 -23 -12 2 -7 13
-12 25 -10 14 2 26 -6 38 -27 9 -16 23 -27 30 -24 6 2 15 0 19 -6 19 -31 25 1
25 130 l0 140 -22 -7 c-13 -4 -27 -8 -33 -10 -5 -2 -18 14 -27 36 -13 32 -22
40 -43 40 -15 0 -28 -7 -33 -17z"/>
<path d="M5035 1600 c16 -7 16 -9 4 -9 -9 -1 -20 -9 -23 -18 -5 -12 -9 -14
-14 -6 -11 18 -35 18 -69 0 -40 -21 -43 -45 -5 -49 20 -2 27 -8 25 -23 -1 -19
-1 -19 12 -1 8 10 20 16 27 13 10 -4 10 -6 1 -6 -7 -1 -13 -6 -13 -12 0 -17
84 -7 92 11 4 8 7 36 7 63 1 47 1 47 -31 46 -28 0 -30 -2 -13 -9z"/>
<path d="M563 1369 c4 -15 -1 -23 -21 -30 -15 -6 -35 -18 -44 -26 -21 -18 -24
-47 -5 -40 9 3 12 -36 14 -175 1 -136 -2 -177 -10 -169 -7 7 -13 58 -16 124
-3 75 -6 103 -12 85 -4 -15 -3 -72 2 -125 4 -54 8 -108 9 -120 0 -21 4 -22 68
-21 37 1 59 3 49 5 -67 16 -97 364 -37 428 21 23 28 85 9 85 -7 0 -9 -9 -6
-21z"/>
<path d="M1350 1302 c-19 -10 -71 -36 -115 -59 -44 -22 -138 -66 -210 -98
-233 -105 -440 -205 -443 -215 -9 -26 55 0 289 116 140 69 270 134 289 145 19
11 81 43 138 70 56 28 102 53 102 55 0 8 -15 3 -50 -14z"/>
<path d="M790 665 c-25 -19 -49 -35 -54 -35 -5 0 -32 -17 -60 -38 -74 -56
-254 -182 -306 -216 -25 -16 -47 -32 -50 -35 -3 -4 -21 -18 -40 -31 -19 -14
-39 -28 -45 -32 -33 -27 -148 -108 -188 -132 l-47 -30 0 -58 0 -58 129 0 129
0 33 50 c19 27 38 50 42 50 12 0 75 69 69 75 -3 2 0 10 6 17 5 7 12 24 14 38
2 17 12 27 33 34 57 18 104 41 105 52 0 5 14 20 30 32 17 13 30 30 30 38 0 11
6 13 20 9 15 -5 20 -2 20 10 0 9 9 28 20 42 11 14 20 34 20 43 0 20 55 35 85
24 15 -6 17 -3 11 20 -8 33 -36 66 -56 66 -13 0 -13 1 0 10 9 6 18 6 24 0 16
-16 23 -12 30 16 4 14 19 36 34 50 41 36 13 28 -38 -11z"/>
</g>
</svg>
