<?xml version="1.0" standalone="no"?>
<!DOCTYPE svg PUBLIC "-//W3C//DTD SVG 20010904//EN"
 "http://www.w3.org/TR/2001/REC-SVG-20010904/DTD/svg10.dtd">
<svg version="1.0" xmlns="http://www.w3.org/2000/svg"
 width="1200.000000pt" height="540.000000pt" viewBox="0 0 1200.000000 540.000000"
 preserveAspectRatio="xMidYMid meet">
<metadata>
Created by potrace 1.16, written by Peter Selinger 2001-2019
</metadata>
<g transform="translate(0.000000,540.000000) scale(0.100000,-0.100000)"
fill="#000000" stroke="none">
<path d="M0 3926 c0 -811 3 -1477 8 -1479 4 -2 81 -1 172 3 309 14 471 -16
499 -91 61 -167 65 -174 102 -177 49 -5 66 -24 125 -148 59 -121 85 -225 81
-314 l-2 -55 -37 -3 c-29 -2 -39 1 -48 17 -6 12 -16 21 -24 21 -7 0 -31 16
-53 35 -23 19 -44 35 -47 35 -4 0 -36 22 -71 50 -35 27 -67 50 -70 50 -3 0
-41 22 -83 49 -80 51 -176 96 -323 151 -87 32 -108 36 -186 32 l-43 -2 0
-1050 0 -1050 981 0 981 0 -7 38 c-4 20 -9 74 -11 119 -2 45 -8 101 -13 125
-7 28 -6 58 1 90 10 43 9 50 -9 71 -13 13 -24 43 -28 77 -4 30 -15 65 -23 79
-10 14 -16 47 -16 85 -1 33 -4 63 -7 66 -9 8 -59 118 -59 130 0 34 -85 253
-121 310 -9 14 -35 58 -58 97 -24 40 -74 107 -111 149 -84 94 -83 116 3 71 40
-21 97 -68 167 -137 59 -58 127 -121 151 -141 24 -20 54 -45 65 -55 32 -29
125 -150 179 -234 27 -41 63 -97 80 -125 18 -27 47 -88 65 -135 19 -47 48
-123 67 -169 18 -46 33 -93 33 -105 0 -12 17 -56 39 -98 21 -43 56 -129 77
-193 l39 -115 2612 0 c1578 0 2613 4 2613 9 0 17 -152 171 -169 171 -9 0 -44
19 -78 42 -33 24 -89 63 -124 87 -35 24 -77 55 -92 68 -56 46 -148 92 -206
104 l-59 13 37 46 c20 25 49 67 65 93 31 49 51 60 101 59 16 0 38 6 47 15 17
15 18 15 18 -5 0 -15 8 -24 25 -28 14 -3 25 -10 25 -14 0 -5 15 -18 33 -29 19
-11 68 -49 109 -84 116 -96 277 -188 388 -221 303 -90 590 -205 646 -257 12
-11 37 -22 56 -25 34 -6 35 -5 56 42 11 27 24 63 28 79 4 17 26 68 49 115 23
47 55 119 70 160 16 41 38 91 51 110 12 19 25 56 29 82 6 47 37 99 51 86 7 -8
-20 -252 -37 -323 -5 -22 -21 -96 -36 -164 -31 -141 -47 -173 -97 -196 -20
-10 -36 -21 -36 -26 0 -5 711 -9 1680 -9 l1680 0 0 2165 c0 1191 -2 2165 -5
2165 -3 0 -17 -8 -31 -17 -23 -14 -32 -15 -72 -4 -71 19 -106 39 -125 69 -23
40 -37 110 -27 136 5 11 11 33 14 47 9 43 54 65 125 61 56 -3 63 -6 76 -32 8
-16 15 -39 15 -52 1 -13 7 -34 15 -48 13 -22 14 32 15 443 l0 467 -1160 0
c-638 0 -1160 -2 -1160 -4 0 -3 7 -12 16 -20 8 -9 18 -33 22 -54 9 -52 2 -242
-9 -263 -5 -10 -9 -72 -9 -138 l0 -120 -72 -52 c-40 -28 -111 -69 -158 -90
-47 -22 -93 -44 -102 -49 -46 -26 -66 -4 -38 42 11 18 24 43 29 55 5 11 15 24
20 28 6 3 11 15 11 26 0 10 4 19 9 19 5 0 11 26 14 58 7 78 11 92 27 102 44
27 4 118 -68 150 -23 10 -45 26 -48 35 -8 20 16 67 30 62 20 -8 46 14 46 37 0
13 11 40 25 60 14 20 25 40 25 45 0 4 9 16 20 26 47 43 36 45 -245 45 l-265 0
-11 -27 c-20 -52 -22 -101 -6 -127 16 -24 16 -25 -35 -66 l-52 -41 -13 23
c-20 37 -15 65 27 150 22 45 40 83 40 85 0 1 -242 3 -538 3 l-537 0 -13 -28
c-7 -16 -31 -44 -53 -61 l-40 -33 6 39 c3 21 8 48 11 61 l4 22 -615 0 c-403 0
-615 -3 -615 -10 0 -13 -47 -13 -55 0 -8 12 -175 13 -175 1 0 -5 -10 -12 -22
-15 -21 -7 -21 -8 -5 -14 16 -7 12 -14 -33 -56 l-51 -48 -19 25 c-11 14 -20
30 -20 35 0 6 19 26 43 46 l42 36 -299 0 c-270 0 -301 -2 -318 -17 -19 -17
-21 -17 -50 0 -26 15 -60 17 -260 17 -210 0 -229 -1 -217 -16 7 -9 14 -23 15
-32 2 -8 8 -18 14 -22 7 -4 11 -10 11 -14 -2 -17 1 -17 22 -3 44 28 131 21
163 -14 13 -15 15 -22 6 -31 -9 -9 -12 -9 -12 2 0 9 -5 8 -15 -6 -14 -17 -16
-18 -28 -3 -7 10 -18 13 -27 8 -8 -4 -23 -10 -32 -13 -12 -3 -18 -15 -18 -34
0 -45 -27 -62 -93 -59 -50 2 -57 5 -57 23 0 11 -10 30 -21 43 -16 17 -21 36
-21 71 0 41 4 53 28 74 l29 25 -2522 1 -2523 0 0 -1474z m5507 1351 c15 -23
26 -45 25 -49 -1 -5 4 -8 11 -8 17 0 32 -30 31 -60 -3 -88 -6 -101 -29 -127
-24 -27 -24 -27 -25 -5 0 12 -4 22 -10 22 -5 0 -10 -4 -10 -10 0 -18 -35 -10
-56 13 -49 53 -31 89 31 63 21 -9 42 -13 47 -10 16 10 0 54 -43 120 -43 67
-51 105 -20 97 11 -3 32 -24 48 -46z m2173 -65 c-90 -69 -157 -147 -175 -202
-11 -34 -35 -74 -63 -105 -105 -117 -139 -189 -151 -315 -6 -70 -13 -98 -30
-118 -12 -15 -25 -36 -30 -47 -5 -12 -16 -27 -25 -34 -14 -12 -16 -9 -16 22 0
53 46 221 79 285 16 31 51 86 77 121 100 131 94 119 94 202 0 56 -4 80 -15 89
-34 29 -5 79 58 100 21 6 75 14 120 16 45 2 86 9 91 14 5 5 12 7 15 4 3 -3
-10 -17 -29 -32z m-1846 9 c17 -19 14 -40 -16 -98 -13 -26 -5 -51 19 -60 10
-4 26 -15 36 -24 18 -17 18 -18 0 -46 -33 -52 -41 -57 -78 -46 -25 8 -40 7
-59 -3 -23 -11 -27 -11 -36 6 -15 28 -11 91 8 131 22 46 95 159 103 159 3 0
13 -8 23 -19z m609 -10 c51 -12 52 -14 33 -52 -26 -52 -4 -80 57 -70 4 0 7 -3
7 -9 0 -5 7 -10 16 -10 12 0 14 -4 7 -12 -16 -21 -22 -58 -10 -58 27 0 144 42
169 60 57 42 128 8 128 -61 0 -15 24 -76 52 -135 64 -132 70 -182 39 -359 -12
-66 -24 -171 -28 -232 -5 -103 -8 -113 -25 -113 -28 0 -255 58 -280 71 -12 7
-83 10 -191 9 -95 -1 -190 -2 -212 -2 -22 1 -44 -3 -49 -8 -6 -6 -33 -10 -60
-10 -28 -1 -92 -7 -143 -14 -60 -8 -97 -9 -109 -3 -12 7 -15 6 -10 -2 4 -6 4
-11 -1 -11 -4 0 -18 -3 -29 -6 -19 -5 -21 -1 -21 35 0 25 4 38 10 34 6 -4 8 0
4 10 -4 12 -1 17 10 17 12 0 13 3 4 13 -10 13 -6 27 9 27 3 0 13 -13 23 -29
16 -28 18 -28 64 -18 58 13 55 11 47 31 -4 9 -12 15 -19 12 -7 -2 -23 6 -35
18 l-21 24 24 28 c22 25 27 27 50 17 44 -20 89 2 171 87 64 67 76 84 81 120 3
24 12 63 20 87 8 24 15 50 15 58 0 20 66 92 84 92 31 0 78 27 91 54 l15 27
-41 7 c-34 6 -46 3 -68 -14 -61 -49 -108 -51 -96 -3 3 15 11 29 16 30 5 2 9
10 9 17 0 7 7 15 15 19 26 9 12 75 -20 98 -5 4 -10 13 -11 20 0 7 -4 28 -8 46
-13 55 11 72 103 72 42 0 93 -4 114 -9z m-5280 -67 c29 -31 26 -62 -9 -95 -32
-30 -80 -27 -115 7 -33 32 -28 57 17 79 18 8 36 20 39 25 11 18 44 10 68 -16z
m9410 -23 c27 -10 43 -55 38 -101 -2 -14 -6 -54 -10 -89 -3 -35 -11 -66 -17
-68 -14 -5 -41 59 -49 116 -3 23 -17 58 -32 77 -25 33 -25 35 -8 54 20 22 41
25 78 11z m-9685 -57 c30 -21 28 -53 -8 -105 -16 -24 -30 -51 -30 -59 0 -26
-21 -40 -42 -29 -22 12 -128 121 -128 132 0 15 35 45 70 60 46 20 110 21 138
1z m4325 -68 c18 7 24 -11 7 -21 -15 -9 -12 -32 8 -51 16 -17 16 -18 -1 -11
-15 6 -16 2 -11 -35 5 -29 4 -39 -4 -34 -7 4 -14 -3 -18 -19 -6 -24 -24 -36
-24 -15 0 6 -5 10 -11 10 -14 0 -97 70 -104 88 -6 17 33 74 46 66 6 -3 18 1
27 9 20 18 55 26 63 15 3 -5 13 -6 22 -2z m-1155 -64 c3 -27 9 -36 33 -44 22
-8 28 -15 24 -28 -10 -32 14 -32 105 0 49 17 93 29 99 26 16 -10 40 -94 34
-118 -4 -13 -23 -44 -45 -69 -21 -26 -38 -49 -38 -53 0 -21 139 31 140 53 0
21 71 6 93 -20 9 -12 17 -33 17 -48 1 -14 11 -55 24 -91 22 -61 25 -65 52 -63
16 1 83 4 149 6 114 3 165 15 165 37 0 6 -5 10 -11 10 -5 0 -7 5 -4 10 3 6 2
10 -3 10 -5 0 -19 24 -30 54 -22 59 -17 109 14 141 22 22 64 20 64 -4 0 -26
40 -50 73 -44 16 3 27 1 27 -6 0 -6 -11 -11 -25 -11 -14 0 -25 -4 -25 -8 0 -5
-9 -19 -20 -32 -35 -40 -26 -63 29 -83 31 -11 51 -24 54 -37 5 -20 25 -25 75
-21 12 1 22 -3 22 -9 0 -5 10 -10 23 -10 32 0 49 -49 40 -118 -5 -43 -3 -52 9
-52 26 0 57 33 70 75 8 25 23 45 41 55 26 14 29 14 42 -4 15 -19 10 -68 -7
-74 -4 -2 -8 -9 -8 -15 0 -6 -16 -28 -36 -48 -29 -30 -35 -41 -28 -60 13 -38
5 -62 -29 -91 -35 -30 -32 -32 41 -28 17 1 32 -2 32 -7 0 -5 87 -9 193 -10
105 -1 208 -4 227 -6 19 -2 84 -10 143 -16 60 -7 120 -20 135 -28 26 -14 26
-14 -18 -9 -265 31 -429 37 -803 30 -318 -5 -391 -9 -403 -21 -33 -33 -11 -43
71 -32 91 11 355 11 355 -1 0 -5 5 -10 11 -10 5 0 7 5 4 10 -4 6 13 10 44 10
42 0 51 -3 51 -17 0 -36 -16 -46 -56 -39 -28 6 -34 10 -23 17 11 7 9 9 -8 9
-13 0 -24 -4 -24 -10 -5 -38 -2 -45 19 -48 24 -4 30 -18 10 -25 -9 -3 -3 -13
15 -28 37 -34 36 -71 -5 -110 -30 -28 -37 -30 -80 -25 -40 6 -49 4 -57 -13
-14 -25 -83 -39 -226 -46 -187 -8 -323 -21 -337 -32 -7 -6 -27 -14 -45 -17
-17 -4 -34 -13 -36 -21 -3 -7 -19 -16 -35 -20 -18 -3 -34 -16 -41 -31 -6 -14
-25 -30 -42 -36 l-32 -11 23 -17 c15 -11 20 -22 15 -30 -10 -16 -26 -133 -28
-205 -2 -57 1 -56 -103 -36 -54 10 -79 11 -103 3 -40 -14 -103 8 -194 67 -58
37 -140 65 -212 73 -26 3 -30 7 -33 38 -5 51 -26 71 -61 57 -15 -5 -43 -7 -62
-3 -29 5 -42 16 -74 67 -28 45 -48 64 -77 76 l-38 15 -2 92 c-2 122 -3 108 17
226 9 58 23 112 30 120 22 25 95 171 95 189 0 9 5 22 10 27 13 13 66 159 81
221 8 32 7 52 -5 88 -20 56 -20 61 -1 45 8 -6 19 -9 24 -5 6 3 21 1 33 -6 17
-9 23 -9 26 0 7 20 32 -8 32 -35 0 -13 5 -24 10 -24 6 0 10 10 10 23 0 29 34
67 60 67 11 0 25 9 32 20 7 11 18 20 25 20 21 0 15 47 -11 77 -53 64 -72 137
-41 163 15 13 134 29 195 26 32 -1 35 -4 38 -34z m6463 -106 c32 -52 20 -96
-26 -96 -36 0 -64 29 -80 82 -8 28 -20 57 -26 64 -9 11 -8 18 1 28 10 13 19
10 62 -16 27 -17 59 -45 69 -62z m-821 -141 c0 -28 -20 -75 -32 -75 -4 0 -8
-7 -8 -15 0 -8 -11 -25 -25 -37 -13 -11 -22 -25 -19 -29 2 -4 -4 -7 -14 -6
-22 1 -82 -22 -82 -33 0 -4 -17 -11 -37 -15 -21 -3 -48 -13 -59 -20 -12 -8
-30 -11 -42 -9 -18 5 -42 42 -42 66 0 13 80 88 94 88 5 0 50 19 100 43 164 78
166 79 166 42z m-1718 -152 c4 -2 15 -20 24 -39 9 -20 20 -32 23 -27 3 5 20
19 38 31 32 23 40 22 102 -5 26 -12 35 -12 41 -3 6 9 9 9 16 -1 4 -7 3 -14 -4
-17 -6 -2 -8 -10 -5 -17 4 -12 7 -12 20 1 9 8 25 14 37 12 17 -2 20 -9 18 -30
-3 -20 1 -28 12 -28 9 0 16 -6 16 -14 0 -8 8 -17 18 -21 16 -6 16 -7 -1 -16
-9 -6 -22 -7 -27 -4 -17 10 -28 -36 -17 -72 14 -44 -6 -69 -24 -31 -7 16 -22
28 -40 32 -19 4 -33 14 -39 31 -7 19 -16 25 -37 24 -21 -1 -23 -3 -9 -6 18 -5
18 -6 -5 -19 -23 -13 -23 -13 -2 -14 26 0 38 -15 22 -26 -8 -4 -9 -3 -5 4 4 7
1 12 -8 12 -10 0 -13 -6 -10 -15 4 -9 0 -15 -9 -15 -8 0 -17 7 -21 15 -3 8
-10 15 -16 15 -6 0 -9 -4 -5 -9 9 -16 -25 -43 -40 -31 -17 14 -40 4 -55 -26
-7 -13 -17 -24 -22 -24 -4 0 -8 -11 -8 -25 0 -14 5 -25 10 -25 6 0 10 -7 10
-15 0 -18 -17 -20 -23 -2 -4 10 -7 10 -18 0 -10 -10 -10 -13 0 -13 21 0 46
-31 32 -39 -9 -6 -8 -11 4 -21 12 -10 13 -16 4 -26 -6 -8 -9 -14 -6 -14 15 0
-29 -78 -60 -107 -19 -18 -37 -33 -39 -33 -3 0 -18 -10 -34 -22 -31 -22 -42
-20 -45 10 -1 9 -6 25 -10 35 -7 18 -4 29 17 61 11 15 10 20 -5 30 -47 28 -53
35 -39 44 11 8 11 12 -1 23 -9 9 -15 37 -15 74 -1 33 -4 84 -8 113 -5 44 -4
52 10 52 9 0 16 7 16 16 0 18 -23 44 -40 44 -6 0 -8 5 -5 10 8 13 45 13 45 -1
0 -5 4 -8 9 -5 14 9 11 76 -4 76 -19 0 -6 39 17 51 20 11 58 3 58 -12 0 -5 9
-9 20 -9 26 0 26 16 -1 31 -17 9 -19 13 -8 19 7 5 16 7 20 4 4 -2 12 3 19 11
9 11 23 14 49 9 20 -4 39 -8 43 -11z m2624 -253 c2 -25 6 -59 9 -77 3 -18 0
-36 -7 -45 -7 -7 -21 -29 -32 -47 -21 -38 -51 -71 -65 -71 -5 0 -12 8 -15 17
-6 15 -8 15 -16 3 -14 -23 0 101 16 137 8 17 14 38 14 46 0 9 12 20 28 25 17
7 21 11 10 11 -27 1 -19 32 12 44 32 12 42 2 46 -43z m-8199 -185 c-2 -16 4
-20 33 -21 62 -1 70 -4 70 -19 0 -8 6 -15 13 -15 8 -1 7 -5 -4 -13 -8 -7 -18
-19 -21 -28 -5 -14 -16 -15 -69 -7 -34 4 -65 10 -67 13 -10 10 -10 71 -1 102
9 28 13 31 29 21 11 -7 18 -21 17 -33z m6549 -11 c43 -21 110 -88 134 -134 71
-140 25 -327 -81 -331 -81 -3 -120 11 -172 60 -49 46 -78 100 -92 177 -20 103
8 202 66 231 34 18 105 16 145 -3z m-6948 -86 c7 -7 12 -29 12 -51 0 -34 4
-40 30 -50 24 -9 30 -18 36 -54 7 -46 -4 -65 -45 -78 -28 -9 -121 13 -121 28
0 7 -6 24 -14 39 -13 25 -12 28 25 58 36 28 39 35 33 65 -9 50 14 73 44 43z
m260 -190 c40 -24 37 -43 -7 -43 -35 0 -50 -17 -60 -69 -9 -41 -35 -41 -66 0
-14 18 -29 33 -33 32 -4 -1 -14 2 -22 5 -8 3 -24 7 -35 9 -12 2 2 10 38 22 41
13 62 25 69 42 18 38 55 39 116 2z m4702 -66 c-15 -53 32 -96 75 -68 14 9 32
16 42 16 10 0 27 10 38 23 l20 22 3 -44 c2 -24 10 -54 18 -66 13 -20 13 -25
-4 -45 -22 -27 -52 -22 -52 9 0 19 -45 39 -128 56 -46 9 -60 47 -36 93 21 40
35 42 24 4z m-1550 -105 c-17 -29 -20 -47 -17 -94 4 -55 -12 -111 -35 -121 -5
-2 -8 -10 -8 -18 0 -8 -4 -14 -10 -14 -5 0 -10 -9 -10 -20 0 -11 -4 -20 -8
-20 -8 0 -52 -80 -52 -94 0 -3 8 -6 18 -6 13 0 14 -2 3 -9 -11 -7 -9 -10 9
-16 18 -6 20 -9 9 -16 -19 -12 -32 -11 -24 1 3 6 3 10 -2 10 -15 -1 -41 -26
-46 -45 -3 -11 -3 0 0 25 3 25 16 70 30 100 13 30 39 105 57 167 19 63 47 133
66 162 36 58 53 64 20 8z m-537 -198 c45 -16 89 -29 99 -29 10 0 40 -10 68
-22 57 -25 58 -31 10 -108 -43 -68 -57 -81 -83 -75 -12 3 -56 -1 -97 -9 -75
-14 -97 -12 -115 9 -15 18 -45 26 -45 12 0 -8 -4 -6 -10 3 -8 12 -10 10 -10
-8 0 -20 -2 -22 -15 -9 -16 17 -27 219 -13 256 8 22 12 23 70 17 33 -4 97 -21
141 -37z m1150 -3 c21 -9 54 -20 73 -23 35 -6 44 -17 22 -26 -10 -4 -10 -6 -1
-6 16 -1 24 14 18 32 -4 9 -15 12 -31 9 -19 -3 -24 0 -24 17 0 11 5 21 11 21
6 0 9 -6 6 -14 -4 -9 0 -12 13 -9 24 6 69 -26 71 -52 1 -17 2 -17 6 -3 4 17 6
17 31 1 15 -10 30 -23 35 -30 4 -7 14 -10 22 -7 8 4 15 1 15 -5 0 -6 5 -11 11
-11 18 0 79 -32 79 -41 0 -5 -15 -9 -32 -10 -18 0 -42 -4 -52 -8 -19 -7 -19
-8 2 -13 12 -4 22 -11 22 -18 0 -6 -4 -9 -8 -6 -10 6 -10 -40 1 -50 4 -4 7
-17 7 -28 -1 -19 -2 -19 -15 4 -13 24 -13 23 -8 -17 5 -35 2 -43 -16 -52 -19
-10 -21 -9 -21 11 0 21 -2 20 -20 -10 -24 -39 -25 -43 -5 -36 8 4 13 10 10 14
-3 5 4 8 15 7 29 -2 19 -20 -17 -29 -28 -7 -32 -13 -38 -58 -6 -42 -3 -56 18
-95 24 -42 24 -45 7 -45 -28 0 -60 -39 -60 -72 0 -15 -5 -28 -11 -28 -6 0 -8
-8 -6 -17 16 -57 17 -74 6 -68 -8 5 -9 1 -4 -14 7 -23 -9 -29 -22 -7 -12 21
-50 29 -56 12 -4 -10 0 -12 16 -9 22 4 22 4 3 -11 -11 -9 -27 -17 -35 -18 -32
-3 -36 -4 -48 -11 -8 -5 -13 -4 -13 3 0 6 7 13 15 16 12 5 12 9 -1 28 -15 23
-15 59 0 73 5 5 5 -7 1 -24 -7 -33 6 -46 21 -21 5 7 3 8 -6 3 -9 -5 -10 -2 -5
14 8 27 -4 103 -15 96 -4 -3 -6 -14 -3 -25 3 -12 0 -20 -6 -20 -7 0 -10 4 -7
8 2 4 0 14 -5 22 -9 13 -10 13 -8 0 3 -27 -1 -40 -11 -40 -5 0 -6 8 -3 18 6
15 5 15 -10 4 -9 -8 -21 -10 -28 -6 -8 5 -6 10 7 18 11 6 22 11 27 12 4 1 9 2
12 3 3 0 8 1 12 0 3 0 10 7 15 16 10 17 -8 49 -22 40 -5 -3 -11 1 -13 7 -8 19
-28 -13 -21 -33 5 -18 -22 -53 -35 -45 -4 3 -8 -9 -9 -25 -1 -16 -10 -38 -19
-48 -14 -17 -18 -17 -30 -5 -19 19 -38 7 -21 -13 12 -15 11 -15 -10 -2 -12 8
-20 19 -18 26 3 7 -1 10 -10 6 -7 -3 -14 -10 -14 -15 0 -6 -8 -7 -17 -4 -10 4
-14 4 -11 0 11 -10 -17 -33 -46 -38 -32 -6 -46 -14 -46 -27 0 -6 5 -7 10 -4
15 10 12 0 -9 -24 -16 -18 -20 -19 -25 -6 -5 14 -8 14 -31 -1 -23 -15 -25 -15
-31 2 -4 11 -16 28 -28 39 -19 18 -19 20 -2 23 11 2 15 9 12 19 -4 10 -2 13 8
10 11 -4 13 -1 9 10 -4 11 -2 14 5 9 7 -4 12 -3 12 2 0 5 14 15 30 22 19 8 30
20 31 34 0 11 3 15 6 9 2 -7 9 -13 14 -13 4 0 6 7 3 15 -4 8 -1 22 6 30 9 11
9 15 1 15 -7 0 -9 5 -6 10 4 6 10 8 14 6 3 -3 7 4 7 15 0 10 -4 19 -9 19 -5 0
-6 7 -3 16 8 22 -12 92 -32 114 -9 10 -28 21 -42 25 -14 4 -34 18 -46 30 -11
13 -31 26 -44 30 -42 13 -91 75 -59 75 5 0 7 4 4 10 -4 6 4 6 22 -1 19 -7 29
-7 31 0 2 6 12 11 23 11 10 0 19 7 19 15 0 8 5 15 10 15 6 0 10 9 10 20 0 11
5 20 11 20 5 0 7 -4 4 -10 -8 -13 16 -13 35 1 13 9 12 10 -2 5 -13 -4 -18 0
-18 14 0 11 5 20 10 20 6 0 10 7 10 15 0 23 16 18 39 -11 14 -18 21 -21 21
-12 0 9 -7 21 -16 29 -14 11 -11 16 21 46 20 18 41 31 46 28 5 -4 9 0 9 7 0
11 2 10 9 0 6 -11 9 -9 14 7 4 15 10 18 27 14 13 -3 21 -2 18 3 -3 5 0 15 8
22 10 9 14 10 14 1 0 -8 7 -5 19 5 19 17 19 17 14 -6 -3 -16 -2 -19 5 -10 5 7
15 12 23 10 8 -2 13 4 13 14 -1 10 4 14 12 11 7 -2 21 0 31 5 10 6 20 7 23 3
3 -4 22 -15 43 -25z m-1063 -492 c0 -9 18 -37 40 -63 46 -54 48 -69 19 -153
-12 -37 -18 -74 -15 -91 6 -30 2 -33 -56 -40 -47 -6 -49 -1 -55 139 -6 112 2
162 34 212 15 24 33 21 33 -4z m3030 -43 c0 -11 -9 -40 -19 -64 l-19 -45 -90
-21 c-121 -28 -192 -27 -192 3 0 7 30 17 73 24 87 15 139 38 191 86 45 41 56
44 56 17z m-6430 -51 c3 -25 3 -81 0 -125 -5 -77 -6 -80 -30 -80 -25 0 -25 2
-34 112 -9 122 -3 147 38 141 17 -2 22 -12 26 -48z m3857 1 c6 6 14 4 23 -6
11 -14 11 -20 1 -37 -11 -17 -10 -22 9 -35 18 -13 21 -21 15 -52 -9 -50 -57
-151 -68 -144 -5 3 -16 -5 -25 -18 -17 -25 -19 -28 -21 -54 0 -8 -8 -15 -16
-15 -7 0 -18 -6 -22 -13 -13 -22 -43 -28 -59 -13 -22 23 -17 33 32 67 45 31
46 31 39 8 -8 -27 -6 -25 19 15 10 16 12 25 6 21 -10 -6 -12 1 -7 31 6 42 -12
105 -31 112 -7 2 -12 -6 -12 -17 0 -30 -15 -26 -32 10 -9 17 -19 31 -24 32 -9
2 -7 64 3 80 2 4 13 2 24 -3 11 -6 17 -15 14 -21 -4 -5 -1 -9 4 -9 6 0 11 4
11 9 0 16 33 5 51 -17 25 -32 29 -28 26 27 -3 44 -1 49 13 41 10 -6 21 -5 27
1z m4353 -47 c19 -46 21 -60 12 -75 -9 -15 -9 -23 -1 -38 17 -26 5 -49 -28
-57 -15 -4 -36 -13 -45 -22 -37 -31 -69 14 -69 98 -1 25 6 57 14 73 16 31 66
77 83 77 7 0 22 -25 34 -56z m-5901 -15 c11 -17 33 -39 50 -50 18 -11 31 -27
31 -39 0 -11 7 -31 15 -44 23 -35 10 -78 -21 -74 -16 2 -33 -7 -54 -30 -38
-42 -82 -42 -114 1 -17 23 -18 32 -9 56 6 18 7 33 2 38 -11 11 7 105 27 146
19 36 49 35 73 -4z m-319 -134 c3 -16 13 -42 23 -57 22 -32 17 -73 -14 -112
-18 -23 -17 -56 2 -56 13 0 10 -32 -4 -50 -17 -21 -116 -63 -152 -64 -27 -1
-30 2 -33 34 -2 21 2 38 10 45 8 5 27 20 42 32 l28 22 -32 46 c-18 26 -38 49
-46 52 -16 6 -19 33 -4 33 6 0 32 22 59 49 51 52 66 61 96 58 14 -1 22 -11 25
-32z m3649 -59 c6 -7 13 -60 16 -117 3 -57 10 -108 15 -113 6 -6 10 -105 10
-249 l0 -238 -52 28 c-59 32 -62 37 -77 119 -13 72 -15 348 -2 340 14 -9 21
32 21 122 0 46 5 92 10 103 12 22 43 25 59 5z m-5644 -48 c2 -7 6 -78 8 -158
4 -117 2 -150 -11 -177 -16 -35 -21 -37 -37 -25 -19 14 -20 24 -17 230 l2 142
25 0 c14 0 27 -6 30 -12z m3508 -220 c3 -7 6 6 6 28 1 50 22 64 41 28 8 -13
10 -27 7 -31 -4 -3 -7 0 -7 8 -1 8 -7 -1 -15 -19 -13 -31 -13 -35 5 -54 11
-12 28 -22 37 -23 10 0 24 -4 31 -9 6 -4 12 -2 12 3 0 14 37 14 45 1 3 -6 17
-8 31 -6 38 7 20 -9 -33 -29 -46 -17 -94 -51 -90 -64 3 -13 -24 -51 -34 -46
-17 11 -9 -4 13 -25 12 -11 34 -20 49 -20 20 0 32 -9 47 -34 22 -38 47 -140
38 -161 -2 -7 2 -16 10 -19 8 -3 14 -15 14 -26 0 -11 8 -24 18 -27 9 -4 29
-15 44 -26 24 -18 38 -19 145 -14 65 3 128 8 141 12 l23 8 -1 -129 c-1 -71 0
-138 2 -149 2 -15 -2 -19 -17 -18 -11 2 -60 4 -110 6 -55 2 -105 10 -129 21
-22 9 -45 15 -52 12 -20 -8 -107 40 -168 92 -126 109 -181 195 -246 386 -50
148 -63 233 -37 240 71 19 70 18 90 93 l20 73 33 -35 c17 -19 34 -40 37 -47z
m1423 66 c-3 -8 -1 -24 4 -35 8 -15 7 -19 -5 -19 -18 0 -21 -20 -2 -21 9 0 9
-2 0 -6 -17 -6 -46 -69 -39 -82 4 -5 2 -12 -3 -16 -6 -3 -8 -12 -4 -20 3 -8 0
-15 -6 -15 -6 0 -11 -11 -11 -24 0 -13 -6 -26 -12 -29 -10 -3 -10 -7 0 -19 9
-11 10 -18 2 -23 -12 -7 -14 -41 -2 -48 4 -2 1 -2 -6 0 -7 1 -10 -2 -6 -8 3
-6 18 -8 33 -5 19 5 22 4 11 -3 -8 -6 -12 -12 -9 -15 2 -3 50 14 104 38 199
85 330 119 428 110 65 -6 74 -9 85 -32 7 -14 9 -29 5 -33 -5 -4 -46 -14 -92
-23 -105 -21 -248 -88 -291 -136 -3 -4 -36 -31 -75 -62 -73 -58 -169 -155
-198 -199 -11 -17 -42 -36 -90 -54 -108 -42 -186 -83 -248 -131 -49 -37 -61
-42 -102 -41 -26 1 -47 6 -47 10 0 5 -9 20 -20 34 -11 14 -20 34 -20 44 0 27
-8 24 -51 -21 -21 -21 -40 -36 -43 -31 -3 4 6 29 19 56 14 27 25 56 24 64 0
10 -2 12 -6 4 -6 -16 -33 9 -32 29 0 10 2 10 6 1 8 -21 23 -15 23 10 0 18 2
19 10 7 8 -12 10 -12 10 -1 0 22 27 -5 34 -35 7 -25 9 -24 68 40 79 87 181
166 299 234 30 17 64 41 74 52 10 11 23 20 28 20 6 0 2 -7 -9 -16 -18 -14 -18
-15 4 -4 13 7 21 14 18 17 -3 4 1 15 11 25 9 10 13 21 8 26 -4 4 -10 1 -12 -5
-5 -14 -24 -18 -22 -5 3 18 -2 32 -11 32 -5 0 -7 -8 -4 -17 5 -15 4 -16 -5 -3
-20 28 -13 40 17 30 27 -10 27 -10 5 6 -29 21 -29 34 -1 34 20 0 20 1 4 19
-15 16 -15 19 -1 24 8 4 15 13 15 21 0 10 -6 13 -17 9 -13 -5 -15 -2 -10 11 4
10 7 24 7 32 0 11 6 14 23 9 12 -3 18 -3 12 2 -5 4 -16 16 -23 25 -11 14 -11
16 5 12 16 -5 19 1 18 43 -1 26 -5 57 -9 68 -5 11 0 8 11 -8 l20 -28 17 26
c15 22 15 25 1 25 -9 0 -14 -4 -10 -9 3 -5 1 -12 -5 -16 -5 -3 -10 3 -10 15 0
13 9 24 26 30 32 13 37 12 29 0 -3 -5 1 -10 9 -10 9 0 16 7 16 15 0 8 7 15 16
15 11 0 14 -5 10 -16z m-2903 -63 c5 -21 -58 -95 -107 -127 -16 -10 -24 -20
-17 -22 6 -2 11 -8 11 -14 0 -6 -7 -8 -15 -4 -10 3 -15 -1 -15 -12 0 -9 -3
-40 -6 -68 -6 -47 -5 -51 17 -57 27 -7 159 43 206 79 17 13 33 24 35 24 2 0 3
-30 3 -67 -1 -65 -4 -73 -58 -162 -86 -139 -114 -171 -151 -171 -21 0 -36 -7
-44 -21 -13 -21 -41 -19 -70 4 -7 6 -30 11 -50 11 -30 1 -40 7 -60 36 -13 19
-38 42 -55 52 -18 9 -42 27 -54 40 -26 28 -93 152 -93 172 0 8 15 25 32 38 18
12 41 31 50 40 18 18 163 115 205 137 13 6 33 9 45 6 18 -5 41 8 96 50 41 30
77 55 82 55 4 0 10 -8 13 -19z m4011 0 c12 -14 16 -27 10 -43 -4 -13 -8 -67
-9 -120 -1 -95 -2 -98 -36 -140 -29 -37 -35 -53 -39 -110 -3 -38 -1 -68 3 -68
5 0 6 -11 3 -25 -4 -14 -2 -25 4 -25 5 0 10 -7 10 -15 0 -9 6 -12 15 -9 11 5
13 2 8 -12 -4 -12 -3 -15 5 -10 7 4 12 5 12 2 0 -2 3 -13 7 -23 3 -10 3 -15
-2 -11 -14 13 -65 -65 -58 -89 3 -15 1 -23 -7 -23 -17 0 -100 77 -92 85 4 3
-1 3 -11 0 -12 -5 -19 0 -26 17 -5 13 -20 37 -33 54 -49 60 -54 69 -39 59 13
-7 108 -8 156 -1 29 4 29 28 0 62 -14 16 -25 39 -25 52 0 12 -4 22 -10 22 -5
0 -10 7 -10 15 0 23 -17 18 -52 -15 -25 -24 -40 -30 -75 -30 -32 0 -42 3 -37
12 5 7 7 25 6 40 -1 15 2 28 8 28 13 0 13 27 0 32 -21 7 -21 97 0 143 11 24
20 48 20 53 0 10 23 22 41 22 5 0 9 -6 9 -14 0 -24 61 -1 93 34 15 17 48 39
75 49 60 24 56 24 76 2z m3650 -393 c21 9 26 9 26 -3 0 -13 21 -18 112 -28 41
-4 88 -51 88 -87 0 -21 -5 -30 -16 -30 -9 0 -24 -8 -33 -19 -9 -10 -31 -26
-48 -35 -18 -9 -33 -21 -33 -27 0 -24 -122 -122 -146 -118 -4 0 -11 -6 -15
-14 -5 -8 -21 -18 -36 -22 -15 -3 -31 -12 -35 -18 -6 -9 -10 -8 -17 2 -10 15
-3 51 10 51 5 0 9 9 9 20 0 12 5 17 14 14 8 -3 17 -1 21 5 3 6 1 11 -5 11 -7
0 -8 6 0 19 13 25 13 98 0 106 -5 3 -7 12 -4 19 3 9 -3 17 -15 21 -27 8 -27
41 -1 48 23 6 27 27 5 27 -31 0 -14 27 25 40 24 8 40 20 40 29 0 11 3 11 14
-4 12 -17 18 -18 40 -7z m-7095 -17 c12 -8 12 -31 5 -138 -5 -70 -9 -193 -9
-273 0 -133 2 -152 29 -230 32 -96 37 -200 11 -227 -8 -8 -15 -20 -15 -27 0
-25 -43 -116 -54 -116 -7 0 -48 44 -92 97 -43 53 -92 111 -109 129 -30 33
-208 134 -236 134 -8 0 -27 -12 -44 -26 -33 -29 -210 -152 -284 -198 -86 -53
-142 -101 -176 -151 -19 -27 -55 -77 -80 -110 -81 -106 -77 -103 -104 -86 -11
7 -11 20 -4 65 9 50 8 57 -6 54 -8 -2 -29 -28 -46 -58 -43 -77 -63 -75 -92 10
-12 36 -29 99 -38 140 -9 41 -36 125 -60 185 l-44 110 4 126 c4 126 4 127 -25
173 -17 26 -30 53 -30 62 0 22 26 28 63 13 43 -17 162 -132 202 -194 33 -52
114 -238 136 -312 7 -24 18 -43 25 -43 23 0 64 100 64 157 0 60 -19 113 -86
238 -39 73 -68 109 -149 190 -82 81 -104 108 -112 142 -6 23 -8 45 -5 48 14
14 55 1 159 -51 94 -47 127 -69 206 -144 69 -66 102 -105 122 -147 25 -53 60
-91 78 -85 4 1 7 -2 7 -8 0 -5 7 -7 15 -4 8 4 21 4 29 1 21 -8 8 -55 -18 -63
-11 -3 -53 -41 -93 -83 -62 -66 -73 -84 -87 -138 -9 -34 -16 -65 -16 -68 0
-16 24 1 71 51 30 30 78 74 107 96 28 22 52 47 52 55 0 8 -4 11 -10 8 -6 -3
-10 5 -10 19 0 24 32 54 72 69 30 11 31 -14 2 -44 -15 -16 -25 -29 -22 -29 8
0 228 113 258 132 14 9 36 19 50 23 14 4 44 20 66 36 53 36 103 47 179 38 33
-4 62 -5 64 -3 2 2 -1 16 -8 30 -20 46 -41 162 -41 234 0 71 17 166 33 188 11
14 75 16 96 3z m2920 -186 c70 -16 141 -41 200 -70 50 -25 94 -45 97 -45 3 0
37 -18 75 -40 l69 -41 -1 -62 c0 -34 -4 -70 -8 -80 -6 -16 -11 -15 -51 16
-111 84 -179 125 -200 120 -11 -3 -26 0 -33 6 -43 35 -252 71 -419 71 -117 0
-444 -64 -510 -101 -10 -5 -24 -9 -33 -9 -24 0 -145 -51 -145 -62 0 -5 -4 -6
-10 -3 -5 3 -24 -1 -41 -10 -17 -9 -29 -13 -26 -8 7 11 57 35 132 65 33 12 68
31 78 41 45 45 280 172 362 197 62 18 202 37 283 39 47 1 112 -8 181 -24z
m4394 -192 c7 -28 1 -73 -11 -85 -7 -7 -12 -22 -12 -35 0 -16 -4 -21 -15 -17
-11 4 -15 -1 -15 -17 0 -26 -36 -69 -59 -69 -9 0 -27 -9 -40 -19 -17 -13 -22
-23 -16 -39 7 -24 25 -28 43 -10 7 7 12 8 12 4 0 -14 -34 -35 -57 -36 -12 0
-23 -6 -25 -12 -5 -13 -16 -9 -68 20 -8 5 -24 13 -35 19 -32 16 -53 64 -44 97
11 38 35 64 84 88 22 11 50 29 62 40 30 28 143 86 170 87 13 1 23 -6 26 -16z
m-6327 -462 c51 -10 112 -28 135 -39 47 -21 170 -121 202 -163 19 -26 19 -27
-2 -68 -12 -22 -23 -41 -26 -41 -2 0 -14 20 -26 45 -35 70 -74 110 -136 140
-87 42 -135 46 -326 29 -243 -21 -256 -24 -417 -117 -95 -55 -167 -69 -234
-47 -40 13 -43 18 -20 46 11 13 17 15 20 7 9 -21 81 -15 132 11 26 13 70 31
98 40 48 16 74 43 74 77 0 19 42 70 74 91 29 18 43 19 196 14 105 -3 198 -13
256 -25z m1797 -661 c-5 -28 1 -37 56 -91 33 -33 61 -66 61 -73 0 -9 -23 -15
-67 -20 -38 -4 -93 -14 -124 -22 -31 -9 -67 -14 -80 -12 -20 3 -24 8 -21 36 4
59 52 138 107 176 63 44 76 45 68 6z"/>
<path d="M6670 4901 c-47 -15 -110 -60 -110 -80 0 -11 12 -28 28 -39 46 -32
62 -34 82 -9 10 12 33 38 49 58 37 43 39 64 9 73 -26 7 -25 7 -58 -3z"/>
<path d="M4240 3823 c-8 -3 -31 -20 -51 -37 -20 -17 -53 -44 -73 -59 -59 -46
-38 -57 104 -57 125 0 126 0 158 57 23 42 15 70 -20 82 -47 14 -101 21 -118
14z"/>
</g>
</svg>
