<?xml version="1.0" standalone="no"?>
<!DOCTYPE svg PUBLIC "-//W3C//DTD SVG 20010904//EN"
 "http://www.w3.org/TR/2001/REC-SVG-20010904/DTD/svg10.dtd">
<svg version="1.0" xmlns="http://www.w3.org/2000/svg"
 width="1200.000000pt" height="601.000000pt" viewBox="0 0 1200.000000 601.000000"
 preserveAspectRatio="xMidYMid meet">
<metadata>
Created by potrace 1.16, written by Peter Selinger 2001-2019
</metadata>
<g transform="translate(0.000000,601.000000) scale(0.100000,-0.100000)"
fill="#000000" stroke="none">
<path d="M4583 5980 c-53 -11 -211 -89 -285 -140 -166 -116 -225 -305 -173
-555 9 -44 19 -93 22 -110 3 -16 10 -36 15 -42 13 -16 -13 -18 -29 -2 -7 7
-14 1 -23 -20 -13 -31 -8 -136 10 -215 7 -32 6 -36 -10 -31 -47 15 -47 16 -42
-333 2 -180 7 -330 11 -334 4 -4 30 8 59 27 l52 36 0 103 0 104 -35 21 -35 20
-1 78 c-1 43 -2 107 -3 143 -1 63 0 65 23 62 13 -1 44 -20 67 -42 24 -22 52
-40 62 -40 17 0 32 -31 47 -99 2 -9 15 -60 29 -115 14 -54 23 -103 20 -108
-16 -25 -4 -91 21 -124 14 -19 23 -39 20 -44 -4 -6 -2 -9 3 -8 6 2 38 -23 71
-54 57 -55 81 -72 65 -46 -4 7 -3 8 4 4 6 -4 8 -14 5 -23 -5 -12 -2 -15 10
-10 11 4 14 2 10 -9 -8 -21 -17 -18 -49 19 -16 17 -41 42 -55 54 l-25 23 1
-28 c0 -16 6 -28 15 -28 8 -1 21 -2 27 -3 7 0 12 -11 10 -23 -1 -18 3 -23 22
-23 13 0 26 -6 29 -14 3 -10 0 -12 -11 -8 -11 4 -14 2 -10 -9 6 -16 -13 -20
-20 -4 -3 6 -4 5 -3 -2 2 -7 14 -13 28 -13 17 -1 24 3 21 12 -3 7 -1 13 5 13
6 0 12 -5 14 -10 2 -6 19 -13 38 -15 19 -3 30 -1 25 3 -6 4 -19 16 -29 27 -18
19 -19 19 -11 -5 7 -24 6 -24 -10 -8 -14 13 -15 19 -4 30 11 12 19 8 57 -28
29 -29 50 -41 61 -36 13 5 13 3 -2 -13 -19 -18 -26 -15 -41 20 -3 6 -8 6 -13
-1 -4 -6 -22 -10 -40 -9 -22 1 -30 -2 -26 -12 6 -15 -13 -18 -20 -3 -3 6 -4 5
-3 -2 2 -7 14 -13 28 -13 17 -1 24 3 21 12 -7 18 3 16 27 -4 25 -21 26 -38 3
-29 -10 4 -14 3 -9 -1 10 -11 96 -11 89 0 -2 4 -13 5 -24 2 -29 -9 -23 10 8
24 23 10 29 9 47 -8 23 -23 20 -30 -20 -37 -33 -6 -84 -35 -84 -47 0 -5 -7 -6
-16 -3 -8 3 -12 2 -9 -4 3 -6 1 -10 -5 -10 -6 0 -27 -15 -46 -32 -20 -18 -38
-32 -40 -30 -8 5 -64 -52 -64 -65 0 -8 5 -11 11 -7 6 3 15 0 20 -7 7 -11 9 -9
9 7 0 25 30 56 30 33 0 -10 2 -11 8 -2 4 7 16 11 27 9 22 -3 37 -46 24 -67 -7
-12 -9 -11 -9 1 0 13 -2 13 -9 0 -6 -8 -7 -18 -5 -22 3 -4 1 -8 -5 -8 -5 0
-12 6 -14 13 -4 10 -6 10 -6 0 -1 -19 -19 -16 -24 5 -3 10 -5 6 -6 -10 0 -16
-6 -28 -12 -28 -5 0 -8 4 -4 9 3 5 1 12 -5 16 -5 3 -10 -1 -10 -9 0 -11 -7
-15 -22 -12 -13 2 -22 9 -20 15 1 6 -2 11 -8 11 -5 0 -10 -6 -11 -12 0 -7 -4
-4 -9 7 -8 20 -8 20 -16 1 -7 -19 -8 -19 -15 0 -7 17 -8 17 -8 2 -1 -23 -21
-24 -21 -1 0 23 -9 12 -13 -18 -2 -13 -8 -24 -14 -24 -13 0 -43 -31 -43 -44 0
-6 -7 -11 -15 -11 -8 0 -15 -7 -15 -16 0 -8 -4 -13 -9 -9 -6 3 -14 -3 -20 -12
-13 -22 -13 -17 -13 82 0 39 -2 62 -4 53 -3 -10 -10 -18 -15 -18 -6 0 -8 4 -5
8 2 4 0 14 -5 22 -6 10 -8 -5 -4 -45 7 -67 10 -154 20 -555 7 -264 6 -282 -18
-440 -14 -91 -28 -187 -32 -215 -8 -67 -26 -565 -29 -785 -2 -124 -7 -194 -19
-240 -10 -38 -17 -105 -17 -162 l0 -98 38 0 c74 -1 255 -30 279 -45 16 -11 22
-22 18 -35 -3 -10 -10 -44 -15 -76 -5 -32 -13 -60 -18 -63 -5 -3 -23 -73 -41
-156 -17 -82 -34 -159 -36 -170 -3 -11 -25 -105 -49 -210 -64 -284 -60 -272
-104 -285 -20 -5 -49 -10 -64 -10 -27 0 -28 -2 -28 -50 l0 -50 999 0 999 0 -4
63 c-13 174 -16 207 -25 207 -4 0 -6 7 -3 15 4 8 2 15 -2 15 -5 0 -9 21 -10
48 0 26 -4 63 -7 82 -4 19 -10 63 -14 97 -11 114 -96 215 -216 258 -28 10 -57
22 -62 26 -6 4 -60 24 -120 44 -119 38 -294 72 -419 80 -100 7 -189 21 -291
46 -130 32 -275 86 -275 102 0 4 -6 7 -13 7 -7 0 -25 12 -40 26 -43 40 -23 48
74 30 46 -9 102 -18 124 -20 22 -3 63 -9 90 -15 28 -5 75 -12 105 -16 30 -3
69 -8 85 -11 17 -3 40 -7 53 -10 12 -2 32 -6 45 -8 12 -3 36 -8 52 -10 17 -3
68 -15 115 -26 47 -12 96 -23 110 -26 44 -7 54 -10 110 -26 30 -9 67 -19 82
-23 15 -3 35 -13 45 -23 14 -15 164 -72 188 -72 7 0 -6 53 -16 64 -5 6 7 17
29 27 l37 17 -42 -5 c-37 -5 -43 -3 -43 13 0 48 -68 183 -99 196 -31 13 -83
177 -125 393 -9 44 -36 179 -62 300 -25 121 -53 258 -61 305 -8 47 -18 86 -22
88 -4 1 -6 20 -4 42 1 22 -2 40 -8 40 -5 0 -10 -15 -10 -32 -1 -18 -3 -25 -6
-15 -8 29 -20 19 -21 -17 -1 -25 3 -36 16 -39 15 -4 15 -5 0 -6 -9 0 -19 -9
-21 -18 -4 -17 -5 -17 -6 0 0 9 -6 17 -11 17 -6 0 -8 -13 -5 -30 3 -17 1 -30
-5 -30 -5 0 -10 16 -10 35 0 24 5 35 15 35 8 0 15 9 15 20 0 11 -4 20 -10 20
-5 0 -7 -7 -4 -15 5 -11 -1 -15 -20 -15 -19 0 -26 5 -26 20 0 11 7 20 15 20 8
0 15 7 15 15 0 8 4 15 10 15 5 0 7 -7 4 -15 -4 -8 -1 -15 5 -15 6 0 11 7 11
15 0 8 7 15 15 15 8 0 15 7 15 15 0 8 5 15 10 15 6 0 10 14 10 30 0 17 -5 30
-11 30 -8 0 -8 5 1 15 8 10 9 15 1 15 -7 0 -8 8 -1 25 5 14 6 25 2 25 -4 0 -6
18 -4 40 4 40 -12 57 -21 23 -3 -10 -5 1 -6 25 0 23 -5 42 -11 42 -5 0 -7 -7
-4 -15 4 -8 1 -15 -5 -15 -6 0 -11 9 -11 20 0 12 7 20 16 20 10 0 14 6 10 15
-3 8 -1 15 4 15 6 0 10 -18 10 -40 0 -22 4 -40 9 -40 8 0 8 36 -4 165 -2 28
-5 56 -5 63 0 6 -4 12 -8 12 -5 0 -6 -22 -2 -50 6 -47 -3 -70 -13 -32 -3 9 -5
0 -6 -20 0 -21 3 -38 9 -38 5 0 7 7 4 15 -4 8 -1 15 5 15 6 0 11 -9 11 -20 0
-12 -7 -20 -16 -20 -10 0 -14 -6 -10 -15 4 -11 -1 -15 -19 -15 -30 0 -36 36
-7 43 9 3 2 5 -15 6 -32 1 -33 3 -33 42 0 32 -3 40 -15 35 -8 -3 -15 -1 -15 4
0 6 9 10 20 10 15 0 20 -7 20 -25 0 -18 5 -25 20 -25 13 0 20 7 20 20 0 11 -4
20 -10 20 -5 0 -7 -7 -4 -15 4 -8 1 -15 -5 -15 -6 0 -11 9 -11 20 0 11 6 20
14 20 9 0 14 9 13 20 -1 11 -5 20 -10 20 -5 0 -7 -7 -3 -15 3 -8 1 -15 -4 -15
-6 0 -10 13 -10 30 0 22 -4 28 -15 24 -9 -4 -15 0 -15 10 0 9 -3 16 -8 16 -4
0 -7 -19 -5 -42 1 -24 0 -35 -3 -25 -3 9 -9 17 -14 17 -5 0 -7 -7 -4 -15 4 -8
2 -15 -4 -15 -5 0 -12 20 -14 45 -3 44 6 62 15 28 3 -10 5 -1 6 20 0 20 -3 37
-9 37 -5 0 -7 -7 -4 -15 4 -8 1 -15 -5 -15 -6 0 -12 7 -12 15 -1 8 -3 20 -4
25 -1 6 -3 21 -4 35 0 14 -6 25 -12 25 -6 0 -9 -7 -5 -15 3 -8 1 -15 -4 -15
-6 0 -10 11 -10 25 0 16 -6 25 -15 25 -8 0 -15 7 -15 15 0 8 -4 15 -10 15 -5
0 -7 -7 -4 -15 4 -8 1 -15 -5 -15 -6 0 -11 11 -11 25 0 14 -4 25 -9 25 -8 0
-7 -27 4 -97 3 -19 1 -33 -5 -33 -6 0 -10 11 -10 25 0 14 -4 25 -9 25 -4 0 -6
-11 -4 -24 4 -17 0 -25 -14 -29 -16 -4 -16 -5 0 -6 9 0 17 -8 17 -16 0 -8 5
-15 11 -15 6 0 9 7 5 15 -3 8 -1 15 4 15 9 0 14 -22 11 -42 0 -5 4 -8 9 -8 6
0 8 11 6 25 -5 26 8 35 17 13 3 -7 6 -3 6 9 1 16 -3 21 -14 17 -8 -4 -15 -1
-15 5 0 6 9 11 20 11 11 0 20 -7 20 -15 0 -8 5 -15 11 -15 6 0 9 7 5 15 -3 8
-1 15 4 15 6 0 10 -7 10 -15 0 -8 1 -18 2 -22 1 -5 5 -23 9 -40 5 -25 4 -33
-7 -33 -8 0 -14 -9 -14 -20 0 -11 4 -20 10 -20 5 0 7 7 4 15 -4 8 -1 15 5 15
6 0 11 -11 11 -25 0 -16 6 -25 15 -25 11 0 15 -11 15 -40 0 -23 5 -40 11 -40
6 0 9 7 5 15 -3 8 -1 15 4 15 6 0 10 -15 10 -34 0 -24 -5 -36 -17 -39 -17 -4
-17 -5 0 -6 11 -1 17 -9 17 -26 0 -14 4 -25 8 -25 5 0 8 18 6 40 -1 22 2 40 7
40 5 0 9 -27 9 -60 0 -47 -3 -60 -15 -60 -11 0 -15 -11 -15 -40 0 -29 -4 -40
-15 -40 -8 0 -15 -7 -15 -15 0 -8 -7 -15 -15 -15 -8 0 -15 -7 -15 -15 0 -8 -4
-15 -10 -15 -5 0 -7 7 -4 15 4 8 1 15 -5 15 -6 0 -11 -7 -11 -15 0 -8 -6 -15
-14 -15 -8 0 -17 -8 -19 -17 -4 -14 -5 -12 -6 5 -1 13 5 22 14 22 8 0 15 7 15
15 0 8 7 15 15 15 8 0 15 7 15 15 0 8 4 15 10 15 5 0 7 -7 4 -15 -4 -8 -1 -15
5 -15 6 0 12 15 12 33 1 17 3 24 6 15 6 -24 23 -23 23 2 0 11 -7 20 -15 20 -8
0 -15 9 -15 20 0 11 7 20 15 20 8 0 15 9 15 20 0 11 -5 20 -11 20 -5 0 -8 -4
-4 -9 3 -5 1 -12 -5 -16 -6 -4 -10 14 -10 49 0 31 -4 56 -9 56 -5 0 -7 -25 -6
-55 2 -30 -1 -55 -6 -55 -5 0 -9 27 -9 60 0 46 3 60 15 60 10 0 14 10 13 35
-1 26 -5 34 -15 31 -7 -3 -13 1 -13 9 0 8 -4 15 -10 15 -5 0 -7 -7 -4 -15 4
-8 1 -15 -4 -15 -6 0 -13 8 -15 18 -4 16 -5 16 -6 0 -2 -28 -21 -21 -21 7 0
14 -3 25 -8 25 -4 0 -6 -20 -4 -44 3 -31 9 -46 20 -49 16 -4 16 -5 0 -6 -9 0
-19 -9 -21 -18 -3 -11 -5 -7 -6 10 0 15 -5 27 -11 27 -5 0 -7 -7 -4 -15 4 -10
0 -15 -15 -15 -14 0 -19 -5 -15 -15 4 -8 1 -15 -5 -15 -6 0 -11 17 -11 40 0
22 -4 40 -9 40 -5 0 -7 -24 -4 -54 4 -47 3 -55 -13 -59 -17 -4 -17 -5 -1 -6
24 -1 22 -17 -3 -17 -11 0 -20 6 -20 13 0 7 -5 13 -11 13 -6 0 -9 -7 -5 -15 3
-8 1 -15 -4 -15 -6 0 -10 18 -10 39 0 29 -5 41 -17 44 -17 4 -17 5 -1 6 11 1
15 6 12 16 -4 8 -1 15 5 15 6 0 11 -17 11 -40 0 -22 4 -40 10 -40 5 0 8 10 6
23 -3 12 -5 32 -5 45 -1 13 -7 22 -16 22 -9 0 -15 9 -14 23 1 16 2 18 6 4 2
-9 8 -17 13 -17 5 0 7 7 4 15 -4 10 0 15 14 15 15 0 19 5 15 20 -3 11 -9 20
-14 20 -5 0 -6 -7 -3 -15 4 -8 1 -15 -5 -15 -6 0 -11 9 -11 20 0 12 7 20 16
20 10 0 14 6 10 15 -3 8 -1 15 4 15 6 0 11 -7 11 -15 1 -8 3 -19 4 -25 1 -5 3
-21 4 -35 0 -14 5 -25 11 -25 5 0 8 6 5 13 -2 6 -6 36 -9 65 -3 41 -1 52 10
52 8 0 14 4 14 10 0 5 -7 7 -15 4 -9 -4 -15 0 -16 7 0 8 -2 22 -4 31 -11 57
-13 98 -5 98 4 0 11 -8 13 -17 4 -17 5 -17 6 0 0 9 8 17 17 17 10 0 14 6 10
15 -3 10 1 15 13 15 14 0 18 5 14 20 -3 11 -9 20 -14 20 -5 0 -6 -7 -3 -15 4
-8 1 -15 -5 -15 -6 0 -11 11 -11 25 0 14 -4 25 -9 25 -4 0 -5 -18 -1 -40 4
-22 3 -40 -1 -40 -5 0 -9 7 -9 15 0 8 -5 15 -11 15 -6 0 -9 -7 -5 -15 3 -8 1
-15 -4 -15 -6 0 -10 10 -11 23 0 12 -2 29 -4 37 -14 70 -14 90 0 90 9 0 12 6
9 15 -4 10 0 15 12 16 18 0 17 1 -1 9 -11 5 -15 9 -8 9 6 1 14 9 16 19 4 14 6
14 12 -5 4 -13 12 -23 17 -23 5 0 6 4 3 10 -11 18 -14 50 -4 50 5 0 9 -4 9
-10 0 -5 4 -10 9 -10 4 0 7 12 5 28 -2 15 -1 19 2 10 3 -10 10 -18 16 -18 5 0
8 7 4 15 -3 8 -2 15 3 15 4 0 12 -17 18 -37 11 -37 11 -36 7 17 -4 54 -4 54
10 25 l14 -30 -5 40 c-3 30 -2 36 6 25 9 -12 11 -11 12 10 1 17 3 19 6 8 2
-10 13 -18 23 -18 10 0 21 8 23 18 4 16 5 16 6 0 0 -10 7 -18 14 -18 8 0 19
-18 26 -40 6 -22 16 -40 22 -40 5 0 3 13 -6 30 -8 16 -15 36 -15 45 0 8 -7 15
-15 15 -8 0 -15 4 -15 10 0 5 8 6 17 3 12 -5 15 -2 10 10 -3 9 -2 17 3 17 5 0
11 -8 13 -17 4 -17 5 -17 6 0 0 9 7 17 14 17 8 0 15 6 16 13 6 29 5 254 -1
385 -5 93 -4 141 2 137 6 -3 10 -1 10 4 0 6 -3 11 -7 11 -5 0 -8 28 -8 63 1
50 -5 73 -28 117 -16 30 -38 64 -48 75 -19 19 -19 19 -19 -1 0 -11 -6 -26 -12
-32 -8 -8 -9 -15 -3 -20 6 -4 11 -13 13 -20 2 -10 -2 -10 -17 -3 -10 6 -21 8
-24 5 -3 -3 6 16 19 43 16 30 24 62 23 88 -2 22 10 81 25 130 57 190 71 406
37 557 -10 46 -21 130 -24 188 -3 58 -13 132 -21 165 -8 33 -18 84 -21 112 -6
54 -76 220 -115 271 -68 90 -81 103 -170 174 -95 75 -159 102 -250 105 -41 1
-94 -2 -117 -7z m83 -29 c-3 -5 5 -17 18 -26 15 -11 23 -26 21 -38 -4 -19 12
-56 29 -68 5 -4 7 -15 4 -25 -4 -17 1 -19 59 -18 34 1 63 -3 63 -8 0 -4 12 -6
28 -2 27 6 27 5 -5 -16 -18 -12 -33 -26 -33 -31 0 -5 -5 -9 -11 -9 -5 0 -7 5
-4 10 3 6 -3 10 -15 10 -12 0 -19 -4 -16 -9 3 -5 -1 -25 -9 -44 -8 -19 -11
-37 -8 -41 4 -3 1 -6 -5 -6 -6 0 -9 -6 -6 -13 8 -21 -16 -34 -88 -46 -36 -6
-85 -18 -107 -26 -64 -22 -48 -7 32 30 59 29 66 34 37 30 -19 -2 -55 -11 -79
-20 -25 -8 -47 -11 -50 -7 -8 13 -39 6 -59 -11 -47 -41 -87 -24 -60 26 21 41
84 169 101 208 8 19 13 47 10 61 -4 21 0 27 19 33 12 4 31 16 41 26 10 11 28
19 40 19 12 0 29 5 37 10 19 12 23 12 16 1z m329 -962 c-4 -5 1 -9 9 -9 11 0
14 -10 12 -37 -2 -23 -8 -37 -14 -35 -7 1 -12 -2 -12 -8 0 -9 23 -14 35 -7 6
3 34 -36 35 -50 0 -6 -8 -9 -21 -6 -13 4 -29 -3 -47 -20 -15 -14 -39 -29 -54
-32 -25 -6 -28 -4 -28 16 0 47 12 71 31 66 11 -3 19 -1 19 4 0 5 -4 9 -8 9 -5
0 -7 14 -4 30 3 24 7 28 17 20 10 -8 13 -7 11 4 -1 9 -5 19 -9 22 -4 4 -1 14
6 22 9 13 9 14 0 8 -7 -4 -13 -3 -13 3 0 11 21 20 33 14 4 -2 5 -9 2 -14z
m103 -1444 c0 -38 -2 -62 -5 -52 -4 16 -24 25 -22 10 1 -5 1 -17 -1 -28 l-1
-20 -9 20 c-7 17 -9 17 -9 3 -2 -36 -20 -17 -24 25 l-4 42 -1 -47 c-2 -39 1
-48 16 -49 16 -1 16 -2 0 -6 -10 -2 -19 -12 -19 -21 -1 -15 -2 -15 -6 1 -2 9
-8 17 -13 17 -17 0 -4 -35 15 -42 19 -6 18 -6 -2 -7 -14 -1 -24 -8 -25 -18 0
-10 -4 2 -8 27 l-7 45 -1 -42 c-1 -24 -6 -43 -12 -43 -5 0 -9 10 -8 23 3 65
-4 140 -11 123 -12 -30 -22 -4 -19 48 3 45 12 49 21 11 3 -13 5 -9 6 13 0 17
3 32 5 32 2 0 11 3 20 6 13 5 16 -4 18 -52 l2 -59 3 57 c3 40 9 58 20 62 9 4
20 1 24 -5 4 -6 11 -9 17 -5 6 3 13 0 15 -6 3 -8 6 -5 6 6 1 12 -4 16 -14 12
-8 -3 -15 -1 -15 4 0 16 35 16 42 0 4 -8 6 -46 6 -85z m-742 30 c-3 -8 -1 -15
4 -15 6 0 10 5 10 10 0 6 9 10 20 10 13 0 20 -7 20 -20 0 -11 -5 -20 -11 -20
-5 0 -8 4 -4 9 3 5 1 12 -4 15 -5 3 -11 -19 -13 -49 -1 -30 0 -55 5 -55 6 0
12 41 8 63 0 4 4 7 9 7 10 0 7 -80 -5 -167 -3 -18 0 -33 5 -33 6 0 11 18 11
40 1 22 3 45 4 50 1 6 3 37 4 70 1 36 5 60 12 60 6 0 9 -7 5 -15 -3 -8 -1 -15
4 -15 6 0 10 11 10 25 0 14 4 25 10 25 5 0 7 -7 4 -15 -4 -9 0 -15 10 -15 9 0
16 -8 16 -20 0 -11 -5 -20 -11 -20 -6 0 -9 7 -5 15 3 8 1 15 -4 15 -6 0 -10
-16 -10 -35 0 -19 -4 -35 -10 -35 -5 0 -7 7 -4 15 4 8 1 15 -5 15 -6 0 -11
-20 -12 -47 0 -27 -2 -58 -5 -70 -2 -13 1 -23 6 -23 8 0 16 63 11 93 0 4 4 7
10 7 6 0 9 -7 5 -15 -3 -8 -1 -15 4 -15 6 0 10 11 10 25 0 14 5 25 11 25 6 0
9 -7 5 -15 -3 -8 -1 -15 4 -15 6 0 10 23 10 50 0 30 4 50 11 50 6 0 9 -7 5
-15 -4 -11 2 -15 22 -14 17 1 20 3 10 6 -10 2 -18 9 -18 15 0 5 6 8 14 5 7 -3
18 -1 24 5 7 7 10 5 7 -8 -2 -11 -4 -24 -4 -31 -1 -7 -8 -10 -16 -7 -8 4 -15
1 -15 -5 0 -6 7 -11 16 -11 13 0 15 -11 11 -70 -3 -67 -17 -112 -17 -57 0 15
-3 27 -7 27 -5 0 -8 -21 -8 -48 1 -58 -3 -72 -21 -72 -8 0 -14 -10 -14 -25 0
-14 -4 -25 -10 -25 -5 0 -7 7 -4 15 4 8 1 15 -5 15 -6 0 -11 -7 -11 -15 0 -9
-6 -12 -15 -9 -9 4 -15 0 -15 -10 0 -9 -4 -16 -10 -16 -5 0 -7 7 -4 15 4 8 1
15 -5 15 -6 0 -10 -3 -10 -7 5 -29 -3 -73 -12 -73 -6 0 -9 7 -5 15 3 8 1 15
-4 15 -6 0 -10 -17 -11 -37 0 -21 -2 -48 -5 -60 -2 -13 1 -23 6 -23 6 0 10 18
10 40 0 22 4 40 10 40 5 0 7 -7 4 -15 -4 -8 -1 -15 5 -15 6 0 11 7 11 15 0 8
5 15 11 15 6 0 9 -7 5 -15 -3 -8 -1 -15 4 -15 6 0 10 18 10 40 0 22 5 40 10
40 6 0 8 -13 5 -30 -3 -17 -1 -30 5 -30 5 0 10 18 10 40 0 22 4 40 8 40 13 0
7 -133 -6 -138 -7 -2 -10 3 -6 12 3 9 1 16 -5 16 -15 0 -14 -40 2 -41 10 0 10
-2 0 -6 -7 -2 -13 -11 -13 -19 0 -8 -5 -14 -11 -14 -6 0 -9 7 -5 15 3 8 1 15
-3 15 -5 0 -11 -20 -13 -45 -2 -25 0 -45 4 -45 5 0 8 7 8 15 0 8 4 15 10 15 5
0 8 -10 6 -22 -3 -13 -5 -29 -5 -35 -1 -7 -9 -13 -18 -14 -15 0 -15 -2 2 -9
17 -7 17 -9 3 -9 -10 -1 -18 -8 -18 -16 0 -8 -5 -15 -11 -15 -6 0 -9 7 -5 15
3 8 1 15 -4 15 -6 0 -10 -9 -10 -20 0 -11 6 -20 14 -20 9 0 13 -9 11 -25 -1
-14 3 -25 9 -25 8 0 8 -3 0 -8 -5 -4 -10 -17 -11 -29 -2 -47 -3 -53 -14 -53
-6 0 -9 7 -5 15 3 8 1 15 -4 15 -6 0 -10 -9 -10 -20 0 -11 7 -20 15 -20 8 0
15 -9 15 -20 0 -25 -20 -27 -21 -2 -1 16 -2 16 -6 0 -2 -10 -9 -18 -15 -18 -5
0 -8 7 -4 15 3 8 1 15 -4 15 -6 0 -10 -7 -10 -15 0 -8 -5 -15 -11 -15 -6 0 -9
7 -5 15 3 8 1 15 -4 15 -6 0 -9 -17 -9 -37 1 -21 3 -30 6 -20 8 30 22 18 21
-18 -1 -35 -17 -50 -19 -17 -1 16 -2 16 -6 0 -2 -10 -9 -18 -15 -18 -5 0 -8 7
-4 15 3 8 1 15 -4 15 -6 0 -10 -7 -10 -15 0 -8 -4 -15 -9 -15 -4 0 -7 21 -5
48 1 26 3 59 3 75 1 15 6 27 12 27 6 0 9 -7 5 -15 -3 -8 -1 -15 4 -15 18 0 11
40 -7 41 -17 1 -17 2 0 6 9 2 17 11 17 19 0 8 8 15 18 15 16 1 16 2 0 6 -10 2
-19 12 -19 21 -1 15 -2 15 -6 0 -2 -10 -8 -18 -12 -18 -8 0 -4 114 4 138 2 6
-3 13 -13 13 -16 1 -16 2 1 6 10 3 17 14 17 29 0 15 6 24 15 24 8 0 15 9 15
20 0 11 -6 20 -13 20 -7 0 -13 9 -13 20 0 15 7 20 28 20 23 0 28 4 27 23 -1
16 -2 18 -6 5 -3 -12 -14 -18 -34 -18 -27 0 -29 -2 -29 -40 0 -22 -4 -40 -8
-40 -5 0 -7 18 -5 40 3 33 1 40 -14 41 -17 1 -17 2 0 6 9 2 17 11 17 19 0 8 7
14 15 14 9 0 15 9 14 23 -1 16 -2 18 -6 5 -2 -10 -13 -18 -24 -18 -16 0 -19 7
-19 45 0 26 5 45 11 45 6 0 9 -7 5 -15 -3 -8 -1 -15 4 -15 6 0 10 17 11 38 0
20 2 47 3 60 2 12 -1 22 -6 22 -4 0 -8 -18 -8 -40 0 -22 -5 -40 -11 -40 -5 0
-8 4 -4 9 3 5 1 12 -4 15 -5 4 -12 -2 -14 -11 -4 -14 -5 -13 -6 5 -1 14 5 22
17 23 16 1 16 2 0 6 -22 5 -24 43 -3 43 9 0 15 9 14 23 -1 16 -2 18 -6 5 -9
-34 -24 -18 -20 22 4 40 -7 56 -16 23 -4 -14 -5 -12 -6 5 -1 13 5 22 14 22 9
0 15 9 14 23 -1 16 -2 18 -6 5 -7 -26 -18 -22 -18 7 0 14 3 25 7 25 3 0 27 20
51 45 29 28 47 40 50 32 3 -7 6 -5 6 6 1 9 6 17 12 17 6 0 9 -7 5 -15z m854
-1315 c0 -11 -7 -20 -15 -20 -8 0 -15 -5 -15 -11 0 -6 7 -9 15 -5 9 3 15 0 15
-9 0 -8 5 -15 11 -15 6 0 9 7 5 15 -4 10 1 15 14 15 13 0 18 5 14 15 -4 8 -1
15 5 15 6 0 11 -17 11 -40 0 -22 4 -40 10 -40 5 0 7 7 4 15 -4 8 -1 15 5 15 7
0 11 -23 11 -60 0 -48 -3 -60 -16 -60 -10 0 -14 -6 -10 -15 3 -8 1 -15 -4 -15
-6 0 -10 18 -10 40 0 22 -4 40 -10 40 -5 0 -7 -7 -4 -15 4 -8 1 -15 -5 -15 -6
0 -11 17 -11 40 0 22 -4 40 -10 40 -5 0 -7 -7 -4 -15 4 -8 1 -15 -5 -15 -6 0
-11 7 -11 15 0 8 -4 15 -10 15 -5 0 -7 -7 -4 -15 4 -8 1 -15 -4 -15 -6 0 -13
8 -15 18 -3 9 -5 2 -6 -15 -2 -57 -17 -36 -19 27 -2 48 1 60 13 60 8 0 15 7
15 15 0 8 9 15 20 15 13 0 20 -7 20 -20z"/>
<path d="M8635 5981 c-21 -4 -31 -13 -33 -29 -2 -12 -8 -22 -13 -22 -6 0 -8 9
-4 19 5 17 -1 20 -47 26 -29 4 -123 -1 -208 -9 -85 -9 -238 -17 -340 -18 -176
-2 -178 -3 -45 -5 217 -5 200 -21 -80 -71 l-150 -28 0 -39 0 -40 55 -7 c172
-20 734 12 784 45 12 8 51 17 89 21 l67 8 0 79 c0 87 1 86 -75 70z"/>
<path d="M8330 5595 c-63 -7 -216 -14 -340 -16 -143 -1 -199 -4 -155 -8 39 -4
114 -6 167 -6 54 0 98 -2 98 -5 0 -16 -54 -31 -186 -55 -225 -39 -204 -31
-204 -71 0 -19 6 -36 13 -39 21 -6 157 -14 257 -15 86 -1 93 -2 70 -14 -14 -8
-88 -24 -165 -36 -184 -28 -175 -25 -175 -66 0 -28 5 -36 28 -45 16 -7 177
-13 405 -16 368 -6 378 -6 383 13 7 27 49 43 119 46 l60 3 0 80 0 80 -40 6
c-26 5 -49 2 -67 -7 -15 -8 -35 -14 -45 -14 -16 1 -15 3 6 20 18 15 38 20 87
20 l64 0 0 80 0 80 -42 0 c-24 0 -60 -4 -81 -9 -21 -5 -39 -5 -43 0 -7 11 -68
10 -214 -6z"/>
<path d="M10265 5094 c-11 -3 -49 -11 -85 -19 -36 -8 -83 -16 -105 -19 -22 -2
-53 -9 -70 -16 -37 -15 -61 -21 -102 -27 -18 -3 -30 -9 -27 -14 3 -5 -5 -9
-16 -9 -24 0 -80 -30 -80 -42 0 -11 18 -10 25 1 5 10 83 7 93 -3 2 -3 -1 -12
-8 -21 -7 -8 -9 -15 -4 -15 5 0 2 -5 -6 -10 -11 -8 -7 -9 15 -4 l30 7 -24 -27
c-14 -14 -34 -26 -45 -26 -12 0 -27 -9 -34 -20 -8 -13 -8 -20 -1 -20 5 0 8 -4
4 -9 -3 -6 10 -8 32 -6 51 4 50 4 33 15 -12 7 -11 10 5 16 11 4 23 12 27 18 5
7 8 7 9 1 0 -5 2 -20 3 -32 1 -12 -1 -20 -4 -18 -10 6 -45 -34 -37 -42 4 -4
14 2 21 13 14 18 15 18 21 2 4 -10 13 -18 20 -18 7 0 15 -9 18 -20 3 -11 2
-18 -3 -15 -4 3 -13 -2 -20 -10 -9 -10 -9 -15 -1 -15 6 0 11 -4 11 -10 0 -5
-6 -10 -14 -10 -10 0 -13 8 -10 24 2 13 -2 29 -9 35 -11 9 -13 5 -12 -19 2
-30 1 -30 -19 -13 -11 10 -26 25 -33 33 -7 8 -12 11 -12 5 0 -14 28 -63 29
-50 0 7 3 7 8 0 17 -24 73 -45 92 -35 27 15 32 12 25 -10 -6 -18 -3 -20 22
-15 l28 7 -25 -14 c-14 -7 -26 -24 -28 -36 -2 -12 -7 -20 -12 -17 -5 3 -7 20
-4 38 5 30 5 31 -10 13 -9 -11 -14 -28 -10 -38 3 -10 1 -18 -5 -18 -6 0 -11
-8 -11 -18 0 -10 -11 -25 -25 -32 -13 -7 -22 -16 -20 -20 7 -11 -20 -31 -30
-22 -5 4 -5 1 -1 -5 4 -7 3 -13 -1 -13 -5 0 -9 -10 -10 -21 -1 -12 -10 -30
-20 -41 -10 -11 -17 -22 -15 -24 1 -2 2 -12 1 -21 0 -12 -6 -7 -16 14 -17 34
-65 51 -87 31 -10 -10 -7 -17 16 -36 15 -13 28 -30 28 -37 0 -19 -38 -29 -55
-15 -10 8 -24 8 -57 -3 -38 -13 -45 -13 -60 0 -9 8 -34 17 -56 20 -40 5 -47
20 -27 53 3 6 -2 10 -11 10 -33 0 16 40 58 46 42 7 44 9 24 30 -16 15 -52 19
-60 6 -2 -4 -19 -9 -37 -10 -41 -3 -69 -27 -69 -59 0 -12 -4 -23 -10 -23 -5 0
-9 -3 -8 -7 1 -5 -3 -18 -10 -31 -13 -23 -13 -112 0 -112 5 0 7 -6 5 -12 -1
-7 10 -14 25 -16 24 -3 26 -6 18 -28 -15 -38 40 -93 99 -101 35 -5 43 -3 39 8
-6 18 53 39 110 39 23 0 60 9 81 19 42 22 98 16 130 -13 10 -9 24 -16 32 -17
8 0 6 -3 -5 -8 -17 -6 -17 -8 -4 -14 10 -3 19 0 22 9 3 9 -2 18 -14 22 -18 7
-17 8 6 19 20 9 27 8 40 -5 15 -14 15 -16 -3 -23 -11 -4 -23 -15 -27 -24 -3
-9 -10 -14 -14 -11 -5 3 -14 -6 -20 -19 -7 -15 -20 -25 -32 -25 -11 0 -20 -5
-20 -11 0 -5 5 -7 10 -4 6 3 10 1 10 -4 0 -6 -8 -11 -17 -12 -10 0 -31 -9 -48
-19 -61 -39 -87 -52 -80 -39 6 8 4 10 -6 3 -8 -5 -21 -7 -30 -6 -9 2 -19 -4
-22 -13 -4 -8 -11 -15 -17 -15 -19 0 -50 -39 -44 -57 4 -11 3 -14 -3 -7 -9 13
-43 10 -52 -4 -3 -5 -16 -12 -28 -16 -13 -4 -23 -12 -23 -17 0 -5 -7 -9 -15
-9 -8 0 -15 -4 -15 -10 0 -5 -8 -10 -18 -10 -9 0 -29 -11 -44 -25 -15 -14 -31
-25 -36 -25 -6 0 -12 -7 -16 -15 -14 -37 -139 -8 -170 39 -20 31 -64 45 -77
25 -13 -20 -10 -71 4 -91 7 -9 30 -19 50 -23 47 -9 63 -30 18 -23 -17 2 -31 1
-31 -4 0 -12 -54 -10 -68 4 -9 9 -12 5 -12 -17 0 -34 7 -45 35 -61 14 -8 20
-22 20 -46 0 -34 1 -34 35 -28 52 9 54 8 87 -31 33 -36 32 -52 -2 -56 -25 -3
-96 26 -112 46 -11 13 -13 11 -13 -13 0 -65 46 -104 196 -163 63 -25 80 -27
206 -27 l137 0 17 -38 c19 -42 14 -106 -10 -124 -9 -6 -55 -16 -103 -23 -131
-19 -183 -31 -103 -24 l64 6 -17 -26 c-10 -15 -15 -27 -12 -27 4 0 -20 -33
-53 -72 -65 -81 -71 -93 -79 -158 -5 -39 -4 -43 9 -32 19 16 44 6 51 -19 3
-10 -3 -41 -14 -69 -11 -28 -19 -75 -19 -108 0 -55 -1 -58 -26 -60 -26 -2 -69
-21 -62 -27 2 -2 23 1 47 6 24 5 45 8 47 7 2 -2 6 -74 10 -161 4 -86 11 -157
15 -157 17 0 19 21 8 64 -9 37 -8 70 6 168 10 68 26 142 37 166 10 23 18 58
16 78 -2 29 3 41 27 61 27 24 35 25 97 20 60 -5 69 -4 78 14 6 11 21 19 35 19
13 0 26 4 29 9 9 14 68 19 96 9 20 -8 22 -11 10 -19 -13 -9 -13 -10 0 -6 8 2
15 9 15 16 0 7 9 19 19 27 11 8 16 14 10 14 -5 0 -2 5 6 10 13 8 12 10 -4 10
-22 0 -14 12 12 18 71 16 77 16 63 -1 -7 -9 -17 -15 -21 -12 -4 3 -14 -2 -21
-11 -10 -12 -10 -15 2 -12 8 2 13 -3 12 -9 -3 -14 40 -28 57 -18 15 9 24 -23
11 -39 -10 -11 -8 -15 5 -18 26 -5 64 38 64 72 0 17 4 30 10 30 5 0 7 7 4 15
-4 8 -10 12 -15 9 -5 -3 -9 -1 -9 3 0 5 9 14 20 21 16 9 18 17 11 29 -6 12 -4
21 7 30 15 11 15 12 1 8 -10 -4 -16 0 -16 9 0 8 3 14 6 13 3 0 17 3 30 7 16 6
28 3 39 -8 15 -15 15 -16 -1 -16 -19 0 -24 -20 -4 -21 6 0 -1 -7 -18 -14 -26
-12 -27 -14 -8 -15 15 0 21 -6 20 -20 -1 -11 -5 -20 -9 -20 -13 0 -9 -20 7
-37 14 -13 19 -12 48 10 17 13 41 27 53 31 16 5 20 12 16 31 -4 24 9 32 42 26
5 -1 4 4 -3 12 -14 18 8 30 30 16 18 -12 42 -12 34 0 -3 5 4 12 15 16 11 3 20
13 20 21 0 8 5 14 11 14 5 0 7 4 4 10 -9 14 14 52 26 44 6 -3 22 0 36 7 20 11
26 11 33 -1 5 -8 20 -16 32 -17 13 -1 48 -4 78 -6 62 -4 150 -52 142 -76 -3
-8 0 -11 7 -7 11 7 111 -32 111 -44 0 -3 9 -6 20 -7 11 -1 27 -9 36 -17 14
-14 19 -14 51 -1 48 20 79 19 95 -4 7 -10 29 -26 48 -36 19 -9 42 -23 50 -31
40 -34 206 -132 213 -125 5 5 10 17 11 27 2 11 10 20 19 22 11 2 14 -2 10 -17
-3 -12 -9 -19 -13 -16 -18 11 -16 -34 1 -49 11 -9 21 -16 23 -16 4 0 48 105
50 122 2 17 16 19 22 3 4 -10 0 -30 -10 -46 -11 -18 -13 -29 -6 -29 6 0 8 -5
5 -10 -4 -6 -10 -8 -15 -5 -5 3 -12 0 -16 -6 -4 -8 -3 -9 4 -5 18 11 14 -5 -5
-28 l-18 -21 23 20 c28 24 42 47 48 83 3 15 7 35 10 46 4 12 2 16 -5 12 -13
-9 -14 4 -1 24 8 13 9 13 14 0 2 -8 7 -22 9 -30 3 -8 6 -2 6 13 1 16 5 36 10
46 9 16 18 57 20 89 1 7 5 11 10 7 5 -3 12 3 14 12 3 13 5 11 6 -7 3 -28 34
72 33 103 -1 9 3 15 8 12 5 -3 7 12 4 32 -5 36 -5 37 9 14 8 -12 12 -35 10
-50 -3 -21 -1 -19 15 13 13 25 21 34 25 25 3 -9 6 -7 6 7 1 11 -3 24 -8 30
-10 9 -31 82 -35 119 -1 11 -5 30 -10 43 -9 27 0 72 14 72 6 0 10 -15 10 -33
0 -21 8 -41 20 -52 11 -10 20 -23 20 -29 1 -14 40 -64 40 -51 0 6 -4 17 -9 25
-6 8 -7 19 -3 25 25 38 28 71 9 125 -10 30 -19 80 -21 110 -3 64 -6 80 -23 98
-7 7 -13 25 -13 40 0 15 -7 40 -15 56 -8 15 -15 33 -15 38 0 20 -94 107 -144
133 -59 32 -137 55 -183 55 -38 0 -41 9 -13 35 23 21 25 46 8 78 -18 31 -28
37 -64 37 -17 0 -37 7 -45 16 -7 8 -20 13 -30 11 -35 -9 -44 8 -31 63 7 28 12
80 12 114 0 35 4 87 10 115 16 84 15 231 -1 276 -15 43 -52 97 -132 190 -103
120 -175 175 -257 200 -14 4 -60 22 -103 41 -104 45 -251 74 -369 73 -51 -1
-102 -3 -113 -5z m427 -1727 c8 4 9 0 5 -11 -4 -10 -7 -22 -7 -27 0 -6 -4 -8
-9 -4 -6 3 -6 -6 -1 -25 8 -28 6 -32 -16 -40 -21 -8 -23 -14 -18 -37 4 -16 8
-30 10 -32 2 -2 -3 -13 -13 -23 -13 -15 -14 -23 -5 -43 6 -14 8 -25 4 -25 -14
0 -50 43 -61 73 -14 36 -14 147 -1 147 6 0 10 9 10 20 0 24 44 38 65 20 13
-10 15 -9 16 11 1 17 3 19 6 6 2 -9 9 -14 15 -10z"/>
<path d="M7282 4740 l-27 -39 -210 -2 c-115 -1 -344 -1 -508 1 -309 2 -327 0
-327 -39 0 -9 -5 -22 -10 -27 -11 -11 -16 -112 -26 -579 l-6 -321 51 -89 c29
-50 59 -115 67 -145 8 -30 17 -60 19 -67 3 -8 56 -12 182 -12 l178 -1 26 -31
c19 -23 31 -30 50 -26 23 4 23 4 2 6 -16 1 -23 7 -23 21 0 19 7 20 173 20 94
0 244 3 333 7 167 6 197 0 150 -30 -13 -9 -50 -18 -82 -20 -33 -2 54 -4 192
-5 l250 -2 18 -32 c9 -18 23 -44 31 -58 10 -18 13 -45 10 -95 -3 -38 -12 -288
-21 -555 -8 -267 -17 -491 -19 -497 -3 -8 -22 -13 -51 -13 l-46 0 6 47 c3 27
6 244 8 483 l3 435 -615 2 c-338 2 -621 -1 -627 -5 -9 -6 -13 -58 -13 -195 -1
-209 -6 -186 98 -447 27 -69 64 -169 81 -224 17 -54 39 -112 48 -130 9 -17 17
-57 17 -91 1 -44 7 -68 22 -90 12 -16 27 -48 34 -70 7 -22 18 -47 25 -55 7 -8
17 -24 23 -36 10 -19 8 -20 -21 -21 -108 -1 -166 -20 -217 -73 -21 -21 -41
-36 -44 -32 -4 3 -4 -1 -1 -10 3 -8 -1 -22 -9 -31 -8 -8 -12 -17 -9 -21 3 -3
0 -12 -7 -21 -10 -12 -16 -13 -29 -3 -9 8 -8 3 4 -11 19 -23 19 -24 1 -17 -16
5 -17 4 -6 -9 7 -8 8 -15 3 -15 -10 0 -10 -60 0 -77 4 -7 -1 -21 -12 -32 -11
-11 -15 -23 -10 -28 5 -5 3 -17 -6 -29 -13 -17 -14 -17 -15 -2 0 9 -8 22 -17
27 -14 8 -15 11 -3 11 24 1 -41 33 -85 42 -35 6 -34 7 13 3 57 -5 62 8 9 25
l-32 10 32 -5 c17 -2 33 0 35 6 2 5 12 3 23 -6 19 -16 19 -16 -5 -10 -24 6
-24 5 -6 -9 22 -18 40 -21 31 -6 -3 6 -2 10 4 10 5 0 13 -4 16 -10 3 -5 1 -10
-5 -10 -6 0 -8 -4 -5 -10 3 -5 11 -10 16 -10 6 0 7 5 4 10 -3 5 -1 10 6 10 12
0 -86 72 -112 83 -9 4 -7 6 6 7 19 1 19 1 2 14 -15 12 -16 17 -5 41 8 18 17
25 30 21 16 -4 17 -2 7 10 -9 11 -8 14 5 14 10 0 14 4 11 10 -3 5 28 43 69 83
44 44 72 78 67 85 -4 7 -17 2 -38 -18 -23 -22 -33 -26 -42 -17 -10 9 -12 9 -9
-3 2 -8 -2 -14 -9 -13 -7 2 -10 -3 -7 -11 3 -7 -3 -19 -12 -27 -16 -12 -17
-12 -12 2 4 9 1 16 -6 16 -8 0 -11 -10 -8 -26 4 -26 4 -26 -13 -6 -9 11 -13
14 -10 7 9 -17 -3 -62 -16 -62 -6 0 -8 4 -4 9 3 5 1 12 -3 15 -5 3 -14 -6 -21
-21 -10 -21 -9 -28 1 -34 10 -6 10 -9 1 -9 -8 0 -10 -7 -6 -17 6 -16 5 -16
-10 -4 -10 8 -17 9 -17 3 0 -6 8 -16 18 -22 14 -9 13 -10 -8 -5 -24 6 -24 5
-6 -9 19 -16 19 -16 -5 -17 -13 0 -18 -3 -11 -6 6 -2 12 -9 12 -14 0 -6 -4 -7
-10 -4 -15 10 -23 -41 -9 -66 12 -24 19 -89 8 -89 -5 0 -32 57 -60 125 -4 11
-11 48 -14 83 -6 55 -13 69 -30 60 -10 -6 -31 36 -33 68 -2 19 -6 44 -11 56
-10 28 5 56 63 118 25 27 46 51 46 55 0 3 -14 -2 -31 -10 -37 -20 -83 -16 -87
7 -5 25 33 42 51 24 12 -13 23 -10 83 26 38 22 96 53 129 69 71 34 68 35 -35
9 -101 -26 -199 -39 -206 -28 -3 4 -10 5 -16 2 -20 -13 5 20 34 44 38 32 35
60 -11 105 l-39 38 -11 -64 c-6 -35 -11 -75 -11 -90 0 -14 -4 -37 -10 -51 -7
-19 -3 -57 15 -143 36 -177 85 -539 85 -631 0 -21 9 -42 25 -60 28 -30 30 -43
14 -73 -8 -16 -6 -35 11 -82 12 -34 31 -102 43 -151 l22 -89 120 -51 c66 -28
148 -68 182 -89 l62 -38 39 39 c32 32 38 44 35 69 -3 20 5 50 22 86 24 53 29
75 14 70 -12 -4 -17 51 -9 97 4 25 8 37 9 28 0 -10 7 -18 14 -18 8 0 14 -6 15
-12 1 -7 4 -26 7 -43 3 -16 7 -52 9 -80 2 -27 7 -69 11 -92 6 -33 4 -43 -6
-43 -7 0 9 -14 35 -30 59 -38 103 -121 86 -164 -13 -36 -33 -34 -25 3 7 34
-13 88 -44 116 -18 15 -36 19 -81 18 -75 -1 -88 -9 -55 -35 14 -10 25 -28 25
-38 0 -33 11 -47 70 -95 33 -26 57 -52 54 -56 -8 -14 -43 -10 -70 7 -23 15
-26 15 -43 0 -9 -9 -34 -16 -55 -16 -33 0 -37 -2 -31 -20 5 -16 2 -20 -19 -20
-14 0 -27 4 -31 9 -3 5 -40 34 -83 63 -114 79 -136 92 -127 77 4 -9 2 -9 -7 1
-7 8 -39 34 -70 58 -45 33 -58 39 -58 25 0 -13 -3 -14 -12 -5 -7 7 -19 12 -27
12 -9 0 1 -12 22 -26 l38 -26 -6 -61 c-3 -34 -10 -114 -14 -177 -7 -90 -14
-126 -33 -166 -17 -36 -22 -57 -17 -72 l8 -22 1750 0 c1744 0 1749 0 1744 20
-3 11 -10 20 -15 20 -5 0 -7 -4 -3 -9 3 -5 1 -12 -4 -15 -5 -4 -8 2 -7 11 4
24 58 20 92 -7 11 -9 15 -10 10 -2 -9 15 -7 15 44 -3 62 -22 410 -22 410 0 0
11 5 12 25 5 14 -5 24 -6 24 -2 -3 20 2 32 15 32 8 0 16 7 20 15 3 8 1 15 -5
15 -6 0 -7 5 -3 11 11 19 24 -13 13 -34 -9 -15 -7 -18 8 -15 10 2 21 7 24 11
10 14 18 -18 9 -33 -7 -11 -11 -11 -24 0 -9 7 -19 10 -22 7 -23 -22 66 -26
552 -24 l519 2 3 38 3 37 67 0 c62 0 65 1 45 15 -25 18 -210 81 -293 100 -30
7 -127 34 -215 59 -88 26 -203 58 -255 72 -105 28 -269 74 -372 105 -96 29
-89 55 7 28 30 -8 40 -8 43 1 3 7 9 4 18 -9 12 -17 22 -19 66 -14 42 5 50 3
46 -9 -9 -22 35 -17 47 6 6 10 20 23 33 27 22 8 23 6 20 -24 -2 -20 -8 -31
-16 -29 -8 1 -11 -2 -7 -8 9 -14 32 -13 38 3 3 7 6 5 6 -5 1 -10 6 -18 12 -18
5 0 7 6 3 13 -4 6 2 4 13 -6 20 -17 22 -17 31 -2 8 15 12 13 36 -16 26 -33 27
-33 41 -15 8 11 15 26 15 34 0 8 6 12 15 9 8 -4 17 -2 20 2 2 5 -5 11 -18 15
-29 8 -42 8 -34 0 7 -8 -17 -34 -32 -34 -6 0 -15 10 -22 21 -8 15 -8 19 0 15
26 -16 31 7 6 24 -33 22 -29 32 12 35 35 2 66 22 57 36 -3 5 1 9 8 9 10 0 10
2 -1 9 -11 7 -9 14 14 35 16 15 39 29 52 32 13 4 23 10 23 14 0 5 10 12 23 16
12 4 25 11 28 17 4 5 21 11 38 12 41 3 46 9 50 58 1 5 5 6 9 3 5 -3 19 6 30
19 12 14 26 25 32 25 5 0 18 8 28 18 11 9 29 25 40 34 28 23 28 35 0 34 -13
-1 -22 4 -21 11 3 13 -22 12 -34 -2 -4 -4 -2 -5 5 -1 6 4 12 2 12 -3 0 -14 -6
-14 -32 0 -13 7 -18 7 -14 1 3 -6 -3 -12 -14 -14 -12 -2 -21 -7 -22 -13 -2
-15 -31 -34 -43 -28 -5 4 -7 3 -3 -2 8 -9 -34 -45 -52 -45 -17 0 -151 -98
-174 -128 -10 -13 -25 -21 -32 -18 -8 3 -14 -1 -14 -10 0 -8 -4 -12 -10 -9 -5
3 -10 2 -10 -4 0 -5 -16 -8 -35 -5 -20 2 -35 0 -35 -6 0 -5 -5 -10 -12 -10 -6
0 -8 3 -5 7 4 3 -7 15 -24 25 -29 18 -30 20 -16 41 8 12 22 21 31 21 9 -1 13
2 10 7 -3 5 2 9 11 9 9 0 14 4 11 9 -5 8 21 21 49 25 6 0 14 11 20 24 5 12 13
22 17 22 5 0 8 7 8 15 0 9 6 12 17 8 11 -4 14 -3 9 5 -4 7 -2 12 6 12 10 0 9
3 -2 11 -12 9 -11 10 7 6 16 -4 23 1 27 19 4 13 12 23 18 21 6 -1 19 13 28 32
13 26 18 30 23 17 4 -9 12 -16 19 -15 10 0 10 2 1 6 -22 8 -14 21 17 28 17 4
30 11 30 15 0 5 6 7 14 4 8 -3 17 0 21 5 3 6 11 8 17 5 7 -4 8 -2 4 4 -4 7 -1
12 8 12 10 0 13 6 10 15 -4 9 1 18 12 22 11 4 25 13 32 20 7 7 20 13 28 13 8
0 14 5 14 11 0 5 4 8 9 5 5 -4 11 -3 13 2 4 10 81 57 89 55 4 -1 15 8 25 20
19 21 19 21 -1 7 -19 -14 -19 -14 -6 3 8 10 20 16 28 13 8 -3 15 5 19 20 5 19
9 22 15 12 6 -10 9 -10 9 0 0 6 8 12 18 12 14 1 14 3 -5 19 -13 11 -23 22 -23
26 0 12 63 64 72 59 4 -3 11 2 14 10 3 9 10 14 14 11 5 -3 8 3 7 14 0 11 -5
17 -9 15 -4 -3 -8 2 -8 11 0 12 5 15 17 11 10 -4 14 -4 11 0 -4 3 1 14 10 23
10 9 16 15 13 14 -2 -2 -10 2 -18 8 -10 9 -13 8 -13 -1 0 -7 -10 -21 -22 -31
-11 -11 -17 -19 -12 -19 5 0 -11 -11 -36 -24 -25 -13 -45 -30 -45 -37 0 -8
-15 -22 -32 -32 -29 -15 -37 -27 -35 -48 1 -4 -6 -6 -16 -5 -9 0 -16 -5 -15
-11 2 -7 -9 -20 -25 -30 -15 -10 -31 -23 -35 -30 -4 -7 -15 -13 -24 -13 -9 0
-30 -10 -47 -23 -17 -13 -46 -29 -64 -37 -23 -9 -32 -18 -29 -30 2 -9 -2 -17
-9 -17 -7 0 -11 4 -8 9 3 4 0 8 -6 8 -6 0 -13 -14 -17 -30 -4 -23 -9 -28 -18
-20 -9 8 -15 8 -20 0 -3 -5 -1 -10 4 -10 6 0 11 -4 11 -9 0 -6 -9 -8 -19 -6
-13 2 -18 -1 -15 -10 3 -7 0 -16 -7 -21 -7 -4 -10 -3 -7 2 4 5 -5 10 -18 10
l-25 2 23 -20 c22 -19 22 -20 3 -18 -39 4 -48 1 -36 -13 9 -12 4 -13 -29 -10
-29 3 -40 0 -38 -9 2 -8 -5 -12 -19 -10 -21 3 -28 -6 -24 -30 0 -4 -10 -10
-24 -14 -14 -3 -23 -10 -20 -14 3 -5 -4 -6 -15 -3 -14 4 -20 0 -20 -10 0 -17
-33 -40 -43 -31 -3 3 -8 -4 -12 -15 -7 -22 -21 -28 -27 -12 -3 8 -87 -25 -98
-39 -9 -12 -79 -6 -84 7 -3 7 -12 13 -21 13 -8 0 -15 2 -15 5 0 11 41 50 53
50 6 0 13 9 15 20 2 15 1 17 -6 6 -7 -9 -12 -10 -16 -2 -4 6 9 17 33 27 35 14
39 19 30 35 -7 15 -7 19 3 17 7 -2 12 3 11 10 -2 6 2 12 8 12 6 0 8 -9 4 -20
-4 -11 -2 -20 4 -20 6 0 11 10 11 23 0 20 4 23 30 19 19 -3 30 0 30 8 0 7 -7
10 -16 6 -8 -3 -13 -2 -10 2 2 4 1 14 -4 22 -12 19 23 43 53 36 12 -3 16 -3
10 0 -18 8 -16 27 1 21 10 -4 13 -1 9 9 -3 7 0 14 6 14 6 0 11 7 11 16 0 8 4
13 8 10 5 -3 14 4 22 14 8 10 17 17 22 14 4 -3 19 3 33 12 18 12 36 15 64 10
31 -5 40 -2 45 10 5 13 3 14 -6 6 -9 -7 -20 -6 -38 5 -14 8 -17 12 -8 9 11 -3
15 -1 12 8 -3 8 9 20 30 30 20 9 36 21 36 26 0 4 14 11 30 15 17 4 28 11 24
16 -3 5 2 9 10 9 8 0 21 7 30 15 9 10 17 11 21 5 4 -6 11 -8 16 -4 5 3 7 9 4
14 -3 5 6 7 21 4 16 -3 23 -1 19 6 -3 5 1 20 11 32 10 15 14 17 11 6 -4 -11
-2 -15 7 -12 17 6 20 74 3 75 -36 2 -58 6 -63 11 -9 9 35 49 58 53 29 6 34 13
14 21 -9 3 -16 10 -16 16 0 5 5 6 10 3 6 -3 10 -1 10 4 0 6 3 10 8 9 4 -1 18
4 32 10 14 6 42 13 63 17 25 4 35 10 30 18 -5 9 -3 9 8 1 8 -6 22 -8 32 -5 17
6 18 8 3 20 -9 8 -19 11 -23 7 -4 -3 -17 3 -29 15 -21 20 -24 20 -55 5 -17 -9
-35 -13 -40 -10 -5 3 -9 1 -9 -4 0 -5 -6 -9 -12 -10 -7 0 -24 -3 -38 -7 -21
-5 -22 -5 -7 5 9 6 15 15 12 21 -4 5 6 14 21 19 14 6 35 22 46 35 11 14 24 23
29 20 5 -4 9 1 9 9 0 9 7 16 15 16 8 0 14 4 12 8 -1 4 15 25 36 46 20 22 37
43 37 48 0 5 5 6 10 3 6 -3 10 0 10 7 0 14 43 58 57 58 5 0 15 9 23 20 8 11
20 20 26 20 7 0 23 12 36 28 13 15 33 33 44 39 43 28 99 57 107 55 4 -1 7 5 7
13 0 8 6 12 14 9 8 -3 17 -1 20 4 9 15 -5 43 -18 35 -6 -3 -5 0 2 8 11 12 14
12 22 -1 7 -10 10 -11 10 -2 0 6 9 12 20 12 11 0 20 5 20 10 0 6 -9 10 -20 10
-11 0 -28 5 -38 11 -12 8 -27 6 -54 -5 -21 -9 -39 -15 -41 -14 -2 2 -12 -4
-23 -12 -18 -14 -18 -14 -5 3 12 15 12 20 1 27 -13 8 -20 7 -57 -6 -10 -4 -35
-6 -55 -5 -21 2 -38 -2 -38 -8 0 -5 -9 -13 -20 -16 -36 -11 -21 -21 30 -19 56
1 63 -6 23 -27 -16 -7 -61 -45 -102 -84 -41 -38 -88 -83 -105 -99 -17 -16 -65
-59 -106 -94 -92 -80 -128 -116 -226 -229 -42 -48 -86 -95 -96 -103 -37 -28
-132 -130 -121 -130 4 0 -2 -6 -12 -14 -11 -8 -23 -12 -27 -10 -5 3 -8 -2 -8
-11 0 -9 -4 -13 -10 -10 -5 3 -10 -1 -10 -10 0 -8 -8 -19 -17 -22 -10 -4 -23
-13 -29 -21 -8 -11 -13 -12 -18 -4 -4 7 10 30 33 54 56 61 127 150 134 169 4
12 0 15 -19 11 -13 -2 -24 -7 -24 -11 0 -4 -11 -8 -25 -9 -14 -1 -51 -18 -83
-38 -31 -20 -51 -30 -44 -21 10 11 10 17 1 22 -8 6 -7 10 2 16 10 6 10 9 2 9
-7 0 -10 7 -7 15 4 8 12 15 19 15 8 0 17 5 21 12 5 8 2 9 -10 5 -10 -4 -15 -3
-11 3 3 6 13 10 21 10 8 0 14 5 14 10 0 6 5 10 10 10 6 0 10 -7 10 -15 0 -18
16 -20 26 -3 4 7 3 8 -4 4 -7 -4 -12 -1 -12 8 0 8 -5 16 -11 18 -11 4 -5 12
36 46 13 11 15 10 16 -5 0 -11 3 -13 6 -5 2 6 9 12 15 12 6 0 8 -7 4 -15 -4
-10 1 -15 14 -15 11 0 20 -4 20 -10 0 -20 37 -9 70 20 l34 30 -32 -6 c-36 -7
-73 13 -50 27 7 5 9 9 3 9 -5 0 -16 4 -24 9 -21 13 7 39 38 34 16 -2 22 1 18
10 -10 27 7 37 35 23 15 -8 29 -12 32 -8 3 3 6 0 6 -6 0 -19 21 -14 42 10 16
19 17 23 3 30 -8 5 -15 15 -15 23 0 7 -10 15 -22 17 -20 3 -18 7 23 52 24 27
52 56 62 65 9 8 17 23 17 32 0 16 26 34 43 31 4 -1 7 6 7 16 0 9 10 22 23 27
16 7 22 18 21 42 0 17 3 30 6 28 14 -9 41 38 44 78 1 16 42 71 88 118 9 10 14
19 12 22 -3 2 21 27 53 54 55 47 85 66 178 109 l40 19 -40 3 c-91 8 -211 -46
-338 -153 -26 -22 -51 -40 -55 -40 -22 -2 -52 -18 -47 -25 3 -5 -5 -12 -17
-16 -13 -4 -25 -10 -28 -13 -20 -26 -65 -42 -100 -36 -24 4 -50 1 -72 -8 -35
-15 -232 -195 -364 -333 -38 -41 -76 -74 -82 -74 -7 0 -11 -3 -10 -7 1 -5 -13
-24 -32 -44 -56 -57 -140 -160 -140 -171 0 -6 -11 -19 -25 -30 -22 -17 -24
-23 -13 -36 10 -12 10 -14 1 -8 -8 4 -13 2 -13 -4 0 -10 -15 -8 -57 7 -7 3
-13 -2 -13 -11 0 -9 -8 -16 -17 -16 -15 1 -13 5 9 25 17 14 24 27 17 30 -12 8
-69 -14 -69 -26 0 -5 -8 -9 -17 -9 -19 -1 -64 -30 -47 -30 6 0 19 -6 30 -14
17 -14 15 -15 -31 -14 -61 1 -95 -9 -95 -27 0 -8 -15 -17 -34 -21 -19 -3 -37
-13 -40 -21 -4 -10 -15 -14 -31 -11 -13 3 -22 2 -20 -3 3 -4 -13 -10 -35 -14
-44 -7 -60 -22 -39 -36 12 -7 11 -9 -1 -9 -11 -1 -10 -4 5 -16 19 -15 18 -16
-12 -9 -29 6 -33 4 -33 -14 0 -24 -3 -25 -48 -12 -18 6 -30 6 -27 1 3 -4 -2
-10 -10 -13 -9 -4 -12 -1 -9 7 5 14 -35 25 -69 18 -18 -4 -18 -4 0 -24 18 -20
18 -20 -17 -1 -19 10 -38 22 -41 26 -7 9 -39 -19 -39 -33 0 -5 -7 -7 -15 -4
-8 4 -15 1 -15 -6 0 -6 -5 -8 -10 -5 -8 5 -8 11 0 20 8 9 5 11 -15 7 -14 -2
-25 -9 -25 -14 0 -5 5 -6 10 -3 6 3 10 0 10 -8 0 -9 -10 -14 -25 -14 -24 0
-30 11 -25 46 2 13 0 13 -16 0 -16 -13 -16 -12 -5 9 13 24 9 26 -36 22 -29 -2
-51 19 -45 42 5 19 -13 25 -23 7 -7 -10 -42 29 -38 42 1 4 -8 5 -20 2 -18 -5
-20 -3 -9 8 14 15 17 63 2 54 -5 -3 -10 -2 -10 4 0 6 -6 8 -13 5 -9 -3 -13 3
-12 18 1 19 -33 109 -47 124 -3 2 -21 -7 -42 -21 -31 -21 -40 -23 -62 -13 -14
7 -34 29 -45 50 -11 21 -24 38 -29 38 -6 0 -10 6 -10 13 0 6 -17 30 -38 52
-25 27 -37 50 -38 70 -2 76 -15 295 -20 345 -3 30 -7 69 -7 87 -1 17 -5 34 -9
38 -3 3 -4 19 -2 35 4 22 0 30 -17 35 -12 4 -24 3 -28 -2 -3 -5 -53 -38 -111
-72 -58 -35 -149 -94 -203 -133 -175 -124 -238 -164 -223 -139 3 5 6 373 6
817 0 683 -2 884 -12 970 -1 6 -11 9 -22 6 -11 -3 -15 -7 -8 -10 20 -6 13 -20
-8 -15 -11 3 -17 9 -14 14 3 5 -1 9 -9 9 -10 0 -13 10 -11 38 4 38 21 152 28
187 2 11 7 47 10 80 4 33 14 105 22 160 21 138 27 262 14 285 -11 21 -77 53
-90 45 -5 -3 -10 57 -12 134 -4 196 19 181 -285 181 l-243 0 -28 -40z m114
-2162 l27 -22 -6 -214 c-8 -282 9 -262 -227 -262 -199 0 -325 9 -295 21 11 4
40 9 65 10 25 2 -29 6 -120 9 l-165 5 -3 219 c-2 147 1 223 9 232 16 19 38 21
376 22 305 1 312 1 339 -20z m1061 -1020 c-18 -24 -50 -73 -69 -109 -20 -36
-47 -78 -61 -91 -14 -14 -31 -45 -37 -69 -7 -24 -15 -48 -20 -54 -4 -5 -6 -17
-5 -25 1 -8 -4 -21 -11 -28 -12 -11 -14 -10 -14 4 0 35 -10 6 -19 -57 -6 -35
-12 -74 -15 -85 -2 -12 -7 -39 -10 -60 -12 -76 -18 -94 -32 -94 -8 0 -14 -4
-14 -10 0 -5 -6 -10 -14 -10 -7 0 -19 -7 -26 -15 -7 -8 -16 -12 -21 -9 -5 3
-9 1 -9 -4 0 -6 -6 -12 -13 -15 -10 -4 -13 24 -13 137 0 89 4 144 10 148 8 5
7 8 -1 8 -14 0 -7 48 11 70 55 68 165 187 231 251 74 71 175 159 183 159 2 0
-12 -19 -31 -42z m-1633 -254 c9 -3 13 -10 10 -15 -3 -5 -1 -9 4 -9 15 0 9
-32 -12 -63 -12 -17 -16 -37 -13 -54 3 -15 -1 -40 -9 -55 -7 -14 -15 -47 -16
-72 -3 -43 -5 -46 -32 -46 -26 0 -28 3 -23 28 16 76 25 109 35 129 8 15 9 30
2 47 -5 14 -7 34 -4 43 5 15 4 16 -5 3 -10 -13 -12 -13 -21 0 -6 10 -6 16 1
19 6 2 14 14 19 27 9 24 32 30 64 18z"/>
<path d="M4288 4283 c-42 -21 -73 -66 -108 -155 -28 -74 -31 -90 -25 -148 6
-57 15 -95 15 -61 0 7 5 9 10 6 6 -4 10 8 11 27 1 18 3 25 6 16 5 -22 23 -24
23 -3 0 9 6 12 17 8 10 -4 14 -2 9 5 -3 6 -2 13 4 17 5 3 10 -3 10 -14 0 -12
-7 -21 -15 -21 -8 0 -15 -8 -14 -17 0 -10 3 -13 5 -7 6 15 54 5 54 -12 0 -7
-5 -25 -12 -41 -17 -43 -17 -52 -2 -46 12 4 14 -1 9 -23 -5 -26 -4 -25 10 6
l15 35 -3 -37 c-2 -21 1 -38 5 -38 4 0 8 38 8 85 0 50 4 85 10 85 6 0 10 -5
10 -12 0 -6 3 -8 7 -5 7 8 -17 57 -28 57 -4 0 -10 -17 -12 -37 -2 -21 -4 -10
-3 25 2 58 1 62 -20 62 -13 0 -26 5 -29 10 -4 7 3 9 22 5 23 -4 24 -4 8 4 -11
5 -14 10 -7 10 6 1 12 8 12 16 0 11 -5 10 -21 -6 -12 -12 -27 -18 -37 -15 -15
5 -15 4 1 -8 22 -17 22 -21 -5 -48 -16 -16 -20 -17 -15 -5 3 9 2 17 -4 17 -6
0 -7 5 -4 10 4 6 12 7 18 3 9 -5 9 -3 1 8 -6 8 -11 28 -10 44 1 25 6 31 29 33
29 4 31 6 62 99 22 69 19 83 -17 66z"/>
<path d="M9299 3983 c-1 -5 -2 -14 -3 -22 -3 -29 -32 -35 -92 -19 -87 24 -111
4 -46 -37 31 -19 33 -29 18 -66 -6 -14 0 -16 46 -12 29 2 70 11 91 20 35 15
37 18 37 64 0 26 -3 54 -6 63 -6 16 -43 23 -45 9z"/>
<path d="M3414 1391 c-63 -39 -154 -181 -139 -219 3 -8 -3 -21 -12 -29 -13
-10 -15 -16 -6 -19 9 -4 10 -11 3 -25 -10 -18 -12 -18 -35 -3 -24 16 -25 16
-25 -10 0 -15 6 -26 13 -26 20 0 51 -37 37 -45 -5 -3 -7 -12 -3 -18 4 -7 8
-35 8 -63 0 -43 5 -59 31 -90 23 -29 32 -53 36 -94 4 -30 22 -98 41 -150 19
-52 43 -129 52 -172 16 -76 17 -77 106 -169 50 -51 98 -103 106 -116 19 -28
54 -30 78 -3 15 16 16 29 10 87 -4 37 -10 62 -12 56 -3 -8 -14 -1 -30 18 -14
16 -23 32 -21 34 2 3 32 -15 66 -40 61 -45 95 -55 108 -34 3 6 17 9 30 6 32
-6 31 17 -2 83 -14 29 -27 58 -28 65 -1 7 -19 31 -39 54 -60 66 -51 75 37 36
105 -46 164 -27 152 49 -6 38 -56 107 -56 78 0 -6 -5 -12 -11 -12 -6 0 -9 7
-5 15 3 9 -11 28 -39 52 -25 20 -45 41 -45 45 0 5 11 13 25 18 25 10 29 20 25
75 -2 31 -38 105 -51 105 -30 0 -198 185 -182 201 11 11 176 29 278 29 l80 1
-24 19 c-13 11 -35 23 -50 27 -14 3 -50 17 -80 29 -29 13 -61 24 -69 24 -9 0
-33 12 -54 26 -36 26 -118 49 -118 34 0 -4 -11 -12 -25 -18 -24 -11 -25 -10
-15 8 6 10 18 23 27 29 15 8 15 11 3 26 -38 46 -123 59 -176 26z"/>
<path d="M3298 231 c5 -13 3 -14 -10 -4 -17 15 -28 8 -28 -19 0 -12 -4 -16
-12 -12 -7 4 -8 3 -4 -5 6 -8 12 -9 20 -2 7 6 16 8 19 4 9 -9 -13 -34 -24 -27
-5 3 -8 0 -7 -8 2 -7 -3 -12 -9 -10 -7 1 -12 -1 -10 -5 1 -5 -2 -8 -8 -8 -5 0
-9 6 -8 14 1 9 -2 10 -10 2 -7 -7 -7 -14 1 -24 9 -10 8 -17 -1 -27 -6 -8 -3
-7 9 3 12 10 28 15 38 11 18 -7 21 -20 5 -29 -7 -5 -5 -13 6 -25 9 -10 12 -21
7 -24 -6 -3 -13 2 -17 12 -6 16 -7 16 -21 -2 -12 -18 -18 -15 -15 6 0 4 -6 5
-14 2 -14 -6 -20 7 -16 30 1 5 -4 4 -12 -2 -10 -9 -17 -9 -27 1 -12 10 -12 9
-1 -5 7 -10 17 -16 21 -13 4 3 10 -2 14 -10 6 -17 -10 -30 -17 -15 -4 7 -5 6
-3 -1 1 -6 6 -11 11 -11 6 0 17 -5 25 -11 13 -10 13 -10 1 6 -15 19 -2 24 17
5 9 -9 13 -7 18 6 6 15 7 15 20 -1 7 -10 14 -13 14 -8 0 6 5 3 10 -5 5 -8 23
-15 39 -16 16 0 28 3 25 8 -3 4 0 18 6 30 10 21 10 22 -3 5 -9 -11 -18 -14
-21 -8 -4 5 -2 12 4 16 13 8 33 46 23 44 -19 -3 -23 2 -13 21 9 16 8 18 -5 14
-8 -3 -13 -10 -10 -14 3 -5 1 -11 -4 -14 -5 -4 -12 8 -16 25 -5 22 -10 28 -18
20 -20 -20 -31 -12 -12 9 10 11 23 17 29 13 6 -3 5 0 -1 8 -19 20 -16 33 5 18
14 -11 15 -11 5 1 -8 8 -9 19 -3 30 6 12 5 17 -5 17 -8 0 -11 -7 -7 -16z"/>
</g>
</svg>
