<?xml version="1.0" standalone="no"?>
<!DOCTYPE svg PUBLIC "-//W3C//DTD SVG 20010904//EN"
 "http://www.w3.org/TR/2001/REC-SVG-20010904/DTD/svg10.dtd">
<svg version="1.0" xmlns="http://www.w3.org/2000/svg"
 width="1200.000000pt" height="800.000000pt" viewBox="0 0 1200.000000 800.000000"
 preserveAspectRatio="xMidYMid meet">
<metadata>
Created by potrace 1.16, written by Peter Selinger 2001-2019
</metadata>
<g transform="translate(0.000000,800.000000) scale(0.100000,-0.100000)"
fill="#000000" stroke="none">
<path d="M8633 7690 c-13 -5 -23 -18 -23 -30 0 -14 -7 -20 -21 -20 -15 0 -19
5 -15 18 6 17 1 18 -56 11 -35 -4 -115 -13 -178 -19 -63 -6 -229 -33 -368 -61
-139 -27 -255 -49 -257 -49 -10 0 -5 -69 5 -75 21 -13 388 -6 530 9 264 30
301 35 316 51 9 8 18 15 22 16 129 11 123 7 120 86 -3 64 -4 68 -28 70 -14 1
-35 -2 -47 -7z"/>
<path d="M4583 7320 c-23 -5 -83 -29 -135 -55 -216 -107 -300 -200 -330 -365
-16 -93 -14 -172 7 -275 9 -44 19 -95 22 -113 3 -18 9 -35 14 -38 5 -3 9 -10
9 -16 0 -6 -10 -4 -23 5 -22 14 -24 13 -36 -15 -11 -24 -11 -49 -3 -122 6 -50
12 -98 14 -106 2 -10 -4 -14 -19 -12 -12 2 -25 -2 -29 -9 -9 -15 -5 -652 4
-661 4 -3 31 9 60 29 l52 35 0 98 c0 94 -1 100 -26 119 -14 11 -30 21 -36 23
-7 3 -11 55 -12 148 -1 172 4 179 85 106 28 -25 59 -46 68 -46 18 0 33 -36 47
-115 3 -22 10 -44 14 -50 16 -22 38 -147 30 -174 -9 -31 9 -92 35 -121 9 -10
14 -24 10 -30 -3 -6 -2 -9 3 -8 5 2 34 -20 64 -48 30 -27 59 -49 65 -47 6 2
14 -1 18 -6 4 -7 -1 -8 -12 -4 -16 6 -16 5 -4 -11 8 -9 20 -15 27 -12 8 3 11
0 7 -10 -3 -7 0 -14 6 -14 6 0 11 5 11 10 0 6 11 0 24 -12 l24 -23 -21 -23
c-12 -12 -27 -20 -34 -18 -7 3 -10 -1 -6 -10 6 -16 -13 -20 -20 -4 -3 6 -4 5
-3 -2 2 -7 14 -13 28 -13 17 -1 24 3 21 12 -7 18 3 16 27 -4 25 -21 26 -38 3
-29 -10 4 -14 3 -9 -1 12 -12 54 -10 50 2 -5 13 43 38 57 30 5 -4 9 -12 8 -18
0 -9 -2 -9 -6 1 -2 6 -9 12 -15 12 -7 0 -6 -5 2 -14 6 -8 18 -12 26 -9 8 3 14
0 14 -6 0 -6 -3 -11 -7 -12 -48 -4 -113 -35 -113 -52 0 -5 -7 -6 -16 -3 -8 3
-12 2 -9 -4 3 -6 1 -10 -5 -10 -6 0 -27 -15 -46 -32 -20 -18 -38 -32 -40 -30
-2 1 -18 -10 -34 -25 -22 -19 -30 -34 -29 -57 1 -24 3 -26 6 -8 5 24 18 29 26
10 3 -7 6 -3 6 8 1 25 31 56 31 33 0 -10 2 -11 8 -2 4 7 16 11 27 9 22 -3 37
-46 24 -67 -7 -12 -9 -11 -9 1 0 13 -2 13 -9 0 -6 -8 -7 -18 -5 -22 3 -4 1 -8
-5 -8 -5 0 -12 6 -14 13 -4 10 -6 10 -6 0 -1 -19 -19 -16 -24 5 -3 10 -5 6 -6
-10 0 -16 -6 -28 -12 -28 -5 0 -8 4 -4 9 3 5 1 12 -5 16 -5 3 -10 -1 -10 -9 0
-11 -7 -15 -22 -12 -20 2 -22 9 -21 42 l2 39 -8 -33 c-5 -18 -12 -36 -16 -40
-10 -9 4 108 15 129 6 11 5 16 -6 16 -9 0 -14 -12 -14 -36 0 -20 -5 -54 -12
-76 -11 -38 -12 -39 -19 -15 -7 24 -7 24 -8 3 -1 -26 -21 -32 -21 -6 0 23 -9
12 -13 -18 -2 -13 -8 -24 -14 -24 -13 0 -43 -31 -43 -44 0 -6 -7 -11 -15 -11
-8 0 -15 -7 -15 -16 0 -8 -4 -13 -9 -9 -6 3 -14 -3 -20 -12 -13 -22 -13 -17
-13 82 0 39 -2 62 -4 53 -3 -10 -12 -18 -19 -18 -8 0 -13 -6 -10 -12 5 -15 12
-221 21 -583 6 -235 4 -271 -14 -375 -11 -63 -23 -144 -27 -180 -3 -36 -9 -78
-11 -95 -7 -40 -25 -544 -28 -765 -2 -124 -7 -194 -19 -240 -10 -38 -17 -105
-17 -161 l0 -96 90 -7 c179 -13 257 -38 245 -76 -3 -10 -10 -44 -15 -76 -5
-32 -13 -60 -18 -63 -8 -6 -21 -60 -57 -231 -8 -36 -16 -76 -19 -90 -13 -62
-96 -418 -104 -445 -9 -35 -60 -65 -109 -65 l-33 0 0 -93 c0 -51 -7 -145 -15
-209 -12 -92 -14 -142 -6 -236 5 -65 8 -177 5 -248 -2 -71 -6 -247 -8 -391
l-5 -263 1064 0 c585 0 1066 3 1068 8 9 13 -13 423 -28 547 -8 66 -21 236 -30
378 -9 142 -22 291 -31 330 -8 40 -19 128 -24 197 -5 69 -14 145 -19 170 -6
25 -15 68 -21 95 -6 28 -13 81 -16 120 -5 70 -38 149 -71 168 -7 4 -13 14 -13
20 0 25 -79 75 -175 110 -286 106 -413 161 -422 184 -3 7 -9 13 -15 13 -5 0
-6 -4 -3 -10 3 -6 -1 -7 -10 -4 -13 5 -13 9 -3 22 11 13 11 14 -8 2 -17 -10
-26 -10 -52 4 -19 10 -32 24 -31 34 1 15 2 15 6 1 2 -10 12 -19 23 -22 13 -3
17 -1 13 10 -5 12 -2 13 13 5 20 -11 25 -12 50 -12 8 0 12 -4 9 -10 -3 -5 -1
-10 4 -10 6 0 11 6 11 13 0 7 3 8 8 2 8 -12 26 -17 64 -19 16 0 28 -5 28 -10
0 -5 3 -6 7 -3 3 4 12 2 20 -4 10 -9 13 -8 13 2 0 12 2 12 9 1 4 -8 11 -13 15
-13 3 1 14 1 24 1 13 0 14 -2 4 -9 -10 -6 -8 -10 10 -14 32 -9 40 -8 33 3 -3
6 1 7 10 4 9 -4 14 -9 11 -11 -6 -6 168 -69 225 -82 l37 -8 -9 30 c-5 16 -11
32 -14 35 -3 3 12 13 32 23 l38 17 -42 -5 c-37 -5 -43 -3 -43 13 0 26 -36 119
-54 141 -9 10 -28 35 -44 55 -16 21 -32 34 -36 30 -4 -3 -4 1 0 11 3 9 2 17
-4 17 -5 0 -24 60 -41 133 -35 148 -145 676 -168 807 -8 47 -18 87 -22 90 -3
3 -7 39 -9 80 -2 40 -7 81 -12 89 -4 8 -4 25 1 38 5 13 5 23 1 23 -4 0 -6 18
-4 40 4 40 -12 57 -21 23 -3 -10 -5 1 -6 25 0 23 -5 42 -11 42 -5 0 -7 -7 -4
-15 4 -8 1 -15 -5 -15 -6 0 -11 9 -11 20 0 12 7 20 16 20 10 0 14 6 10 15 -3
8 -1 15 4 15 6 0 10 -18 10 -40 0 -22 4 -40 9 -40 6 0 8 19 6 43 -2 23 -7 76
-10 117 -11 132 -15 158 -24 200 -8 38 3 59 12 23 4 -14 5 -12 6 5 1 13 -5 22
-13 22 -8 0 -16 13 -18 30 -6 38 9 40 16 3 2 -16 3 1 0 37 -2 36 -6 74 -8 85
-3 11 -5 23 -5 28 -1 4 -5 7 -10 7 -5 0 -5 -16 0 -37 9 -39 11 -104 2 -70 -2
9 -11 17 -18 17 -7 0 -16 6 -18 13 -3 6 -6 -3 -6 -20 -1 -18 3 -33 9 -33 5 0
7 7 4 15 -4 8 -2 15 4 15 5 0 15 -39 22 -87 7 -49 14 -96 16 -105 1 -10 -3
-18 -11 -18 -9 0 -12 -6 -9 -15 4 -8 1 -15 -4 -15 -6 0 -13 8 -15 18 -4 13 -5
11 -6 -5 -1 -14 5 -23 14 -23 9 0 15 -9 15 -25 0 -14 4 -25 10 -25 5 0 7 7 4
15 -4 8 -2 15 4 15 5 0 12 -20 14 -45 2 -25 0 -45 -4 -45 -5 0 -8 11 -8 25 0
14 -4 25 -9 25 -4 0 -6 -11 -3 -25 3 -18 0 -25 -12 -25 -9 0 -16 -4 -16 -10 0
-5 7 -7 15 -4 12 5 15 -2 14 -32 -1 -22 -3 -31 -6 -21 -2 9 -9 17 -15 17 -5 0
-8 -7 -4 -15 3 -8 1 -15 -4 -15 -6 0 -10 18 -10 40 0 23 -5 40 -11 40 -6 0 -9
-7 -5 -15 3 -8 1 -15 -4 -15 -6 0 -10 18 -10 41 0 32 -3 40 -15 35 -8 -3 -15
-1 -15 4 0 6 9 10 20 10 15 0 20 -7 20 -25 0 -18 5 -25 20 -25 14 0 20 6 19
23 -1 16 -2 18 -6 5 -6 -24 -23 -23 -23 2 0 11 6 20 14 20 9 0 14 9 13 20 -1
11 -5 20 -10 20 -5 0 -7 -7 -3 -15 3 -8 1 -15 -4 -15 -6 0 -10 6 -10 14 0 8
-8 17 -17 19 -17 4 -17 5 0 6 19 1 25 41 6 41 -6 0 -9 -7 -5 -15 3 -8 1 -15
-4 -15 -6 0 -10 7 -10 15 0 8 -3 15 -8 15 -4 0 -6 -19 -5 -42 2 -33 1 -38 -6
-23 -8 17 -10 18 -10 3 -2 -37 -19 -16 -23 27 -3 44 6 62 15 28 3 -10 5 -1 6
20 1 21 -4 37 -10 37 -6 0 -9 -7 -5 -15 3 -8 1 -15 -4 -15 -6 0 -11 7 -11 15
-1 8 -3 20 -4 25 -1 6 -3 21 -4 35 0 14 -6 25 -12 25 -6 0 -9 -7 -5 -15 3 -8
1 -15 -4 -15 -6 0 -10 18 -10 40 0 23 -5 40 -11 40 -6 0 -9 -7 -5 -15 3 -8 1
-15 -4 -15 -6 0 -10 7 -10 15 0 8 -4 15 -10 15 -5 0 -7 -7 -4 -15 4 -8 1 -15
-5 -15 -6 0 -11 11 -11 25 0 14 -5 25 -11 25 -6 0 -9 -7 -5 -15 3 -9 0 -15 -9
-15 -8 0 -15 -9 -15 -20 0 -11 5 -20 11 -20 6 0 9 7 5 15 -3 8 -1 15 4 15 6 0
10 -10 11 -22 0 -13 2 -33 5 -45 2 -13 -1 -23 -6 -23 -6 0 -10 11 -10 25 0 14
-4 25 -9 25 -4 0 -6 -11 -4 -24 4 -17 0 -25 -14 -29 -16 -4 -16 -5 0 -6 9 0
17 -8 17 -16 0 -8 5 -15 11 -15 6 0 9 7 5 15 -3 8 -1 15 4 15 6 0 10 -7 10
-16 0 -8 5 -12 10 -9 6 4 8 11 5 16 -4 5 -2 9 4 9 5 0 12 -6 14 -12 3 -7 6 -3
6 9 1 15 -4 21 -13 17 -10 -4 -15 5 -18 30 -2 20 0 36 4 36 4 0 8 -11 8 -25 0
-16 6 -25 15 -25 13 0 20 -18 16 -42 0 -5 4 -8 10 -8 7 0 9 10 7 25 -3 14 -1
25 3 25 5 0 9 -7 9 -15 0 -8 1 -18 2 -22 1 -5 5 -23 9 -40 5 -25 4 -33 -7 -33
-8 0 -14 -9 -14 -20 0 -11 5 -20 11 -20 6 0 9 7 5 15 -3 8 -1 15 4 15 6 0 10
-9 10 -20 0 -11 -7 -20 -15 -20 -9 0 -12 -6 -9 -15 4 -8 1 -15 -4 -15 -6 0
-13 8 -15 18 -4 16 -5 16 -6 0 -2 -28 -21 -21 -21 7 0 14 -3 25 -7 25 -5 0 -7
-30 -7 -67 1 -38 0 -56 -3 -40 -2 15 -8 27 -13 27 -5 0 -7 -7 -4 -15 4 -10 0
-15 -15 -15 -14 0 -19 -5 -15 -15 4 -8 1 -15 -5 -15 -6 0 -11 17 -11 40 0 22
-4 40 -9 40 -5 0 -7 -25 -4 -55 4 -45 3 -55 -10 -55 -9 0 -18 -8 -20 -17 -4
-17 -5 -17 -6 0 0 9 -6 17 -12 17 -6 0 -9 -7 -5 -15 3 -8 1 -15 -4 -15 -6 0
-10 6 -10 14 0 8 -8 17 -17 19 -17 4 -17 5 0 6 10 1 17 9 17 20 0 11 -8 22
-17 24 -17 4 -17 5 -1 6 11 1 15 6 12 16 -4 8 -1 15 5 15 6 0 11 -17 11 -40 0
-23 5 -40 11 -40 6 0 9 7 5 15 -3 10 1 15 13 15 14 0 18 5 14 20 -3 11 -9 20
-14 20 -5 0 -6 -7 -3 -15 4 -8 1 -15 -5 -15 -6 0 -11 11 -11 25 0 16 -6 25
-15 25 -23 0 -18 35 5 37 11 1 20 -4 20 -13 0 -8 4 -14 10 -14 5 0 8 10 6 23
-3 12 -5 28 -5 35 -1 6 -5 12 -11 12 -5 0 -7 -7 -4 -15 4 -8 1 -15 -5 -15 -6
0 -11 9 -11 20 0 12 7 20 16 20 10 0 14 6 10 15 -3 8 -1 15 4 15 6 0 11 -7 11
-15 1 -8 3 -19 4 -25 1 -5 3 -21 4 -35 0 -14 6 -25 12 -25 5 0 8 3 6 8 -3 4
-7 39 -11 77 -4 39 -8 81 -11 95 -13 79 -14 100 -6 100 5 0 12 -8 14 -17 4
-17 5 -17 6 0 0 9 8 17 16 17 8 0 15 4 15 10 0 5 -7 7 -15 4 -9 -4 -15 0 -15
10 0 9 -5 16 -11 16 -6 0 -9 -7 -5 -15 3 -8 1 -15 -4 -15 -6 0 -10 10 -11 23
0 12 -2 29 -4 37 -14 68 -14 90 -1 90 9 0 12 8 8 25 -2 14 0 25 6 25 6 0 13 8
15 18 4 14 6 14 12 -5 4 -13 11 -23 17 -23 5 0 4 9 -2 20 -10 18 -8 20 21 20
28 0 31 3 27 25 -8 39 7 29 20 -12 8 -27 10 -30 8 -10 -2 18 1 27 11 27 11 0
12 9 8 38 -5 27 -4 33 4 22 9 -12 11 -11 12 10 1 17 3 19 6 8 2 -10 13 -18 23
-18 10 0 21 8 23 18 4 16 5 16 6 0 0 -10 7 -18 14 -18 8 0 19 -18 26 -40 6
-22 16 -40 21 -40 5 0 2 12 -6 28 -17 32 -18 52 -3 52 5 0 8 -4 5 -8 -2 -4 -1
-14 5 -22 7 -12 9 -9 9 10 l1 25 10 -24 c5 -13 12 -21 15 -18 9 9 -5 77 -16
77 -5 0 -7 -7 -4 -15 4 -10 0 -15 -14 -15 -11 0 -22 8 -25 20 -3 11 -1 20 3
20 5 0 11 -8 13 -17 3 -10 6 -2 7 17 1 19 4 27 7 18 2 -10 9 -18 14 -18 6 0 7
5 4 10 -3 6 -1 10 4 10 11 0 8 294 -4 431 -5 53 -4 78 4 83 6 4 8 12 4 19 -4
6 -7 36 -8 67 -2 63 -6 75 -53 149 l-35 54 -13 -31 c-19 -46 -24 -39 -7 10 8
24 12 54 10 68 -3 14 5 59 19 100 44 140 55 205 61 350 5 125 3 157 -15 230
-11 47 -23 133 -26 191 -3 58 -12 132 -20 165 -8 32 -17 82 -20 111 -11 107
-140 335 -226 398 -15 11 -55 41 -89 67 -106 80 -207 103 -338 78z m91 -35 c3
-8 11 -15 19 -15 13 0 16 -38 3 -58 -4 -7 -1 -15 8 -18 9 -3 13 -10 10 -16 -3
-5 2 -15 12 -22 9 -7 15 -19 12 -27 -4 -11 9 -14 61 -16 114 -3 107 -2 88 -21
-10 -9 -29 -17 -45 -18 -15 -1 -31 -3 -35 -3 -5 -1 -6 -5 -3 -10 3 -5 0 -24
-8 -42 -7 -19 -12 -39 -9 -45 6 -18 -45 -53 -86 -59 -20 -3 -57 -12 -82 -20
-26 -8 -53 -15 -60 -15 -23 1 104 59 129 60 32 0 62 18 62 35 0 21 -23 18 -43
-5 -9 -11 -28 -20 -42 -20 -14 0 -51 -9 -82 -20 -42 -15 -60 -17 -70 -9 -10 9
-23 5 -53 -16 -38 -26 -70 -28 -70 -5 0 6 6 8 13 4 8 -5 7 -2 -2 9 -12 15 -11
20 6 40 41 44 104 187 107 240 0 17 9 33 21 39 11 6 28 19 38 29 10 11 29 19
42 19 13 0 27 5 30 10 9 15 22 12 29 -5z m424 -2400 c0 -38 -2 -62 -5 -52 -2
9 -8 17 -12 17 -12 0 -9 -34 3 -42 7 -5 4 -8 -6 -8 -10 0 -19 8 -19 18 -1 16
-2 16 -6 0 -8 -32 -22 -19 -26 25 l-4 42 -1 -47 c-2 -39 1 -48 16 -49 16 -1
16 -2 0 -6 -10 -2 -19 -12 -19 -21 -1 -15 -2 -15 -6 1 -2 9 -8 17 -13 17 -17
0 -4 -35 15 -42 17 -5 16 -6 -7 -7 -22 -1 -27 4 -31 27 -3 19 -4 14 -6 -15 0
-24 -5 -43 -11 -43 -5 0 -9 10 -8 23 2 51 -5 160 -9 134 -6 -40 -23 -23 -23
23 0 43 16 63 23 28 3 -17 5 -13 7 12 l3 35 7 -35 7 -35 2 38 c2 65 21 40 21
-28 0 -36 3 -65 8 -65 4 0 6 29 4 64 -3 53 -1 64 14 70 10 4 21 1 25 -5 4 -6
11 -9 17 -5 6 3 13 0 15 -6 3 -8 6 -5 6 6 1 12 -4 16 -14 12 -8 -3 -15 -1 -15
4 0 16 35 16 42 0 4 -8 6 -46 6 -85z m-742 30 c-3 -8 -1 -15 3 -15 5 0 12 6
14 13 3 6 6 -14 6 -45 1 -36 -3 -58 -10 -58 -6 0 -9 7 -5 15 3 8 1 15 -4 15
-6 0 -10 -7 -10 -15 0 -8 -5 -15 -11 -15 -6 0 -9 7 -5 15 3 8 1 15 -4 15 -6 0
-10 -7 -10 -15 0 -8 -8 -16 -17 -16 -17 -1 -17 -2 0 -6 9 -2 17 -13 17 -24 0
-24 -20 -25 -21 -1 -1 16 -2 16 -6 0 -2 -10 -11 -18 -19 -18 -8 0 -14 -9 -13
-22 1 -17 2 -19 6 -5 2 9 9 17 15 17 5 0 8 -7 4 -15 -3 -8 -1 -15 4 -15 6 0
10 7 10 15 0 8 5 15 11 15 6 0 9 -7 5 -15 -3 -8 -1 -15 4 -15 6 0 10 18 10 40
0 38 2 40 30 40 32 0 30 -4 34 79 0 16 5 33 10 38 8 8 0 -165 -10 -221 -2 -14
0 -26 6 -26 5 0 10 11 10 25 0 14 4 25 9 25 4 0 6 -11 3 -25 -2 -14 0 -25 5
-25 5 0 10 6 10 13 3 74 8 107 16 107 5 0 7 -7 3 -15 -3 -8 -1 -15 4 -15 6 0
10 11 10 25 0 14 5 25 11 25 6 0 9 -7 5 -15 -3 -8 -1 -15 4 -15 6 0 10 23 10
50 0 30 4 50 11 50 6 0 9 -7 5 -15 -4 -11 2 -15 22 -14 17 1 20 3 10 6 -10 2
-18 9 -18 15 0 5 6 8 14 5 7 -3 18 -1 24 5 7 7 10 5 7 -8 -2 -11 -4 -24 -4
-31 -1 -7 -8 -10 -16 -7 -8 4 -15 1 -15 -5 0 -6 7 -11 15 -11 13 0 15 -12 14
-64 -1 -36 -6 -70 -11 -78 -6 -8 -8 10 -6 50 2 34 0 62 -4 62 -5 0 -8 -15 -9
-32 0 -18 -2 -51 -3 -73 -2 -22 -4 -61 -5 -87 0 -27 -5 -48 -10 -48 -5 0 -8
11 -6 25 1 14 -2 25 -6 25 -5 0 -9 -11 -9 -25 0 -14 -4 -25 -9 -25 -4 0 -7 10
-5 23 8 57 10 177 2 177 -4 0 -8 -21 -9 -47 -2 -95 -6 -144 -14 -151 -4 -4 -5
39 -2 96 3 57 1 102 -4 102 -5 0 -8 -3 -8 -7 6 -34 -3 -113 -12 -113 -6 0 -9
7 -5 15 3 8 1 15 -4 15 -6 0 -10 -9 -10 -20 0 -12 7 -20 16 -20 12 0 15 -8 10
-37 -3 -21 -5 -41 -6 -45 0 -5 -4 -8 -10 -8 -5 0 -7 7 -4 15 4 8 1 15 -5 15
-6 0 -10 -3 -10 -7 5 -29 -3 -73 -12 -73 -6 0 -9 7 -5 15 3 8 1 15 -4 15 -6 0
-10 -17 -11 -37 0 -21 -2 -48 -5 -60 -2 -13 1 -23 6 -23 6 0 10 18 10 40 0 22
4 40 10 40 5 0 7 -7 4 -15 -4 -8 -1 -15 5 -15 6 0 11 7 11 15 0 8 5 15 11 15
6 0 9 -7 5 -15 -3 -8 -1 -15 4 -15 8 0 16 64 11 93 0 4 4 7 10 7 7 0 9 -14 5
-40 -3 -23 -1 -40 4 -40 6 0 10 18 10 40 0 22 4 40 8 40 13 0 8 -129 -5 -134
-7 -3 -10 1 -6 10 3 7 0 14 -6 14 -15 0 -14 -40 2 -41 10 0 10 -2 0 -6 -7 -2
-13 -11 -13 -19 0 -8 -5 -14 -11 -14 -6 0 -9 7 -5 15 3 8 1 15 -4 15 -6 0 -10
-11 -10 -25 0 -14 -4 -25 -9 -25 -5 0 -8 11 -6 25 1 14 -2 25 -6 25 -5 0 -9
-20 -9 -45 0 -38 3 -45 20 -45 15 0 20 7 20 25 0 14 4 25 9 25 5 0 8 -11 6
-25 -1 -14 2 -25 6 -25 5 0 9 7 9 17 0 9 3 14 6 10 9 -9 -6 -48 -17 -42 -5 4
-9 -1 -9 -9 0 -9 -8 -16 -17 -17 -15 0 -15 -2 2 -9 17 -7 17 -9 3 -9 -10 -1
-18 -8 -18 -16 0 -8 -5 -15 -11 -15 -6 0 -9 7 -5 15 3 8 1 15 -4 15 -6 0 -10
-9 -10 -20 0 -11 6 -20 13 -20 10 0 13 -15 11 -57 -3 -84 -3 -83 -15 -83 -6 0
-9 7 -5 15 3 8 1 15 -4 15 -6 0 -10 -9 -10 -20 0 -11 7 -20 15 -20 8 0 15 -9
15 -20 0 -25 -20 -27 -21 -2 -1 16 -2 16 -6 0 -2 -10 -9 -18 -15 -18 -5 0 -8
7 -4 15 3 8 1 15 -4 15 -6 0 -10 -7 -10 -15 0 -8 -5 -15 -11 -15 -6 0 -9 7 -5
15 3 8 1 15 -4 15 -6 0 -10 -16 -10 -35 0 -19 4 -35 10 -35 5 0 7 7 4 15 -4 8
-1 15 5 15 6 0 11 -9 11 -20 0 -11 -7 -20 -15 -20 -8 0 -15 -7 -15 -15 0 -8
-5 -15 -11 -15 -6 0 -9 7 -5 15 3 8 1 15 -4 15 -6 0 -10 -7 -10 -15 0 -8 -4
-15 -8 -15 -4 0 -7 19 -6 43 2 23 4 68 5 100 1 31 6 57 10 57 5 0 10 -8 10
-17 1 -17 2 -17 6 0 2 9 10 17 18 17 7 0 15 14 17 30 3 17 1 30 -4 30 -4 0 -8
-11 -8 -25 0 -14 -5 -25 -11 -25 -7 0 -9 10 -7 25 3 14 1 25 -3 25 -5 0 -9
-11 -9 -25 0 -14 -4 -25 -8 -25 -9 0 -6 113 3 138 2 6 -3 13 -13 13 -13 1 -13
2 3 7 l20 5 -20 8 c-17 6 -17 8 -2 8 9 1 17 8 17 16 0 8 7 15 15 15 8 0 15 9
15 20 0 11 -6 20 -13 20 -7 0 -13 9 -13 20 0 25 16 27 17 3 1 -17 2 -17 6 0 2
9 11 17 19 17 8 0 14 9 13 23 -1 16 -2 18 -6 5 -2 -10 -9 -18 -15 -18 -5 0 -8
7 -4 15 3 8 1 15 -4 15 -6 0 -10 -7 -10 -15 0 -8 -7 -15 -15 -15 -11 0 -15
-11 -15 -40 0 -22 -4 -40 -8 -40 -5 0 -7 18 -5 40 3 33 1 40 -14 41 -17 1 -17
2 0 6 9 2 17 11 17 19 0 8 7 14 15 14 9 0 15 9 15 25 0 16 6 25 15 25 9 0 15
9 14 23 -1 16 -2 18 -6 5 -2 -10 -11 -18 -19 -18 -8 0 -14 -10 -14 -25 0 -18
-5 -25 -20 -25 -17 0 -20 7 -20 45 0 26 5 45 11 45 6 0 9 -7 5 -15 -3 -8 -1
-15 4 -15 6 0 10 17 11 38 0 20 2 47 3 60 2 12 -1 22 -6 22 -4 0 -8 -18 -8
-40 0 -22 -5 -40 -11 -40 -5 0 -8 4 -4 9 3 5 1 12 -4 15 -5 4 -12 -2 -14 -11
-3 -10 -5 3 -6 30 -1 36 3 47 14 47 9 0 15 9 14 23 -1 16 -2 18 -6 5 -9 -34
-24 -18 -20 22 4 40 -7 56 -16 23 -4 -14 -5 -12 -6 5 -1 13 5 22 14 22 9 0 15
9 14 23 -1 16 -2 18 -6 5 -7 -27 -19 -22 -19 7 0 14 3 25 7 25 4 0 21 14 38
31 18 18 31 25 32 17 0 -7 6 1 12 17 l11 30 7 -30 7 -30 1 33 c0 17 6 32 12
32 6 0 9 -7 5 -15z m338 -2444 c8 -6 21 -9 30 -5 9 3 16 1 16 -5 0 -9 5 -9 20
-1 16 8 22 7 32 -10 7 -11 20 -20 28 -20 12 1 11 3 -2 11 -10 5 -18 14 -18 20
0 5 11 2 25 -7 13 -8 29 -13 35 -9 5 3 10 2 10 -3 0 -6 16 -8 35 -5 23 3 35 1
35 -7 0 -9 5 -9 17 1 14 12 15 12 9 0 -7 -10 -3 -12 13 -6 14 4 21 2 21 -7 0
-11 2 -11 9 0 7 11 9 11 14 -2 4 -9 12 -16 19 -16 9 0 9 3 -2 10 -12 7 -10 9
7 7 12 0 19 -5 17 -9 -3 -4 0 -8 5 -8 6 0 11 5 11 11 0 8 4 8 13 2 6 -6 22 -9
35 -8 12 1 27 -4 34 -12 13 -16 4 -28 -13 -17 -20 12 -189 14 -189 3 0 -6 -4
-7 -10 -4 -5 3 -10 -1 -10 -10 0 -12 5 -15 18 -10 9 4 33 9 52 11 28 3 30 2
10 -4 -22 -7 -23 -9 -7 -15 10 -4 36 -7 58 -7 22 0 54 -8 72 -17 18 -9 34 -17
37 -16 3 1 11 -6 19 -14 11 -13 2 -14 -75 -9 -106 7 -134 12 -249 42 -139 37
-204 59 -225 76 -13 12 -21 13 -29 5 -7 -7 -11 -7 -11 -1 0 6 5 15 11 21 7 7
4 9 -13 6 -28 -5 -51 17 -42 40 4 12 18 15 60 12 30 -2 61 -8 68 -14z"/>
<path d="M8623 7320 c-13 -6 -23 -18 -23 -30 0 -11 -4 -20 -10 -20 -5 0 -9 9
-7 21 2 19 -4 22 -50 25 -28 3 -120 -2 -205 -11 -84 -8 -243 -16 -353 -16
-139 -1 -182 -4 -142 -9 32 -4 86 -6 120 -5 34 2 79 1 101 -2 60 -9 25 -21
-168 -57 l-171 -32 0 -39 0 -40 50 -7 c160 -21 740 14 792 47 12 8 50 17 85
20 35 4 66 9 69 13 3 4 4 40 1 80 l-4 72 -32 -1 c-17 0 -41 -4 -53 -9z"/>
<path d="M8340 6935 c-63 -7 -214 -14 -335 -15 -224 -3 -220 -17 5 -19 95 -1
103 -2 79 -15 -15 -7 -94 -26 -175 -40 -82 -15 -161 -29 -176 -32 -24 -5 -28
-10 -28 -40 0 -19 6 -37 13 -39 6 -3 86 -9 177 -13 193 -10 191 -18 -16 -51
-177 -29 -171 -27 -177 -57 -9 -48 17 -60 144 -67 88 -5 488 -10 657 -7 12 0
22 6 22 15 0 23 40 39 110 45 l65 5 3 84 3 83 -63 -5 c-35 -3 -74 -8 -88 -12
-23 -7 -24 -7 -9 10 11 11 37 19 80 21 34 3 66 7 71 10 4 3 8 39 8 80 l0 74
-42 0 c-24 0 -61 -5 -83 -10 -25 -6 -41 -6 -43 0 -4 12 -53 11 -202 -5z"/>
<path d="M10220 6424 c-36 -8 -92 -19 -125 -24 -65 -12 -190 -46 -217 -61 -10
-5 -26 -9 -35 -9 -10 0 -29 -12 -43 -27 -22 -23 -23 -25 -5 -20 63 18 81 17
105 -3 13 -11 21 -21 19 -23 -2 -2 -15 -8 -29 -15 l-25 -11 28 5 c23 5 26 3
21 -11 -5 -13 -14 -15 -36 -11 -16 3 -27 2 -24 -2 3 -5 -4 -16 -15 -26 -28
-23 -21 -50 15 -53 21 -1 29 3 33 18 3 10 12 19 19 19 8 0 14 6 14 13 0 8 3 8
9 -2 12 -18 3 -42 -23 -63 -11 -9 -18 -19 -15 -23 4 -3 14 1 22 10 20 19 27
19 27 0 0 -8 6 -15 14 -15 14 0 30 -29 21 -38 -3 -3 -5 -2 -5 3 0 4 -7 2 -15
-5 -12 -10 -15 -9 -15 5 0 17 -1 17 -19 1 -19 -17 -51 -13 -51 8 0 6 -8 20
-16 31 -15 19 -15 19 -8 -10 9 -40 27 -60 77 -84 27 -14 45 -17 51 -11 16 16
39 12 32 -6 -4 -10 3 -25 18 -39 27 -25 20 -41 -21 -43 -22 -1 -39 23 -23 33
6 4 10 14 10 23 0 13 -3 12 -15 -5 -8 -12 -12 -28 -9 -37 3 -9 1 -16 -5 -16
-6 0 -11 -9 -11 -20 0 -11 -4 -21 -10 -21 -5 -1 -14 -3 -20 -4 -5 -1 -14 -3
-20 -4 -5 0 -7 -7 -4 -15 3 -8 -3 -19 -15 -26 -12 -6 -21 -17 -21 -26 0 -8 -7
-17 -15 -20 -8 -4 -12 -10 -9 -15 3 -6 0 -16 -6 -24 -11 -13 -15 -13 -33 0
-25 18 -59 19 -74 4 -7 -7 -2 -19 18 -39 16 -16 29 -33 29 -38 0 -13 -39 -22
-46 -11 -6 10 -64 9 -64 -2 0 -12 -55 -7 -75 7 -11 8 -34 14 -52 14 -31 0 -32
1 -22 27 7 19 7 28 -2 34 -21 13 9 38 52 45 42 7 47 15 24 34 -13 11 -27 11
-73 0 -71 -17 -74 -19 -108 -85 -45 -90 -31 -185 27 -185 15 0 17 -4 9 -24 -9
-25 9 -59 50 -94 13 -11 11 -13 -12 -8 -22 5 -26 3 -22 -9 7 -18 9 -18 37 -3
12 6 39 10 60 9 21 -1 37 2 37 8 0 6 -6 11 -12 12 -31 2 62 28 102 28 24 1 64
8 87 17 36 14 49 15 87 4 58 -16 70 -50 31 -86 -14 -13 -30 -24 -36 -24 -5 0
-9 -7 -9 -15 0 -9 -12 -21 -27 -28 -16 -6 -32 -17 -36 -24 -5 -8 -18 -11 -34
-7 -18 5 -24 3 -19 -5 4 -6 0 -11 -10 -11 -38 0 -81 -24 -93 -51 -7 -16 -20
-29 -29 -29 -10 0 -30 -9 -47 -20 -16 -12 -49 -30 -71 -40 -23 -11 -61 -37
-85 -59 -38 -36 -47 -40 -83 -36 -58 5 -77 14 -112 52 -50 52 -84 42 -84 -25
1 -38 20 -59 63 -67 21 -4 40 -12 43 -17 4 -6 -5 -8 -25 -3 -19 4 -31 3 -31
-4 0 -15 -53 -2 -67 16 -11 14 -13 11 -13 -24 0 -35 5 -45 30 -63 l31 -22 -7
-74 c-7 -75 -7 -75 26 -109 38 -40 173 -101 258 -117 33 -6 98 -8 153 -4 l96
6 18 -39 c13 -29 16 -52 11 -84 l-7 -45 -87 -16 c-48 -9 -98 -17 -112 -19 -16
-3 -12 -5 13 -6 35 -1 37 -2 23 -17 -9 -8 -16 -22 -16 -29 0 -8 -8 -22 -18
-32 -10 -10 -32 -36 -48 -58 -16 -21 -37 -47 -46 -57 -10 -10 -19 -26 -19 -35
-1 -10 -3 -36 -5 -57 -2 -28 0 -36 7 -29 14 14 46 5 53 -14 4 -8 -4 -42 -16
-76 -21 -58 -21 -64 -10 -221 7 -89 12 -187 12 -218 0 -32 4 -58 9 -58 17 0
19 14 9 67 -9 42 -6 76 12 180 12 70 28 141 36 157 8 16 14 46 14 66 0 23 8
48 22 65 21 27 24 27 90 22 52 -4 71 -2 82 9 8 8 21 14 29 14 8 0 31 7 50 15
20 8 46 15 58 15 18 0 21 -5 17 -30 -3 -20 0 -30 8 -30 14 0 40 40 27 40 -4 0
7 14 26 30 34 30 34 30 53 10 10 -11 30 -20 45 -20 23 0 25 -3 20 -30 -5 -24
-3 -30 12 -30 36 0 67 53 75 128 4 33 32 60 48 44 8 -8 9 -18 1 -36 -21 -44
28 -64 62 -26 10 11 35 25 57 30 34 10 53 30 28 30 -18 0 -11 15 13 25 12 6
21 16 19 23 -1 8 6 10 22 6 26 -6 85 19 99 42 4 8 16 14 26 14 21 0 71 22 71
32 0 3 34 4 77 1 76 -6 84 -10 137 -60 13 -13 28 -23 35 -23 15 0 145 -62 149
-71 2 -4 17 -3 35 2 63 17 105 19 111 4 3 -8 20 -21 38 -31 18 -9 51 -30 73
-46 22 -16 76 -51 120 -79 l80 -50 13 31 c14 34 43 43 35 10 -3 -11 -9 -18
-13 -15 -9 6 -18 -25 -13 -43 3 -6 9 -10 14 -6 5 3 9 0 9 -5 0 -28 33 7 39 42
0 4 8 23 16 43 12 30 13 40 3 53 -8 10 -5 9 10 -3 25 -22 28 -44 8 -71 -8 -11
-11 -26 -8 -34 3 -9 1 -12 -6 -7 -6 3 -14 1 -18 -5 -4 -8 -3 -9 4 -5 17 11 15
-4 -5 -28 -10 -13 -7 -11 9 4 15 14 29 36 32 50 2 14 9 38 15 53 14 35 14 40
1 32 -12 -8 -13 5 -1 24 7 11 11 10 20 -5 6 -11 11 -13 11 -6 0 7 -5 21 -12
32 -12 18 -13 18 -32 2 -18 -16 -18 -16 -6 8 7 14 16 31 20 39 3 8 12 17 19
19 10 3 10 0 2 -16 -11 -21 -6 -52 9 -52 9 0 14 14 25 69 4 19 14 41 21 49 12
11 14 10 15 -10 1 -17 3 -14 10 12 5 19 11 51 14 70 3 19 9 36 14 38 4 1 6 14
3 29 -3 18 -1 24 7 19 6 -4 11 -1 11 6 0 9 3 9 10 -2 12 -18 13 -33 2 -26 -4
2 -8 -10 -9 -27 0 -20 1 -24 4 -9 2 12 9 22 14 22 5 0 9 8 9 18 0 15 2 15 11
2 14 -20 6 20 -16 80 -29 76 -38 180 -17 187 8 3 12 -7 12 -31 0 -19 5 -38 11
-41 5 -4 23 -28 39 -53 31 -49 37 -51 20 -8 -6 17 -6 26 0 26 6 0 10 11 10 24
0 14 4 27 9 30 5 3 -2 41 -16 83 -23 73 -38 97 -54 87 -8 -5 -39 87 -45 131
-3 24 -1 27 7 12 6 -9 7 -22 4 -27 -3 -6 -1 -10 5 -10 18 0 40 -27 40 -50 0
-13 4 -19 11 -14 8 4 9 0 4 -15 -4 -12 -2 -21 4 -21 17 0 13 42 -9 83 -11 20
-20 46 -20 56 0 36 -40 113 -82 157 -40 42 -115 87 -144 87 -7 0 -11 4 -8 8 5
9 -83 29 -126 29 -35 0 -38 10 -10 35 26 23 25 49 -1 86 -15 22 -28 29 -53 29
-19 0 -39 7 -47 16 -7 8 -20 13 -30 11 -35 -9 -44 8 -31 63 7 28 12 79 12 113
0 34 5 89 10 122 6 33 10 101 11 150 1 126 -17 165 -149 315 -115 132 -149
156 -274 203 -34 13 -84 34 -109 45 -119 54 -356 76 -499 46z m530 -1680 c0
-13 -42 -64 -49 -60 -4 3 -12 -13 -18 -34 -5 -22 -6 -37 -2 -34 5 3 9 0 9 -5
0 -6 -9 -11 -19 -11 -27 0 -32 -12 -22 -47 7 -23 5 -35 -5 -45 -11 -11 -12
-21 -5 -41 6 -15 7 -27 2 -27 -13 0 -49 43 -60 73 -14 36 -14 134 -1 142 6 3
10 15 10 25 0 21 40 37 61 25 6 -4 15 -1 20 6 7 11 9 11 9 1 0 -7 5 -10 10 -7
6 3 10 0 10 -7 0 -7 8 2 16 20 14 28 34 43 34 26z"/>
<path d="M7297 6097 c-12 -13 -26 -31 -32 -40 -9 -16 -49 -17 -519 -17 -359 0
-513 -4 -523 -11 -7 -6 -13 -19 -13 -28 0 -9 -4 -21 -10 -27 -11 -11 -15 -121
-26 -595 l-6 -306 25 -39 c43 -69 86 -160 98 -210 7 -27 17 -52 23 -56 6 -4
88 -8 181 -8 94 0 175 -4 180 -8 6 -4 15 -16 21 -27 6 -11 20 -21 30 -22 10
-2 13 0 7 3 -7 3 -13 14 -13 25 0 18 11 19 288 20 158 0 311 3 340 5 54 5 68
-7 32 -26 -46 -25 -17 -31 148 -30 92 0 176 1 188 0 15 0 29 -16 51 -57 l30
-58 -14 -397 c-7 -219 -16 -473 -20 -565 l-8 -168 -49 -3 -48 -3 6 58 c3 32 6
249 8 483 l3 425 -614 3 c-445 1 -618 -1 -627 -9 -11 -9 -14 -53 -14 -198 l0
-186 34 -90 c18 -49 48 -126 66 -170 18 -44 52 -136 75 -205 24 -69 51 -145
60 -170 11 -30 14 -59 10 -86 -4 -32 -2 -44 14 -58 11 -10 28 -41 37 -70 9
-28 22 -58 29 -66 7 -8 17 -24 23 -36 10 -19 8 -21 -16 -21 -43 0 -127 -12
-153 -22 -31 -11 -105 -83 -114 -110 -3 -12 -11 -21 -16 -21 -6 0 -7 -5 -4
-10 4 -6 1 -17 -5 -25 -10 -12 -16 -12 -38 2 -25 14 -24 13 3 -10 33 -29 24
-36 -15 -11 -18 11 -16 8 5 -10 17 -14 25 -26 19 -26 -5 0 -9 -18 -8 -40 1
-38 -8 -51 -21 -30 -3 6 0 10 7 10 14 1 -11 23 -47 42 -18 10 -19 10 -6 -5 8
-10 9 -17 3 -17 -6 0 -14 5 -17 11 -4 6 -17 14 -29 19 -20 8 -20 9 -1 10 l20
1 -20 16 c-20 15 -19 15 5 10 23 -5 23 -5 7 7 -23 18 -12 50 15 43 16 -5 17
-3 7 9 -9 11 -8 14 5 14 10 0 15 4 11 9 -5 10 86 108 139 149 28 21 28 23 12
41 -15 16 -22 18 -42 9 -13 -6 -24 -16 -24 -21 0 -5 11 -2 24 6 22 15 25 15
38 0 11 -14 11 -15 -2 -11 -8 3 -28 -6 -44 -19 -23 -19 -31 -21 -43 -11 -12
10 -14 9 -11 -8 2 -11 -2 -18 -9 -17 -7 2 -10 -3 -7 -11 3 -7 -3 -19 -12 -27
-16 -12 -17 -12 -12 2 4 9 1 16 -8 16 -9 0 -12 -8 -8 -26 6 -26 6 -26 -11 -6
-9 11 -13 14 -10 7 9 -17 -3 -62 -16 -62 -6 0 -8 4 -4 9 3 5 1 12 -3 15 -5 3
-15 -6 -23 -20 -11 -22 -11 -27 1 -34 10 -6 11 -10 3 -10 -8 0 -10 -7 -6 -17
6 -16 5 -16 -10 -4 -10 8 -17 9 -17 3 0 -6 8 -16 18 -22 14 -9 13 -10 -8 -5
-24 6 -24 5 -6 -9 19 -16 19 -16 -5 -17 -13 0 -18 -3 -11 -6 6 -2 12 -9 12
-14 0 -6 -4 -7 -10 -4 -15 9 -23 -41 -10 -64 6 -12 21 -21 33 -22 12 0 31 -5
42 -10 14 -6 8 -7 -22 -3 -41 6 -43 5 -43 -21 0 -14 5 -35 10 -46 6 -10 8 -19
5 -19 -9 0 -85 162 -85 181 0 10 -5 21 -11 25 -6 3 -9 22 -7 40 3 30 1 34 -18
34 -20 0 -23 7 -29 53 -4 30 -8 66 -8 80 -1 15 -6 22 -11 17 -4 -4 -1 -56 8
-117 8 -59 23 -184 33 -277 16 -147 21 -171 40 -193 25 -26 28 -44 13 -73 -8
-14 -4 -38 14 -94 14 -41 30 -103 37 -138 6 -35 15 -70 20 -79 4 -8 50 -32
101 -52 51 -20 133 -59 181 -86 l88 -50 40 39 c32 31 39 43 34 61 -9 26 13 96
37 123 22 24 22 32 4 43 -18 11 -29 50 -17 58 6 3 8 19 4 35 -3 17 -3 30 1 30
14 0 48 -99 51 -149 1 -31 6 -75 10 -98 6 -33 4 -43 -6 -43 -7 0 8 -13 34 -29
55 -36 90 -95 85 -148 -2 -20 -9 -38 -17 -41 -10 -3 -12 3 -6 26 7 34 -12 88
-41 113 -28 25 -77 32 -125 19 -38 -11 -41 -13 -24 -23 26 -14 35 -27 35 -54
0 -24 10 -36 80 -96 32 -27 41 -40 33 -48 -8 -8 -21 -7 -47 2 -29 11 -41 11
-56 1 -11 -7 -36 -12 -55 -12 -28 0 -35 -4 -35 -20 0 -28 -26 -25 -69 9 -77
61 -349 238 -344 224 4 -11 -5 -9 -35 8 -23 13 -45 32 -48 42 -3 9 -10 15 -15
12 -5 -4 -9 -1 -9 4 0 6 -6 11 -14 11 -8 0 -16 7 -20 15 -3 8 -12 12 -21 9
-18 -7 -17 -9 115 -104 l91 -65 -6 -60 c-3 -33 -10 -113 -14 -177 -7 -91 -14
-127 -32 -165 -22 -45 -23 -52 -12 -98 7 -27 17 -113 23 -190 11 -157 39 -412
75 -680 13 -99 29 -234 35 -300 6 -66 13 -130 16 -142 l4 -23 1688 1 c1220 0
1681 3 1665 11 -13 6 -23 15 -23 19 0 22 50 27 230 23 155 -2 201 0 224 12 34
16 123 19 162 3 21 -7 34 -7 51 2 19 10 31 10 57 1 26 -10 148 -30 189 -32 17
0 5 40 -18 58 -29 23 -32 37 -7 51 14 9 12 11 -16 17 -19 4 -36 14 -40 23 -3
9 -11 20 -19 24 -20 12 -15 30 7 24 22 -6 29 18 8 26 -10 4 -10 6 0 6 22 2 13
21 -10 21 -21 1 -21 2 -5 11 28 17 80 7 83 -15 7 -46 16 -67 27 -63 15 5 47
-10 47 -23 0 -6 -9 -10 -20 -10 -11 0 -20 -5 -20 -11 0 -7 12 -9 33 -6 35 5
67 -7 67 -25 0 -6 11 -25 24 -42 12 -17 29 -48 37 -68 7 -21 17 -38 22 -38 11
0 0 37 -24 75 -26 44 -35 110 -17 128 24 25 58 29 125 17 58 -11 68 -11 77 3
7 8 30 21 53 27 47 14 87 52 96 90 6 23 3 26 -21 27 -49 1 -52 3 -52 28 0 40
73 68 173 65 l78 -1 -7 28 c-12 54 -17 67 -30 81 -16 15 -19 72 -4 72 5 0 7 7
3 15 -3 9 -8 13 -11 11 -3 -3 -11 2 -18 12 -8 10 -13 12 -14 5 0 -7 -5 -13
-11 -13 -12 0 -1 43 12 48 4 2 6 9 3 17 -3 7 -1 16 5 20 14 8 14 45 1 45 -5 0
-10 7 -10 15 0 8 -4 15 -10 15 -5 0 -10 6 -10 13 0 6 14 -3 30 -21 l30 -33 10
26 c17 46 22 102 11 122 -10 21 0 85 30 188 6 22 12 52 12 68 0 15 4 27 10 27
5 0 6 7 3 16 -3 8 3 24 14 36 28 30 50 82 50 117 l0 31 68 0 c58 1 65 2 49 14
-18 14 -239 88 -312 105 -22 5 -105 28 -185 50 -183 52 -215 60 -270 76 -47
14 -94 26 -120 31 -8 2 -62 17 -120 34 -136 41 -166 49 -219 62 -31 7 -40 13
-30 19 8 5 21 9 29 9 12 0 12 -2 2 -8 -7 -5 11 -9 45 -10 101 -1 111 -3 116
-17 8 -19 87 -8 112 17 17 16 18 20 5 28 -21 14 -30 12 -30 -4 0 -8 -7 -16
-15 -20 -17 -6 -21 9 -5 19 17 11 11 25 -11 25 -11 0 -29 -10 -39 -22 -10 -13
-22 -20 -26 -16 -4 5 1 17 10 27 17 18 17 20 -1 29 -10 6 -35 13 -56 17 -22 4
-35 11 -30 16 5 5 41 1 84 -9 45 -12 82 -16 96 -11 14 5 23 4 26 -5 9 -22 133
-66 187 -66 47 0 51 2 64 33 8 17 17 39 19 48 5 16 99 69 123 69 8 0 17 7 21
16 3 8 12 13 20 10 12 -5 38 15 133 102 14 13 42 35 62 48 34 22 37 28 35 64
-2 45 -27 56 -28 13 0 -16 -3 -22 -6 -15 -11 28 -123 4 -136 -31 -3 -8 -31
-31 -64 -52 -32 -22 -64 -45 -71 -52 -7 -7 -17 -13 -21 -13 -4 0 -23 -14 -42
-31 -80 -73 -118 -99 -141 -99 -13 0 -33 -7 -44 -15 -28 -21 -47 -19 -41 5 3
11 1 17 -4 14 -6 -3 -16 0 -24 6 -13 11 -13 16 1 39 16 28 25 34 103 70 27 14
41 26 38 35 -3 8 9 22 33 35 21 11 40 28 44 36 3 8 16 15 29 15 15 0 29 9 37
25 8 14 24 28 36 31 12 3 24 14 27 24 3 10 18 21 38 25 19 4 47 23 68 47 32
35 94 73 113 70 4 -1 9 6 12 16 6 16 71 49 88 44 12 -3 40 46 34 57 -4 5 9 14
28 21 19 6 40 18 48 27 11 14 10 16 -12 11 -14 -4 -33 -3 -44 1 -16 6 -13 11
25 39 23 18 49 32 57 32 7 0 10 5 7 10 -3 6 2 10 12 10 11 0 28 7 39 16 18 15
18 15 -7 10 -37 -8 -46 19 -14 40 14 9 25 23 25 30 0 24 -36 15 -50 -12 -8
-14 -26 -32 -40 -39 -35 -19 -130 -108 -130 -123 0 -6 -6 -12 -13 -12 -7 0
-29 -18 -50 -40 -20 -22 -41 -40 -48 -40 -6 0 -23 -9 -38 -19 -15 -11 -51 -31
-81 -45 -63 -28 -90 -48 -90 -65 0 -6 -6 -11 -14 -11 -20 0 -116 -98 -102
-104 6 -3 2 -5 -9 -4 -36 2 -86 -24 -95 -48 -5 -13 -18 -24 -28 -24 -10 0 -38
-18 -62 -40 -28 -26 -54 -40 -71 -40 -15 0 -29 -7 -33 -15 -3 -8 -16 -15 -29
-15 -13 0 -27 -4 -33 -9 -5 -5 -33 -11 -62 -13 -51 -3 -52 -3 -52 25 0 17 10
37 26 52 14 13 23 29 19 35 -4 7 2 14 14 17 12 3 21 9 21 14 0 5 7 9 15 9 9 0
15 6 14 13 -4 23 13 47 35 47 34 0 52 16 38 33 -10 12 -9 18 3 31 9 9 22 16
29 16 7 0 19 11 26 25 27 51 129 100 190 92 22 -3 43 -1 46 4 3 5 -6 9 -19 9
-14 0 -30 7 -37 16 -11 13 -10 16 8 21 12 3 22 9 22 14 0 5 6 9 13 9 8 0 24
11 37 25 12 13 27 22 31 19 5 -3 9 -1 9 4 0 13 76 46 88 38 5 -3 12 1 16 9 3
8 0 16 -7 16 -7 1 -19 3 -27 4 -8 1 -21 3 -28 4 -7 0 -10 6 -7 11 4 6 32 8 72
4 63 -5 66 -5 60 15 -4 18 -1 21 28 21 22 0 44 9 62 25 15 13 23 25 16 25 -6
0 -14 -4 -17 -9 -3 -5 -25 -6 -49 -4 -24 3 -53 1 -64 -5 -11 -6 -25 -7 -33 -2
-12 8 -10 13 10 32 13 13 27 21 30 19 3 -2 13 12 23 32 20 39 43 49 142 62 61
8 111 29 119 51 5 13 9 14 20 5 11 -9 15 -6 19 16 3 16 5 28 4 29 -1 1 -16 4
-34 7 -23 5 -37 2 -49 -10 -10 -11 -34 -17 -68 -18 -28 0 -74 -10 -103 -20
-60 -22 -81 -12 -38 19 38 26 137 126 189 188 22 27 64 62 93 80 29 18 53 38
53 44 0 11 82 74 96 74 16 0 100 67 97 77 -3 7 7 15 21 19 37 9 32 18 -20 33
-34 10 -48 11 -57 2 -6 -6 -19 -11 -29 -11 -10 0 -18 -4 -18 -10 0 -5 -4 -10
-10 -10 -5 0 -9 3 -9 8 4 26 -3 32 -33 26 -18 -3 -47 -7 -64 -9 -44 -3 -125
-36 -118 -47 4 -5 16 -7 27 -4 12 3 27 0 34 -6 9 -7 17 -7 28 2 9 8 15 8 15 2
0 -6 -16 -20 -35 -32 -20 -12 -41 -27 -48 -34 -6 -6 -24 -19 -39 -29 -16 -10
-28 -24 -28 -32 0 -8 -4 -15 -9 -15 -4 0 -37 -28 -72 -63 -36 -34 -78 -72 -94
-85 -40 -31 -175 -163 -175 -171 0 -13 -209 -231 -222 -231 -5 0 -8 -7 -8 -15
0 -8 -19 -31 -42 -52 -24 -21 -58 -54 -77 -73 -19 -19 -38 -36 -43 -36 -4 -1
-12 -2 -18 -3 -5 0 -10 -7 -10 -15 0 -8 -7 -16 -15 -20 -25 -9 -17 6 28 56
129 143 183 215 173 226 -4 3 -21 0 -39 -7 -18 -7 -49 -18 -70 -23 -21 -6 -41
-17 -44 -24 -3 -8 -12 -14 -20 -14 -9 0 -13 6 -10 14 3 7 0 19 -6 25 -8 8 -7
11 5 11 9 0 18 6 21 14 3 8 16 12 31 11 14 -2 26 1 26 6 0 5 6 9 14 9 8 0 17
9 21 19 5 17 12 19 56 14 44 -5 52 -3 74 21 30 33 31 36 5 36 -12 0 -35 10
-53 22 -18 13 -34 24 -36 25 -2 1 4 9 12 17 10 11 17 12 19 5 7 -20 115 -1
146 26 26 22 26 24 9 42 -9 11 -14 23 -10 26 3 4 -3 7 -15 7 -31 0 -27 16 11
56 73 76 86 94 80 111 -4 11 -3 14 5 9 6 -4 26 7 43 24 18 16 36 30 40 30 5 0
9 10 9 23 0 13 9 33 19 44 11 12 17 23 14 27 -3 3 -1 12 6 19 6 8 9 21 6 29
-4 9 10 30 35 54 22 21 40 45 40 52 0 6 28 39 61 72 44 43 86 72 148 102 80
38 84 42 59 49 -68 18 -193 -33 -331 -137 -34 -25 -75 -53 -91 -61 -17 -9 -36
-22 -44 -30 -28 -28 -92 -53 -135 -53 -80 0 -85 -4 -469 -376 -65 -63 -118
-117 -118 -120 0 -3 -24 -34 -52 -67 -59 -69 -72 -87 -94 -136 -11 -23 -20
-32 -32 -28 -9 2 -23 6 -31 8 -7 2 -16 -2 -18 -9 -3 -8 4 -16 16 -19 28 -7 27
-23 -1 -23 -22 -1 -22 -1 -5 -15 18 -13 18 -14 -2 -25 -19 -10 -21 -8 -21 15
0 15 -5 35 -11 46 -9 17 -6 24 18 45 31 27 14 33 -27 9 -14 -7 -41 -21 -60
-30 -32 -15 -33 -17 -17 -29 26 -20 21 -24 -28 -24 -33 1 -55 -6 -83 -25 -21
-15 -43 -27 -49 -27 -6 0 -13 -7 -17 -15 -3 -8 -15 -15 -26 -15 -11 0 -37 -7
-58 -17 -20 -9 -40 -15 -44 -15 -5 1 -8 -5 -8 -14 0 -8 4 -13 8 -10 5 3 6 -9
4 -25 -3 -22 -8 -27 -15 -20 -18 18 -37 12 -38 -11 0 -13 -3 -18 -5 -11 -3 7
-18 9 -40 6 -19 -3 -53 0 -74 7 -29 10 -43 10 -53 2 -7 -6 -23 -9 -35 -5 -14
3 -30 -1 -41 -11 -10 -9 -21 -13 -24 -10 -4 4 -12 2 -19 -3 -7 -6 -25 -13 -40
-15 -24 -5 -30 0 -49 39 -16 34 -25 42 -40 38 -19 -6 -60 10 -58 23 3 19 -2
23 -16 12 -12 -10 -15 -9 -15 4 0 10 -11 19 -30 23 -31 6 -40 29 -18 51 13 13
-5 42 -27 42 -8 0 -11 8 -8 20 3 10 -2 26 -11 35 -9 9 -16 25 -16 36 0 10 -4
19 -10 19 -5 0 -7 7 -4 15 9 22 -22 19 -55 -6 -40 -30 -76 -18 -103 35 -11 22
-24 43 -28 46 -3 3 -21 26 -39 53 -17 26 -36 47 -40 47 -5 0 -9 39 -10 88 -3
161 -29 463 -41 482 -14 23 -101 -24 -309 -169 -121 -85 -248 -171 -253 -171
-2 0 -3 381 -2 848 0 466 -2 883 -6 927 -4 44 -7 72 -8 63 -1 -10 -6 -18 -12
-18 -5 0 -11 -10 -11 -22 -1 -15 -4 -11 -9 12 l-7 35 -2 -37 c-1 -48 -17 -49
-24 -3 -6 37 6 174 22 240 5 22 15 85 21 140 6 55 15 114 20 130 5 17 10 71
11 121 3 104 -7 122 -73 143 l-38 13 0 121 c0 104 -3 127 -20 155 l-20 32
-240 0 c-239 0 -241 0 -263 -23z m95 -2173 l31 -16 -5 -218 c-6 -288 8 -270
-213 -270 -185 0 -325 9 -325 21 0 5 21 10 48 11 26 1 -20 5 -103 8 l-150 5 0
225 0 224 25 13 c19 9 107 13 343 13 271 0 322 -2 349 -16z m1060 -1031 c-16
-21 -44 -67 -62 -103 -18 -36 -44 -75 -58 -88 -23 -22 -71 -138 -72 -175 0 -9
-4 -25 -9 -35 -25 -49 -31 -72 -33 -124 -3 -56 -10 -71 -22 -45 -4 6 -4 -2 -1
-20 5 -35 -11 -59 -58 -88 -24 -16 -27 -16 -21 -1 3 9 9 16 13 16 3 0 5 38 3
85 -2 47 -8 85 -13 85 -5 0 -9 5 -9 11 0 5 4 8 9 4 13 -7 24 30 16 55 -4 12
-1 27 5 35 9 11 9 15 1 15 -6 0 -11 -4 -11 -10 0 -5 -4 -10 -10 -10 -15 0 -12
30 4 36 9 3 12 12 9 22 -5 11 -2 14 8 10 10 -4 15 1 15 13 0 17 -2 17 -18 2
-10 -9 -18 -22 -18 -29 0 -7 -9 -16 -21 -19 -14 -5 -18 -12 -14 -23 3 -9 3
-13 -1 -9 -4 4 -14 1 -23 -6 -8 -6 0 10 19 37 65 91 370 396 396 396 3 0 -8
-17 -24 -37z m-1630 -260 c21 -19 24 -56 4 -72 -8 -7 -16 -33 -19 -59 -2 -26
-10 -75 -17 -109 -12 -55 -16 -63 -37 -63 -16 0 -23 6 -23 19 0 28 25 102 55
164 12 22 12 27 1 27 -8 0 -21 11 -30 24 -14 22 -14 27 0 55 17 35 38 39 66
14z m2764 -123 c5 -5 30 -11 54 -13 24 -2 45 -8 47 -14 3 -7 20 -9 43 -6 27 4
40 2 40 -6 0 -8 8 -10 19 -6 11 3 23 1 26 -6 6 -8 10 -7 16 2 6 10 9 11 9 2 0
-8 13 -13 30 -13 19 0 30 -5 30 -14 0 -8 3 -21 6 -30 5 -12 -1 -15 -30 -14
-26 1 -36 6 -36 17 0 14 -2 14 -10 1 -9 -13 -11 -13 -19 -1 -5 8 -29 15 -56
16 -34 2 -51 7 -58 20 -7 14 -11 15 -18 4 -7 -11 -12 -12 -29 -1 -11 6 -37 12
-57 12 -50 0 -63 9 -52 38 9 23 28 29 45 12z m266 -1178 c6 -6 17 -8 25 -5 19
7 177 -32 201 -50 9 -8 12 -6 10 3 -2 9 7 15 27 16 29 1 66 13 134 42 38 16
53 11 84 -30 16 -22 17 -28 6 -47 -11 -17 -12 -25 -1 -42 11 -18 11 -24 -2
-38 -9 -10 -16 -29 -16 -44 0 -33 -39 -54 -95 -50 -85 6 -280 1 -290 -6 -5 -5
-39 -7 -75 -6 -36 2 -71 -2 -78 -8 -10 -8 -15 -8 -20 0 -8 13 -122 17 -197 8
-27 -4 -59 -6 -70 -6 -11 1 -32 1 -47 2 -18 0 -28 5 -28 14 0 8 -7 15 -15 15
-8 0 -15 -7 -15 -16 0 -9 -6 -14 -12 -11 -7 2 -20 1 -29 -4 -11 -6 -21 -4 -28
4 -6 8 -35 14 -70 15 -33 1 -79 6 -103 12 -24 6 -65 13 -93 16 -27 3 -61 10
-75 15 -14 5 -49 13 -79 19 -30 6 -63 18 -73 27 -10 9 -18 13 -18 10 0 -3 -13
-1 -30 4 -16 6 -30 17 -30 25 0 8 -4 14 -10 14 -5 0 -10 10 -10 21 0 16 -3 19
-12 12 -7 -6 -34 -13 -60 -16 -36 -5 -51 -3 -64 10 -15 16 -15 18 1 30 10 7
22 10 28 6 5 -3 23 -7 38 -8 16 -1 43 -2 59 -3 19 -1 30 -7 30 -17 0 -8 5 -15
10 -15 6 0 10 -11 10 -25 0 -24 1 -24 36 12 35 34 38 35 90 29 40 -5 54 -3 54
6 0 9 3 8 10 -2 6 -10 10 -11 10 -2 0 16 19 15 39 -2 9 -7 29 -16 44 -20 24
-6 30 -3 34 13 6 25 23 18 23 -10 0 -25 25 -24 44 2 14 21 16 21 41 5 25 -17
92 -19 101 -4 8 12 69 9 82 -4 9 -9 15 -8 25 6 7 9 19 18 27 19 8 2 21 6 28
11 15 9 64 -1 73 -16 4 -5 23 -10 44 -11 30 -1 39 -6 46 -26 7 -17 6 -27 -3
-33 -15 -9 -6 -11 16 -2 11 4 13 14 9 36 -5 23 -1 35 19 53 13 12 34 26 45 29
12 4 24 13 27 21 6 17 101 14 118 -3z"/>
<path d="M4300 5626 c-6 -8 -18 -12 -27 -9 -11 4 -14 2 -11 -8 3 -8 -5 -19
-16 -24 -30 -15 -88 -156 -91 -219 -1 -46 10 -141 14 -108 0 7 4 11 9 9 4 -3
16 -1 27 4 17 6 17 8 3 8 -12 1 -18 9 -17 24 1 16 2 18 6 5 5 -22 23 -24 23
-3 0 9 6 12 17 8 10 -4 14 -2 9 5 -3 6 -2 13 4 17 5 3 10 -3 10 -14 0 -12 -7
-21 -15 -21 -8 0 -15 -8 -15 -17 0 -12 3 -14 8 -7 8 13 52 0 52 -15 0 -5 -5
-22 -12 -38 -17 -42 -17 -52 -3 -47 10 4 11 -3 5 -32 -13 -57 -3 -54 12 2 12
48 12 48 19 19 4 -20 7 -4 8 48 1 47 5 77 12 77 7 0 9 -27 8 -75 -2 -41 -1
-77 3 -80 12 -12 9 154 -4 175 -19 29 -26 25 -31 -17 -2 -21 -4 -10 -3 25 1
34 -2 62 -7 62 -4 0 -5 5 -2 10 3 6 -2 10 -12 11 -10 0 -13 3 -5 6 6 2 12 11
12 19 0 11 -9 14 -32 12 -20 -2 -33 2 -36 11 -3 10 0 12 12 8 20 -8 52 25 60
61 3 15 12 48 20 75 15 47 9 60 -14 33z"/>
<path d="M9311 5331 c-7 -5 -18 -19 -25 -32 -14 -27 -43 -29 -109 -8 -30 10
-40 10 -50 0 -9 -10 -4 -19 27 -45 35 -30 37 -35 25 -54 -7 -12 -11 -23 -9
-25 3 -2 35 -1 72 2 88 8 108 26 108 96 0 54 -15 80 -39 66z"/>
<path d="M6071 3407 c-7 -39 -15 -89 -20 -109 -5 -25 -2 -68 11 -134 19 -99
27 -120 35 -96 3 8 30 41 59 74 57 64 63 81 20 53 -32 -21 -73 -26 -86 -10
-13 15 -3 45 15 45 7 0 16 6 19 13 3 8 9 6 21 -8 16 -20 16 -20 58 4 23 13 79
43 125 67 46 24 80 44 77 44 -4 0 -41 -9 -83 -19 -110 -28 -203 -42 -220 -32
-11 6 -7 15 22 44 20 20 36 45 36 55 0 10 -18 33 -39 50 l-39 32 -11 -73z"/>
<path d="M3530 3065 c0 -9 5 -13 11 -9 12 7 12 6 -10 -38 -15 -29 -35 -39 -25
-13 4 8 1 15 -5 15 -6 0 -11 -10 -11 -23 0 -16 6 -23 20 -23 11 0 20 6 20 13
0 6 5 15 12 19 6 4 8 3 4 -4 -3 -6 3 -13 14 -17 33 -11 -1 -37 -40 -30 -26 5
-30 2 -30 -17 0 -19 2 -20 10 -8 8 13 10 12 10 -3 0 -10 5 -15 10 -12 6 3 10
-2 10 -12 0 -15 2 -16 10 -3 8 12 10 11 10 -7 0 -12 5 -23 11 -25 6 -2 15 -26
21 -53 17 -89 18 -94 28 -120 5 -14 12 -25 14 -25 10 0 -8 116 -20 131 -8 8
-14 19 -14 24 0 5 7 0 16 -11 14 -17 15 -17 10 -1 -3 10 -6 34 -6 53 0 24 -4
33 -12 28 -8 -5 -9 -2 -5 10 5 13 3 17 -6 13 -8 -3 -14 4 -15 20 -1 19 2 24
13 19 28 -10 18 39 -10 52 -14 6 -25 15 -25 20 0 16 13 22 27 11 7 -6 13 -7
13 -2 0 5 -13 17 -30 26 -27 16 -30 17 -30 2z"/>
<path d="M3414 2731 c-62 -38 -151 -176 -142 -220 2 -9 -3 -22 -12 -28 -12
-10 -12 -14 -3 -21 10 -6 10 -12 -1 -27 -13 -18 -14 -18 -20 3 -9 27 -36 18
-36 -12 0 -13 12 -28 33 -40 18 -11 27 -21 19 -23 -6 -3 -9 -9 -6 -15 4 -6 8
-36 8 -67 2 -46 8 -64 34 -100 31 -42 44 -101 22 -101 -5 0 -10 -5 -10 -10 0
-6 6 -9 13 -8 7 2 11 -7 10 -25 -1 -15 2 -25 8 -22 5 4 9 3 10 -2 3 -30 11
-60 23 -78 8 -11 24 -61 36 -110 32 -133 40 -152 79 -183 20 -16 65 -63 101
-105 69 -81 93 -92 125 -57 28 31 15 110 -24 153 -29 30 -38 47 -26 47 3 0 31
-20 63 -45 55 -44 94 -56 107 -35 4 6 15 8 26 5 31 -10 33 20 4 81 -14 31 -24
59 -21 62 4 3 -12 24 -34 47 -22 23 -42 51 -44 62 -4 21 -4 21 50 -4 73 -33
126 -40 146 -19 12 12 18 13 21 3 11 -25 7 51 -4 81 -10 30 -90 106 -136 131
-30 15 -29 29 1 37 29 7 48 46 40 82 -10 41 -46 101 -63 107 -42 13 -190 180
-174 196 11 11 177 28 283 29 l75 0 -25 20 c-14 11 -36 23 -50 27 -14 3 -49
17 -79 29 -29 13 -64 24 -76 24 -12 0 -28 7 -36 16 -34 42 -126 57 -157 27 -7
-7 -18 -13 -24 -13 -6 0 3 14 21 31 27 25 30 33 20 45 -37 45 -122 57 -175 25z"/>
<path d="M10836 1824 c-3 -9 -6 -18 -6 -20 0 -9 58 -27 206 -64 83 -21 161
-43 172 -49 16 -9 24 -7 38 6 16 16 15 18 -7 26 -13 5 -39 17 -57 26 -26 12
-36 13 -51 4 -15 -10 -22 -9 -30 1 -6 8 -30 16 -52 20 -23 4 -53 13 -68 20
-15 8 -43 17 -64 21 -20 4 -37 11 -37 16 0 16 -38 10 -44 -7z"/>
<path d="M3263 1683 c-7 -3 -13 -12 -13 -20 0 -9 6 -13 14 -10 9 4 16 -3 20
-16 10 -36 7 -41 -13 -23 -18 17 -20 17 -30 -1 -11 -17 -11 -17 -23 2 -11 19
-11 19 -19 0 -4 -11 -8 -37 -8 -57 -1 -51 -21 -49 -21 2 0 33 -3 40 -20 40
-17 0 -20 7 -22 43 l-1 42 -4 -39 c-3 -21 -11 -46 -20 -54 -10 -10 -12 -23 -8
-41 4 -14 9 -46 10 -71 2 -25 6 -53 10 -63 4 -10 3 -28 -2 -40 -6 -12 -16 -35
-22 -51 -9 -21 -17 -27 -31 -23 -13 3 -20 0 -20 -9 0 -8 9 -14 20 -14 17 0 20
-7 20 -40 0 -35 -3 -40 -24 -40 -24 0 -41 -30 -26 -47 5 -4 4 -48 -2 -96 -10
-74 -9 -90 3 -99 10 -7 -6 -8 -48 -4 -35 3 -63 3 -63 0 0 -2 9 -22 20 -44 24
-48 24 -50 3 -50 -10 -1 -29 -7 -41 -14 l-24 -13 26 -16 c14 -9 30 -17 36 -17
13 0 13 -77 0 -85 -15 -9 -12 -25 5 -25 9 0 15 -9 15 -21 0 -20 4 -21 48 -17
57 6 72 -6 72 -57 0 -28 4 -35 20 -35 17 0 20 -7 20 -40 0 -22 -4 -40 -8 -40
-4 0 -7 -54 -6 -120 l2 -120 -28 0 c-23 0 -27 -3 -23 -20 4 -17 8 -18 20 -8
17 13 33 -3 33 -34 0 -10 4 -18 9 -18 5 0 12 -36 16 -80 7 -79 7 -80 35 -80
23 0 29 5 34 27 10 52 26 178 42 333 20 194 51 427 68 505 22 98 39 223 32
240 -3 8 -2 15 3 15 4 0 11 42 15 93 4 50 9 108 11 127 4 28 3 31 -5 15 -7
-15 -8 -8 -3 25 13 81 3 161 -19 169 -13 4 -15 10 -8 21 14 21 12 30 -5 30 -9
0 -17 14 -21 39 -6 38 -23 53 -51 44z"/>
</g>
</svg>
