<?xml version="1.0" standalone="no"?>
<!DOCTYPE svg PUBLIC "-//W3C//DTD SVG 20010904//EN"
 "http://www.w3.org/TR/2001/REC-SVG-20010904/DTD/svg10.dtd">
<svg version="1.0" xmlns="http://www.w3.org/2000/svg"
 width="1200.000000pt" height="800.000000pt" viewBox="0 0 1200.000000 800.000000"
 preserveAspectRatio="xMidYMid meet">
<metadata>
Created by potrace 1.16, written by Peter Selinger 2001-2019
</metadata>
<g transform="translate(0.000000,800.000000) scale(0.100000,-0.100000)"
fill="#000000" stroke="none">
<path d="M4 6358 c2 -904 3 -1650 3 -1658 0 -8 -1 -1069 -3 -2358 l-4 -2342
6000 0 6000 0 0 2345 0 2345 -37 -16 c-21 -9 -46 -18 -55 -21 -10 -3 -18 -10
-18 -16 0 -6 17 -7 46 -3 65 8 53 -13 -24 -44 -80 -33 -89 -44 -29 -38 75 9
56 -21 -31 -47 -27 -8 -61 -24 -73 -34 l-24 -19 48 5 c62 7 62 -10 0 -31 -27
-9 -61 -25 -78 -36 -27 -18 -28 -20 -8 -20 12 0 34 5 49 10 31 12 37 9 28 -13
-3 -9 -28 -23 -54 -32 -27 -9 -54 -23 -61 -31 -12 -14 -7 -15 37 -9 48 8 49 7
31 -12 -9 -11 -36 -26 -60 -32 -23 -7 -53 -20 -67 -29 -56 -36 -66 -18 -20 35
16 18 30 40 30 48 0 8 5 15 10 15 6 0 19 19 29 43 10 24 31 51 46 61 22 14 25
20 14 27 -11 8 -6 17 24 43 20 18 37 38 37 43 0 6 7 17 16 24 9 8 25 32 34 54
24 54 56 81 110 92 36 7 46 13 48 31 l4 23 -51 -26 c-57 -29 -66 -20 -21 22
16 15 30 33 30 39 0 6 9 23 20 37 19 24 20 40 20 389 l-1 363 -106 110 c-58
60 -139 148 -181 195 -42 47 -107 118 -146 158 -38 40 -66 75 -64 78 3 3 115
42 249 88 l244 82 3 852 2 852 -6000 0 -6000 0 4 -1642z m2191 1430 c18 -30
217 -179 317 -239 24 -14 75 -44 113 -67 102 -60 210 -179 235 -259 7 -21 26
-52 42 -69 23 -25 28 -37 22 -58 -3 -15 -13 -30 -20 -33 -8 -3 -32 -28 -55
-56 -33 -43 -40 -57 -35 -82 3 -16 7 -40 10 -52 2 -13 8 -28 13 -35 5 -7 16
-35 23 -63 17 -66 68 -135 95 -130 86 19 175 44 202 58 36 19 104 22 134 7 10
-6 40 -15 66 -20 27 -6 55 -12 63 -14 17 -3 27 -36 11 -36 -6 0 -1 -16 10 -36
23 -42 48 -69 55 -61 7 7 -16 91 -27 98 -5 3 -12 39 -15 80 -3 41 -10 81 -14
90 -11 20 -40 144 -40 170 0 24 77 109 99 109 9 0 25 -8 37 -18 22 -18 112
-140 134 -182 7 -14 32 -47 55 -75 46 -55 173 -261 229 -373 56 -112 52 -132
-64 -307 -78 -118 -94 -135 -123 -135 -27 0 -97 74 -97 104 0 42 -10 56 -41
56 -16 0 -29 -4 -29 -10 0 -5 -8 -10 -18 -10 -10 0 -23 -5 -29 -11 -7 -7 -23
-7 -54 1 -51 14 -254 97 -353 146 -53 26 -72 31 -87 23 -26 -14 -24 -35 15
-131 18 -45 43 -117 56 -158 12 -41 26 -84 31 -95 5 -11 17 -56 28 -100 10
-44 30 -123 44 -175 35 -132 42 -190 24 -190 -8 0 -19 6 -24 13 -10 13 -45
120 -49 152 -7 51 -26 142 -33 160 -5 11 -14 33 -20 48 -6 15 -11 41 -11 57 0
16 -4 32 -10 35 -5 3 -10 17 -10 31 0 13 -4 24 -10 24 -5 0 -10 8 -10 18 0 21
-19 74 -48 131 -12 25 -22 53 -22 62 0 10 -4 21 -10 24 -5 3 -10 17 -10 30 0
13 -7 30 -15 39 -8 8 -15 18 -15 23 0 26 -139 123 -176 123 -13 0 -133 62
-150 79 -11 10 -26 21 -34 24 -8 3 2 6 22 6 57 1 117 33 139 74 10 17 -1 76
-24 127 -12 26 -48 70 -57 70 -14 0 -90 -178 -104 -241 -5 -25 -6 -26 -66 -18
-73 10 -129 39 -235 119 -179 134 -193 141 -455 220 -256 77 -265 81 -366 167
-39 33 -74 51 -155 77 -100 33 -105 33 -152 19 -61 -18 -121 -14 -125 8 -5 29
100 59 421 119 160 30 172 31 265 20 180 -22 344 -30 390 -18 76 19 51 31 -83
43 -88 7 -132 21 -145 45 -17 31 -12 40 35 60 32 14 43 23 39 34 -4 10 6 28
25 47 19 19 36 50 43 78 33 135 60 217 75 229 9 6 33 12 52 12 29 -1 40 -7 56
-32z m1720 -793 c72 -29 157 -63 190 -75 141 -51 157 -67 138 -143 -25 -97
-73 -251 -90 -285 -18 -36 -49 -53 -83 -45 -17 5 -81 98 -134 197 -38 72 -46
83 -193 266 -37 47 -71 87 -74 90 -3 3 -14 20 -23 38 -13 25 -14 37 -6 47 13
15 42 6 275 -90z m1955 4 c82 -15 175 -46 269 -90 73 -34 93 -39 155 -39 85 0
282 -31 421 -66 86 -21 432 -131 444 -140 8 -7 -32 -183 -66 -287 -19 -60 -32
-111 -30 -114 3 -3 54 6 114 20 155 37 258 57 290 57 28 0 28 -2 55 -123 15
-67 38 -169 52 -227 106 -454 291 -1249 356 -1530 28 -118 72 -312 100 -430
l50 -215 -33 -31 c-17 -17 -41 -42 -52 -55 -41 -47 -230 -189 -252 -189 -5 0
-19 -9 -31 -20 -18 -17 -25 -19 -42 -8 -16 10 -20 19 -15 38 3 14 7 34 9 45 1
11 6 36 9 55 4 19 10 73 12 120 3 47 7 135 11 196 l5 111 -61 -3 c-37 -2 -80
3 -107 12 -51 18 -128 15 -211 -7 l-54 -14 6 -35 c3 -19 9 -53 13 -74 l6 -40
-31 23 c-18 12 -37 31 -43 43 -6 11 -13 18 -15 15 -16 -16 -43 -119 -49 -185
-9 -106 -38 -167 -62 -129 -14 22 -150 418 -208 607 -13 41 -70 226 -128 410
-57 184 -114 369 -127 410 -12 41 -28 95 -35 120 -29 92 -148 509 -181 630
-18 69 -38 137 -43 152 -11 32 0 45 46 54 30 6 30 6 20 46 -6 24 -17 43 -27
45 -11 3 -20 19 -24 43 -8 48 -33 72 -40 38 -8 -36 -24 -132 -41 -253 -23
-160 -122 -754 -156 -940 -52 -279 -121 -620 -127 -630 -3 -5 -7 -16 -7 -25
-1 -8 -5 -33 -10 -55 -5 -22 -8 -43 -7 -47 1 -3 -13 1 -31 10 -17 9 -78 20
-134 25 -85 8 -103 13 -103 27 0 9 -5 21 -10 26 -7 7 -1 39 19 100 16 49 35
133 41 187 12 92 11 99 -6 112 -11 8 -27 15 -36 15 -9 0 -20 5 -23 10 -3 6
-17 10 -29 10 -13 0 -39 6 -57 14 -31 13 -35 13 -55 -9 -11 -12 -24 -40 -27
-60 -3 -21 -8 -39 -10 -41 -2 -3 -46 11 -98 30 -95 34 -275 74 -359 78 -41 3
-45 5 -42 28 1 14 27 219 57 455 30 237 87 680 125 985 68 529 72 557 98 595
71 105 317 156 552 114z m-751 -2361 c54 -88 112 -198 105 -198 -2 0 -27 12
-55 26 -55 27 -104 27 -159 -1 l-26 -13 22 161 c12 89 22 164 23 167 1 5 7 -4
90 -142z m303 -455 c15 -14 22 -14 46 -4 l27 13 -29 -31 c-16 -17 -32 -28 -37
-26 -11 8 -139 -197 -139 -222 0 -25 99 -231 130 -270 l19 -25 26 28 c15 16
34 41 43 56 9 16 20 28 24 28 4 0 8 5 8 11 0 5 13 24 30 42 16 18 30 40 30 50
0 9 4 17 9 17 5 0 12 8 14 18 3 10 5 6 6 -10 1 -16 -4 -28 -11 -28 -10 0 -10
-2 -1 -8 9 -5 7 -27 -7 -87 -26 -109 -26 -117 4 -105 13 5 38 21 55 37 43 39
88 73 98 73 10 0 42 65 48 98 5 29 44 92 56 92 5 0 15 -12 21 -27 7 -16 18
-36 26 -45 16 -19 12 -125 -8 -253 -6 -38 -11 -83 -11 -100 0 -16 -6 -39 -14
-52 -8 -12 -15 -28 -14 -35 0 -7 4 -4 9 7 8 19 9 19 9 1 1 -11 -11 -39 -25
-63 -30 -52 -55 -141 -47 -171 3 -11 -2 -34 -10 -51 -12 -23 -12 -28 -1 -24
10 4 11 -2 2 -29 -6 -18 -15 -41 -20 -51 -12 -24 0 -66 13 -46 7 12 9 11 9 -1
0 -28 -12 -60 -21 -54 -5 3 -6 -1 -4 -9 3 -7 -1 -29 -10 -48 -9 -19 -14 -24
-11 -11 2 13 0 20 -6 16 -6 -4 -8 -24 -5 -45 3 -22 2 -39 -3 -39 -16 0 -41
-295 -28 -351 18 -89 18 -106 -3 -194 -21 -86 -27 -107 -48 -157 -5 -13 -12
-72 -16 -133 -9 -171 -6 -206 18 -229 9 -10 18 -25 18 -34 1 -9 5 1 9 23 l7
40 3 -45 c2 -25 2 -52 1 -60 -1 -8 -4 -55 -6 -104 -3 -50 -7 -92 -10 -94 -2
-3 -46 7 -97 21 -51 14 -115 28 -143 31 l-50 6 55 -20 c51 -19 97 -50 74 -50
-6 0 -36 5 -65 10 -302 59 -671 92 -794 72 -71 -12 -78 -6 -70 58 15 124 97
732 105 778 13 73 41 133 84 178 104 110 156 208 156 295 0 32 -3 40 -15 35
-12 -4 -15 4 -15 40 0 31 -5 46 -16 51 -17 6 -64 -15 -77 -35 -5 -7 -12 -10
-16 -8 -4 3 -14 -6 -21 -20 -8 -13 -27 -28 -44 -33 -28 -7 -31 -11 -29 -44 4
-60 -4 -50 -43 53 l-13 35 -1 -32 c0 -18 -4 -33 -9 -33 -5 0 -11 -18 -15 -39
-5 -33 -10 -40 -36 -46 -16 -4 -39 -4 -50 0 -15 5 -20 2 -20 -14 0 -10 -3 -27
-6 -36 -6 -14 -9 -14 -30 0 -23 15 -23 15 -14 -11 13 -33 13 -33 -9 -27 -16 4
-19 1 -15 -14 5 -17 -3 -22 -43 -33 -26 -8 -57 -22 -67 -32 -11 -10 -24 -18
-28 -18 -5 0 -6 -4 -3 -10 3 -5 -1 -10 -9 -10 -9 0 -16 -4 -16 -9 0 -5 -10
-11 -22 -13 -13 -2 -22 -9 -20 -16 1 -6 -5 -12 -13 -12 -9 0 -12 -6 -9 -15 4
-11 -5 -16 -36 -21 -30 -5 -38 -9 -28 -16 9 -7 2 -8 -21 -4 -29 5 -32 4 -21
-9 7 -8 21 -15 31 -15 11 0 19 -3 19 -7 0 -5 -25 -6 -55 -5 -38 3 -55 0 -55
-8 0 -8 -11 -11 -30 -8 -16 3 -30 1 -30 -4 0 -4 -8 -9 -17 -9 -17 -1 -17 -2
-1 -6 15 -4 13 -8 -11 -29 -16 -13 -34 -24 -40 -24 -6 0 -11 -4 -11 -10 0 -9
119 -50 188 -65 61 -13 34 -29 -50 -29 -9 0 -15 -3 -12 -8 3 -4 12 -8 20 -8 8
0 13 -6 12 -12 -3 -14 -70 -38 -107 -38 -13 0 -21 -3 -18 -6 4 -4 -3 -15 -15
-25 -11 -11 -17 -20 -12 -20 5 -1 -18 -7 -51 -14 -40 -8 -59 -16 -57 -25 2 -9
-8 -11 -40 -7 -24 2 -37 3 -30 0 19 -7 14 -23 -7 -23 -11 0 -23 -5 -26 -10 -3
-6 -17 -7 -31 -4 -18 5 -24 2 -24 -10 0 -18 -15 -21 -25 -5 -4 6 -14 8 -22 5
-8 -3 -25 5 -38 18 -22 22 -24 22 -28 5 -3 -11 0 -22 5 -25 17 -11 -21 -26
-69 -30 -27 -2 -43 2 -43 9 0 6 -7 1 -16 -11 -10 -14 -25 -22 -46 -22 -21 0
-31 -6 -35 -20 -3 -11 -12 -20 -20 -20 -10 0 -13 -6 -9 -16 4 -12 1 -14 -14
-9 -14 4 -20 2 -20 -8 0 -16 -72 -30 -78 -15 -8 18 -41 7 -44 -14 -5 -34 -36
-35 -49 -1 -13 34 -5 150 15 197 20 48 128 140 225 191 59 31 112 70 170 125
47 44 88 80 92 80 12 0 171 129 209 169 19 20 74 82 122 138 48 55 130 140
182 189 53 49 96 94 96 99 0 6 -20 19 -43 29 -23 10 -50 26 -59 34 -37 31 -14
157 35 194 l22 17 -21 23 c-12 13 -25 33 -28 45 -4 12 -17 30 -29 40 -29 23
-97 119 -97 136 0 44 91 157 151 188 63 31 118 34 197 10 66 -20 74 -20 129
-6 32 8 139 18 238 22 l180 8 17 120 c9 66 17 121 17 122 2 6 67 36 138 62 43
16 125 47 183 70 116 45 145 49 172 24z m2803 -989 c25 -109 75 -320 111 -469
36 -148 68 -280 71 -292 6 -27 14 -28 55 -7 50 26 160 13 207 -23 20 -15 58
-39 85 -53 57 -29 107 -90 99 -121 -5 -18 -14 -12 -72 52 l-67 72 -12 -41 c-7
-23 -28 -58 -47 -78 -33 -35 -36 -36 -86 -29 -51 7 -52 7 -46 -16 3 -13 3 -29
-1 -35 -13 -19 -79 -64 -95 -64 -8 0 -17 -6 -19 -12 -3 -9 -12 -8 -32 5 -29
19 -35 21 -111 33 -46 6 -47 6 -40 -17 4 -13 13 -33 20 -44 6 -11 18 -45 25
-75 15 -63 63 -206 91 -267 10 -23 19 -46 19 -52 0 -6 9 -15 21 -21 16 -9 19
-18 15 -36 -5 -17 -3 -24 6 -23 32 4 48 -2 48 -19 0 -9 11 -38 25 -64 14 -27
22 -54 18 -64 -5 -13 -2 -15 15 -9 18 5 22 2 22 -17 0 -13 9 -36 20 -53 11
-16 20 -42 20 -56 0 -15 7 -43 15 -63 8 -20 16 -39 16 -43 6 -35 32 -45 43
-17 4 9 9 14 12 12 16 -16 -68 -106 -131 -141 -82 -46 -262 -101 -369 -113
l-58 -7 23 44 c13 24 26 46 29 49 3 3 7 14 8 25 2 11 8 23 13 26 5 3 7 13 4
21 -5 12 3 21 27 32 62 29 91 124 62 204 -7 20 -13 53 -14 72 0 20 -15 62 -34
97 -18 34 -42 89 -52 122 -15 47 -24 61 -39 62 -11 0 -72 2 -135 2 -106 2
-116 4 -124 23 -14 31 -71 45 -147 34 -51 -7 -68 -6 -87 6 -15 10 -54 15 -125
17 -56 2 -109 7 -117 12 -24 16 -83 35 -107 35 -13 0 -23 5 -23 10 0 6 -6 10
-14 10 -8 0 -16 6 -19 14 -3 7 -19 16 -35 19 -49 10 -49 60 1 115 28 30 40 28
98 -18 28 -22 56 -40 62 -41 52 -2 165 -20 229 -34 59 -14 89 -16 125 -9 l48
9 -2 51 c-1 27 -7 62 -12 77 -13 34 -41 36 -41 3 0 -32 -19 -44 -35 -23 -7 10
-24 17 -38 17 -39 0 -140 39 -159 62 -10 11 -18 29 -18 39 0 10 -6 19 -14 19
-7 0 -19 7 -26 15 -7 8 -23 15 -36 15 -12 0 -26 5 -29 10 -3 6 -17 10 -30 10
-14 0 -34 12 -49 31 -18 21 -35 31 -56 31 -16 1 -30 4 -30 8 0 4 -15 22 -34
41 -26 26 -35 46 -41 85 -6 48 -5 52 26 82 35 34 70 47 152 57 47 6 49 8 42
33 -17 65 -83 397 -80 400 11 11 47 -65 51 -110 8 -85 12 -93 55 -144 22 -27
49 -66 60 -86 28 -54 78 -108 100 -108 32 0 78 40 85 74 3 17 17 52 30 78 l24
47 52 -5 c50 -5 147 20 134 34 -3 3 -1 11 5 18 24 29 -40 334 -103 492 -16 42
-33 81 -36 86 -3 5 0 6 6 2 7 -4 12 -4 12 1 0 4 77 9 172 11 145 3 178 7 209
23 21 10 41 24 44 30 4 5 9 9 11 6 2 -2 24 -93 49 -203z m-2379 -859 c-3 -8
-9 -22 -12 -30 -5 -11 1 -15 20 -15 37 0 53 -37 35 -78 -14 -33 -66 -57 -109
-50 -60 8 -48 119 18 163 42 29 57 32 48 10z m1614 -816 c119 -34 263 -69 269
-64 4 2 67 13 140 25 107 17 135 19 142 9 6 -10 21 -10 81 0 122 22 132 21
136 -13 6 -53 -4 -72 -40 -74 -18 0 -68 -6 -111 -12 -68 -11 -80 -10 -95 4
-18 15 -37 16 -113 1 -21 -4 -58 -1 -93 8 -49 13 -61 13 -84 1 -30 -15 -167
-20 -176 -5 -5 8 -47 19 -101 26 -75 11 -145 39 -145 59 0 7 10 25 21 40 19
24 26 27 63 21 22 -4 70 -15 106 -26z m-1880 -1066 c26 -4 42 -13 58 -37 30
-43 28 -56 -13 -96 -33 -32 -38 -33 -135 -39 -87 -5 -101 -4 -105 10 -17 54
99 193 145 172 8 -3 31 -8 50 -10z"/>
<path d="M6950 6620 c-8 -5 -12 -10 -8 -10 12 0 -48 -203 -74 -250 -42 -79
-80 -130 -95 -130 -9 0 -13 -6 -9 -15 3 -10 -3 -17 -19 -21 -14 -3 -25 -10
-25 -14 0 -9 276 61 304 77 17 9 17 11 -8 17 -31 8 -35 26 -5 26 11 0 17 4 14
10 -4 6 -15 8 -25 5 -14 -4 -19 2 -23 33 -6 34 5 169 19 250 5 27 3 32 -12 32
-11 0 -26 -5 -34 -10z"/>
</g>
</svg>
