<?xml version="1.0" standalone="no"?>
<!DOCTYPE svg PUBLIC "-//W3C//DTD SVG 20010904//EN"
 "http://www.w3.org/TR/2001/REC-SVG-20010904/DTD/svg10.dtd">
<svg version="1.0" xmlns="http://www.w3.org/2000/svg"
 width="1200.000000pt" height="600.000000pt" viewBox="0 0 1200.000000 600.000000"
 preserveAspectRatio="xMidYMid meet">
<metadata>
Created by potrace 1.16, written by Peter Selinger 2001-2019
</metadata>
<g transform="translate(0.000000,600.000000) scale(0.100000,-0.100000)"
fill="#000000" stroke="none">
<path d="M2 4523 l3 -1478 35 1 c19 1 98 4 175 8 189 9 333 -6 404 -42 58 -29
56 -25 103 -172 16 -49 27 -60 58 -60 49 0 77 -37 153 -205 39 -87 51 -151 33
-174 -7 -10 -7 -13 0 -8 6 3 11 1 11 -6 0 -7 -11 -13 -23 -13 -12 -1 -21 3
-20 10 2 6 1 8 -1 3 -3 -4 -9 -5 -14 -2 -5 4 -6 -1 -3 -10 4 -10 14 -15 25
-12 10 3 18 2 17 -2 0 -3 0 -13 2 -21 1 -11 4 -9 10 5 5 14 7 6 5 -25 -3 -60
-3 -59 -22 -55 -10 2 -24 4 -31 4 -8 1 -11 10 -8 25 5 27 -17 55 -29 36 -6 -9
0 -13 16 -12 3 1 6 -5 6 -12 0 -17 -72 18 -81 39 -3 9 -9 14 -14 11 -4 -2 -39
19 -76 47 -162 122 -307 199 -502 266 -107 37 -128 41 -178 35 l-56 -7 0
-1348 0 -1349 1031 0 c958 0 1031 1 1025 17 -4 9 -9 32 -11 52 -9 66 -36 225
-47 271 -5 25 -16 101 -23 170 -8 69 -17 136 -20 150 -13 63 -17 157 -6 164 8
5 7 13 -4 29 -20 29 -20 116 0 123 14 6 18 54 5 54 -4 0 -15 9 -27 19 -13 13
-22 38 -27 77 -4 32 -14 67 -24 77 -12 14 -17 38 -18 86 0 53 -6 75 -27 111
-14 25 -34 75 -43 110 -9 36 -20 70 -24 75 -4 6 -14 32 -23 58 -36 109 -166
317 -260 417 -51 54 -63 80 -38 80 29 0 151 -89 232 -170 52 -52 120 -115 150
-140 67 -56 109 -99 163 -170 41 -54 136 -197 136 -205 0 -2 14 -25 31 -50 37
-54 159 -363 159 -401 0 -9 18 -52 40 -96 22 -44 60 -142 84 -217 24 -75 67
-197 96 -271 42 -110 53 -150 57 -215 2 -44 11 -97 19 -118 8 -20 14 -49 14
-62 l0 -25 2801 0 2801 0 -62 72 c-33 40 -95 116 -138 168 -42 52 -122 142
-177 200 -55 58 -122 132 -149 165 -79 95 -159 175 -176 175 -16 0 -60 27
-145 90 -224 164 -293 204 -372 216 -43 6 -55 17 -29 27 7 3 34 36 59 74 59
89 78 105 126 108 22 1 47 8 56 15 13 10 15 9 15 -8 0 -12 9 -23 22 -28 12 -3
67 -43 122 -88 185 -149 305 -220 441 -261 313 -94 579 -199 640 -254 11 -10
35 -23 53 -29 31 -11 33 -10 51 26 10 20 26 62 36 92 10 30 39 100 65 155 26
55 53 118 60 140 7 22 25 63 40 90 15 28 31 69 35 92 8 49 36 90 54 79 6 -4 9
-11 7 -15 -3 -3 -7 -34 -11 -66 -9 -92 -15 -130 -40 -260 -50 -257 -65 -302
-112 -332 -27 -18 -62 -45 -94 -75 -17 -16 -17 -21 -5 -55 7 -21 12 -51 10
-68 -7 -72 -16 -115 -24 -120 -5 -3 -9 -25 -8 -49 1 -56 -19 -117 -36 -110 -7
3 -18 -1 -23 -8 -10 -12 -33 -113 -33 -145 0 -11 254 -13 1428 -13 l1429 0 21
23 c11 12 45 72 75 133 35 70 67 121 88 138 l33 28 18 -22 c10 -12 18 -33 18
-46 0 -17 6 -24 20 -24 11 0 95 45 187 101 93 55 175 104 183 108 13 7 15 269
18 2248 l2 2241 -37 -13 c-26 -9 -44 -10 -56 -3 -10 5 -25 7 -33 4 -8 -3 -14
-1 -14 4 0 6 -11 10 -24 10 -36 0 -83 59 -92 117 -9 64 9 132 44 158 21 16 39
19 87 17 67 -4 81 -15 91 -71 4 -20 13 -47 20 -61 11 -21 13 48 14 443 l0 467
-1161 0 -1161 0 16 -25 c9 -13 19 -41 23 -62 10 -53 5 -200 -8 -250 -7 -25 -9
-85 -7 -147 l5 -105 -41 -33 c-84 -68 -259 -161 -326 -173 -31 -6 -36 -4 -37
14 -1 12 1 21 5 21 4 0 16 17 27 37 11 20 29 47 40 59 36 40 40 48 42 89 3 57
8 78 21 83 7 2 9 8 6 13 -3 6 0 16 6 24 7 8 9 15 4 15 -5 0 0 7 10 15 18 14
18 16 3 33 -10 10 -14 22 -10 25 3 4 -1 7 -11 7 -9 0 -15 4 -11 9 3 6 -3 15
-14 21 -13 6 -22 7 -26 0 -7 -12 -44 7 -63 33 -7 9 -17 15 -22 12 -5 -3 -15 1
-23 9 -8 8 -17 13 -20 10 -2 -3 -7 2 -10 10 -3 8 2 20 11 28 9 7 13 8 9 2 -13
-22 21 -23 40 -1 18 21 18 21 -2 7 -18 -14 -19 -14 -6 2 12 16 16 16 42 2 20
-10 29 -11 29 -3 0 6 9 9 19 6 14 -3 18 -1 14 9 -3 8 -9 12 -13 9 -13 -8 -6
21 9 39 7 9 10 16 7 16 -4 0 0 7 8 16 9 8 20 12 26 9 7 -4 7 3 0 20 -5 14 -6
24 -1 21 5 -3 16 10 25 28 9 19 24 37 34 39 9 3 -110 5 -265 6 l-281 1 -16
-47 c-19 -55 -20 -85 -5 -100 14 -14 3 -63 -14 -63 -8 0 -23 -11 -35 -25 -29
-33 -38 -32 -51 6 -17 48 -14 60 29 144 22 43 40 79 40 81 0 2 -243 4 -539 4
l-539 0 -6 -24 c-3 -13 -26 -40 -50 -60 l-44 -36 5 43 c2 23 6 50 8 60 3 16
-31 17 -611 17 -403 0 -614 -3 -614 -10 0 -13 -47 -13 -55 0 -11 18 -162 12
-192 -7 -21 -14 -23 -18 -9 -23 13 -4 8 -15 -29 -53 -42 -45 -78 -59 -81 -32
0 6 -4 19 -9 29 -7 15 1 27 34 58 l43 38 -300 0 c-254 0 -301 -2 -312 -15 -7
-8 -20 -15 -30 -15 -10 0 -23 7 -30 15 -10 13 -51 15 -246 15 -218 0 -257 -5
-222 -26 6 -4 8 -3 5 4 -5 6 1 8 14 5 16 -4 17 -8 7 -14 -7 -5 -8 -9 -3 -9 6
0 2 -7 -8 -14 -15 -12 -16 -15 -2 -26 13 -11 15 -10 10 6 -4 13 -2 12 6 -3 13
-25 54 -31 62 -10 3 7 6 5 6 -6 1 -16 3 -16 23 2 14 14 26 17 36 12 8 -5 22
-7 31 -4 9 2 22 -6 29 -18 8 -11 9 -18 3 -15 -5 4 -13 1 -16 -4 -5 -7 -12 -5
-20 7 -13 17 -15 17 -30 -5 -13 -18 -20 -21 -31 -11 -8 6 -14 10 -15 8 0 -2
-2 -12 -4 -21 -8 -44 -28 -89 -43 -97 -11 -6 -26 -4 -45 5 -15 8 -36 12 -46 9
-12 -3 -19 -1 -18 7 1 34 -4 48 -18 48 -21 0 -38 48 -31 85 4 17 21 42 39 57
l32 27 -197 1 c-147 0 -198 -3 -202 -12 -5 -10 -7 -10 -12 0 -4 9 -479 12
-2325 12 l-2319 0 2 -1477z m5508 1348 c0 -3 11 -18 24 -32 28 -31 43 -59 41
-79 -1 -8 -3 -32 -3 -52 -1 -20 -8 -43 -15 -50 -8 -7 -16 -20 -20 -28 -4 -12
-6 -11 -6 3 -1 18 -27 22 -51 7 -19 -12 -48 19 -56 60 -7 35 -9 34 46 15 23
-8 46 -15 51 -15 21 0 6 46 -36 116 -25 40 -45 83 -45 94 0 20 2 20 35 -6 19
-14 35 -29 35 -33z m2180 -53 c-124 -98 -170 -154 -195 -238 -4 -14 -27 -47
-51 -73 -113 -126 -152 -217 -154 -357 0 -19 -10 -50 -23 -69 -12 -19 -32 -51
-43 -70 -23 -37 -44 -52 -44 -29 0 7 11 62 25 123 31 138 73 225 163 344 l72
95 0 67 c0 79 -6 99 -29 99 -10 0 -17 8 -17 20 0 11 5 20 10 20 5 0 6 3 3 6
-9 9 37 44 65 50 88 18 126 24 162 24 22 0 48 4 56 10 26 16 26 -1 0 -22z
m-1856 16 c22 -8 20 -36 -5 -95 -17 -40 -19 -52 -9 -64 7 -8 19 -15 26 -15 8
0 14 -5 14 -11 0 -5 5 -7 10 -4 18 11 11 -37 -11 -72 -19 -31 -24 -33 -53 -27
-40 9 -76 7 -91 -6 -13 -11 -25 27 -25 80 0 28 28 92 43 98 4 2 7 9 7 17 0 7
6 18 14 24 8 7 22 27 31 46 16 36 22 39 49 29z m626 -26 c0 -5 7 -8 15 -8 19
0 19 -8 0 -44 -9 -16 -13 -37 -10 -46 6 -18 65 -34 65 -18 0 5 4 7 10 3 5 -3
7 -12 3 -20 -4 -11 -1 -13 11 -9 14 6 14 3 1 -30 -12 -28 -12 -36 -3 -36 26 1
130 40 157 60 42 29 94 27 120 -6 12 -15 21 -41 21 -58 0 -17 10 -47 23 -66
13 -19 38 -68 56 -109 33 -73 34 -75 28 -180 -4 -58 -13 -136 -21 -173 -8 -36
-18 -120 -21 -185 -4 -65 -9 -120 -11 -122 -6 -7 -197 37 -268 61 -51 16 -83
19 -220 17 -89 -1 -168 -1 -176 0 -31 4 -81 -2 -86 -11 -3 -4 -29 -8 -57 -8
-29 0 -79 -4 -112 -9 -33 -6 -82 -12 -110 -15 -27 -3 -63 -8 -80 -11 -22 -5
-27 -3 -19 5 6 6 9 31 6 58 -4 41 -3 45 11 34 11 -10 17 -10 22 -1 4 6 2 15
-5 19 -7 4 -8 10 -3 13 12 8 28 -4 42 -30 10 -19 15 -21 40 -12 37 13 47 37
24 55 -10 7 -21 14 -25 14 -11 0 3 38 20 53 10 9 45 18 79 20 61 6 62 7 137
80 66 65 75 79 77 113 1 21 6 47 11 57 10 19 18 56 21 92 2 23 73 95 95 95 26
0 82 41 82 60 0 12 -10 20 -35 24 -30 6 -41 2 -74 -25 -29 -23 -45 -29 -61
-24 -18 6 -20 12 -15 33 4 15 13 31 21 35 8 5 12 12 9 17 -3 4 2 10 10 14 19
7 19 52 0 60 -8 3 -15 12 -15 20 0 8 -4 16 -9 18 -5 2 -11 27 -15 56 -9 78 -3
83 127 80 59 -2 107 -6 107 -10z m-5310 -52 c0 -8 9 -17 20 -21 16 -5 17 -10
10 -31 -5 -13 -7 -24 -3 -24 3 0 -6 -11 -21 -25 -39 -36 -84 -34 -122 6 l-29
31 30 25 c17 14 24 22 18 19 -7 -4 -13 -2 -13 4 0 6 12 9 28 8 17 -2 26 1 25
10 -2 7 8 12 27 12 19 0 30 -5 30 -14z m9446 -53 c21 -22 25 -35 20 -63 -3
-19 -8 -70 -12 -113 -4 -43 -10 -80 -14 -82 -13 -8 -52 85 -59 141 -5 36 -15
61 -29 75 -26 24 -27 32 -6 53 25 25 71 20 100 -11z m-9710 -37 c27 -22 27
-25 16 -63 -7 -23 -19 -46 -27 -53 -8 -7 -15 -22 -15 -34 -1 -36 -24 -58 -54
-50 -14 3 -26 10 -26 15 0 5 -17 26 -38 47 -60 60 -65 68 -52 91 17 32 71 56
162 70 4 1 19 -10 34 -23z m4310 -78 c3 -5 10 -5 16 -2 7 4 8 2 4 -5 -4 -6
-12 -9 -17 -6 -5 3 -6 -1 -3 -9 3 -9 10 -16 15 -16 5 0 4 -11 -1 -25 -6 -15
-6 -26 0 -30 15 -9 12 -19 -11 -43 -11 -12 -17 -27 -14 -32 4 -6 -2 -7 -18 -1
-14 6 -28 7 -31 4 -3 -4 -6 3 -6 15 0 14 -6 22 -17 22 -22 1 -63 34 -63 50 0
23 42 71 57 66 7 -3 16 1 19 9 6 16 61 18 70 3z m-1146 -15 c0 -14 2 -15 9 -4
5 8 7 -4 4 -32 -5 -44 -5 -46 23 -49 19 -2 29 -9 29 -20 0 -34 19 -40 66 -20
24 10 50 17 57 15 6 -3 12 -1 12 4 0 4 14 14 31 22 40 18 55 3 68 -64 10 -52
3 -83 -23 -104 -9 -7 -16 -19 -16 -27 0 -7 -9 -19 -21 -27 -12 -9 -16 -18 -10
-21 5 -4 13 -1 16 5 4 5 13 8 20 5 7 -2 25 2 40 10 15 8 34 14 41 14 8 0 14 7
14 15 0 22 47 19 81 -6 19 -13 29 -29 30 -47 0 -15 11 -58 23 -97 20 -63 25
-70 47 -67 13 1 78 4 144 6 74 3 135 10 160 19 22 9 33 16 25 16 -8 1 -20 9
-25 20 -6 10 -17 31 -26 47 -19 33 -31 114 -17 114 5 0 6 5 3 10 -3 6 -1 10 4
10 6 0 11 6 11 14 0 15 25 24 52 18 10 -2 27 -23 39 -48 21 -41 21 -45 6 -62
-23 -25 -21 -54 3 -80 20 -21 27 -37 12 -28 -5 3 -9 -1 -9 -8 0 -8 6 -12 14
-9 7 3 13 10 13 17 0 21 39 12 51 -11 12 -22 30 -28 76 -24 12 1 24 -3 28 -9
3 -5 15 -10 26 -10 10 0 19 -6 19 -12 0 -7 7 -26 15 -42 10 -18 12 -32 6 -35
-14 -9 -29 -53 -24 -68 12 -33 93 8 93 47 0 26 24 70 36 66 6 -3 17 1 23 7 8
8 11 8 11 -2 0 -7 3 -10 8 -8 4 3 7 -8 7 -24 1 -16 -2 -29 -5 -29 -3 0 -6 -10
-7 -22 -1 -11 -6 -24 -10 -27 -4 -4 -21 -21 -37 -38 -25 -28 -27 -35 -18 -62
8 -23 8 -31 -1 -31 -8 0 -8 -3 2 -9 9 -6 10 -11 2 -15 -6 -4 -15 -4 -21 -1 -5
3 -10 -3 -10 -15 0 -12 -4 -19 -9 -16 -10 6 -34 -18 -26 -26 3 -3 26 -3 52 0
38 4 45 2 40 -11 -5 -13 0 -14 31 -9 47 9 330 8 402 -1 30 -4 91 -11 135 -16
44 -5 92 -14 106 -20 15 -5 29 -7 32 -5 3 3 8 0 12 -7 6 -9 -1 -10 -26 -6 -19
3 -124 13 -235 23 -170 14 -259 15 -584 8 -351 -8 -384 -10 -394 -27 -15 -25
7 -37 53 -29 20 4 137 7 261 7 213 0 225 -1 225 -19 0 -10 -11 -26 -25 -34
-14 -9 -22 -12 -18 -8 7 8 -38 56 -52 56 -8 0 -20 -50 -20 -84 0 -17 2 -18 10
-6 9 13 10 13 10 0 0 -13 1 -13 10 0 8 12 10 10 8 -10 -2 -17 4 -28 20 -35 31
-14 30 -67 -2 -102 -22 -24 -29 -25 -79 -20 -51 6 -56 5 -71 -18 -25 -38 -101
-51 -246 -43 -8 0 -42 -4 -74 -11 -33 -6 -91 -11 -130 -11 -49 -1 -83 -7 -111
-20 -22 -11 -48 -19 -57 -20 -10 0 -18 -7 -18 -15 0 -8 -7 -16 -15 -16 -8 -1
-19 -3 -25 -4 -5 -1 -14 -3 -20 -4 -5 0 -10 -6 -10 -12 0 -5 5 -7 12 -3 7 4 8
3 4 -5 -4 -6 -12 -9 -17 -6 -5 4 -12 -1 -15 -10 -4 -9 -21 -22 -38 -30 -30
-13 -30 -14 -8 -21 16 -5 21 -11 17 -23 -4 -9 -9 -45 -12 -81 -2 -36 -9 -75
-15 -87 -6 -12 -8 -38 -5 -57 3 -20 2 -38 -2 -41 -5 -2 -43 3 -85 12 -62 14
-83 14 -110 5 -43 -16 -106 5 -196 64 -60 40 -141 68 -215 76 -26 3 -30 7 -33
38 -5 52 -18 62 -68 54 -58 -8 -88 0 -104 30 -7 14 -17 23 -22 20 -4 -3 -8 1
-8 10 0 19 -76 96 -95 96 -12 0 -15 16 -15 74 0 80 -6 109 -22 100 -6 -4 -3 4
5 17 13 22 33 109 41 184 1 17 10 44 20 60 9 17 27 48 39 70 12 22 33 65 46
95 12 30 31 73 42 96 10 22 19 47 19 55 0 8 9 33 19 55 24 53 35 132 21 148
-5 7 -11 25 -12 40 -1 14 -7 26 -12 26 -5 0 -6 3 -3 6 4 4 13 1 21 -5 8 -7 20
-10 25 -7 5 4 13 1 17 -5 3 -6 19 -9 35 -5 33 6 37 1 41 -47 2 -42 18 -39 18
4 0 39 27 80 47 72 12 -5 14 -3 8 7 -5 8 -4 11 3 6 6 -3 26 4 45 17 28 19 33
27 26 45 -5 12 -6 22 -4 22 2 0 -7 12 -21 27 -39 42 -57 87 -49 123 8 34 11
37 70 44 90 10 136 19 141 27 9 15 24 10 24 -8z m6388 -82 c44 -23 92 -65 93
-83 0 -7 2 -22 4 -33 5 -26 -12 -45 -40 -45 -31 0 -74 52 -81 101 -4 21 -13
44 -20 50 -8 6 -11 15 -8 20 7 12 9 12 52 -10z m-740 -219 c2 -19 -1 -32 -8
-32 -6 0 -8 -4 -5 -10 3 -5 -3 -15 -15 -22 -11 -7 -20 -20 -20 -29 0 -20 -48
-53 -73 -52 -10 1 -15 -3 -11 -9 4 -6 -1 -6 -15 1 -18 10 -20 9 -14 -5 4 -12
3 -15 -5 -10 -7 4 -12 3 -12 -2 0 -6 -7 -13 -16 -16 -15 -6 -15 -4 -3 11 11
14 9 13 -13 -2 -15 -11 -28 -24 -28 -28 0 -5 -4 -5 -10 -2 -5 3 -10 1 -10 -4
0 -6 -6 -11 -14 -11 -8 0 -16 -4 -18 -9 -6 -16 -48 8 -59 33 -22 47 12 82 141
147 203 102 203 102 208 51z m-1862 -121 c-9 -14 23 -22 43 -11 13 6 24 5 37
-5 16 -13 17 -14 2 -9 -20 7 -24 -12 -7 -36 8 -12 9 -10 4 9 -5 16 -4 21 4 17
6 -4 14 -1 17 7 3 8 12 14 20 13 16 -2 43 -26 29 -26 -4 0 2 -9 15 -20 21 -18
20 -25 -4 -21 -5 1 -4 -5 4 -13 15 -19 51 -21 48 -3 -2 6 2 11 9 10 7 -2 10 4
7 12 -4 10 0 15 11 15 9 0 14 4 11 9 -8 12 14 19 37 13 12 -3 16 -10 12 -23
-4 -12 -1 -19 7 -19 10 0 9 -3 -2 -10 -13 -9 -13 -10 1 -10 26 0 41 22 23 34
-12 9 -6 11 25 8 36 -4 40 -6 30 -23 -6 -13 -6 -19 1 -19 5 0 10 5 10 10 0 16
46 12 60 -5 10 -12 9 -16 -4 -21 -9 -3 -13 -10 -10 -16 3 -5 12 -7 20 -4 19 7
18 -18 -1 -34 -9 -7 -14 -19 -11 -25 2 -7 -1 -24 -9 -38 -9 -18 -10 -28 -2
-36 16 -16 -5 -14 -29 4 -12 8 -25 11 -30 7 -5 -4 -1 3 9 14 17 21 17 21 -6
17 -18 -4 -26 0 -30 16 -3 12 -1 19 4 15 5 -3 17 0 26 5 16 9 16 10 -4 11 -13
0 -23 5 -23 11 0 6 -6 9 -12 6 -7 -2 -20 2 -30 10 -11 10 -18 11 -23 3 -4 -7
1 -14 13 -17 26 -6 33 -25 16 -41 -10 -9 -15 -8 -24 6 -10 14 -11 13 -7 -10 2
-15 -1 -29 -7 -32 -6 -2 -4 -5 5 -5 19 -1 21 -28 3 -35 -9 -3 -11 1 -7 11 4
11 2 14 -5 9 -7 -4 -12 -2 -12 5 0 7 -3 10 -6 7 -3 -4 -4 -9 -2 -12 3 -6 -33
-35 -44 -36 -13 0 -9 18 5 23 6 2 4 3 -5 2 -10 -2 -18 2 -19 8 0 8 -2 8 -6 -1
-2 -6 -10 -9 -15 -6 -7 4 -8 2 -4 -5 4 -6 13 -8 19 -5 7 4 3 -2 -8 -13 -11
-10 -28 -22 -38 -26 -11 -4 -15 -12 -11 -19 5 -7 2 -9 -8 -5 -16 6 -19 -15 -5
-29 4 -4 7 -17 6 -28 0 -16 -2 -17 -7 -6 -8 17 -26 20 -39 6 -5 -5 -3 -6 5 -2
8 5 12 0 12 -12 0 -11 7 -23 16 -26 8 -3 14 -14 12 -23 -1 -10 1 -24 5 -31 5
-7 2 -25 -7 -42 -8 -17 -10 -30 -5 -30 31 0 -24 -64 -56 -65 -5 0 -10 -7 -10
-15 0 -8 -18 -24 -41 -36 -22 -11 -39 -25 -36 -32 2 -8 -2 -10 -12 -6 -13 5
-14 9 -5 20 6 8 8 14 4 14 -4 0 -2 6 4 14 9 11 8 15 -4 20 -9 3 -13 11 -10 16
4 6 1 18 -7 27 -10 13 -10 15 0 9 8 -5 20 0 31 13 10 11 21 18 25 14 3 -3 6
-1 6 5 0 7 -5 12 -11 12 -5 0 -8 4 -5 9 3 5 -1 11 -9 15 -8 3 -15 1 -15 -3 0
-5 -8 -8 -17 -6 -19 3 -19 7 -7 39 4 11 4 17 -2 14 -11 -7 -51 20 -45 30 2 4
11 13 20 20 9 8 11 11 5 8 -11 -6 -29 20 -26 37 1 4 -4 7 -10 8 -7 0 -4 4 7 8
21 8 27 41 10 54 -6 4 -4 11 5 17 10 6 11 10 3 10 -7 0 -13 5 -13 11 0 7 11 4
28 -6 27 -18 27 -18 10 1 -11 12 -14 25 -9 33 5 7 6 22 3 33 -2 11 1 30 8 42
10 19 9 29 -4 55 -15 28 -15 34 -1 61 8 16 15 33 15 37 -1 5 7 9 17 10 10 2
12 0 6 -3 -18 -8 -16 -25 2 -18 8 4 15 14 15 23 0 10 3 21 7 24 9 10 15 9 9
-2z m2788 -190 c-9 -6 -13 -18 -19 -51 -1 -8 3 -21 9 -29 8 -11 8 -13 -1 -7
-12 7 -9 -12 5 -38 11 -20 9 -66 -3 -66 -7 0 -11 -10 -10 -25 2 -16 -2 -25
-11 -25 -8 0 -13 -5 -11 -12 1 -6 -10 -18 -25 -25 -16 -8 -28 -19 -28 -24 0
-6 5 -7 12 -3 7 4 8 3 4 -5 -6 -9 -14 -8 -33 4 -15 10 -22 12 -18 4 5 -7 4
-10 -3 -6 -5 4 -9 26 -8 50 2 23 -1 48 -7 55 -6 8 -5 17 3 27 7 8 9 15 5 15
-4 0 -2 6 4 14 9 11 9 16 0 22 -8 4 -4 11 12 20 13 7 19 13 13 14 -7 0 -15 7
-18 16 -4 11 -2 15 8 11 10 -4 13 -1 10 8 -3 7 3 16 15 20 12 3 21 11 21 17 0
6 13 8 32 6 26 -4 29 -3 14 7 -14 11 -13 13 10 13 14 0 22 -3 18 -7z m-1664
-281 c111 -57 180 -190 164 -317 -12 -95 -63 -145 -148 -145 -112 0 -201 91
-232 237 -20 94 5 192 58 229 32 22 110 20 158 -4z m-6947 -99 c9 -17 11 -33
6 -38 -11 -11 26 -53 46 -53 13 0 32 -67 28 -101 -3 -24 32 -13 51 16 19 28
58 36 92 19 14 -8 31 -11 37 -7 6 4 8 -2 5 -15 -4 -12 -1 -25 4 -29 7 -4 8 -1
3 7 -5 9 -4 11 4 6 21 -13 0 -27 -32 -21 -28 5 -34 2 -44 -22 -7 -15 -13 -37
-13 -49 0 -34 -18 -39 -52 -14 -22 16 -36 20 -56 14 -47 -13 -94 -11 -99 3 -3
8 -1 25 5 38 12 26 13 25 -48 39 -16 4 -31 19 -43 43 l-17 38 39 35 c33 29 39
40 35 61 -6 29 12 73 26 64 5 -3 15 -18 23 -34z m6050 -121 c10 -10 9 -11 -2
-5 -11 6 -13 4 -8 -8 3 -9 -3 -27 -13 -40 -11 -13 -17 -27 -13 -30 3 -4 0 -13
-6 -21 -7 -8 -9 -21 -5 -27 4 -8 3 -9 -5 -5 -8 6 -10 0 -5 -18 3 -14 2 -26 -3
-26 -6 0 -9 -13 -8 -29 1 -22 -5 -33 -26 -45 l-27 -16 -7 40 c-4 21 -3 45 1
52 4 6 7 29 5 50 -1 25 3 40 12 44 8 3 23 23 32 45 13 27 23 38 33 34 12 -4
12 -2 4 8 -9 11 -7 13 8 12 11 -1 26 -7 33 -15z m-1090 -120 c-5 -33 -1 -45
17 -65 22 -23 22 -23 52 -5 17 10 36 16 42 14 7 -3 21 4 31 16 24 27 33 25 33
-5 0 -14 5 -38 12 -55 16 -39 6 -80 -21 -80 -13 0 -24 10 -30 30 -7 19 -18 30
-30 30 -10 0 -28 4 -41 9 -13 5 -35 12 -50 15 -32 7 -58 31 -58 54 0 16 35 82
44 82 2 0 2 -18 -1 -40z m-1544 -87 c-6 -15 -14 -32 -19 -38 -5 -6 -7 -37 -6
-70 3 -68 -3 -87 -59 -170 -56 -83 -83 -147 -53 -129 7 5 9 0 6 -14 -4 -16 -2
-19 10 -15 10 4 13 2 8 -6 -4 -6 -15 -9 -24 -7 -30 10 -45 -9 -39 -45 5 -27 4
-30 -4 -16 -15 25 -3 83 36 180 18 45 43 119 55 164 12 45 37 107 57 137 38
62 48 70 32 29z m-643 -184 c32 -6 78 -20 102 -30 23 -11 64 -24 91 -29 61
-11 117 -42 113 -62 -1 -9 -19 -43 -39 -77 -34 -58 -69 -84 -82 -63 -5 8 -46
10 -46 2 0 -2 -35 -9 -72 -14 -18 -2 -37 -7 -43 -11 -5 -3 -10 -1 -10 4 0 6
-6 11 -14 11 -8 0 -16 4 -18 10 -1 5 -19 11 -38 12 -27 2 -34 -1 -32 -12 3
-12 1 -12 -13 1 -14 14 -17 38 -18 131 -1 62 2 119 7 126 9 15 35 15 112 1z
m1158 -11 c-5 -8 -2 -9 9 -5 10 4 17 1 18 -6 0 -7 4 -3 9 8 5 11 9 14 9 8 1
-7 10 -13 21 -13 11 0 20 -5 20 -12 0 -6 3 -8 7 -5 3 4 13 1 21 -6 9 -7 17 -8
19 -2 2 6 8 17 14 25 8 11 12 12 16 3 2 -7 11 -13 19 -13 16 0 157 -88 162
-102 2 -4 10 -8 19 -8 23 0 83 -31 83 -42 0 -6 -12 -8 -30 -5 -16 4 -32 2 -36
-4 -3 -6 -12 -8 -18 -6 -7 3 -18 -4 -25 -15 -11 -18 -10 -18 10 -8 15 9 24 9
32 1 6 -6 7 -11 1 -11 -11 0 -11 -40 0 -59 13 -21 -3 -26 -20 -5 -15 18 -15
18 -5 -3 15 -30 14 -70 -1 -75 -7 -3 -13 -13 -13 -24 0 -10 -8 -20 -17 -22
-11 -2 -18 3 -18 12 0 9 5 16 11 16 5 0 7 5 3 12 -4 6 -3 8 4 4 6 -3 14 -1 19
6 11 19 13 38 2 38 -5 0 -9 -8 -10 -17 0 -10 -3 -13 -6 -6 -3 10 -7 10 -18 0
-7 -7 -11 -15 -9 -18 6 -10 -22 -60 -29 -52 -4 3 -7 1 -7 -5 0 -7 4 -12 9 -12
4 0 4 -19 -2 -43 -9 -40 -4 -63 31 -129 2 -5 -5 -8 -17 -8 -25 0 -51 -36 -51
-72 0 -16 -3 -28 -7 -28 -5 0 -8 -28 -7 -62 0 -53 -1 -59 -10 -36 -5 15 -16
30 -24 33 -10 4 -12 0 -8 -11 5 -12 1 -14 -15 -9 -15 5 -22 2 -26 -14 -3 -12
-10 -21 -16 -21 -6 0 -18 -7 -28 -16 -11 -10 -19 -12 -24 -4 -3 6 -1 9 5 8 7
-2 14 5 15 14 3 18 -21 32 -37 21 -7 -3 -8 -1 -4 6 4 6 16 9 27 6 15 -5 19 -1
19 14 0 23 -15 28 -23 9 -3 -7 -6 -1 -6 15 -1 27 14 37 22 15 2 -7 4 -1 4 15
0 15 -3 30 -8 33 -5 3 -9 0 -9 -5 0 -6 -4 -11 -8 -11 -5 0 -9 7 -9 14 0 8 5
14 10 13 5 -1 12 4 14 11 3 6 0 12 -5 12 -6 0 -8 9 -5 19 3 13 -2 21 -15 25
-11 4 -27 15 -37 26 -10 11 -23 20 -29 20 -6 0 -4 -5 4 -10 13 -9 13 -10 0
-11 -8 -1 -19 -1 -23 0 -5 1 -6 -3 -2 -9 4 -6 15 -8 26 -5 17 6 19 3 13 -19
-4 -16 -1 -33 7 -43 8 -9 9 -14 3 -10 -12 7 -67 -27 -57 -36 3 -4 -3 -7 -15
-7 -24 0 -37 -15 -22 -25 6 -4 19 -1 28 6 9 8 7 2 -6 -12 -12 -14 -20 -28 -18
-30 3 -3 -3 -5 -12 -6 -10 -1 -29 8 -42 19 -14 11 -20 17 -13 14 6 -4 14 -2
18 4 8 13 -8 13 -39 -2 -14 -6 -28 -19 -31 -30 -4 -10 -13 -19 -21 -19 -8 -1
-18 -3 -24 -4 -5 -1 -17 -3 -25 -4 -8 0 -15 -8 -15 -17 0 -9 5 -12 12 -8 7 4
8 3 4 -4 -4 -6 -13 -9 -21 -5 -11 4 -13 1 -8 -13 5 -13 3 -15 -7 -9 -8 5 -27
9 -42 9 -15 1 -35 10 -44 21 -15 19 -15 18 0 -7 21 -36 20 -41 -4 -28 -12 7
-17 16 -13 27 4 11 3 14 -6 9 -10 -6 -10 -4 0 12 7 12 16 19 20 16 5 -2 6 4 4
16 -2 11 0 22 6 25 5 4 9 0 9 -7 1 -7 6 -3 13 10 15 26 57 58 57 43 0 -6 7 -8
15 -5 8 4 12 10 9 15 -3 5 0 9 7 9 7 0 9 3 6 7 -4 3 0 17 8 29 9 14 11 25 5
29 -6 4 -3 16 6 31 15 22 15 24 1 18 -14 -5 -15 -1 -7 25 5 19 5 31 -1 31 -6
0 -6 8 1 20 9 17 8 19 -7 13 -16 -6 -16 -5 -4 10 12 15 12 17 -1 12 -9 -4 -18
1 -21 10 -7 16 -54 40 -72 36 -5 -2 -7 1 -3 4 9 9 -28 40 -60 49 -31 10 -76
56 -65 67 5 5 19 11 31 14 28 5 62 24 62 34 0 5 9 11 20 14 13 3 18 10 14 21
-3 9 -1 16 6 16 6 0 8 -4 5 -10 -3 -5 0 -10 8 -10 10 0 13 7 10 20 -3 11 -1
20 5 20 6 0 13 8 15 18 3 12 5 11 6 -6 0 -13 5 -20 11 -17 6 4 8 11 5 16 -4 5
-2 9 4 9 5 0 15 -8 20 -17 9 -16 10 -16 11 5 0 12 -6 22 -14 22 -8 0 -16 6
-19 14 -4 9 2 12 19 10 13 -1 22 1 19 5 -6 11 25 52 36 46 5 -3 18 3 30 14 12
11 30 18 40 16 11 -2 17 0 14 6 -5 7 32 14 58 10 4 0 7 3 7 8 0 5 9 7 21 4 13
-4 18 -11 14 -21 -5 -12 -3 -13 10 -2 12 10 13 15 4 21 -11 7 -6 39 6 39 4 0
3 -5 -1 -12z m-974 -518 c0 -11 15 -35 34 -53 33 -33 34 -37 32 -101 -1 -37
-8 -72 -14 -78 -7 -7 -12 -34 -12 -60 0 -43 -2 -48 -22 -48 -13 0 -33 -3 -45
-6 -22 -6 -27 2 -37 61 -19 112 -2 257 35 302 14 16 29 8 29 -17z m3030 -40
c0 -36 -41 -110 -64 -115 -11 -2 -51 -11 -87 -19 -98 -24 -169 -20 -169 8 0 7
30 17 73 24 90 16 141 39 189 86 42 41 58 45 58 16z m1783 -99 c15 -38 18 -58
10 -69 -6 -11 -6 -25 1 -43 12 -33 -5 -59 -37 -59 -11 0 -28 -7 -38 -16 -38
-34 -69 9 -69 94 0 50 24 100 63 133 33 28 48 19 70 -40z m-4333 39 c0 -6 5
-10 11 -10 5 0 7 5 4 10 -3 6 -1 10 4 10 18 0 12 -18 -8 -29 -22 -12 -37 -55
-16 -47 23 8 36 -19 29 -60 -3 -22 -8 -42 -11 -46 -2 -5 2 -8 9 -8 8 0 6 -5
-5 -11 -9 -6 -15 -14 -12 -20 4 -5 2 -9 -4 -9 -5 0 -27 -17 -48 -37 -34 -34
-41 -48 -45 -91 -1 -9 -6 -8 -18 3 -18 16 -32 11 -24 -10 3 -7 0 -16 -5 -20
-6 -3 -9 -11 -5 -16 3 -6 -3 -5 -15 3 -12 7 -21 17 -21 23 0 5 -4 4 -9 -3 -7
-11 -9 -11 -14 0 -5 15 53 68 78 72 8 1 17 5 21 8 10 11 6 126 -6 148 -14 26
-30 26 -30 0 0 -11 -4 -20 -9 -20 -15 0 -21 43 -8 59 11 14 10 14 -5 2 -14
-11 -21 -11 -33 -1 -20 17 -8 34 13 18 14 -11 14 -9 0 8 -22 25 -23 38 -4 53
11 10 16 7 23 -14 l8 -26 24 20 c22 19 43 30 28 14 -4 -3 0 -14 9 -24 9 -10
14 -24 11 -32 -3 -8 -1 -20 5 -28 8 -11 9 -10 4 4 -3 9 -1 17 5 17 6 0 7 14 3
36 -4 25 -3 35 4 30 6 -3 8 1 6 11 -4 14 2 18 26 20 16 1 30 -2 30 -7z m-1570
-56 c9 -20 28 -36 48 -43 25 -10 32 -18 32 -38 0 -15 6 -34 14 -42 8 -10 12
-29 9 -48 -4 -26 -10 -33 -28 -33 -13 0 -37 -13 -53 -30 -40 -39 -82 -40 -112
-3 -17 21 -20 35 -15 65 5 25 3 38 -4 38 -6 0 -11 7 -11 15 0 8 5 15 10 15 6
0 10 6 9 13 -3 17 11 66 28 100 19 37 53 33 73 -9z m-320 -124 c0 -17 9 -44
21 -59 18 -24 19 -34 11 -65 -6 -20 -23 -47 -37 -58 l-27 -21 26 -14 c46 -24
29 -72 -34 -97 -22 -9 -42 -16 -45 -16 -3 1 -13 -6 -21 -15 -35 -34 -71 -15
-81 43 -4 23 29 61 53 62 6 0 19 9 29 20 14 15 15 20 4 20 -8 0 -24 18 -37 40
-12 22 -27 40 -32 40 -5 0 -14 9 -20 20 -10 18 -7 22 19 31 17 6 31 14 31 19
0 12 53 62 75 71 11 4 30 8 43 8 18 1 22 -4 22 -29z m3649 -72 c5 -13 11 -72
14 -133 3 -67 9 -111 16 -113 8 -3 11 -74 10 -235 0 -128 -3 -226 -6 -219 -2
6 -12 12 -20 12 -8 0 -32 10 -53 21 -46 26 -48 37 -56 272 -5 128 -3 157 7
155 11 -2 15 23 17 112 2 63 8 123 13 132 14 25 48 22 58 -4z m-5648 -30 c1
-2 3 -72 6 -157 5 -175 -4 -222 -38 -193 -17 15 -19 31 -19 178 0 88 3 164 7
167 6 7 42 10 44 5z m3484 -194 l35 -47 0 35 c0 20 7 41 15 48 8 7 15 8 15 3
0 -5 10 -19 21 -32 l21 -23 -31 5 c-28 5 -30 3 -28 -21 3 -40 45 -75 82 -69
16 2 50 2 75 -2 42 -6 43 -8 23 -19 -12 -6 -30 -13 -40 -15 -27 -4 -83 -46
-83 -62 0 -8 -6 -12 -13 -9 -8 3 -14 -2 -14 -10 0 -8 5 -12 11 -9 6 4 2 -3 -8
-15 -19 -22 -19 -23 0 -37 10 -8 28 -15 40 -15 11 0 33 -13 47 -30 15 -16 24
-30 21 -30 -4 0 -1 -6 5 -14 7 -8 13 -43 14 -79 1 -36 6 -65 12 -64 5 1 11 -8
13 -21 2 -13 11 -26 20 -29 9 -4 29 -15 44 -25 23 -16 42 -18 145 -14 65 2
128 7 141 11 l23 8 -3 -132 c-1 -97 1 -134 10 -140 10 -6 10 -10 0 -18 -9 -7
-37 -8 -83 -2 -38 5 -82 7 -97 3 -16 -3 -42 2 -69 15 -24 12 -57 21 -73 21
-68 0 -233 138 -314 262 -80 123 -171 441 -129 452 64 17 71 22 79 56 22 86
29 110 33 110 2 0 20 -21 40 -46z m1439 31 c-4 -8 0 -22 7 -31 11 -14 11 -18
-1 -28 -8 -6 -17 -20 -18 -31 -2 -10 -11 -25 -20 -31 -19 -14 -24 -64 -7 -64
5 0 -2 -11 -17 -24 -21 -19 -24 -26 -13 -30 15 -5 16 -31 2 -53 -6 -9 -3 -11
10 -6 15 6 16 4 6 -9 -7 -8 -9 -19 -5 -23 4 -5 2 -6 -3 -2 -6 3 -17 2 -23 -2
-16 -9 -4 -43 12 -35 6 3 0 -4 -14 -15 -14 -11 -20 -21 -13 -21 6 0 15 5 18
10 3 6 15 10 26 10 10 0 19 4 19 9 0 4 10 8 23 8 23 0 31 2 110 35 27 10 97
35 155 55 91 30 122 35 205 37 97 1 99 1 112 -24 18 -35 8 -48 -45 -55 -116
-17 -225 -66 -340 -153 -97 -74 -218 -189 -256 -243 -19 -28 -40 -42 -87 -59
-97 -35 -218 -99 -270 -142 -42 -35 -52 -39 -82 -34 -24 5 -35 3 -35 -5 0 -7
-13 8 -30 32 -16 24 -30 51 -30 60 0 9 -7 16 -15 16 -8 0 -13 -2 -11 -5 6 -5
-28 -38 -55 -53 l-22 -12 20 35 c27 47 41 104 22 92 -11 -6 -12 -5 -2 8 7 8
10 18 6 21 -3 4 -1 7 6 7 7 0 9 5 5 11 -4 7 -1 10 7 7 8 -2 20 -18 28 -34 l13
-30 87 86 c84 84 178 154 294 220 31 17 57 36 57 42 0 5 5 6 12 2 7 -5 9 -2 5
8 -4 11 2 18 16 23 14 4 17 8 9 12 -10 4 -9 9 5 20 10 8 11 11 3 7 -8 -4 -22
-13 -31 -21 -14 -12 -17 -12 -22 1 -4 9 1 20 11 25 9 6 12 11 7 11 -6 0 -11 9
-12 20 -2 21 29 44 42 32 5 -4 5 -1 1 6 -4 7 -11 10 -16 7 -4 -3 -10 2 -14 10
-3 8 3 19 14 25 10 5 18 19 17 29 0 11 -5 17 -9 15 -5 -3 -6 -10 -3 -15 3 -5
-2 -6 -11 -2 -10 4 -15 2 -11 -4 3 -5 0 -10 -7 -10 -7 0 -13 6 -13 13 0 7 4
11 8 9 13 -9 28 21 23 48 -3 21 0 27 13 27 15 0 16 2 3 10 -10 6 -11 10 -2 10
22 0 27 2 40 12 6 6 12 16 11 22 0 7 -2 6 -6 -2 -2 -6 -10 -9 -15 -6 -7 5 -8
2 -3 -6 5 -9 4 -11 -4 -6 -6 4 -8 13 -4 19 4 7 6 20 5 30 -2 9 2 17 9 17 8 0
7 5 -2 18 -12 15 -12 16 2 4 13 -10 19 -10 28 2 7 9 8 17 2 20 -5 3 -12 0 -14
-6 -4 -9 -6 -10 -6 -1 -1 19 16 24 29 8 13 -16 40 -9 40 11 0 8 4 14 10 14 5
0 7 -7 4 -15z m-2890 -60 c9 -24 -1 -38 -74 -100 -39 -33 -70 -62 -70 -65 0
-3 -2 -35 -5 -72 -4 -72 -3 -74 50 -68 31 3 137 50 170 75 26 19 32 20 43 9 7
-8 10 -20 6 -26 -5 -7 -8 -31 -9 -53 -1 -30 -16 -64 -61 -138 -82 -137 -116
-176 -149 -169 -18 3 -32 -2 -46 -17 l-21 -22 -33 20 c-19 11 -42 17 -53 14
-27 -7 -58 11 -79 47 -10 17 -27 33 -39 36 -12 3 -35 20 -52 37 -31 33 -102
157 -102 180 0 15 56 63 150 129 107 74 156 99 182 93 18 -5 41 7 98 49 41 31
78 56 81 56 4 0 9 -7 13 -15z m4011 -6 c4 -11 3 -44 -1 -72 -9 -59 -9 -54 1
-86 5 -16 4 -21 -4 -17 -8 5 -8 0 -2 -17 7 -18 5 -30 -5 -46 -12 -16 -12 -21
-2 -21 8 0 9 -3 2 -8 -5 -4 -25 -28 -43 -53 -30 -43 -32 -51 -27 -100 4 -39 3
-49 -5 -36 -5 9 -17 17 -24 17 -13 0 -20 13 -12 24 1 2 -7 13 -17 25 -15 17
-17 26 -9 44 9 19 8 24 -3 24 -7 0 -11 -3 -9 -7 2 -4 -1 -7 -8 -7 -7 0 -13 8
-13 18 0 10 4 16 7 13 4 -2 10 -1 13 4 2 4 -7 8 -20 8 -20 0 -24 -4 -20 -19 2
-10 -2 -21 -9 -23 -8 -3 -12 -11 -9 -18 3 -7 -1 -17 -8 -23 -15 -12 -48 -13
-48 -2 0 5 -6 6 -14 3 -15 -6 -16 0 -15 51 0 55 2 65 8 60 4 -2 8 2 8 10 0 8
-4 12 -9 9 -4 -3 -11 2 -14 10 -9 23 -27 20 -19 -3 3 -11 1 -22 -5 -26 -6 -4
-10 14 -10 50 0 36 4 54 10 50 6 -4 8 -10 6 -14 -3 -4 -1 -13 4 -21 7 -11 9
-9 8 10 -2 57 1 70 19 63 10 -4 14 -2 10 4 -7 12 28 53 46 53 7 0 8 -3 2 -8
-5 -4 -11 -19 -12 -34 -1 -20 2 -26 12 -21 8 3 12 9 9 14 -3 5 3 6 12 2 10 -4
20 0 26 10 5 10 15 17 23 17 7 0 16 14 20 31 6 25 11 30 27 26 11 -3 17 -3 14
1 -6 5 78 50 96 51 4 1 10 -8 13 -20z m-3800 -288 c0 -9 -4 -22 -9 -29 -4 -6
-3 -12 2 -12 5 0 10 -27 11 -61 1 -34 4 -65 7 -70 3 -5 0 -9 -7 -9 -8 0 -7 -5
2 -17 12 -15 12 -16 -1 -8 -12 6 -12 5 -3 -5 6 -7 9 -19 6 -26 -3 -8 0 -21 7
-29 9 -10 9 -15 1 -15 -6 0 -11 -7 -11 -16 0 -9 5 -12 13 -8 10 6 10 4 0 -7
-17 -17 -16 -30 1 -23 8 3 17 0 22 -7 4 -8 3 -10 -4 -5 -7 4 -12 1 -12 -8 0
-9 6 -16 13 -16 8 0 7 -3 -3 -9 -8 -6 -19 -7 -25 -3 -5 3 -4 -1 3 -10 14 -18
8 -25 -22 -24 -10 1 -20 9 -22 19 -1 9 2 15 7 11 5 -3 6 -10 3 -16 -4 -7 -2
-8 5 -4 15 10 -4 36 -26 36 -8 0 -11 5 -8 10 4 6 11 7 17 4 7 -4 8 -2 4 4 -4
6 -14 8 -24 5 -14 -6 -15 -4 -4 9 10 12 10 17 1 20 -15 5 -18 58 -4 77 8 12 7
13 -5 6 -12 -6 -13 -5 -3 5 9 10 9 18 1 34 -10 18 -9 19 4 8 27 -22 41 9 34
76 -9 85 -9 85 -2 108 9 24 33 28 31 5z m7511 -96 c-1 -8 -6 -18 -11 -22 -4
-4 -5 -2 -1 4 5 9 2 11 -9 6 -13 -4 -14 -8 -4 -14 7 -4 22 -3 33 3 18 10 19 9
8 -4 -11 -14 -9 -16 12 -14 13 0 22 4 20 7 -2 4 4 13 14 20 15 13 16 12 4 -3
-17 -22 0 -32 30 -18 22 11 22 10 4 -4 -11 -9 -17 -19 -13 -22 4 -4 13 -1 22
6 10 8 15 9 15 1 0 -6 6 -11 14 -11 8 0 18 -5 22 -12 4 -6 3 -8 -3 -5 -6 4
-17 -1 -24 -10 -8 -10 -9 -14 -2 -10 6 4 14 3 18 -3 4 -6 11 -7 17 -4 7 5 8 2
4 -5 -5 -7 -13 -10 -20 -8 -7 3 -12 -4 -13 -17 0 -11 1 -15 4 -8 3 6 9 12 14
12 5 0 4 -9 -3 -19 -7 -11 -17 -17 -23 -13 -13 8 -39 12 -31 5 3 -4 0 -13 -6
-22 -8 -10 -3 -8 12 4 l25 20 -18 -22 c-17 -20 -54 -22 -41 -2 3 5 -2 6 -11 2
-9 -3 -12 -9 -7 -12 11 -8 12 -42 0 -35 -5 3 -6 10 -3 15 4 5 4 9 1 9 -3 0
-12 -15 -20 -32 -22 -49 -49 -79 -73 -81 -12 0 -21 -6 -20 -11 1 -6 -8 -12
-19 -14 -12 -2 -30 -12 -40 -23 -9 -10 -23 -19 -29 -19 -7 0 -25 -10 -41 -22
-16 -12 -26 -18 -22 -13 4 4 0 14 -10 22 -9 8 -11 11 -3 7 11 -5 13 -3 8 9 -4
11 -1 17 8 17 8 0 12 8 10 19 -2 13 3 21 17 24 16 5 20 12 16 37 -3 17 0 34 5
37 6 3 7 1 3 -5 -3 -6 -2 -13 4 -17 6 -4 7 -11 4 -17 -5 -7 -2 -8 5 -3 9 5 9
11 3 17 -7 7 -7 19 -1 37 8 20 8 23 -2 14 -10 -10 -15 -9 -25 5 -15 20 0 57
19 45 9 -5 9 -3 0 9 -7 8 -11 17 -8 20 3 2 -2 5 -10 5 -11 0 -12 -4 -4 -14 19
-22 3 -15 -17 9 -10 12 -14 19 -9 15 6 -3 17 3 24 15 7 11 8 17 2 13 -13 -7
-14 -3 -5 19 3 9 10 16 16 16 5 0 6 -6 2 -12 -4 -8 -3 -10 2 -5 5 5 7 10 4 11
-3 2 0 9 6 17 16 20 26 51 14 44 -6 -3 -10 -13 -10 -21 0 -8 -6 -14 -14 -14
-8 0 -18 -9 -21 -21 -5 -15 -10 -17 -19 -10 -7 6 -16 9 -19 6 -4 -3 -4 -2 -1
3 3 4 11 7 17 7 7 1 11 6 10 13 -2 7 0 11 5 10 4 -2 8 1 9 6 3 14 54 36 76 32
12 -2 21 -9 19 -15 -2 -9 4 -8 20 1 13 7 28 11 35 10 6 -1 14 2 18 8 9 14 14
12 11 -5z m-7157 -24 c13 -8 13 -33 2 -188 -20 -266 -17 -328 23 -454 26 -85
32 -118 28 -163 -2 -31 -8 -56 -12 -56 -4 0 -11 -12 -15 -27 -12 -51 -47 -123
-59 -123 -11 0 -75 72 -177 199 -35 43 -65 65 -144 107 -55 30 -107 54 -116
54 -9 0 -30 -13 -45 -28 -29 -28 -179 -132 -299 -207 -35 -22 -78 -53 -95 -70
-35 -33 -178 -218 -187 -241 -10 -26 -44 -38 -60 -21 -11 11 -13 25 -5 66 8
44 7 51 -7 51 -9 0 -29 -24 -46 -58 -41 -76 -64 -80 -87 -15 -9 26 -28 97 -42
156 -14 59 -43 151 -65 205 l-39 97 3 125 c4 123 3 125 -26 173 -33 53 -36 75
-13 84 29 11 93 -30 169 -107 61 -63 84 -97 124 -179 26 -56 61 -140 77 -186
16 -47 34 -85 40 -85 6 0 24 25 39 55 43 89 38 144 -25 271 -58 118 -124 211
-183 264 -108 94 -108 94 -114 137 -9 66 10 65 151 -5 179 -89 305 -212 347
-337 4 -11 7 -14 8 -6 1 9 12 2 31 -17 17 -18 30 -28 30 -24 0 5 13 7 30 4 26
-4 29 -8 27 -36 -2 -25 -8 -32 -29 -36 -41 -8 -161 -143 -181 -204 -30 -89
-17 -112 31 -55 14 18 68 69 119 114 74 66 117 95 218 145 69 35 128 67 130
71 3 4 22 13 41 19 20 7 57 26 81 43 56 37 90 44 173 36 36 -4 66 -6 68 -4 2
1 -7 31 -18 66 -38 113 -36 336 3 387 11 14 75 16 96 3z m3376 -101 c-3 -5 -1
-11 5 -15 6 -4 7 -11 4 -17 -4 -6 -2 -8 3 -5 9 6 43 -32 43 -46 0 -2 -14 -22
-31 -43 -20 -25 -29 -46 -26 -61 6 -33 -17 -29 -50 7 -15 17 -42 40 -60 51
-18 11 -33 26 -33 33 0 6 -14 28 -31 49 l-30 37 33 1 c18 0 43 2 56 3 12 2 22
-2 22 -7 0 -5 6 -4 14 2 7 6 21 9 30 5 9 -3 16 -1 16 6 0 6 5 8 10 5 6 -3 10
-1 10 5 0 6 5 8 10 5 6 -4 8 -10 5 -15z m-430 -90 c65 -16 135 -45 250 -103
l160 -82 0 -77 c0 -42 -3 -80 -8 -84 -4 -4 -20 4 -35 18 -45 42 -193 139 -203
132 -5 -3 -39 6 -75 21 -75 30 -251 55 -389 55 -98 0 -373 -51 -475 -88 -30
-11 -68 -23 -85 -27 -46 -10 -125 -46 -125 -57 0 -5 -4 -6 -10 -3 -11 7 -65
-19 -103 -51 -28 -24 -53 -32 -43 -15 10 16 138 85 200 109 32 12 75 35 95 50
77 60 280 169 356 191 145 43 341 47 490 11z m4375 -181 c0 -5 -5 -7 -11 -3
-7 4 -6 -3 2 -17 13 -25 13 -27 -3 -46 -6 -7 -7 -13 -3 -13 5 0 -1 -8 -13 -18
-15 -13 -18 -22 -11 -35 8 -13 6 -15 -5 -11 -8 3 -24 -1 -36 -9 -18 -12 -18
-15 -5 -20 17 -7 21 -27 4 -27 -5 0 -7 4 -4 10 3 6 -4 9 -18 8 -22 -2 -24 -5
-16 -28 9 -24 8 -24 -6 -6 -14 18 -15 18 -15 2 0 -10 -4 -14 -12 -10 -7 4 -8
3 -4 -5 4 -6 11 -9 15 -7 4 3 8 -1 8 -9 0 -18 -9 -19 -26 -2 -10 10 -11 8 -5
-7 6 -15 4 -17 -7 -11 -11 6 -12 5 -2 -5 10 -11 9 -16 -3 -24 -12 -9 -10 -11
11 -11 24 0 30 7 25 30 -1 5 2 6 7 2 13 -14 10 -31 -11 -49 -24 -23 -33 -23
-15 -1 13 15 12 15 -9 4 -12 -6 -27 -9 -32 -6 -6 3 -7 -1 -4 -9 7 -19 -7 -21
-25 -3 -11 10 -13 10 -7 0 4 -7 2 -13 -3 -13 -6 0 -11 5 -11 10 0 6 -8 10 -17
10 -14 0 -15 2 -5 9 11 7 11 9 -2 14 -9 4 -16 2 -16 -3 0 -5 -7 -7 -15 -3 -9
3 -14 8 -11 10 7 7 -36 53 -45 47 -4 -2 -1 16 7 41 9 25 19 45 22 45 4 0 24
16 46 35 36 33 49 39 69 36 5 -1 6 3 2 9 -3 5 1 10 9 10 9 0 16 4 16 9 0 9 45
42 64 45 6 2 26 9 45 17 43 18 81 22 81 8z m-6334 -468 c51 -10 112 -28 135
-39 47 -21 170 -121 202 -163 19 -26 19 -27 -2 -68 -12 -22 -23 -41 -25 -41
-2 0 -14 19 -26 43 -40 76 -70 107 -143 144 -68 34 -77 36 -167 36 -125 -1
-364 -28 -418 -47 -24 -9 -86 -41 -139 -72 -79 -47 -107 -57 -155 -61 -67 -6
-118 10 -118 38 0 23 18 35 33 20 18 -18 75 -13 125 13 26 13 70 31 97 40 47
15 53 20 80 79 20 41 42 70 65 86 34 23 38 23 200 17 103 -3 199 -13 256 -25z
m1797 -661 c-5 -28 1 -37 56 -90 33 -33 61 -66 61 -74 0 -10 -20 -16 -67 -20
-38 -4 -93 -14 -124 -23 -31 -8 -67 -13 -80 -11 -20 2 -24 8 -22 34 2 17 13
54 26 83 18 41 36 62 78 91 67 48 80 50 72 10z"/>
<path d="M6632 5484 c-85 -46 -92 -74 -28 -110 47 -27 59 -23 88 24 12 21 30
45 40 55 21 20 24 46 6 48 -7 1 -24 2 -38 4 -14 1 -44 -9 -68 -21z"/>
<path d="M4258 4421 c-33 -7 -168 -110 -168 -128 0 -16 1 -16 142 -17 112 -1
118 0 128 22 39 85 38 100 -9 108 -20 4 -43 10 -51 14 -8 3 -27 4 -42 1z"/>
<path d="M8452 247 c-23 -57 -52 -135 -66 -175 l-24 -72 48 0 47 0 7 48 c4 26
9 67 12 92 2 25 9 80 16 123 6 43 8 80 6 83 -3 2 -24 -42 -46 -99z"/>
</g>
</svg>
