<?xml version="1.0" standalone="no"?>
<!DOCTYPE svg PUBLIC "-//W3C//DTD SVG 20010904//EN"
 "http://www.w3.org/TR/2001/REC-SVG-20010904/DTD/svg10.dtd">
<svg version="1.0" xmlns="http://www.w3.org/2000/svg"
 width="1200.000000pt" height="600.000000pt" viewBox="0 0 1200.000000 600.000000"
 preserveAspectRatio="xMidYMid meet">
<metadata>
Created by potrace 1.16, written by Peter Selinger 2001-2019
</metadata>
<g transform="translate(0.000000,600.000000) scale(0.100000,-0.100000)"
fill="#000000" stroke="none">
<path d="M0 4847 c0 -812 3 -1156 11 -1164 8 -8 8 -22 0 -49 -7 -27 -11 -592
-11 -1836 l0 -1798 4094 0 c3732 0 4096 1 4104 16 8 14 10 14 25 -1 12 -12 17
-13 17 -3 0 10 2 10 9 -1 6 -10 8 -1 4 26 -4 28 -1 43 8 49 20 12 40 14 33 3
-3 -5 -10 -6 -16 -3 -7 5 -8 2 -3 -6 5 -8 4 -11 -1 -7 -12 7 -12 -38 -1 -49 4
-5 5 0 1 11 -7 17 -5 18 7 8 13 -10 16 -10 16 2 0 8 -4 12 -9 9 -10 -6 -11 10
-1 19 3 4 12 2 19 -4 14 -12 13 0 -3 40 -6 16 -6 37 1 62 8 31 6 54 -13 121
-38 136 -41 146 -65 181 -13 18 -26 44 -29 58 -3 13 -12 44 -19 69 l-13 46
-65 -5 c-167 -11 -220 -2 -220 39 0 13 -6 16 -25 12 -16 -3 -25 0 -25 8 0 9
-11 10 -37 6 -80 -13 -118 -12 -142 3 -16 10 -54 15 -123 17 -83 1 -103 5
-121 22 -22 20 -26 21 -87 25 -22 1 -43 11 -58 27 -13 14 -31 25 -40 25 -51 1
-58 61 -13 106 16 16 33 29 38 29 5 0 33 -18 62 -39 42 -31 65 -41 110 -46 57
-7 97 -14 208 -36 41 -8 75 -9 105 -3 38 8 43 12 46 39 4 45 -21 119 -41 123
-12 3 -17 -3 -17 -22 0 -26 -23 -36 -35 -16 -3 5 -19 10 -34 10 -16 0 -57 11
-92 24 -66 24 -93 53 -85 88 3 14 -1 17 -19 12 -15 -4 -24 0 -28 10 -4 9 -15
16 -25 16 -33 0 -94 30 -123 61 -16 18 -37 29 -53 29 -14 0 -26 4 -26 10 0 12
-57 70 -63 64 -12 -12 -11 91 1 116 17 34 81 66 151 74 29 3 56 7 58 9 2 3 -1
26 -8 53 -22 96 -77 379 -74 382 1 2 12 -12 23 -30 12 -20 25 -65 30 -109 10
-75 25 -119 41 -119 8 0 32 -33 109 -152 22 -35 51 -50 99 -54 12 0 21 4 20
10 -1 6 6 10 16 9 10 0 16 1 14 4 -3 2 1 20 9 39 8 19 12 39 9 44 -3 5 3 13
12 19 10 5 17 11 16 13 -1 2 0 13 3 24 6 22 26 26 41 9 4 -4 2 -5 -6 0 -10 6
-12 4 -7 -4 6 -9 13 -8 29 6 11 10 18 13 14 7 -3 -6 0 -11 8 -11 8 0 11 5 8
10 -3 6 4 8 19 5 13 -2 30 1 36 9 7 7 21 13 31 13 41 0 36 107 -15 320 -30
125 -45 171 -79 241 -15 33 -22 56 -16 62 5 5 83 11 173 13 156 4 165 5 219
32 l56 29 42 -186 c85 -371 193 -801 201 -801 4 0 24 7 43 15 67 28 162 14
216 -30 16 -14 32 -25 37 -25 4 0 29 -14 56 -31 50 -33 84 -80 74 -105 -4 -10
-24 5 -68 52 -60 64 -63 65 -72 42 -28 -69 -41 -90 -67 -109 -25 -18 -35 -19
-75 -11 l-46 10 6 -29 c3 -17 1 -33 -7 -39 -59 -48 -77 -60 -91 -60 -9 0 -16
-4 -16 -10 0 -15 -17 -12 -39 7 -11 9 -32 17 -48 18 -15 2 -45 6 -65 10 -45 9
-47 0 -19 -54 11 -20 27 -63 36 -96 24 -89 71 -234 91 -280 10 -22 18 -42 19
-45 0 -3 7 -20 15 -38 14 -29 22 -36 35 -29 9 5 34 -39 35 -59 0 -12 7 -24 15
-28 9 -3 15 -18 15 -35 0 -17 9 -45 20 -63 11 -18 20 -29 20 -24 0 5 7 3 15
-4 8 -7 12 -16 9 -21 -3 -5 -1 -9 5 -9 6 0 7 -7 4 -17 -5 -11 -3 -14 6 -8 10
6 11 3 2 -13 -8 -16 -7 -21 4 -26 8 -3 15 -11 15 -17 0 -8 -4 -9 -13 0 -10 8
-14 7 -14 -4 0 -8 6 -16 12 -19 7 -2 11 -18 10 -35 -1 -22 2 -28 9 -21 8 6 12
3 12 -10 0 -10 -5 -16 -11 -13 -5 3 -5 0 2 -7 13 -15 36 -4 27 13 -4 7 -3 9 1
4 5 -4 20 3 33 15 22 21 24 21 14 3 -19 -35 -76 -92 -112 -114 l-35 -21 1733
0 1732 0 0 1825 0 1825 -52 -21 c-29 -11 -59 -26 -66 -33 -11 -11 -4 -12 39
-5 29 5 55 7 57 4 10 -10 -14 -26 -69 -46 -78 -29 -87 -44 -21 -36 40 5 50 3
46 -8 -6 -13 -19 -20 -111 -51 -66 -22 -72 -45 -10 -36 38 5 41 4 28 -11 -7
-10 -19 -17 -25 -17 -6 0 -38 -14 -71 -30 -55 -28 -57 -31 -25 -26 19 2 46 7
59 11 19 7 22 5 19 -11 -2 -12 -25 -26 -66 -42 -75 -29 -82 -47 -15 -37 47 7
48 7 30 -12 -9 -11 -36 -26 -60 -33 -23 -7 -59 -21 -79 -31 -45 -23 -53 -6
-13 29 14 12 25 28 25 35 0 7 8 22 18 33 10 10 24 34 31 52 8 18 27 42 43 54
23 16 27 23 16 29 -10 7 -6 16 20 39 17 16 32 34 32 38 0 5 9 17 21 28 12 10
30 38 41 60 26 56 56 82 103 90 48 7 55 11 55 30 0 19 -13 18 -60 -5 -22 -11
-40 -17 -40 -14 0 3 12 20 28 38 15 19 37 50 49 70 23 36 23 40 23 397 l0 360
-142 152 c-277 295 -350 376 -346 387 2 6 100 44 218 84 118 40 227 78 243 84
l27 11 0 370 0 370 -4092 0 -4093 -1 78 -34 c42 -18 133 -55 202 -80 68 -26
131 -55 140 -65 22 -25 21 -74 -3 -135 -11 -27 -30 -86 -42 -131 -30 -113 -50
-144 -95 -144 -25 0 -37 6 -46 23 -7 12 -25 38 -40 57 -15 19 -45 69 -67 110
-22 41 -98 148 -169 237 l-128 163 -42 0 c-24 0 -43 -3 -43 -6 0 -4 15 -25 33
-48 18 -23 53 -70 78 -105 24 -36 53 -74 64 -86 33 -34 65 -75 60 -75 -2 0 17
-35 44 -77 55 -90 136 -235 136 -245 0 -3 3 -10 8 -14 18 -19 0 -108 -32 -150
-9 -12 -23 -32 -31 -44 -8 -13 -25 -35 -36 -49 -12 -14 -33 -50 -48 -78 -22
-44 -31 -53 -53 -53 -14 0 -41 11 -60 26 -27 20 -33 32 -33 62 0 26 -8 45 -25
65 -30 32 -41 33 -68 10 -11 -10 -17 -12 -13 -5 4 6 3 12 -2 12 -6 0 -12 -7
-16 -15 -3 -8 -10 -15 -16 -15 -6 0 -8 6 -4 13 5 8 3 8 -9 -2 -9 -7 -15 -17
-12 -21 3 -5 -3 -7 -12 -5 -10 2 -18 4 -18 5 0 1 -13 4 -30 6 -34 6 -159 57
-293 120 -116 54 -132 56 -132 10 0 -33 18 -97 30 -106 7 -6 28 -75 32 -105 2
-11 6 -23 11 -26 9 -6 44 -120 61 -196 6 -28 15 -55 19 -59 4 -4 7 -20 7 -36
0 -15 5 -28 11 -28 7 0 10 -15 7 -39 -2 -22 0 -37 4 -35 5 3 8 -1 9 -8 0 -7 2
-20 5 -28 3 -13 18 -83 24 -115 5 -21 -1 -35 -13 -35 -11 0 -34 57 -40 101 -2
8 -5 19 -9 24 -3 6 -11 44 -18 85 -7 41 -18 90 -26 108 -7 17 -11 32 -8 32 2
0 -2 12 -9 28 -8 15 -12 33 -10 40 3 7 -4 32 -15 55 -11 24 -25 63 -32 87 -6
25 -19 56 -29 70 -9 14 -23 45 -31 70 -7 25 -16 50 -19 55 -3 6 -7 18 -8 28
-2 10 -13 32 -25 49 -48 67 -72 83 -228 148 -44 19 -140 77 -140 85 0 1 10 1
23 0 12 -1 33 3 47 10 37 19 96 68 95 80 -4 43 -30 122 -46 135 -3 3 -11 15
-18 28 -10 18 -14 20 -25 10 -8 -7 -12 -16 -10 -19 2 -3 -5 -15 -15 -26 -10
-11 -22 -30 -26 -44 -4 -13 -11 -28 -15 -34 -4 -5 -11 -23 -15 -40 -5 -16 -9
-33 -10 -37 -2 -5 -3 -19 -4 -32 -1 -21 -5 -23 -38 -19 -91 9 -141 33 -275
131 -73 53 -146 105 -161 115 -31 20 -222 84 -366 123 -106 29 -199 68 -250
108 l-35 26 -728 0 -728 0 0 -1153z m5884 1107 c98 -19 149 -36 255 -85 72
-34 93 -39 154 -39 82 0 230 -22 377 -56 88 -20 476 -140 489 -151 9 -7 -30
-171 -66 -280 -21 -62 -34 -115 -31 -118 3 -3 79 10 169 30 90 20 188 39 217
42 45 5 52 3 52 -12 0 -17 45 -210 414 -1799 l165 -710 -67 -69 c-73 -74 -168
-147 -256 -197 -31 -18 -54 -36 -51 -40 5 -8 -3 -7 -43 5 -15 5 -19 11 -13 19
5 6 11 32 14 59 3 26 9 52 13 59 6 10 11 97 17 333 l2 100 -35 2 -35 1 30 -8
c25 -7 21 -8 -25 -7 -30 0 -86 9 -125 19 -51 13 -77 16 -98 9 -15 -6 -34 -8
-42 -5 -8 4 -15 2 -15 -4 0 -6 -10 -8 -22 -4 -15 4 -19 2 -13 -7 5 -10 2 -11
-13 -7 -28 9 -34 -15 -22 -86 6 -33 9 -63 6 -66 -3 -3 -24 13 -45 36 l-39 41
-11 -30 c-6 -16 -15 -41 -21 -56 -5 -16 -12 -62 -14 -103 -5 -78 -28 -140 -51
-140 -14 0 -12 -6 -122 325 -101 301 -302 938 -341 1075 -5 19 -53 186 -107
370 -139 484 -156 548 -149 576 5 21 3 23 -12 17 -16 -6 -17 -5 -6 9 7 9 31
19 53 23 41 7 57 19 38 31 -8 4 -7 9 2 15 10 6 11 9 2 9 -7 0 -13 7 -13 15 0
8 -5 15 -11 15 -8 0 -7 6 2 18 7 9 10 14 6 11 -14 -12 -80 64 -82 93 0 3 -3 9
-6 13 -8 7 -11 -11 -49 -260 -63 -427 -147 -918 -216 -1270 -33 -170 -95 -467
-99 -472 -1 -2 -18 6 -38 16 -23 12 -71 21 -130 26 l-94 7 -11 33 c-8 21 -9
41 -3 56 5 13 10 29 11 34 2 6 9 24 16 42 12 28 44 209 44 248 0 18 -40 56
-52 49 -5 -3 -14 -1 -21 4 -7 6 -25 12 -42 15 -16 3 -43 10 -60 17 -21 8 -31
8 -33 0 -2 -5 -10 -16 -17 -23 -7 -7 -16 -32 -20 -56 -6 -34 -10 -41 -23 -36
-141 55 -345 105 -425 105 -52 0 -68 9 -62 34 4 17 224 1724 250 1939 15 119
107 186 292 211 108 15 188 12 307 -10z m-719 -2439 c35 -60 61 -111 60 -113
-2 -2 -26 9 -55 23 -56 28 -105 28 -160 0 l-26 -13 22 161 c12 89 22 164 23
166 1 7 64 -96 136 -224z m246 -365 c10 -6 19 -18 19 -28 1 -15 2 -15 13 -1
15 19 51 34 41 16 -10 -16 -47 -42 -57 -39 -12 4 -140 -200 -139 -223 0 -50
160 -345 186 -345 5 0 0 10 -12 23 -25 27 -28 37 -8 37 14 0 62 58 58 72 -1 4
2 8 7 8 14 0 86 113 84 130 -2 10 0 11 3 2 3 -6 11 -9 16 -6 7 5 8 2 3 -7 -5
-7 -10 -20 -11 -29 -5 -41 -14 -89 -22 -128 -6 -24 -9 -51 -7 -60 2 -9 4 -21
5 -27 0 -5 5 -2 11 8 5 9 7 22 3 29 -4 7 -3 8 4 4 7 -4 24 6 40 21 54 53 89
79 102 75 7 -3 10 0 6 7 -5 7 -1 9 8 5 11 -4 16 0 16 11 0 9 4 13 10 10 6 -3
7 1 4 9 -3 9 -2 16 3 16 6 0 16 25 23 56 8 31 22 67 33 81 l20 25 28 -53 c24
-43 29 -64 29 -119 0 -37 -4 -80 -9 -96 -5 -16 -13 -68 -16 -116 -4 -49 -11
-88 -16 -88 -6 0 -7 5 -3 12 4 7 3 8 -4 4 -8 -5 -9 -13 -2 -25 7 -15 6 -18 -6
-17 -25 2 -41 -29 -25 -48 7 -9 18 -13 23 -10 6 4 4 10 -6 16 -9 5 -16 14 -16
20 0 6 7 5 17 -3 11 -10 14 -10 9 -1 -4 6 -2 12 3 12 16 0 13 -36 -4 -50 -8
-7 -15 -20 -15 -29 0 -14 -2 -14 -10 -1 -8 13 -10 12 -10 -3 0 -10 -4 -16 -9
-13 -4 3 -6 -6 -3 -21 4 -19 2 -24 -8 -18 -9 6 -10 3 -1 -12 7 -15 7 -25 -3
-39 -9 -12 -11 -25 -6 -35 6 -10 4 -23 -5 -36 -8 -11 -11 -23 -8 -27 10 -10
12 -36 4 -36 -4 0 -8 -6 -8 -12 -1 -7 -2 -24 -4 -38 -1 -14 1 -36 5 -49 5 -14
4 -21 -1 -18 -5 4 -10 0 -10 -7 0 -8 6 -12 14 -9 17 7 17 4 -8 -63 -16 -42
-24 -53 -31 -43 -7 10 -8 4 -4 -19 3 -18 2 -31 -2 -28 -8 4 -12 -16 -12 -61 0
-13 -4 -23 -8 -23 -4 0 -7 -15 -8 -32 -1 -66 -8 -128 -14 -128 -3 0 -6 -9 -6
-20 0 -11 3 -20 7 -20 9 0 6 -20 -4 -37 -4 -6 -3 -14 3 -18 5 -3 10 -11 10
-16 0 -6 -6 -7 -12 -3 -9 5 -9 2 1 -9 7 -9 10 -17 7 -17 -4 0 2 -14 14 -30 12
-16 17 -30 11 -30 -6 0 -8 -7 -5 -15 6 -15 -30 -182 -49 -225 -6 -14 -11 -29
-12 -35 0 -5 -6 -9 -11 -8 -7 1 -11 -20 -12 -52 0 -29 -4 -68 -8 -87 -4 -18
-6 -44 -5 -57 2 -15 -1 -21 -8 -16 -15 9 -7 -41 10 -61 9 -12 9 -13 -3 -9 -12
5 -15 -1 -13 -25 1 -17 -4 -37 -11 -45 -18 -18 -18 -29 1 -21 8 3 14 2 14 -2
-4 -22 3 -31 19 -26 16 5 16 5 0 -5 -9 -6 -24 -26 -32 -43 -13 -25 -14 -33 -4
-40 7 -4 18 -6 23 -4 6 2 11 -5 11 -15 0 -13 -4 -15 -12 -8 -8 7 -15 6 -20 -2
-5 -8 -3 -9 5 -5 8 5 11 2 9 -9 -2 -11 6 -21 20 -26 20 -8 22 -6 17 10 -3 11
-1 22 4 26 7 4 8 -1 4 -11 -4 -12 -3 -15 5 -10 15 9 3 -26 -12 -36 -6 -4 -7
-10 -3 -14 3 -4 15 -1 24 7 16 13 17 12 4 -4 -9 -12 -10 -17 -2 -17 7 0 10 -4
7 -9 -8 -13 -36 -7 -47 10 -5 8 -9 9 -9 3 0 -8 -30 -6 -97 7 -120 22 -168 24
-98 3 28 -9 59 -24 70 -35 20 -20 20 -20 -5 -15 -257 57 -775 101 -872 73 -21
-5 -28 -3 -32 11 -5 16 40 391 89 737 24 164 35 192 130 304 55 66 90 118 104
155 24 64 29 158 8 151 -8 -4 -12 6 -13 29 0 19 -6 42 -13 50 -12 14 -16 14
-45 -1 -17 -9 -34 -21 -38 -27 -4 -6 -12 -11 -17 -11 -5 0 -19 -12 -30 -27
-12 -15 -31 -28 -44 -30 -18 -3 -22 -9 -21 -40 1 -21 -3 -38 -7 -38 -5 0 -9 8
-9 18 0 10 -5 23 -11 29 -10 10 -16 29 -19 63 -1 8 -8 -7 -17 -35 -8 -27 -18
-57 -21 -65 -3 -8 -5 -18 -4 -21 1 -7 -19 -10 -70 -10 -21 -1 -36 -5 -33 -9 3
-5 -3 -13 -12 -19 -10 -6 -12 -11 -5 -11 17 0 15 -20 -3 -20 -7 0 -19 8 -24
18 -13 22 -14 11 -1 -22 8 -23 7 -26 -11 -26 -16 0 -19 -4 -14 -21 6 -19 4
-21 -19 -17 -14 3 -23 2 -21 -2 7 -11 -43 -22 -58 -13 -7 4 -5 -2 3 -12 12
-15 12 -17 1 -10 -9 5 -18 2 -27 -10 -8 -11 -19 -15 -30 -11 -15 6 -15 4 -3
-11 12 -15 12 -16 -3 -10 -11 4 -17 2 -15 -6 1 -7 -10 -13 -25 -15 -16 -2 -28
-9 -28 -18 0 -8 -8 -14 -17 -15 -15 0 -15 -2 2 -9 19 -7 18 -9 -8 -19 -16 -6
-35 -11 -43 -11 -9 0 -12 -5 -8 -11 4 -8 -4 -9 -27 -4 -32 7 -33 6 -14 -9 11
-8 28 -16 38 -16 9 0 17 -4 17 -10 0 -5 -6 -8 -12 -6 -7 3 -40 7 -73 11 -55 5
-58 4 -40 -9 19 -14 17 -15 -20 -10 -30 4 -36 3 -25 -5 13 -9 12 -11 -6 -11
-12 0 -27 -7 -34 -15 -11 -13 -10 -15 6 -10 13 4 12 2 -3 -6 -13 -7 -23 -16
-23 -21 0 -5 -4 -6 -10 -3 -5 3 -10 -1 -10 -9 0 -10 26 -23 81 -41 44 -14 87
-25 95 -25 7 0 14 -4 14 -10 0 -5 8 -7 18 -3 13 4 14 3 6 -6 -6 -7 -38 -13
-70 -13 l-59 -1 40 -13 c22 -7 33 -13 25 -13 -12 -1 -12 -3 -2 -9 13 -9 -69
-32 -110 -32 -12 0 -18 -3 -15 -6 4 -4 -2 -15 -14 -25 -15 -12 -16 -19 -7 -23
7 -3 -8 -5 -34 -3 -25 1 -44 -2 -40 -7 3 -5 -5 -7 -16 -4 -14 4 -20 2 -15 -5
4 -7 0 -8 -13 -4 -18 7 -18 7 0 -8 23 -17 18 -19 -19 -5 -17 7 -24 7 -20 0 3
-6 1 -10 -4 -10 -6 0 -11 5 -11 10 0 7 -6 7 -20 0 -11 -6 -20 -17 -20 -25 0
-8 -7 -15 -16 -15 -9 0 -12 5 -8 13 5 8 2 8 -9 -2 -12 -9 -17 -10 -17 -2 0 7
-5 9 -10 6 -6 -4 -7 -11 -4 -17 5 -7 1 -7 -11 -1 -10 6 -26 8 -36 6 -11 -3
-19 0 -19 7 0 7 -8 19 -17 27 -10 8 -12 11 -4 7 9 -5 12 -3 7 4 -12 20 -29 13
-23 -8 3 -11 1 -22 -3 -25 -5 -3 -7 -14 -5 -25 2 -11 -1 -20 -7 -20 -5 0 -8 6
-5 13 3 7 -4 19 -15 26 -11 7 -17 8 -14 3 13 -22 -5 -40 -37 -36 -17 2 -36 -1
-43 -7 -7 -6 -18 -8 -23 -5 -6 4 -15 -3 -21 -14 -6 -11 -17 -20 -25 -20 -8 0
-15 -8 -16 -17 0 -12 -2 -13 -6 -5 -3 9 -14 4 -32 -17 -15 -17 -31 -28 -34
-24 -4 3 -7 -2 -8 -13 0 -10 -3 -13 -6 -7 -3 9 -10 10 -21 4 -12 -6 -24 -4
-37 5 -17 12 -22 11 -43 -9 -14 -12 -22 -17 -18 -10 4 7 0 28 -8 48 -19 44 -7
121 24 165 37 53 119 117 202 160 54 28 108 67 153 110 39 37 108 95 155 130
113 83 159 125 267 250 87 101 194 208 295 298 46 40 47 42 20 40 -15 -1 -51
11 -80 27 l-54 29 6 51 c3 27 6 53 6 57 0 3 16 25 35 48 39 47 40 35 -11 115
-9 14 -34 44 -55 67 -83 92 -86 124 -16 210 80 98 165 122 298 86 67 -19 75
-19 128 -4 34 9 125 18 228 22 146 6 173 9 177 23 3 9 10 54 16 101 17 130 16
129 63 150 74 34 381 149 400 150 10 0 27 -5 38 -10z m434 -1857 c-16 -39 -18
-56 -6 -49 6 4 20 4 31 1 15 -5 20 -15 19 -43 0 -32 -16 -91 -18 -69 -1 4 -11
2 -23 -4 -32 -17 -81 -17 -95 1 -30 38 -6 120 45 155 43 29 57 32 47 8z m1630
-817 c44 -14 107 -30 140 -36 33 -7 66 -17 72 -22 8 -7 29 -7 60 0 132 29 257
45 261 34 5 -16 38 -15 129 4 86 18 93 14 93 -48 0 -38 -15 -57 -31 -41 -7 7
-24 5 -49 -3 -22 -8 -65 -17 -96 -20 -52 -6 -58 -5 -74 16 -15 19 -21 22 -32
12 -8 -6 -24 -10 -36 -7 -12 2 -23 1 -26 -3 -6 -11 -76 -7 -125 7 -35 10 -50
10 -70 1 -47 -23 -127 -23 -186 -1 -29 11 -73 22 -98 25 -78 10 -122 28 -125
54 -2 13 5 33 15 44 21 24 53 21 178 -16z"/>
<path d="M6942 5578 c-7 -7 -12 -22 -12 -33 0 -12 -3 -25 -7 -29 -4 -4 -9 -19
-11 -34 -6 -49 -31 -122 -47 -138 -8 -9 -13 -20 -10 -25 4 -5 2 -9 -4 -9 -5 0
-13 -10 -17 -22 -9 -31 -50 -78 -59 -70 -5 4 -5 2 -2 -4 3 -6 -10 -25 -29 -43
-19 -19 -33 -35 -31 -38 3 -2 77 15 165 39 123 33 162 47 166 60 2 10 0 18 -4
18 -5 0 -7 9 -5 21 3 15 0 19 -10 15 -8 -3 -14 -2 -14 2 3 20 -2 32 -15 32
-11 0 -14 18 -12 88 2 48 7 108 11 135 7 45 7 47 -17 47 -13 0 -29 -5 -36 -12z"/>
<path d="M2848 5965 c-44 -47 -51 -78 -31 -137 8 -26 18 -48 22 -48 3 0 7 -12
8 -26 0 -15 5 -29 10 -33 4 -3 9 -15 11 -25 5 -24 32 -66 43 -66 5 0 9 -7 9
-16 0 -14 7 -15 42 -10 22 4 46 10 52 14 6 4 20 7 31 8 11 0 37 8 58 17 49 21
136 37 143 26 3 -5 9 -7 14 -4 4 3 27 -6 51 -19 24 -14 47 -22 51 -20 5 3 7 2
6 -3 -5 -14 93 -126 135 -156 l37 -27 -4 37 c-2 20 -11 42 -20 49 -10 7 -17
15 -16 19 4 15 -23 64 -33 58 -6 -4 -7 -1 -3 6 5 7 0 21 -11 33 -10 12 -12 18
-5 14 8 -5 12 0 12 13 0 10 -6 22 -12 24 -10 4 -10 6 0 6 6 1 12 7 12 15 0 8
-6 17 -12 19 -10 4 -9 6 1 6 11 1 11 4 1 16 -7 8 -9 15 -4 15 5 0 2 5 -6 10
-13 9 -13 10 0 10 13 0 13 2 1 9 -8 5 -14 23 -14 40 0 17 -4 31 -8 31 -4 0 -6
22 -6 49 1 27 -1 47 -5 44 -5 -2 -8 0 -8 6 0 5 8 15 18 20 12 7 -67 10 -260
11 l-276 0 -34 -35z"/>
</g>
</svg>
