<?xml version="1.0" standalone="no"?>
<!DOCTYPE svg PUBLIC "-//W3C//DTD SVG 20010904//EN"
 "http://www.w3.org/TR/2001/REC-SVG-20010904/DTD/svg10.dtd">
<svg version="1.0" xmlns="http://www.w3.org/2000/svg"
 width="750.000000pt" height="500.000000pt" viewBox="0 0 750.000000 500.000000"
 preserveAspectRatio="xMidYMid meet">
<metadata>
Created by potrace 1.16, written by Peter Selinger 2001-2019
</metadata>
<g transform="translate(0.000000,500.000000) scale(0.100000,-0.100000)"
fill="#000000" stroke="none">
<path d="M355 4903 c12 -194 23 -226 40 -108 4 29 16 62 29 78 20 25 27 28 60
22 20 -4 40 -15 45 -24 5 -9 14 -63 19 -120 6 -57 13 -105 15 -108 3 -2 8 51
11 119 4 68 9 149 12 181 l6 57 -32 0 c-20 0 -38 -7 -46 -17 -12 -17 -13 -17
-19 0 -6 14 -20 17 -77 17 l-69 0 6 -97z"/>
<path d="M1220 4995 c0 -4 7 -20 17 -38 12 -24 18 -77 24 -227 4 -107 8 -215
8 -239 1 -35 4 -42 13 -33 14 14 62 232 86 387 11 79 18 102 22 80 7 -38 18
-38 39 1 9 17 22 29 29 26 7 -2 12 6 12 22 l0 26 -125 0 c-69 0 -125 -2 -125
-5z"/>
<path d="M1504 4968 c4 -18 11 -58 15 -88 5 -30 9 -50 10 -44 2 19 53 32 116
30 l60 -1 24 -63 c24 -60 25 -62 37 -40 18 33 27 118 17 158 -7 27 -15 36 -39
41 -16 3 -43 13 -61 22 -22 12 -57 17 -109 17 l-76 0 6 -32z"/>
<path d="M2667 4951 c-3 -27 -15 -66 -26 -87 -23 -42 -26 -70 -12 -107 9 -23
17 -26 93 -32 46 -4 144 -2 218 4 150 11 212 4 244 -28 18 -19 21 -33 21 -111
0 -84 -2 -91 -27 -117 l-27 -26 -562 -3 c-356 -2 -566 -7 -572 -13 -6 -6 -6
-31 2 -72 17 -84 7 -153 -26 -179 -29 -23 -42 -24 -76 -9 -21 10 -25 20 -30
84 -4 40 -12 85 -18 101 l-11 29 -19 -42 c-24 -56 -56 -65 -117 -32 -39 20
-50 34 -80 97 -39 81 -67 106 -89 76 -18 -24 -17 -33 8 -79 17 -31 24 -67 30
-164 9 -134 22 -168 54 -141 13 11 19 10 34 -5 25 -22 32 -67 40 -235 l6 -135
27 -3 c35 -4 37 4 42 190 3 126 7 153 24 179 l20 31 38 -38 c33 -33 42 -52 58
-119 27 -118 39 -136 83 -133 30 2 40 -3 57 -26 56 -78 71 -85 156 -74 24 3
25 5 23 83 -4 154 -30 241 -101 334 -24 32 -24 36 -11 60 9 16 23 25 35 24 81
-9 182 -3 209 11 38 20 127 21 165 1 34 -18 39 -31 45 -126 3 -41 10 -101 16
-134 6 -33 14 -107 17 -165 l7 -105 40 -7 c22 -4 97 -7 167 -7 111 -1 128 1
136 17 5 9 12 154 15 321 6 295 7 305 29 338 17 25 29 33 48 31 l25 -3 -2
-255 -1 -255 39 3 c35 4 39 2 39 -19 0 -17 31 -55 95 -121 l95 -97 34 62 c19
34 42 80 51 102 39 95 121 247 145 269 14 12 49 37 78 54 64 39 104 41 198 8
67 -24 68 -25 30 -25 -83 -2 -205 -102 -263 -216 -20 -38 -50 -92 -68 -120
-17 -27 -57 -99 -89 -158 -49 -90 -68 -116 -119 -157 -33 -27 -64 -47 -67 -45
-4 3 -10 19 -14 37 -5 24 -33 59 -106 131 -83 82 -99 102 -94 121 6 25 -14 40
-40 30 -27 -11 -25 -35 9 -97 19 -34 37 -80 40 -102 6 -37 4 -41 -28 -62 -27
-17 -37 -32 -46 -70 -8 -31 -9 -58 -3 -73 10 -26 3 -62 -25 -137 -10 -29 -35
-59 -77 -95 -82 -71 -108 -97 -270 -278 -77 -85 -160 -173 -185 -195 -25 -22
-64 -59 -86 -82 -22 -22 -74 -69 -115 -103 -41 -34 -114 -99 -161 -145 -47
-46 -120 -107 -162 -135 -107 -72 -167 -154 -167 -229 0 -32 -3 -33 -95 -44
-20 -3 -15 -4 16 -6 34 -1 51 -7 68 -25 43 -46 22 -81 -132 -210 -25 -21 -54
-55 -63 -75 -10 -20 -24 -41 -33 -48 -14 -11 -14 -14 7 -28 25 -19 29 -45 6
-45 -8 0 -12 -5 -9 -10 4 -6 73 -10 174 -10 93 0 183 -3 201 -6 39 -8 58 -41
41 -73 -11 -20 -19 -21 -209 -23 l-197 -3 188 -2 c103 -2 187 -7 187 -11 0 -5
-9 -26 -19 -48 -22 -46 -20 -54 19 -54 16 0 30 -7 34 -16 6 -17 7 -17 -58 3
-13 4 -17 2 -14 -8 2 -8 17 -15 31 -17 19 -2 27 -9 27 -23 0 -10 -4 -19 -10
-19 -5 0 -9 5 -7 11 1 6 -4 14 -10 16 -9 3 -11 -4 -7 -26 10 -46 -13 -39 -27
9 -12 38 -34 68 -44 59 -2 -3 -7 -23 -11 -46 -5 -35 -3 -42 12 -46 15 -4 14
-5 -6 -7 -18 -2 -13 -5 18 -11 23 -4 49 -15 57 -23 8 -8 39 -20 69 -26 69 -14
124 -61 100 -84 -13 -14 -21 -13 -67 6 -128 52 -137 54 -147 38 -7 -12 -2 -17
23 -22 86 -20 130 -44 200 -107 18 -17 38 -25 55 -23 15 1 35 -4 45 -12 18
-14 18 -17 -12 -70 -25 -46 -28 -57 -15 -64 12 -7 12 -11 -3 -27 -10 -11 -29
-51 -42 -90 -31 -91 -46 -103 -86 -65 -37 35 -130 78 -168 78 -15 0 -48 5 -72
12 -53 15 -129 9 -153 -13 -11 -9 -30 -13 -52 -11 -32 4 -33 3 -12 -7 12 -7
22 -15 22 -19 0 -3 -10 -11 -22 -16 -13 -6 -17 -9 -11 -7 188 40 293 41 346 3
16 -13 27 -18 23 -11 -4 6 -4 11 1 11 17 0 93 -33 93 -41 0 -13 -42 -49 -57
-49 -7 0 -13 -6 -13 -14 0 -7 -24 -32 -53 -54 -30 -22 -60 -46 -68 -54 -8 -8
-31 -26 -51 -42 -21 -16 -35 -32 -32 -37 3 -5 -8 -9 -25 -9 -45 0 -49 19 -10
53 190 165 207 184 190 216 -14 25 -34 31 -113 36 -70 5 -102 -1 -92 -17 4 -7
0 -7 -13 0 -19 11 -82 -3 -100 -22 -4 -4 0 -4 10 0 29 11 19 -4 -13 -21 -20
-10 -42 -14 -64 -9 -19 3 -43 1 -53 -5 -16 -8 -25 -4 -51 23 -33 35 -214 130
-269 141 -37 7 -44 -7 -18 -41 22 -29 19 -57 -5 -49 -11 3 -24 4 -29 0 -18
-11 0 -32 47 -56 36 -18 43 -24 27 -27 -24 -5 -45 -22 -26 -22 7 0 10 -4 6
-10 -3 -5 -12 -7 -20 -3 -12 4 -15 -3 -15 -31 0 -20 5 -36 10 -36 6 0 10 -4
10 -10 0 -20 -29 -9 -32 12 -2 13 -11 24 -21 26 -15 3 -17 -1 -11 -22 4 -16 2
-26 -5 -26 -6 0 -11 -4 -11 -9 0 -11 39 -26 58 -23 6 2 12 -2 12 -8 0 -5 -9
-10 -20 -10 -25 0 -26 -16 -2 -22 9 -3 50 -6 91 -7 41 -1 80 -5 85 -9 16 -10
235 -12 316 -3 54 6 73 4 82 -6 13 -17 74 -15 177 4 41 7 89 13 105 13 17 0
49 3 71 6 22 4 81 7 130 6 438 -6 678 -12 780 -21 66 -6 145 -13 175 -16 77
-7 389 -7 400 0 6 3 96 8 202 11 131 4 199 9 213 18 11 7 33 16 49 20 15 4 35
13 42 21 8 8 28 12 50 10 l37 -4 -6 72 c-3 40 -7 81 -9 92 -2 14 3 20 18 21
12 1 26 4 32 8 6 3 13 2 17 -4 3 -5 14 -10 23 -10 15 0 15 2 2 10 -10 6 -11
10 -2 10 6 0 12 11 12 23 0 13 9 34 20 47 17 20 20 21 20 5 0 -14 3 -15 15 -5
16 14 35 6 35 -16 0 -8 9 -14 19 -14 14 0 21 -8 24 -27 2 -16 5 -4 6 25 0 29
6 52 12 52 6 0 8 -9 3 -22 -6 -19 -5 -21 8 -11 9 8 13 24 10 43 -3 19 0 30 8
30 7 0 10 7 6 15 -3 9 1 18 9 21 8 4 15 13 15 21 0 8 5 11 11 7 6 -3 15 -1 19
6 14 23 101 29 459 29 358 1 465 9 200 15 -79 2 -152 7 -163 11 -11 5 -26 3
-37 -4 -12 -7 -19 -7 -19 -1 0 13 -67 13 -75 0 -4 -6 -52 -9 -118 -8 l-112 2
85 6 85 6 -110 4 c-60 2 -119 4 -130 4 -11 1 -26 5 -33 9 -7 5 -22 5 -33 2
-19 -6 -20 -5 -9 15 18 34 64 47 225 63 156 16 674 16 780 0 49 -8 50 -9 53
-45 4 -44 0 -46 -133 -56 -108 -9 -124 -27 -24 -27 56 0 73 -4 83 -18 7 -9 19
-17 27 -17 11 0 11 -2 -1 -10 -12 -8 -10 -10 9 -10 24 0 24 0 5 -15 -12 -9
-15 -18 -9 -22 6 -5 10 -21 10 -38 0 -26 -4 -30 -25 -29 -14 1 -34 5 -44 9
-13 6 -17 5 -13 -2 4 -6 19 -14 33 -17 15 -4 33 -13 40 -21 12 -11 9 -14 -16
-20 -24 -5 -27 -9 -17 -20 10 -11 13 -11 20 1 15 26 24 14 21 -28 -2 -23 -9
-45 -16 -49 -8 -5 -5 -8 9 -6 15 1 23 10 27 30 3 16 3 33 0 38 -3 5 0 9 5 9
16 0 14 -90 -1 -91 -68 -7 -97 -6 -91 3 4 7 1 8 -7 3 -10 -6 -9 -11 5 -22 11
-7 24 -13 30 -13 5 0 16 -10 24 -21 11 -19 11 -21 -3 -16 -10 4 -13 1 -10 -7
9 -24 -15 -28 -38 -7 -21 20 -21 21 -2 22 10 0 -3 7 -30 15 -26 9 -51 13 -54
10 -3 -3 2 -6 11 -6 11 0 15 -6 11 -18 -5 -14 -4 -15 5 -2 9 13 11 13 11 -2 0
-9 -5 -20 -10 -23 -6 -4 -8 -11 -4 -16 4 -6 11 -6 19 1 8 7 15 7 19 1 3 -5 30
-12 58 -16 35 -5 73 -21 116 -47 60 -39 63 -42 60 -77 l-3 -36 -83 -6 c-45 -4
-185 -5 -310 -4 -128 1 -212 -2 -192 -6 19 -5 41 -6 48 -4 7 3 11 1 8 -3 -2
-4 112 -6 254 -5 223 2 261 1 274 -13 9 -8 16 -11 16 -5 0 12 152 16 164 4 9
-9 97 -4 116 8 9 5 -38 9 -121 9 -173 0 -170 -3 -144 123 4 21 2 27 -6 21 -7
-4 -9 -3 -6 3 7 11 65 12 82 1 16 -9 198 -6 183 3 -9 6 -4 9 14 9 14 0 28 -4
30 -10 4 -11 48 -2 48 11 0 5 -6 6 -14 3 -8 -3 -17 -1 -21 5 -3 6 -1 11 6 11
18 0 79 67 79 87 0 18 20 56 20 38 0 -5 19 11 42 35 26 27 37 45 30 48 -9 3
-6 10 9 23 15 13 20 25 15 43 -3 14 -2 27 3 30 10 6 -13 61 -30 71 -5 4 -9 10
-9 15 0 15 32 -2 55 -28 21 -24 22 -24 40 -6 17 17 17 19 2 22 -23 5 -21 18 3
35 11 8 17 17 12 21 -4 5 7 7 23 6 46 -3 57 -1 50 10 -4 7 65 10 199 10 131 0
206 4 206 10 0 6 -8 10 -18 10 -27 0 -49 46 -35 70 7 10 9 21 6 24 -15 14 -21
3 -19 -35 0 -23 -3 -43 -9 -45 -5 -2 -93 -5 -195 -7 -180 -3 -184 -3 -134 12
53 17 164 103 164 128 0 8 -7 25 -16 38 -13 20 -14 28 -4 40 19 23 30 18 30
-14 0 -17 5 -33 10 -36 11 -7 12 -1 14 55 1 31 8 40 56 72 146 100 224 150
248 160 79 31 91 47 51 68 -16 9 -18 14 -8 26 6 8 7 14 2 14 -15 0 -91 80
-124 131 -16 26 -33 65 -37 88 l-7 41 -113 -69 -113 -68 -92 22 c-147 36 -187
48 -187 60 0 5 14 30 31 55 43 64 69 116 69 139 0 11 5 32 11 48 l11 28 14
-34 c8 -18 14 -41 14 -51 0 -9 8 -24 18 -33 16 -15 17 -12 20 36 8 124 8 132
-13 149 -18 16 -18 17 -2 18 9 0 17 -5 17 -10 0 -7 52 -10 143 -9 78 0 189 -2
247 -5 58 -3 139 -5 180 -5 60 0 73 -2 63 -12 -7 -7 -13 -17 -13 -23 0 -5 6
-1 14 9 11 16 18 17 37 9 13 -6 41 -9 62 -6 36 4 37 3 37 -29 0 -26 -3 -30
-12 -21 -18 18 -33 15 -17 -4 9 -11 23 -14 46 -11 18 3 33 2 33 -3 0 -5 8 -11
18 -13 15 -4 15 -6 -3 -12 -12 -3 -26 -15 -33 -26 -15 -23 -6 -25 16 -3 12 12
17 13 20 4 6 -17 -12 -32 -42 -33 -14 -1 -28 -8 -31 -14 -2 -7 -21 -13 -41
-13 -67 0 -30 -10 44 -12 40 -1 72 -5 72 -10 0 -4 -7 -8 -15 -8 -34 0 -41 -89
-6 -91 11 0 10 -3 -5 -9 -16 -6 -20 -15 -17 -32 4 -20 1 -23 -19 -22 -13 1
-31 5 -42 9 -17 7 -35 -7 -36 -28 0 -10 356 -4 366 6 5 4 4 11 -2 15 -30 19
-20 132 11 132 12 0 15 -17 15 -80 l0 -80 33 -1 c27 0 29 -2 12 -9 -11 -5 -39
-9 -62 -9 -39 -1 -43 -3 -43 -26 0 -14 -4 -25 -10 -25 -5 0 -9 -3 -9 -8 3 -18
-3 -20 -33 -12 -20 6 -36 6 -43 0 -8 -6 -91 -10 -209 -9 -182 1 -218 -2 -204
-16 3 -3 101 -7 217 -7 116 -1 211 -5 211 -10 0 -4 -15 -8 -34 -8 -39 0 -51
-23 -30 -61 10 -18 13 -20 14 -7 0 9 9 20 20 23 12 4 17 11 14 18 -4 7 -3 9 1
4 5 -4 17 1 27 10 11 10 19 13 18 8 -5 -23 1 -46 9 -40 9 5 31 -24 31 -39 0
-17 -28 -2 -38 19 -10 22 -14 24 -32 13 -12 -7 -24 -26 -27 -41 -3 -16 -9 -25
-12 -20 -3 4 -14 14 -24 22 -15 12 -17 12 -11 -3 8 -22 -5 -88 -16 -81 -6 3
-7 -1 -4 -10 4 -9 0 -23 -8 -33 -23 -27 -30 -54 -16 -63 10 -6 7 -13 -10 -29
-29 -27 -28 -33 11 -69 28 -28 39 -31 97 -32 36 -1 104 -3 153 -5 l87 -3 0
327 c0 246 -3 331 -12 340 -10 10 -10 17 0 32 16 25 16 241 0 237 -20 -4 -41
55 -44 121 -3 56 -1 62 16 62 12 0 20 7 21 18 1 9 5 4 9 -13 5 -18 8 25 9 113
1 90 -3 142 -9 142 -6 0 -19 -15 -30 -32 l-20 -33 0 450 c1 465 6 537 42 584
15 19 18 42 18 121 0 122 -7 161 -32 167 -21 6 -23 19 -4 30 11 7 10 36 -4
178 -20 203 -19 231 4 227 13 -2 16 6 16 38 0 22 5 40 10 40 6 0 10 92 10 258
l-1 257 -47 54 c-26 30 -67 75 -92 100 -25 25 -83 89 -130 141 -47 52 -87 95
-91 95 -3 0 -37 -27 -75 -61 -38 -33 -100 -87 -139 -119 -38 -32 -92 -78 -119
-102 -26 -24 -52 -43 -57 -43 -11 0 -100 -93 -94 -98 2 -3 16 4 31 14 15 11
35 24 45 30 10 6 27 18 36 26 19 16 66 31 58 19 -2 -5 -30 -28 -62 -52 -32
-24 -66 -51 -75 -60 -16 -16 -49 -41 -228 -173 -35 -26 -78 -55 -95 -63 -16
-8 -43 -28 -60 -44 -16 -15 -55 -45 -86 -66 -91 -61 -217 -154 -270 -200 -27
-24 -53 -43 -58 -43 -4 0 -22 -13 -39 -28 -31 -28 -32 -31 -23 -76 5 -26 16
-55 25 -65 9 -10 16 -21 16 -25 0 -14 64 -86 77 -86 27 0 13 52 -27 97 -45 51
-47 59 -24 91 16 24 43 30 45 10 0 -7 2 -24 3 -38 1 -14 3 -38 4 -54 3 -49 32
-12 32 41 0 59 47 150 67 130 10 -10 9 -122 -1 -154 -6 -20 -6 -40 0 -53 8
-18 12 -19 27 -8 13 10 18 35 24 121 4 72 12 119 23 140 23 43 44 41 48 -3 4
-54 12 -81 22 -75 5 3 13 -3 19 -12 17 -29 32 3 30 62 -1 28 3 63 9 78 7 16
12 34 12 40 1 18 29 51 37 43 4 -4 6 -39 5 -79 -2 -101 6 -157 23 -157 24 0
35 -35 41 -140 5 -70 10 -97 16 -86 5 9 17 132 27 274 13 184 22 266 33 287 9
17 19 45 23 63 3 17 11 32 16 32 18 0 22 -55 10 -144 -6 -50 -14 -160 -18
-244 -5 -127 -4 -155 8 -163 8 -5 17 -9 22 -9 4 0 7 51 8 113 0 153 8 190 39
197 24 6 25 10 28 83 2 66 1 76 -13 71 -9 -4 -15 -1 -15 9 0 8 8 14 17 13 11
-1 19 9 23 29 8 36 28 75 38 75 13 0 32 -134 32 -220 0 -44 3 -80 8 -80 4 0
16 13 27 30 11 16 23 26 27 22 8 -8 -4 -221 -22 -392 -5 -52 -10 -114 -10
-138 0 -40 2 -43 23 -36 12 3 24 8 26 10 2 1 5 101 7 221 2 120 8 315 12 433
l9 215 34 69 c19 38 39 68 44 67 6 -1 10 -114 9 -319 -2 -364 11 -365 20 -2 7
276 24 392 25 172 1 -127 11 -162 26 -92 7 33 37 55 61 46 9 -3 13 -9 11 -13
-2 -5 -1 -53 3 -108 6 -88 7 -75 9 100 1 217 7 275 26 275 7 0 18 29 26 67 11
54 18 69 34 72 11 2 23 8 28 15 15 23 24 -18 30 -142 4 -70 7 -204 7 -299 0
-139 -3 -174 -15 -187 -8 -8 -15 -19 -15 -24 0 -4 -11 -19 -25 -32 -30 -28
-34 -84 -8 -99 16 -8 16 -12 0 -47 -32 -76 -34 -264 -2 -264 7 0 18 -6 25 -14
15 -20 40 -9 41 18 1 17 2 16 9 -7 5 -15 12 -142 16 -282 l7 -254 -27 -35
c-14 -19 -26 -40 -26 -47 0 -7 -12 -28 -27 -48 -27 -35 -28 -39 -30 -186 -2
-82 -5 -210 -8 -284 l-4 -134 -33 -2 -33 -2 3 139 c2 76 0 138 -5 138 -5 0
-14 -14 -20 -31 -11 -27 -15 -30 -28 -19 -8 7 -15 24 -16 39 -1 34 -23 94 -36
98 -18 6 -63 -82 -63 -124 0 -50 9 -60 45 -58 17 1 34 -1 40 -4 5 -3 23 -4 39
-2 l29 3 -6 -53 c-12 -96 -77 -158 -121 -113 -19 18 -36 11 -36 -16 0 -23 -20
-30 -65 -23 -43 7 -54 21 -30 39 15 11 16 19 7 56 -5 24 -8 69 -5 100 6 64 -2
109 -18 105 -6 -1 -16 13 -22 32 -23 66 -47 43 -47 -45 0 -68 10 -102 32 -108
18 -4 20 -11 16 -53 -5 -52 -27 -107 -43 -108 -5 0 -17 20 -27 45 -10 28 -17
37 -17 24 -1 -33 -22 -85 -32 -78 -5 3 -9 28 -9 56 0 40 -5 57 -22 76 -20 21
-23 33 -21 95 2 70 1 71 -14 43 -12 -22 -17 -26 -24 -15 -5 8 -9 24 -9 37 0
12 -6 22 -14 22 -17 0 -26 -31 -26 -96 0 -42 4 -55 29 -78 28 -27 28 -28 15
-74 -19 -60 -30 -71 -48 -46 -14 18 -15 18 -25 -8 -9 -23 -17 -28 -45 -28
l-35 0 5 53 c3 28 10 85 15 125 9 77 7 92 -15 92 -8 0 -16 14 -19 30 -9 41
-25 38 -33 -6 -10 -52 2 -113 25 -135 25 -23 24 -14 5 -78 -14 -49 -18 -53
-41 -48 -19 3 -27 0 -30 -13 -6 -23 -22 -29 -55 -23 -25 5 -26 7 -21 64 6 66
-10 83 -22 22 -9 -51 -22 -73 -43 -73 -10 0 -23 -5 -28 -10 -19 -19 -44 0 -44
34 0 18 -7 41 -15 52 -13 18 -14 18 -21 -13 -6 -32 -79 -102 -92 -89 -3 4 -7
58 -8 121 -2 63 -6 120 -9 125 -15 25 -26 -8 -25 -73 2 -120 1 -125 -31 -159
-19 -21 -32 -29 -35 -21 -4 9 -15 9 -44 -3 -38 -15 -41 -15 -72 8 -18 12 -42
28 -53 33 -22 11 -32 46 -34 114 l-1 44 -37 -6 c-21 -2 -49 -1 -63 3 -17 5
-19 8 -7 9 20 1 21 5 5 31 -14 22 -1 113 26 173 17 38 16 39 -4 44 -24 6 -26
19 -5 27 8 3 15 12 15 21 0 8 7 15 15 15 11 0 13 -8 8 -31 l-6 -31 27 17 c21
14 26 25 26 56 0 21 4 41 10 44 16 10 50 134 50 181 0 32 4 44 15 44 28 0 64
23 69 46 3 12 15 26 26 29 14 5 19 12 15 24 -5 15 41 88 59 94 3 1 22 -11 41
-26 20 -16 41 -27 47 -25 7 3 11 29 9 74 -1 39 3 100 9 136 l12 66 -42 64
c-22 34 -43 74 -46 88 -3 14 -12 39 -20 55 -7 17 -21 56 -30 88 -9 33 -24 63
-35 70 -24 15 -25 37 -1 37 9 0 32 13 49 29 18 16 87 68 154 117 124 91 318
242 354 276 11 10 35 29 54 41 46 30 61 54 41 67 -27 17 -56 11 -68 -14 -12
-27 -69 -41 -89 -22 -6 6 -15 57 -21 113 -8 86 -13 106 -34 132 -22 25 -26 40
-25 88 0 32 -5 68 -11 80 -7 12 -9 35 -6 52 4 17 3 46 0 66 l-7 35 -833 0
-833 0 -6 -186 c-6 -191 -4 -214 18 -214 24 0 37 -30 75 -177 21 -81 45 -168
52 -193 l14 -45 45 3 c39 2 71 10 219 54 19 6 42 16 50 23 8 7 47 30 85 50
l70 37 110 -7 c61 -4 115 -12 120 -17 7 -7 0 -8 -21 -3 -32 6 -32 6 -39 -45
-5 -35 -13 -55 -28 -65 -12 -8 -16 -15 -10 -15 7 0 10 -7 7 -15 -7 -18 -44
-20 -44 -2 0 7 13 26 29 41 34 32 43 67 24 85 -16 15 -15 16 -31 -21 -6 -16
-19 -28 -28 -28 -13 0 -14 3 -4 15 7 8 9 15 6 15 -4 0 -2 9 4 20 11 20 -3 30
-15 10 -3 -5 -12 -7 -20 -3 -10 3 -15 -1 -15 -15 0 -18 -4 -20 -30 -12 -27 8
-30 7 -25 -9 4 -13 -8 -27 -47 -54 -29 -21 -48 -37 -43 -38 6 -1 19 -2 30 -3
11 -1 32 -3 46 -4 17 -1 30 -11 37 -27 7 -15 20 -25 32 -25 11 0 20 -4 20 -9
0 -5 2 -16 5 -23 9 -22 -68 -39 -101 -22 -14 8 -41 14 -59 14 -39 0 -49 17
-26 44 15 18 15 18 -7 7 -19 -10 -31 -10 -61 2 -27 11 -48 13 -81 6 -25 -5
-67 -13 -95 -19 -27 -5 -66 -14 -85 -20 -39 -11 -113 -14 -123 -3 -4 3 0 17 9
31 8 13 14 25 12 27 -5 4 -261 -31 -279 -39 -15 -7 -17 6 -15 124 1 127 0 132
-23 151 -36 29 -46 23 -17 -12 22 -26 26 -40 25 -92 -1 -49 -3 -56 -8 -31 -10
42 -19 54 -39 54 -10 0 -33 8 -52 18 -25 13 -55 17 -105 16 -38 -1 -75 2 -81
7 -7 6 -20 2 -37 -11 -29 -23 -75 -26 -83 -5 -3 8 -14 17 -25 20 -10 4 -19 13
-19 21 0 10 14 14 53 14 75 0 141 22 145 48 2 11 -6 30 -17 41 -10 10 -17 22
-14 24 2 3 -5 11 -17 17 -15 8 -35 9 -68 1 -26 -5 -48 -8 -50 -7 -9 10 14 36
40 45 27 9 30 14 25 39 -9 44 5 55 73 60 102 7 182 -38 202 -115 6 -24 14 -43
18 -43 4 0 8 110 9 245 l2 245 -774 0 -774 0 -6 -49z m4730 -350 c21 -28 22
-34 20 -486 -2 -357 -5 -459 -14 -462 -20 -7 -18 -210 2 -229 20 -20 20 -122
0 -148 -19 -26 -19 -80 0 -96 17 -14 21 -95 5 -105 -5 -3 -10 -40 -10 -81 0
-43 4 -74 10 -74 6 0 10 -9 10 -20 0 -11 -4 -20 -10 -20 -15 0 -13 -236 2
-260 10 -15 10 -22 0 -32 -18 -18 -16 -335 3 -368 22 -39 19 -50 -14 -46 -49
5 -56 -6 -36 -59 10 -25 27 -57 37 -70 15 -19 17 -31 10 -57 -8 -32 -9 -30
-47 67 l-39 100 3 270 c2 168 7 275 13 283 7 8 7 16 -1 26 -14 16 -20 312 -23
1081 -2 308 1 566 5 573 7 10 12 10 23 1 12 -10 14 7 14 115 0 69 4 126 8 126
5 0 18 -13 29 -29z m-129 -273 c-4 -45 -11 -139 -17 -208 -6 -69 -17 -190 -26
-270 -8 -80 -16 -165 -17 -190 -3 -110 -16 157 -17 372 -1 215 1 242 19 288
11 28 20 61 20 74 0 29 9 37 29 27 14 -8 15 -21 9 -93z m-2534 -470 c37 -136
51 -168 74 -168 10 0 27 -9 36 -19 16 -18 43 -115 53 -191 5 -40 22 -80 35
-80 4 0 38 18 75 41 l66 41 18 -24 c20 -24 20 -23 -28 -56 -78 -53 -131 -82
-150 -82 -27 0 -45 -28 -32 -51 8 -16 12 -16 38 -3 16 8 34 21 41 29 7 8 21
15 31 15 10 0 20 4 23 9 7 11 90 52 112 55 8 1 19 9 24 16 16 26 22 2 9 -39
-8 -28 -26 -53 -57 -78 -29 -24 -53 -56 -69 -92 -31 -68 -53 -139 -53 -167 0
-12 -12 -47 -26 -78 l-26 -57 27 -67 c33 -82 42 -109 59 -189 l13 -61 -56 -4
c-31 -2 -76 0 -101 4 -25 4 -85 7 -135 8 -90 0 -90 1 -112 32 -13 18 -19 35
-15 38 24 16 84 115 112 183 53 129 32 174 -90 184 -61 5 -76 10 -100 35 -16
15 -36 28 -45 28 -23 0 -52 -17 -58 -34 -5 -13 -1 -13 20 -5 18 7 30 6 37 -1
7 -7 5 -10 -6 -10 -24 0 -42 -28 -48 -76 -3 -25 -9 -46 -15 -47 -17 -4 -24 65
-9 112 7 25 12 46 11 47 -1 1 -47 -5 -102 -12 -125 -17 -183 -18 -168 -3 5 5
52 34 104 63 67 38 95 59 97 74 4 23 -9 23 218 7 l60 -4 -48 95 c-27 52 -47
98 -44 103 3 5 58 12 121 16 137 9 129 -10 85 215 -34 179 -57 325 -53 337 11
28 21 10 47 -89z m2564 -556 c-2 -283 0 -393 8 -403 13 -16 17 -199 4 -199 -4
0 -13 14 -20 30 -7 17 -16 30 -20 30 -12 0 -30 -91 -31 -158 l-2 -57 -8 60
c-11 80 -18 702 -10 837 5 93 9 110 29 128 14 14 22 16 23 8 1 -30 18 31 18
70 1 23 4 42 7 42 3 0 4 -175 2 -388z m-3465 86 c9 8 11 -4 9 -48 -3 -53 -7
-61 -35 -83 -18 -13 -59 -36 -92 -52 -33 -15 -68 -32 -79 -37 -21 -11 -24 -18
52 107 67 109 86 129 114 114 13 -7 23 -7 31 -1z m193 2 c16 0 24 -6 24 -17 0
-15 9 -18 57 -17 35 0 58 5 61 12 7 23 41 12 57 -18 18 -35 19 -70 4 -104 -12
-26 -119 -116 -138 -116 -5 0 -29 22 -53 50 -34 40 -47 48 -65 44 -24 -6 -33
11 -10 19 9 3 6 15 -10 44 -24 42 -28 69 -17 98 5 13 14 15 37 11 16 -3 40 -6
53 -6z m1247 -190 c7 -6 24 -19 40 -31 21 -16 27 -29 27 -59 0 -43 -22 -59
-49 -37 -9 7 -39 23 -67 36 -31 14 -56 33 -63 47 -10 22 -8 25 22 38 39 17 74
20 90 6z m-106 -268 c21 -44 56 -52 89 -21 18 17 39 24 67 26 77 3 131 -34 84
-58 -12 -6 -33 -21 -47 -33 -36 -32 -92 -49 -123 -37 -14 5 -37 26 -52 45 -31
40 -50 47 -40 15 7 -21 5 -22 -46 -15 -68 9 -71 12 -64 47 6 25 4 28 -11 22
-16 -6 -17 -5 -4 9 11 11 20 13 32 7 13 -7 22 -3 39 20 19 25 24 28 41 18 10
-7 26 -27 35 -45z m-1054 -121 c10 -11 8 -12 -9 -7 -20 6 -21 4 -13 -36 4 -24
8 -50 9 -58 0 -11 5 -10 18 5 18 23 51 39 53 27 1 -4 3 -26 4 -49 3 -39 1 -43
-20 -43 -26 0 -41 -36 -23 -57 7 -9 7 -13 0 -13 -6 0 -14 9 -17 21 -5 14 -13
19 -26 16 -11 -3 -19 0 -19 8 0 7 -7 18 -15 25 -12 10 -15 9 -15 -5 0 -14 -6
-16 -29 -12 -15 3 -33 1 -39 -5 -8 -8 -13 -7 -18 6 -4 11 0 22 12 31 18 13 18
14 -6 24 -18 7 -20 10 -7 10 10 1 17 9 17 20 0 24 25 45 42 35 8 -5 6 3 -4 19
-23 33 -23 43 -1 26 13 -11 17 -11 20 -1 3 6 13 12 24 12 10 0 19 4 19 9 0 13
28 7 43 -8z m105 -33 c9 -9 12 -9 12 1 0 8 12 11 38 8 49 -6 72 -16 72 -33 0
-7 6 -11 13 -9 6 3 19 1 27 -5 13 -8 12 -11 -4 -23 -18 -13 -18 -14 7 -21 33
-8 35 -34 5 -45 -15 -6 -36 -3 -62 7 -30 12 -41 13 -44 4 -2 -7 -8 -10 -13 -6
-5 3 -2 12 6 20 18 19 19 34 3 34 -21 1 -102 80 -81 80 5 0 14 -5 21 -12z
m-14 -304 c9 -3 16 -13 16 -22 0 -12 3 -13 12 -4 8 8 15 8 23 2 8 -7 24 -5 48
5 l37 15 15 -37 c36 -85 85 -245 85 -275 0 -25 -10 -43 -45 -78 -39 -40 -46
-54 -52 -99 l-6 -53 -80 -39 c-45 -21 -87 -39 -94 -39 -27 0 -12 37 25 58 87
51 87 51 75 161 -8 74 -21 124 -53 205 -40 101 -58 182 -38 170 4 -3 8 4 8 15
0 23 1 24 24 15z m-184 -23 c0 -6 -4 -13 -10 -16 -19 -12 -10 -25 18 -25 15 0
22 -4 16 -8 -7 -4 -11 -23 -10 -42 1 -40 -16 -53 -24 -18 -3 13 -9 18 -12 12
-14 -22 4 -52 35 -59 18 -4 26 -9 20 -12 -7 -2 -13 -11 -13 -19 0 -8 -5 -14
-10 -14 -6 0 -8 -11 -4 -25 9 -35 -15 -41 -66 -16 l-42 20 5 -32 c5 -33 -7
-67 -23 -67 -6 0 -10 6 -10 14 0 7 -9 16 -21 19 -17 5 -19 9 -9 26 8 16 8 27
-1 43 -9 16 -9 23 0 26 20 7 13 42 -10 42 -29 0 -14 17 21 25 21 5 30 12 28
23 -2 13 4 17 25 17 29 -1 33 5 17 21 -15 15 -1 44 21 44 10 0 19 7 19 15 0 8
9 15 20 15 11 0 20 -4 20 -9z m2065 -173 c3 -13 6 -48 8 -78 3 -59 5 -56 34
35 17 56 20 60 51 63 59 6 64 -6 61 -150 -2 -70 0 -130 4 -134 3 -4 13 -4 22
0 13 5 15 17 11 72 -4 44 0 87 10 129 13 53 21 65 44 75 52 21 68 7 76 -66 3
-37 4 -88 1 -114 -8 -64 0 -92 26 -88 19 3 20 11 22 110 3 136 14 158 80 158
59 0 65 -16 65 -161 0 -102 1 -109 20 -109 25 0 36 39 22 78 -7 20 -4 47 10
102 11 41 21 77 24 79 10 10 134 5 145 -6 9 -9 12 -49 10 -133 l-2 -120 35 0
36 0 0 68 c0 37 3 90 6 118 6 48 8 51 45 61 49 13 49 12 49 -138 l0 -119 34 0
c43 0 52 14 31 46 -20 31 -26 157 -7 175 10 10 12 1 12 -47 1 -32 7 -84 14
-114 l12 -55 103 -3 c62 -2 99 -6 96 -12 -3 -6 -26 -10 -51 -10 -32 0 -44 -4
-44 -15 0 -11 -11 -15 -40 -15 -22 0 -40 -4 -40 -10 0 -14 -26 -13 -50 3 -17
10 -22 9 -29 -1 -6 -10 -14 -10 -43 2 -23 10 -38 12 -45 5 -6 -6 -21 -11 -34
-13 -14 -1 -30 -6 -37 -10 -7 -4 -12 -2 -12 5 0 9 -4 9 -15 -1 -8 -6 -18 -9
-24 -6 -5 3 -21 2 -35 -4 -14 -5 -27 -6 -30 -2 -3 4 -37 5 -76 1 -39 -3 -95
-4 -123 -2 -29 2 -90 5 -137 7 -47 1 -97 6 -112 10 -17 5 -28 4 -28 -2 0 -5
-19 -10 -42 -11 -24 -1 -62 -3 -86 -5 -50 -4 -51 -3 -146 103 l-67 74 7 56 c3
31 14 75 25 99 17 39 20 42 58 42 34 0 41 -4 46 -22z m-1280 -71 c-11 -27 -11
-42 0 -90 15 -65 6 -178 -19 -225 -8 -15 -22 -57 -31 -92 -9 -36 -22 -82 -30
-103 -20 -50 -19 -52 13 -31 86 57 253 99 556 139 131 17 187 12 247 -26 25
-16 54 -29 64 -29 67 0 333 -106 343 -137 4 -15 -30 -32 -130 -68 -71 -24 -82
-26 -132 -15 -55 11 -86 36 -86 68 0 20 -30 47 -38 35 -4 -6 -72 -13 -167 -15
-165 -6 -208 -13 -514 -92 -159 -41 -261 -104 -261 -161 0 -36 -59 -217 -77
-237 -9 -10 -55 -30 -102 -44 -47 -14 -110 -34 -139 -45 -29 -10 -65 -19 -81
-19 -25 0 -30 6 -59 83 -76 202 -85 237 -69 255 8 9 34 53 57 97 152 291 194
355 319 491 71 76 97 97 126 97 16 0 33 11 50 32 13 18 40 43 60 55 19 12 35
27 35 33 0 12 60 77 71 77 5 0 2 -15 -6 -33z m-1169 -164 c82 -32 99 -42 112
-69 31 -66 -12 -83 -98 -39 -49 25 -54 32 -51 66 2 20 -42 33 -67 20 -9 -5
-28 -21 -41 -35 -14 -14 -34 -26 -47 -26 -22 0 -48 -22 -38 -32 3 -4 -9 -9
-26 -13 -30 -7 -31 -8 -28 -53 3 -42 1 -47 -19 -50 -41 -6 -54 70 -13 83 20 6
55 78 46 94 -13 21 -36 12 -36 -14 0 -31 -3 -31 -42 -2 -22 16 -32 18 -35 9
-3 -6 -8 -10 -13 -7 -13 8 -63 -17 -83 -42 -10 -13 -26 -23 -35 -23 -12 0 -22
-18 -35 -60 -9 -33 -26 -69 -36 -79 -10 -10 -21 -25 -24 -32 -3 -8 -6 -4 -6 9
-1 20 23 106 50 179 5 13 32 35 60 50 29 16 63 38 76 50 29 28 142 50 255 52
67 1 91 -4 174 -36z m-1153 -80 c35 -126 43 -324 14 -306 -6 4 -8 0 -5 -9 4
-9 -16 -45 -50 -91 -32 -42 -68 -95 -82 -118 -14 -23 -30 -47 -35 -53 -6 -6
-18 -22 -27 -36 -10 -14 -31 -43 -47 -65 -16 -22 -39 -58 -51 -80 -12 -22 -31
-49 -41 -61 -13 -13 -17 -27 -13 -39 6 -15 3 -17 -18 -13 -22 4 -26 2 -22 -15
2 -11 10 -27 19 -37 21 -23 19 -39 -5 -33 -12 3 -20 0 -20 -6 0 -16 -49 20
-50 36 0 6 -17 17 -37 24 l-38 13 30 6 30 6 -38 13 c-20 7 -35 16 -32 21 3 5
-2 16 -11 24 -14 15 -11 16 36 16 45 0 51 2 46 18 -4 12 3 30 19 48 14 16 25
34 25 40 0 6 11 23 24 37 14 15 28 37 32 49 3 13 17 43 30 68 13 25 24 52 24
61 0 8 13 35 28 60 59 92 67 105 88 144 12 22 29 63 39 90 10 28 24 57 30 65
7 8 15 22 19 30 19 42 67 110 76 110 5 0 11 -8 13 -17z m3163 -1286 c2 -85 11
-125 33 -151 10 -12 11 -16 2 -11 -10 6 -12 1 -6 -26 5 -19 9 -43 11 -54 2
-11 6 -36 9 -55 l7 -35 -51 -2 c-28 0 -51 2 -52 5 -9 78 -7 153 6 205 22 84
23 94 24 156 1 79 16 52 17 -32z"/>
<path d="M4336 4838 c-11 -306 -11 -631 -1 -635 6 -1 21 39 33 90 28 108 27
103 11 144 -11 26 -11 59 0 175 8 91 10 189 5 266 -6 107 -9 122 -24 122 -16
0 -18 -17 -24 -162z"/>
<path d="M6838 3814 c-14 -16 -15 -28 -7 -84 23 -160 23 -177 -1 -183 -22 -6
-22 -9 -16 -69 10 -85 8 -264 -4 -313 -12 -51 -13 -115 -1 -115 5 0 12 -12 16
-27 15 -61 23 9 27 237 l4 235 28 50 c16 28 34 56 41 63 9 11 10 24 0 65 -16
67 -41 127 -54 127 -5 0 -11 7 -13 16 -3 14 -5 14 -20 -2z"/>
<path d="M348 3738 c-11 -31 14 -78 68 -124 58 -49 86 -96 78 -130 -2 -10 1
-26 6 -34 10 -13 13 -13 23 4 7 10 21 30 33 45 12 14 24 42 28 61 5 32 2 40
-26 67 -18 18 -46 35 -63 39 -16 4 -49 24 -72 45 -44 40 -68 48 -75 27z"/>
<path d="M6633 3585 c-12 -99 -17 -634 -7 -595 13 45 28 408 24 545 l-5 160
-12 -110z"/>
<path d="M178 1991 c-30 -5 -36 -9 -28 -21 17 -27 11 -30 -70 -30 l-80 0 0
-42 0 -43 60 3 c57 4 62 2 91 -30 24 -25 31 -41 30 -68 0 -19 -1 -68 -1 -109
0 -40 -5 -81 -10 -91 -7 -13 -6 -20 2 -22 7 -3 9 -12 5 -22 -4 -9 -11 -14 -17
-11 -15 9 -12 -8 4 -31 14 -18 15 -18 21 -1 7 17 8 17 21 0 10 -15 15 -16 26
-5 9 9 12 39 10 104 l-3 90 25 -6 c31 -8 33 4 6 29 -11 10 -17 22 -14 26 3 5
0 9 -5 9 -6 0 -11 5 -11 11 0 5 5 7 10 4 6 -3 13 2 17 12 3 10 14 25 25 33 16
13 17 20 9 44 -16 40 -14 46 17 47 24 0 25 1 7 10 -16 8 -15 9 10 5 17 -2 48
-1 70 3 22 3 65 1 95 -5 35 -7 59 -8 67 -2 7 6 18 8 25 5 9 -4 7 -6 -4 -6 -15
-1 -15 -4 -2 -31 9 -16 20 -30 26 -30 7 0 7 4 -1 13 -8 10 -7 17 1 25 17 17
26 15 33 -8 4 -11 10 -18 14 -15 4 2 14 -6 21 -19 7 -14 20 -26 29 -29 21 -5
43 17 35 37 -4 10 4 16 25 21 17 4 31 13 31 21 0 10 -14 14 -55 14 -32 0 -55
4 -55 10 0 14 500 12 518 -2 6 -6 12 -27 12 -47 0 -44 14 -71 24 -46 3 9 3 28
0 41 -5 19 -3 23 10 18 10 -4 16 -1 16 9 0 11 14 18 45 23 54 8 63 34 12 34
-18 0 -37 4 -42 9 -17 16 -75 17 -84 2 -7 -11 -43 -12 -202 -6 -107 4 -284 7
-394 6 -110 -1 -237 1 -282 5 -80 6 -82 6 -88 35 -4 16 -10 28 -13 28 -4 -1
-24 -5 -44 -8z"/>
<path d="M0 1175 l0 -265 315 0 c313 0 315 0 303 20 -7 11 -14 16 -16 10 -2
-6 -8 -8 -13 -4 -5 3 -9 0 -9 -5 0 -6 -5 -11 -10 -11 -6 0 -8 12 -5 28 5 23 4
24 -4 6 -12 -28 -33 -35 -70 -24 -16 4 -59 11 -95 15 -36 4 -71 14 -77 21 -17
21 -31 17 -24 -6 3 -11 2 -20 -4 -20 -17 0 -41 30 -41 51 0 11 -5 17 -10 14
-6 -4 -8 -11 -5 -16 4 -5 1 -9 -4 -9 -6 0 -11 4 -11 9 0 5 -8 7 -19 4 -10 -2
-25 2 -33 11 -9 8 -18 12 -22 9 -3 -4 -6 -1 -6 6 0 17 -80 101 -97 101 -12 0
-14 19 -12 96 2 52 6 97 10 99 6 5 54 7 423 21 98 3 172 10 165 14 -6 5 -138
6 -291 4 -244 -4 -279 -3 -284 11 -3 8 -15 15 -26 15 -17 0 -20 5 -14 30 3 17
1 30 -4 30 -6 0 -10 -100 -10 -265z"/>
<path d="M370 871 c0 -4 -16 -16 -35 -27 -30 -16 -33 -20 -18 -26 11 -5 5 -6
-12 -2 -16 4 -37 7 -45 8 -8 0 -18 6 -22 11 -4 6 -8 2 -8 -8 0 -15 -7 -18 -32
-17 -18 1 -53 1 -78 0 l-45 -3 45 -7 c42 -7 40 -7 -25 -8 -44 -1 -76 3 -83 10
-9 9 -12 4 -12 -26 0 -24 4 -35 11 -31 19 12 151 17 144 6 -3 -7 0 -8 9 -5 12
4 16 0 16 -15 0 -12 7 -24 15 -28 19 -7 34 5 19 15 -6 4 -14 15 -17 26 -6 15
-3 17 13 13 11 -3 20 -1 20 4 0 6 19 7 48 3 26 -4 83 -7 128 -6 69 0 82 -2 92
-19 12 -19 12 -19 -17 -4 -37 19 -45 19 -38 1 4 -10 -1 -12 -16 -9 -23 5 -43
11 -54 15 -3 2 -7 -5 -9 -15 -2 -14 2 -18 17 -14 10 3 16 1 13 -4 -3 -5 1 -12
9 -15 8 -3 17 -14 20 -25 5 -18 37 -28 37 -10 0 4 10 7 23 6 32 -4 33 -4 17
-15 -12 -7 -8 -11 18 -16 35 -7 48 -19 32 -29 -5 -3 -10 -2 -10 4 0 5 -7 8
-15 7 -17 -2 -33 -16 -18 -16 5 0 10 -14 10 -30 0 -23 -4 -29 -14 -25 -8 3
-22 5 -30 5 -11 0 -14 7 -9 26 5 17 3 23 -4 19 -6 -4 -10 4 -10 19 0 14 -4 26
-10 26 -5 0 -7 -16 -4 -37 10 -74 10 -78 -11 -79 -23 0 -76 -22 -57 -23 6 -1
12 -6 12 -11 0 -7 -6 -7 -20 0 -14 8 -20 8 -20 0 0 -21 30 -22 63 -1 30 18 49
21 140 20 l105 -1 12 -42 c6 -22 14 -47 17 -54 3 -8 -3 -6 -16 4 -11 10 -21
25 -21 32 0 12 -3 12 -15 2 -13 -10 -19 -10 -33 2 -11 11 -24 13 -37 8 -11 -5
-14 -9 -7 -9 6 -1 12 -5 12 -11 0 -5 -7 -7 -15 -4 -8 4 -17 -1 -21 -10 -6 -15
-7 -15 -19 0 -7 11 -14 13 -18 6 -6 -9 -27 -8 -65 4 -9 3 -5 12 13 28 15 14
22 27 16 31 -20 12 -49 -14 -55 -50 -4 -21 -13 -35 -21 -35 -8 0 -15 -7 -15
-15 0 -23 -15 -18 -30 10 -10 19 -16 22 -22 13 -5 -9 -10 -10 -15 -2 -15 20
-73 38 -73 22 0 -6 7 -8 14 -5 9 4 17 -2 21 -15 8 -23 -9 -47 -19 -29 -4 6 -4
11 1 11 4 0 -5 7 -21 15 -36 19 -35 19 -29 -5 6 -22 -22 -30 -29 -8 -3 7 -12
6 -31 -6 -24 -16 -28 -17 -42 -2 -19 19 -35 21 -35 5 0 -7 -10 -5 -25 5 l-25
16 0 -56 0 -56 103 5 c56 2 113 8 126 12 17 6 22 5 17 -3 -5 -9 62 -11 269 -8
153 3 280 7 283 10 3 3 -11 6 -31 6 -29 0 -37 4 -37 18 0 13 7 18 23 18 18 -1
23 6 27 34 3 19 11 36 18 38 15 3 15 -13 0 -38 -7 -10 -8 -23 -4 -27 5 -4 11
-3 13 4 2 7 12 9 21 6 14 -4 14 -3 3 5 -11 8 -12 20 -4 61 6 28 6 51 2 51 -5
0 -9 9 -9 20 0 11 -6 20 -14 20 -25 0 -28 20 -5 28 19 7 20 10 6 15 -10 4 -14
13 -11 22 3 8 2 15 -3 15 -5 0 -15 16 -21 35 -9 24 -17 32 -29 28 -12 -5 -14
-1 -8 15 5 19 2 22 -19 22 -44 0 -28 20 17 21 23 1 34 3 23 6 -22 6 -116 -8
-98 -14 6 -3 12 -12 12 -20 0 -14 -2 -14 -18 0 -10 10 -26 17 -34 17 -9 0 -19
6 -21 13 -4 10 -6 10 -6 0 -1 -15 -41 -18 -41 -4 0 5 -9 7 -20 4 -13 -4 -20 0
-20 10 0 12 13 14 64 13 49 -1 62 -4 58 -15 -4 -11 -1 -11 19 0 14 7 57 13
101 13 43 1 78 3 78 6 0 6 22 7 230 10 l145 3 -135 7 c-74 4 -137 8 -139 9 -2
0 2 8 9 16 10 12 10 15 -4 15 -9 0 -16 -4 -16 -10 0 -5 -7 -7 -15 -4 -21 8
-19 26 3 22 9 -2 17 3 17 10 0 6 -3 11 -6 10 -3 -2 -12 2 -20 8 -17 14 -40 11
-87 -12 -39 -19 -78 -19 -100 -2 -6 6 -55 10 -107 10 -52 0 -95 4 -95 8 0 5
-31 9 -70 9 -38 0 -70 -4 -70 -8z"/>
<path d="M7403 873 c-39 -3 -53 -8 -53 -19 0 -12 -11 -14 -57 -10 -57 5 -52
-5 10 -18 15 -4 27 -12 27 -20 0 -10 -26 -12 -124 -9 -71 2 -127 -1 -130 -6
-8 -13 47 -24 82 -17 15 3 52 0 82 -8 30 -8 46 -15 35 -16 -18 -1 -17 -2 5
-11 20 -8 22 -12 10 -19 -11 -7 -8 -10 13 -10 18 0 26 4 21 11 -3 6 0 15 7 20
10 6 7 9 -11 9 -22 1 -23 2 -7 11 9 6 26 7 37 4 18 -6 19 -8 4 -22 -15 -15
-13 -18 18 -37 40 -24 43 -53 10 -89 -12 -13 -19 -26 -16 -30 4 -3 -3 -4 -15
-2 -11 3 -31 7 -42 10 -12 2 -37 -2 -56 -10 -29 -12 -35 -12 -39 0 -3 7 -12
16 -20 19 -12 5 -12 2 -3 -15 6 -12 9 -29 6 -39 -4 -18 -3 -18 37 -1 29 13 51
15 76 10 19 -5 43 -6 52 -3 14 4 16 1 11 -11 -5 -14 -15 -16 -51 -12 -25 3
-58 0 -75 -5 -25 -9 -28 -14 -23 -40 3 -17 2 -27 -4 -23 -5 3 -7 -11 -4 -32 4
-35 3 -34 -9 9 -8 26 -19 53 -25 61 -7 8 -9 17 -5 21 4 4 -1 4 -11 0 -11 -4
-14 -9 -6 -14 6 -3 8 -14 5 -22 -8 -19 -45 -12 -45 8 0 8 -4 14 -10 14 -5 0
-10 -6 -10 -12 0 -9 -3 -8 -10 2 -5 8 -12 11 -16 8 -3 -4 -15 3 -25 15 -17 22
-18 22 -12 -21 5 -36 3 -42 -11 -36 -12 5 -15 2 -10 -11 4 -10 14 -15 25 -12
11 3 19 0 19 -8 0 -8 -9 -11 -25 -7 -15 2 -25 0 -25 -7 0 -9 35 -16 43 -9 1 2
16 -7 34 -20 35 -24 53 -28 53 -10 0 7 5 6 13 -4 16 -20 45 -30 52 -18 4 6 15
10 26 10 11 0 18 -4 15 -9 -3 -5 7 -9 22 -10 15 0 58 -2 95 -3 38 -2 71 -8 75
-15 4 -6 20 -15 35 -18 l27 -7 0 286 0 286 -22 -2 c-13 -1 -47 -3 -75 -5z"/>
<path d="M894 759 c-3 -6 -12 -8 -20 -5 -8 3 -14 1 -14 -4 0 -6 7 -10 15 -10
12 0 15 -15 15 -75 0 -69 -2 -76 -22 -85 l-23 -9 23 0 c19 -1 22 -6 21 -38 -1
-34 -2 -35 -9 -13 l-8 25 -1 -27 c-1 -16 4 -28 9 -28 6 0 10 -9 10 -20 0 -11
-7 -20 -15 -20 -8 0 -15 -7 -15 -15 0 -9 -6 -12 -15 -9 -8 4 -15 1 -15 -5 0
-6 7 -11 15 -11 18 0 18 -5 5 -31 -7 -12 -7 -19 -1 -19 6 0 8 -7 4 -17 -5 -14
-8 -13 -14 5 -5 12 -13 22 -18 22 -15 0 -26 -23 -13 -28 7 -2 10 -7 7 -12 -9
-15 91 -22 135 -10 l43 12 -26 24 c-25 23 -32 50 -30 112 1 6 -6 12 -15 12
-13 0 -13 2 1 18 10 11 13 23 8 31 -7 11 -9 11 -14 0 -4 -10 -6 -9 -6 4 -1 9
4 17 9 17 6 0 10 5 10 11 0 5 -5 7 -11 3 -7 -4 -9 0 -5 14 4 11 2 23 -4 27 -5
3 -10 40 -10 83 1 68 2 74 14 54 10 -19 15 -21 23 -10 8 9 8 16 -1 23 -17 15
-34 16 -42 4z"/>
<path d="M0 154 c0 -50 5 -85 12 -93 11 -11 11 -14 0 -18 -6 -3 -12 -13 -12
-24 0 -18 13 -19 370 -18 319 0 370 2 370 14 0 8 5 15 11 15 7 0 9 12 5 35
l-7 35 78 0 c73 1 359 9 466 14 26 1 47 -1 47 -4 0 -3 46 -4 102 -2 57 1 190
-1 296 -5 105 -4 192 -5 192 0 0 4 52 7 117 7 64 0 114 2 111 5 -3 3 -55 6
-116 7 -93 0 -112 3 -115 17 -4 14 -5 13 -6 -1 -1 -21 24 -20 -296 -16 -132 1
-330 3 -440 4 -433 2 -420 1 -433 29 -7 14 -12 34 -12 44 0 31 -30 34 -69 7
-61 -41 -151 -54 -205 -31 -13 6 -29 3 -47 -7 -22 -13 -34 -14 -68 -5 -32 9
-46 8 -61 -1 -17 -10 -20 -10 -20 4 0 12 -9 15 -38 13 -21 -2 -43 0 -50 5 -7
4 -16 5 -21 1 -5 -3 -12 -1 -16 5 -3 5 -16 9 -28 8 -12 0 -30 3 -40 7 -13 5
-17 3 -15 -6 5 -25 -36 -15 -49 11 -11 22 -13 16 -13 -56z"/>
<path d="M6781 148 c-8 -9 -57 -13 -164 -14 -558 -2 -727 -5 -727 -11 0 -5
202 -7 450 -5 l450 3 0 -60 c0 -58 1 -61 25 -61 28 0 29 3 14 32 -8 16 -8 19
2 16 7 -2 24 7 38 20 14 13 37 29 51 34 15 7 132 10 303 9 l277 -2 0 26 c0 25
-2 26 -42 20 -24 -3 -179 -8 -345 -12 -226 -4 -303 -3 -303 5 0 16 -13 15 -29
0z"/>
</g>
</svg>
